<?xml version="1.0" encoding="UTF-8"?>
<!DOCTYPE svg PUBLIC "-//W3C//DTD SVG 1.1//EN" "http://www.w3.org/Graphics/SVG/1.1/DTD/svg11.dtd">
<svg xmlns="http://www.w3.org/2000/svg" version="1.1" width="512px" height="512px" style="shape-rendering:geometricPrecision; text-rendering:geometricPrecision; image-rendering:optimizeQuality; fill-rule:evenodd; clip-rule:evenodd" xmlns:xlink="http://www.w3.org/1999/xlink">
<g><path style="opacity:1" fill="#443ea8" d="M 43.5,-0.5 C 184.5,-0.5 325.5,-0.5 466.5,-0.5C 490.054,5.38664 505.054,20.0533 511.5,43.5C 511.5,184.5 511.5,325.5 511.5,466.5C 505.613,490.054 490.947,505.054 467.5,511.5C 326.5,511.5 185.5,511.5 44.5,511.5C 20.9464,505.613 5.94638,490.947 -0.5,467.5C -0.5,326.5 -0.5,185.5 -0.5,44.5C 5.38664,20.9464 20.0533,5.94638 43.5,-0.5 Z"/></g>
<g><path style="opacity:1" fill="#f9f9f9" d="M 265.5,414.5 C 263.833,414.5 262.167,414.5 260.5,414.5C 260.5,411.833 260.5,409.167 260.5,406.5C 269.25,405.648 277.917,403.814 286.5,401C 290.244,397.676 291.911,393.509 291.5,388.5C 291.064,383.021 289.897,377.687 288,372.5C 278.47,346.91 269.136,321.243 260,295.5C 229.566,294.172 199.066,294.172 168.5,295.5C 159.435,316.528 152.269,338.194 147,360.5C 145.927,370.311 146.594,379.978 149,389.5C 151.962,395.792 156.795,399.959 163.5,402C 171.086,404.632 178.753,406.132 186.5,406.5C 186.5,409.167 186.5,411.833 186.5,414.5C 183.167,414.5 179.833,414.5 176.5,414.5C 148.83,413.292 121.163,413.292 93.5,414.5C 93.5,411.5 93.5,408.5 93.5,405.5C 100.69,404.162 106.856,400.829 112,395.5C 119.509,386.495 125.509,376.495 130,365.5C 164.863,276.579 199.529,187.579 234,98.5C 236.041,97.2478 238.375,96.5812 241,96.5C 254.857,97.3716 268.69,97.705 282.5,97.5C 318.944,190.722 355.111,284.055 391,377.5C 394.502,387.692 400.335,396.192 408.5,403C 411.206,404.908 414.206,405.741 417.5,405.5C 417.5,408.5 417.5,411.5 417.5,414.5C 366.832,413.251 316.166,413.251 265.5,414.5 Z"/></g>
<g><path style="opacity:1" fill="#453fa8" d="M 214.5,174.5 C 215.75,174.577 216.583,175.244 217,176.5C 230.037,212.736 243.204,248.902 256.5,285C 228.494,285.833 200.494,285.667 172.5,284.5C 186.703,247.888 200.703,211.221 214.5,174.5 Z"/></g>
<g><path style="opacity:1" fill="#9c95d1" d="M 260.5,406.5 C 260.5,409.167 260.5,411.833 260.5,414.5C 262.167,414.5 263.833,414.5 265.5,414.5C 263.735,415.461 261.735,415.795 259.5,415.5C 259.19,412.287 259.523,409.287 260.5,406.5 Z"/></g>
<g><path style="opacity:1" fill="#9a95cf" d="M 186.5,406.5 C 187.477,409.287 187.81,412.287 187.5,415.5C 183.629,415.815 179.962,415.482 176.5,414.5C 179.833,414.5 183.167,414.5 186.5,414.5C 186.5,411.833 186.5,409.167 186.5,406.5 Z"/></g>
</svg>
