<?xml version="1.0" encoding="UTF-8"?>
<svg id="logosandtypes_com" data-name="logosandtypes com" xmlns="http://www.w3.org/2000/svg" viewBox="0 0 150 150">
  <defs>
    <style>
      .cls-1 {
        fill: none;
      }
    </style>
  </defs>
  <g id="Layer_3" data-name="Layer 3">
    <g id="Layer_3-2" data-name="Layer 3-2">
      <g id="Layer_2" data-name="Layer 2">
        <path id="Layer_3-3" data-name="Layer 3-3" class="cls-1" d="M0,0H150V150H0V0Z"/>
      </g>
    </g>
  </g>
  <path d="M141.71,96.93l-11.34-18.15s-.04-.08-.07-.11l-.89-1.43c-1.67-2.7-4.62-4.34-7.79-4.33l-18.27-.06-1.27,2.05-21.83,34.92-1.21,1.93,9.15,14.6c1.69,2.72,4.6,4.34,7.82,4.34h25.6c3.16,0,6.14-1.66,7.81-4.33l.9-1.44s.04-.04,.05-.05l11.35-18.17c1.86-2.99,1.86-6.78,0-9.77h-.01Zm-3.46,7.6l-11.36,18.17c-.05,.09-.11,.15-.16,.23-.57,.63-1.54,.69-2.17,.12-.11-.1-.21-.22-.29-.35l-11.35-18.18c-.26-.41-.45-.85-.59-1.31-.4-1.39-.19-2.88,.57-4.1l11.34-18.15,.03-.05c.27-.41,.61-.59,.9-.65,.12-.04,.22-.05,.3-.06h.13c.26,0,.91,.08,1.32,.74l11.34,18.15c1.04,1.65,1.04,3.78,0,5.43,0,0-.01,0-.01,0Zm-30.09-51.51c1.86-2.99,1.86-6.78,0-9.77l-11.34-18.15-.95-1.53c-1.68-2.7-4.64-4.34-7.82-4.33h-25.6c-3.19,0-6.11,1.63-7.81,4.33L8.81,96.95c-1.88,2.98-1.88,6.78,0,9.76l12.29,19.68c1.67,2.7,4.63,4.34,7.81,4.33h25.6c3.21,0,6.13-1.63,7.82-4.33l.94-1.49v-.05s9.15-14.61,9.15-14.61l27.08-43.34,8.65-13.86h.02Zm-2.68-4.89c0,.93-.26,1.88-.79,2.71L59.8,122.71c-.28,.45-.78,.73-1.31,.72-.53,0-1.03-.27-1.32-.72l-11.34-18.18c-1.03-1.66-1.03-3.76,0-5.43L90.71,27.27c.28-.46,.78-.74,1.32-.74,.26,0,.91,.08,1.32,.74l11.34,18.15c.53,.84,.79,1.78,.79,2.72Z"/>
</svg>