<?xml version="1.0" encoding="UTF-8"?>
<!DOCTYPE svg PUBLIC "-//W3C//DTD SVG 1.1//EN" "http://www.w3.org/Graphics/SVG/1.1/DTD/svg11.dtd">
<svg xmlns="http://www.w3.org/2000/svg" version="1.1" width="256px" height="256px" style="shape-rendering:geometricPrecision; text-rendering:geometricPrecision; image-rendering:optimizeQuality; fill-rule:evenodd; clip-rule:evenodd" xmlns:xlink="http://www.w3.org/1999/xlink">
<g><path style="opacity:1" fill="#1257d4" d="M -0.5,-0.5 C 84.8333,-0.5 170.167,-0.5 255.5,-0.5C 255.5,84.8333 255.5,170.167 255.5,255.5C 170.167,255.5 84.8333,255.5 -0.5,255.5C -0.5,170.167 -0.5,84.8333 -0.5,-0.5 Z"/></g>
<g><path style="opacity:1" fill="#f3f5f9" d="M 122.5,64.5 C 154.819,61.8949 175.986,75.8949 186,106.5C 186.497,109.146 186.664,111.813 186.5,114.5C 209.32,121.502 218.82,136.835 215,160.5C 210.525,176.641 200.025,186.141 183.5,189C 147.5,189.667 111.5,189.667 75.5,189C 47.5603,180.026 35.3936,160.859 39,131.5C 45.4228,109.077 60.2562,96.9103 83.5,95C 91.7554,78.5638 104.755,68.3971 122.5,64.5 Z"/></g>
<g><path style="opacity:1" fill="#1557d4" d="M 123.5,74.5 C 146.774,71.6361 163.608,80.6361 174,101.5C 176.868,108.216 178.035,115.216 177.5,122.5C 196.903,125.063 206.403,136.063 206,155.5C 203.633,165.753 197.799,173.253 188.5,178C 151.227,179.648 113.893,179.981 76.5,179C 54.4068,171.223 45.2401,155.723 49,132.5C 56.6318,111.761 71.4651,102.928 93.5,106C 107.569,111.311 112.069,121.145 107,135.5C 103.317,142.832 97.3166,146.499 89,146.5C 85.1951,145.501 81.3618,145.001 77.5,145C 74.6589,148.646 75.3255,151.646 79.5,154C 97.1844,158.575 109.351,152.408 116,135.5C 120.272,118.213 114.438,105.713 98.5,98C 97.2068,97.51 95.8734,97.3433 94.5,97.5C 100.565,85.2997 110.232,77.633 123.5,74.5 Z"/></g>
</svg>
