<?xml version="1.0" encoding="UTF-8"?>
<!DOCTYPE svg PUBLIC "-//W3C//DTD SVG 1.1//EN" "http://www.w3.org/Graphics/SVG/1.1/DTD/svg11.dtd">
<svg xmlns="http://www.w3.org/2000/svg" version="1.1" width="1000px" height="1000px" style="shape-rendering:geometricPrecision; text-rendering:geometricPrecision; image-rendering:optimizeQuality; fill-rule:evenodd; clip-rule:evenodd" xmlns:xlink="http://www.w3.org/1999/xlink">
<g><path style="opacity:1" fill="#06966a" d="M 467.5,-0.5 C 488.833,-0.5 510.167,-0.5 531.5,-0.5C 685.604,12.784 809.438,80.4507 903,202.5C 959.996,281.643 992.163,369.976 999.5,467.5C 999.5,488.833 999.5,510.167 999.5,531.5C 986.216,685.604 918.549,809.438 796.5,903C 717.357,959.996 629.024,992.163 531.5,999.5C 510.167,999.5 488.833,999.5 467.5,999.5C 313.396,986.216 189.562,918.549 96,796.5C 39.0041,717.357 6.8374,629.024 -0.5,531.5C -0.5,510.167 -0.5,488.833 -0.5,467.5C 12.784,313.396 80.4507,189.562 202.5,96C 281.643,39.0041 369.976,6.8374 467.5,-0.5 Z"/></g>
<g><path style="opacity:1" fill="#f9f9f9" d="M 315.5,169.5 C 405.501,169.333 495.501,169.5 585.5,170C 620.92,173.087 652.586,185.421 680.5,207C 714.065,237.473 731.065,275.473 731.5,321C 732.398,366.841 716.732,405.841 684.5,438C 757.39,486.295 788.89,554.128 779,641.5C 766.297,704.85 732.464,753.35 677.5,787C 634.874,811.874 588.874,825.874 539.5,829C 464.834,829.5 390.167,829.667 315.5,829.5C 315.5,609.5 315.5,389.5 315.5,169.5 Z"/></g>
<g><path style="opacity:1" fill="#07966a" d="M 405.5,255.5 C 458.834,255.333 512.168,255.5 565.5,256C 614.24,262.066 637.74,289.566 636,338.5C 630.474,365.725 616.308,387.225 593.5,403C 571.391,417.888 547.725,429.888 522.5,439C 493.134,447.421 464.801,458.421 437.5,472C 425.644,478.187 415.978,486.854 408.5,498C 407.552,498.483 406.552,498.649 405.5,498.5C 405.5,417.5 405.5,336.5 405.5,255.5 Z"/></g>
<g><path style="opacity:1" fill="#07966a" d="M 613.5,487.5 C 616.016,487.755 618.35,488.589 620.5,490C 661.606,517.196 683.606,555.529 686.5,605C 683.691,654.304 661.025,691.304 618.5,716C 590.433,731.243 560.433,740.243 528.5,743C 487.501,743.5 446.501,743.667 405.5,743.5C 405.049,704.139 405.549,664.806 407,625.5C 418.283,587.211 442.116,559.711 478.5,543C 516.714,529.726 554.38,515.059 591.5,499C 599.052,495.392 606.386,491.559 613.5,487.5 Z"/></g>
</svg>
