<?xml version="1.0" encoding="UTF-8"?>
<!DOCTYPE svg PUBLIC "-//W3C//DTD SVG 1.1//EN" "http://www.w3.org/Graphics/SVG/1.1/DTD/svg11.dtd">
<svg xmlns="http://www.w3.org/2000/svg" version="1.1" width="600px" height="600px" style="shape-rendering:geometricPrecision; text-rendering:geometricPrecision; image-rendering:optimizeQuality; fill-rule:evenodd; clip-rule:evenodd" xmlns:xlink="http://www.w3.org/1999/xlink">
<g><path style="opacity:1" fill="#f9f9f9" d="M -0.5,-0.5 C 199.5,-0.5 399.5,-0.5 599.5,-0.5C 599.5,199.5 599.5,399.5 599.5,599.5C 399.5,599.5 199.5,599.5 -0.5,599.5C -0.5,399.5 -0.5,199.5 -0.5,-0.5 Z"/></g>
<g><path style="opacity:1" fill="#6a9cfa" d="M 224.5,127.5 C 211.484,127.367 198.484,127.701 185.5,128.5C 192.939,126.978 200.606,126.311 208.5,126.5C 214.011,126.501 219.344,126.834 224.5,127.5 Z"/></g>
<g><path style="opacity:1" fill="#327df9" d="M 224.5,127.5 C 240.457,129.191 256.123,132.358 271.5,137C 281.088,140.46 290.088,144.96 298.5,150.5C 248.012,179.771 218.678,223.438 210.5,281.5C 209.521,284.625 209.187,287.958 209.5,291.5C 208.501,351.331 208.168,411.331 208.5,471.5C 204.167,471.5 199.833,471.5 195.5,471.5C 135.192,466.276 88.3591,438.609 55,388.5C 21.8539,330.498 21.1872,272.165 53,213.5C 84.2285,165.123 128.395,136.79 185.5,128.5C 198.484,127.701 211.484,127.367 224.5,127.5 Z"/></g>
<g><path style="opacity:1" fill="#f96444" d="M 389.5,126.5 C 389.667,188.501 389.5,250.501 389,312.5C 381.852,372.777 352.352,418.443 300.5,449.5C 280.467,459.233 259.467,466.066 237.5,470C 231.183,470.765 224.849,471.265 218.5,471.5C 215.833,471.5 213.167,471.5 210.5,471.5C 210.5,408.167 210.5,344.833 210.5,281.5C 218.678,223.438 248.012,179.771 298.5,150.5C 326.68,134.591 357.013,126.591 389.5,126.5 Z"/></g>
<g><path style="opacity:1" fill="#fad92b" d="M 389.5,126.5 C 465.1,129.19 520.267,163.857 555,230.5C 576.572,282.756 573.906,333.756 547,383.5C 512.57,437.864 463.07,467.364 398.5,472C 363.486,474.234 330.82,466.734 300.5,449.5C 352.352,418.443 381.852,372.777 389,312.5C 389.5,250.501 389.667,188.501 389.5,126.5 Z"/></g>
<g><path style="opacity:1" fill="#4d78e2" d="M 209.5,291.5 C 209.5,351.833 209.5,412.167 209.5,472.5C 204.637,472.819 199.97,472.486 195.5,471.5C 199.833,471.5 204.167,471.5 208.5,471.5C 208.168,411.331 208.501,351.331 209.5,291.5 Z"/></g>
<g><path style="opacity:1" fill="#df655a" d="M 210.5,281.5 C 210.5,344.833 210.5,408.167 210.5,471.5C 213.167,471.5 215.833,471.5 218.5,471.5C 215.713,472.477 212.713,472.81 209.5,472.5C 209.5,412.167 209.5,351.833 209.5,291.5C 209.187,287.958 209.521,284.625 210.5,281.5 Z"/></g>
</svg>
