<!-- created by svgstack.com | Attribution is required. --><svg width="215" height="216" viewBox="0 0 215 216" fill="none" xmlns="http://www.w3.org/2000/svg"><g filter="url(#filter0_f_104_685)"><path d="M152.139 204.75H62.3785L58.7145 204.721C43.5582 204.474 37.5296 202.628 31.4554 199.366C24.9139 195.853 19.7801 190.698 16.2817 184.13L15.5571 182.718C12.6431 176.808 11.0459 170.285 10.9273 154.96L10.9202 62.9471C10.9202 44.9795 12.7832 38.4641 16.2817 31.8956C19.7801 25.3271 24.9139 20.172 31.4554 16.6591L32.8605 15.9315C38.7465 13.0055 45.2428 11.4016 60.5048 11.2825L152.139 11.2754C170.032 11.2754 176.52 13.1462 183.062 16.6591C189.603 20.172 194.737 25.3271 198.235 31.8956L198.96 33.3065C201.874 39.2169 203.471 45.7401 203.59 61.065L203.597 153.078L203.569 156.757C203.323 171.976 201.484 178.03 198.235 184.13C194.737 190.698 189.603 195.853 183.062 199.366L181.656 200.094C175.535 203.137 168.753 204.75 152.139 204.75Z" fill="#C4D3E0" fill-opacity="0.2"/></g><path d="M203.595 108.013V153.078C203.595 171.046 201.731 177.561 198.233 184.129C194.735 190.698 189.601 195.853 183.059 199.366C176.518 202.879 170.029 204.75 152.136 204.75H107.256V108.013H203.595Z" fill="url(#paint0_linear_104_685)"/><path d="M107.256 11.2754H152.136C170.029 11.2754 176.518 13.1462 183.059 16.6591C189.601 20.172 194.735 25.327 198.233 31.8956C201.731 38.4641 203.595 44.9795 203.595 62.9465V108.012H107.256V11.2754Z" fill="url(#paint1_linear_104_685)"/><path d="M62.3785 11.2754H107.259V204.75H62.3785C44.4854 204.75 37.9969 202.878 31.4554 199.366C24.9139 195.853 19.7801 190.698 16.2817 184.13C12.7832 177.56 10.9202 171.045 10.9202 153.078V62.9471C10.9202 44.9795 12.7832 38.4641 16.2817 31.8956C19.7801 25.3271 24.9139 20.172 31.4554 16.6591C37.9969 13.1462 44.4854 11.2754 62.3785 11.2754Z" fill="url(#paint2_linear_104_685)"/><defs><filter id="filter0_f_104_685" x="0.0632057" y="0.41843" width="214.391" height="215.188" filterUnits="userSpaceOnUse" color-interpolation-filters="sRGB"><feFlood flood-opacity="0" result="BackgroundImageFix"/><feBlend mode="normal" in="SourceGraphic" in2="BackgroundImageFix" result="shape"/><feGaussianBlur stdDeviation="5.42848" result="effect1_foregroundBlur_104_685"/></filter><linearGradient id="paint0_linear_104_685" x1="155.426" y1="108.013" x2="203.913" y2="204.589" gradientUnits="userSpaceOnUse"><stop stop-color="#DEF2FE"/><stop offset="1" stop-color="#DBF1FE"/></linearGradient><linearGradient id="paint1_linear_104_685" x1="107.256" y1="11.2754" x2="155.745" y2="107.852" gradientUnits="userSpaceOnUse"><stop stop-color="#57BCFD"/><stop offset="1" stop-color="#51B5FD"/></linearGradient><linearGradient id="paint2_linear_104_685" x1="47.0471" y1="11.2754" x2="129.477" y2="175.456" gradientUnits="userSpaceOnUse"><stop stop-color="#1CA7FD"/><stop offset="1" stop-color="#148CFC"/></linearGradient></defs></svg> 