<?xml version="1.0" encoding="UTF-8"?>
<!DOCTYPE svg PUBLIC "-//W3C//DTD SVG 1.1//EN" "http://www.w3.org/Graphics/SVG/1.1/DTD/svg11.dtd">
<svg xmlns="http://www.w3.org/2000/svg" version="1.1" width="1152px" height="1152px" style="shape-rendering:geometricPrecision; text-rendering:geometricPrecision; image-rendering:optimizeQuality; fill-rule:evenodd; clip-rule:evenodd" xmlns:xlink="http://www.w3.org/1999/xlink">
<g><path style="opacity:1" fill="#125df9" d="M 576.5,122.5 C 587.432,130.646 598.432,138.812 609.5,147C 623.684,158.358 637.684,169.858 651.5,181.5C 684.647,212.975 715.647,246.309 744.5,281.5C 732.004,280.649 719.338,279.149 706.5,277C 674.508,273.619 642.508,271.119 610.5,269.5C 599.459,258.124 587.792,247.457 575.5,237.5C 574.797,235.284 573.464,233.451 571.5,232C 549.115,213.615 525.615,196.782 501,181.5C 500.617,182.056 500.117,182.389 499.5,182.5C 462.877,158.786 422.71,145.453 379,142.5C 343.213,144.005 316.213,160.005 298,190.5C 282.801,219.96 274.468,251.294 273,284.5C 272.5,294.161 272.334,303.828 272.5,313.5C 272.513,344.634 275.513,375.634 281.5,406.5C 284.671,422.04 288.338,437.374 292.5,452.5C 282.334,473.498 272.168,494.498 262,515.5C 253.173,535.474 244.673,555.474 236.5,575.5C 219.94,532.821 206.607,489.155 196.5,444.5C 190.885,412.858 186.218,381.191 182.5,349.5C 178.983,305.073 181.816,261.073 191,217.5C 199.176,180.488 214.843,147.155 238,117.5C 275.855,73.9669 323.855,51.9669 382,51.5C 437.579,54.4708 489.413,69.9708 537.5,98C 550.865,105.677 563.865,113.844 576.5,122.5 Z M 575.5,237.5 C 587.792,247.457 599.459,258.124 610.5,269.5C 587.5,269.5 564.5,269.5 541.5,269.5C 552.531,258.467 563.865,247.801 575.5,237.5 Z"/></g>
<g><path style="opacity:1" fill="#f9ba00" d="M 967.5,349.5 C 938.626,335.564 908.959,323.564 878.5,313.5C 880.56,279.313 876.06,245.98 865,213.5C 841.258,156.207 798.758,133.373 737.5,145C 706.625,152.228 677.958,164.394 651.5,181.5C 637.684,169.858 623.684,158.358 609.5,147C 598.432,138.812 587.432,130.646 576.5,122.5C 622.319,89.7689 672.985,67.6022 728.5,56C 785.616,44.8863 837.616,56.2197 884.5,90C 923.567,123.937 948.4,166.437 959,217.5C 968.224,261.072 971.057,305.072 967.5,349.5 Z"/></g>
<g><path style="opacity:1" fill="#f9ba00" d="M 575.5,237.5 C 563.865,247.801 552.531,258.467 541.5,269.5C 509.558,299.452 480.891,332.119 455.5,367.5C 406.766,431.923 366.433,501.59 334.5,576.5C 316.357,615.592 302.357,656.259 292.5,698.5C 288.338,713.626 284.671,728.96 281.5,744.5C 253.6,735.219 226.6,723.719 200.5,710C 198.907,709.051 197.574,707.885 196.5,706.5C 206.873,662.03 220.206,618.364 236.5,575.5C 244.673,555.474 253.173,535.474 262,515.5C 272.168,494.498 282.334,473.498 292.5,452.5C 304.083,433.005 315.416,413.338 326.5,393.5C 338.472,376.912 349.972,359.912 361,342.5C 375.69,322.322 390.523,302.322 405.5,282.5C 434.353,246.976 465.687,213.642 499.5,182.5C 500.117,182.389 500.617,182.056 501,181.5C 525.615,196.782 549.115,213.615 571.5,232C 573.464,233.451 574.797,235.284 575.5,237.5 Z"/></g>
<g><path style="opacity:1" fill="#4bc070" d="M 541.5,269.5 C 564.5,269.5 587.5,269.5 610.5,269.5C 642.508,271.119 674.508,273.619 706.5,277C 719.338,279.149 732.004,280.649 744.5,281.5C 789.929,288.986 834.596,299.652 878.5,313.5C 908.959,323.564 938.626,335.564 967.5,349.5C 1017.63,372.467 1061.46,404.134 1099,444.5C 1127.85,476.867 1145.35,514.534 1151.5,557.5C 1151.5,569.5 1151.5,581.5 1151.5,593.5C 1145.35,636.466 1127.85,674.133 1099,706.5C 1061.46,746.866 1017.63,778.533 967.5,801.5C 964.993,769.956 960.326,738.623 953.5,707.5C 983.591,691.917 1010.09,671.584 1033,646.5C 1071,599.167 1071,551.833 1033,504.5C 1010.09,479.416 983.591,459.083 953.5,443.5C 926.248,428.076 897.581,415.742 867.5,406.5C 853.08,401.36 838.413,397.027 823.5,393.5C 782.083,381.016 739.75,372.349 696.5,367.5C 635.996,360.122 575.329,358.289 514.5,362C 494.776,363.306 475.11,365.139 455.5,367.5C 480.891,332.119 509.558,299.452 541.5,269.5 Z"/></g>
<g><path style="opacity:1" fill="#4bc070" d="M 405.5,282.5 C 390.523,302.322 375.69,322.322 361,342.5C 349.972,359.912 338.472,376.912 326.5,393.5C 311.441,397.631 296.441,401.964 281.5,406.5C 275.513,375.634 272.513,344.634 272.5,313.5C 315.945,299.477 360.278,289.143 405.5,282.5 Z"/></g>
<g><path style="opacity:1" fill="#4bc070" d="M 182.5,349.5 C 186.218,381.191 190.885,412.858 196.5,444.5C 166.766,459.722 140.599,479.722 118,504.5C 80,551.833 80,599.167 118,646.5C 140.599,671.278 166.766,691.278 196.5,706.5C 197.574,707.885 198.907,709.051 200.5,710C 226.6,723.719 253.6,735.219 281.5,744.5C 296.441,749.036 311.441,753.369 326.5,757.5C 368.633,769.993 411.633,778.66 455.5,783.5C 515.667,790.897 576,792.73 636.5,789C 656.549,787.628 676.549,785.795 696.5,783.5C 671.125,818.555 642.791,851.222 611.5,881.5C 588.167,881.5 564.833,881.5 541.5,881.5C 495.913,879.916 450.579,875.583 405.5,868.5C 360.278,861.857 315.945,851.523 272.5,837.5C 241.838,827.17 211.838,815.17 182.5,801.5C 132.948,778.11 89.4477,746.443 52,706.5C 23.1507,674.133 5.65065,636.466 -0.5,593.5C -0.5,581.5 -0.5,569.5 -0.5,557.5C 5.65065,514.534 23.1507,476.867 52,444.5C 89.4477,404.557 132.948,372.89 182.5,349.5 Z"/></g>
<g><path style="opacity:1" fill="#125df9" d="M 696.5,367.5 C 739.75,372.349 782.083,381.016 823.5,393.5C 835.353,412.54 846.686,431.873 857.5,451.5C 847.165,494.219 833.165,535.552 815.5,575.5C 783.504,501.475 743.837,432.142 696.5,367.5 Z"/></g>
<g><path style="opacity:1" fill="#f9ba00" d="M 867.5,406.5 C 897.581,415.742 926.248,428.076 953.5,443.5C 944.139,488.581 931.139,532.581 914.5,575.5C 897.163,617.513 878.163,658.846 857.5,699.5C 846.503,718.825 835.503,738.159 824.5,757.5C 811.109,776.594 797.942,795.927 785,815.5C 771.977,833.345 758.81,851.011 745.5,868.5C 716.314,904.025 684.98,937.692 651.5,969.5C 647.619,968.226 643.952,966.393 640.5,964C 619.317,949.82 598.983,934.486 579.5,918C 577.859,916.871 576.859,915.371 576.5,913.5C 588.792,903.543 600.459,892.876 611.5,881.5C 642.791,851.222 671.125,818.555 696.5,783.5C 744.328,719.22 783.994,649.886 815.5,575.5C 833.165,535.552 847.165,494.219 857.5,451.5C 861.851,436.748 865.184,421.748 867.5,406.5 Z"/></g>
<g><path style="opacity:1" fill="#135df9" d="M 334.5,576.5 C 366.943,650.426 407.276,719.426 455.5,783.5C 411.633,778.66 368.633,769.993 326.5,757.5C 315.159,737.828 303.825,718.162 292.5,698.5C 302.357,656.259 316.357,615.592 334.5,576.5 Z"/></g>
<g><path style="opacity:1" fill="#125df9" d="M 914.5,575.5 C 931.138,618.415 944.138,662.415 953.5,707.5C 960.326,738.623 964.993,769.956 967.5,801.5C 970.72,844.185 968.22,886.518 960,928.5C 950.229,978.559 927.062,1021.06 890.5,1056C 842.728,1093.76 788.728,1106.76 728.5,1095C 672.846,1083.16 621.846,1061 575.5,1028.5C 550.58,1011.43 526.913,992.599 504.5,972C 502.922,970.906 501.255,970.072 499.5,969.5C 466.02,937.692 434.686,904.025 405.5,868.5C 450.579,875.583 495.913,879.916 541.5,881.5C 552.541,892.876 564.208,903.543 576.5,913.5C 576.859,915.371 577.859,916.871 579.5,918C 598.983,934.486 619.317,949.82 640.5,964C 643.952,966.393 647.619,968.226 651.5,969.5C 686.129,993.156 724.463,1006.49 766.5,1009.5C 815.224,1007.28 848.057,983.28 865,937.5C 875.89,905.051 880.39,871.718 878.5,837.5C 879.163,835.359 879.497,833.025 879.5,830.5C 877.599,804.016 874.432,777.683 870,751.5C 869.844,748.809 869.011,746.476 867.5,744.5C 864.932,729.326 861.599,714.326 857.5,699.5C 878.163,658.846 897.163,617.513 914.5,575.5 Z M 541.5,881.5 C 564.833,881.5 588.167,881.5 611.5,881.5C 600.459,892.876 588.792,903.543 576.5,913.5C 564.208,903.543 552.541,892.876 541.5,881.5 Z"/></g>
<g><path style="opacity:1" fill="#4bc070" d="M 867.5,744.5 C 869.011,746.476 869.844,748.809 870,751.5C 874.432,777.683 877.599,804.016 879.5,830.5C 879.497,833.025 879.163,835.359 878.5,837.5C 835.055,851.523 790.722,861.857 745.5,868.5C 758.81,851.011 771.977,833.345 785,815.5C 797.942,795.927 811.109,776.594 824.5,757.5C 839.028,753.768 853.362,749.435 867.5,744.5 Z"/></g>
<g><path style="opacity:1" fill="#f9ba00" d="M 182.5,801.5 C 211.838,815.17 241.838,827.17 272.5,837.5C 271.032,874.399 276.866,910.066 290,944.5C 312.943,995.393 352.109,1015.89 407.5,1006C 440.308,999.091 470.975,986.925 499.5,969.5C 501.255,970.072 502.922,970.906 504.5,972C 526.913,992.599 550.58,1011.43 575.5,1028.5C 529.027,1062.39 477.36,1084.89 420.5,1096C 361.488,1106.61 308.488,1093.61 261.5,1057C 223.568,1022.33 199.735,979.496 190,928.5C 181.8,886.52 179.3,844.186 182.5,801.5 Z"/></g>
</svg>
