<?xml version="1.0" encoding="UTF-8"?>
<!DOCTYPE svg PUBLIC "-//W3C//DTD SVG 1.1//EN" "http://www.w3.org/Graphics/SVG/1.1/DTD/svg11.dtd">
<svg xmlns="http://www.w3.org/2000/svg" version="1.1" width="600px" height="600px" style="shape-rendering:geometricPrecision; text-rendering:geometricPrecision; image-rendering:optimizeQuality; fill-rule:evenodd; clip-rule:evenodd" xmlns:xlink="http://www.w3.org/1999/xlink">
<g><path style="opacity:1" fill="#faf9f9" d="M -0.5,-0.5 C 199.5,-0.5 399.5,-0.5 599.5,-0.5C 599.5,199.5 599.5,399.5 599.5,599.5C 399.5,599.5 199.5,599.5 -0.5,599.5C -0.5,399.5 -0.5,199.5 -0.5,-0.5 Z"/></g>
<g><path style="opacity:1" fill="#f26451" d="M 514.5,370.5 C 519.797,369.725 525.13,369.392 530.5,369.5C 539.649,371.812 545.816,377.479 549,386.5C 550.071,434.168 550.738,481.834 551,529.5C 547.201,551.966 534.034,565.132 511.5,569C 368.833,569.667 226.167,569.667 83.5,569C 64.1566,563.655 52.3232,551.155 48,531.5C 47.3333,376.833 47.3333,222.167 48,67.5C 52.3012,47.8656 64.1345,35.3656 83.5,30C 225.833,29.3333 368.167,29.3333 510.5,30C 532.194,33.0252 545.694,45.1918 551,66.5C 550.579,113.831 549.912,161.164 549,208.5C 544.235,224.809 533.402,231.309 516.5,228C 512.221,226.527 508.221,224.527 504.5,222C 478.33,196.281 446.997,186.614 410.5,193C 364.222,202.278 334.055,229.445 320,274.5C 312.074,322.081 327.574,359.915 366.5,388C 395.114,404.994 425.781,409.994 458.5,403C 476.162,398.34 491.162,389.34 503.5,376C 506.91,373.628 510.577,371.795 514.5,370.5 Z"/></g>
<g><path style="opacity:1" fill="#f48f7d" d="M 530.5,369.5 C 525.13,369.392 519.797,369.725 514.5,370.5C 517.356,368.994 520.523,368.328 524,368.5C 526.361,368.504 528.527,368.837 530.5,369.5 Z"/></g>
</svg>
