<?xml version="1.0" encoding="UTF-8"?>
<!DOCTYPE svg PUBLIC "-//W3C//DTD SVG 1.1//EN" "http://www.w3.org/Graphics/SVG/1.1/DTD/svg11.dtd">
<svg xmlns="http://www.w3.org/2000/svg" version="1.1" width="600px" height="600px" style="shape-rendering:geometricPrecision; text-rendering:geometricPrecision; image-rendering:optimizeQuality; fill-rule:evenodd; clip-rule:evenodd" xmlns:xlink="http://www.w3.org/1999/xlink">
<g><path style="opacity:1" fill="#faf9f9" d="M -0.5,-0.5 C 199.5,-0.5 399.5,-0.5 599.5,-0.5C 599.5,199.5 599.5,399.5 599.5,599.5C 399.5,599.5 199.5,599.5 -0.5,599.5C -0.5,399.5 -0.5,199.5 -0.5,-0.5 Z"/></g>
<g><path style="opacity:1" fill="#fa646a" d="M 566.5,250.5 C 566.527,256.051 567.194,261.384 568.5,266.5C 569.361,278.144 569.695,289.81 569.5,301.5C 568.116,306.944 567.45,312.611 567.5,318.5C 550.758,418.07 496.091,487.903 403.5,528C 293.219,568.204 192.885,551.204 102.5,477C 69.6541,448.464 45.3208,413.964 29.5,373.5C 30.8933,368.819 32.3933,364.153 34,359.5C 34.3333,350.5 34.6667,341.5 35,332.5C 36.3999,329.098 38.5665,326.264 41.5,324C 48.3953,321.769 54.2286,317.936 59,312.5C 64.9522,286.621 79.7855,279.787 103.5,292C 110.759,296.932 116.259,303.432 120,311.5C 128.843,339.422 141.843,365.089 159,388.5C 183.694,418.769 215.527,436.436 254.5,441.5C 259.269,442.889 264.269,443.556 269.5,443.5C 320.964,448.326 366.297,434.159 405.5,401C 455.086,351.742 467.919,294.242 444,228.5C 426.614,192.446 398.781,168.613 360.5,157C 356.509,156.358 352.509,155.858 348.5,155.5C 345.686,154.835 342.686,154.502 339.5,154.5C 333.932,154.429 328.599,155.096 323.5,156.5C 272.879,165.615 240.379,194.949 226,244.5C 224.018,252.391 222.685,260.391 222,268.5C 219.141,276.693 213.641,282.193 205.5,285C 178.833,285.667 152.167,285.667 125.5,285C 121.942,283.108 119.442,280.275 118,276.5C 117.501,271.845 117.334,267.179 117.5,262.5C 118.957,257.402 119.624,252.069 119.5,246.5C 129.969,168.643 169.302,110.81 237.5,73C 257.783,62.9604 279.116,56.4604 301.5,53.5C 307.69,52.8569 313.69,51.8569 319.5,50.5C 406.192,46.5983 475.025,79.5983 526,149.5C 547.239,179.99 560.739,213.656 566.5,250.5 Z"/></g>
<g><path style="opacity:1" fill="#fb8f93" d="M 319.5,50.5 C 313.69,51.8569 307.69,52.8569 301.5,53.5C 307.18,51.3996 313.18,50.3996 319.5,50.5 Z"/></g>
<g><path style="opacity:1" fill="#fac6c8" d="M 348.5,155.5 C 340.149,155.482 331.816,155.815 323.5,156.5C 328.599,155.096 333.932,154.429 339.5,154.5C 342.686,154.502 345.686,154.835 348.5,155.5 Z"/></g>
<g><path style="opacity:1" fill="#fb9598" d="M 566.5,250.5 C 567.957,255.598 568.624,260.931 568.5,266.5C 567.194,261.384 566.527,256.051 566.5,250.5 Z"/></g>
<g><path style="opacity:1" fill="#fb9a9e" d="M 119.5,246.5 C 119.624,252.069 118.957,257.402 117.5,262.5C 117.527,256.949 118.194,251.616 119.5,246.5 Z"/></g>
<g><path style="opacity:1" fill="#fbcbcd" d="M 569.5,301.5 C 569.55,307.389 568.884,313.056 567.5,318.5C 567.45,312.611 568.116,306.944 569.5,301.5 Z"/></g>
<g><path style="opacity:1" fill="#fbc9c9" d="M 254.5,441.5 C 259.731,441.444 264.731,442.111 269.5,443.5C 264.269,443.556 259.269,442.889 254.5,441.5 Z"/></g>
</svg>
