<?xml version="1.0" encoding="UTF-8"?>
<!DOCTYPE svg PUBLIC "-//W3C//DTD SVG 1.1//EN" "http://www.w3.org/Graphics/SVG/1.1/DTD/svg11.dtd">
<svg xmlns="http://www.w3.org/2000/svg" version="1.1" width="600px" height="600px" style="shape-rendering:geometricPrecision; text-rendering:geometricPrecision; image-rendering:optimizeQuality; fill-rule:evenodd; clip-rule:evenodd" xmlns:xlink="http://www.w3.org/1999/xlink">
<g><path style="opacity:1" fill="#f9f9f9" d="M -0.5,-0.5 C 199.5,-0.5 399.5,-0.5 599.5,-0.5C 599.5,199.5 599.5,399.5 599.5,599.5C 399.5,599.5 199.5,599.5 -0.5,599.5C -0.5,399.5 -0.5,199.5 -0.5,-0.5 Z"/></g>
<g><path style="opacity:1" fill="#3c4141" d="M 552.5,246.5 C 566.026,246.183 571.193,252.516 568,265.5C 558.603,275.634 550.603,274.634 544,262.5C 542.907,255.016 545.741,249.683 552.5,246.5 Z"/></g>
<g><path style="opacity:1" fill="#626263" d="M 538.5,311.5 C 537.503,291.007 537.169,270.34 537.5,249.5C 535.194,249.993 532.861,250.326 530.5,250.5C 532.838,248.96 535.505,248.294 538.5,248.5C 538.5,269.5 538.5,290.5 538.5,311.5 Z"/></g>
<g><path style="opacity:1" fill="#3b4041" d="M 109.5,248.5 C 120.772,247.148 131.438,248.982 141.5,254C 149.54,259.907 152.706,267.74 151,277.5C 144.401,287.207 137.068,287.874 129,279.5C 128.042,276.925 127.542,274.259 127.5,271.5C 129.064,265.926 129.564,260.259 129,254.5C 124.879,250.185 120.045,249.351 114.5,252C 105.976,261.618 103.143,272.784 106,285.5C 112.24,305.534 125.073,311.367 144.5,303C 147.312,301.023 149.978,298.856 152.5,296.5C 148.733,312.091 138.733,321.591 122.5,325C 99.7879,326.728 85.6212,316.562 80,294.5C 78.4751,271.883 88.3084,256.55 109.5,248.5 Z"/></g>
<g><path style="opacity:1" fill="#3b4040" d="M 187.5,248.5 C 211.772,245.041 228.606,254.374 238,276.5C 241.573,299.869 232.406,315.702 210.5,324C 186.474,329.404 169.64,320.904 160,298.5C 154.859,273.839 164.026,257.172 187.5,248.5 Z"/></g>
<g><path style="opacity:1" fill="#3a3f40" d="M 272.5,248.5 C 273.833,248.5 275.167,248.5 276.5,248.5C 276.335,251.518 276.502,254.518 277,257.5C 286.689,248.135 297.856,245.968 310.5,251C 318.195,256.218 323.028,263.385 325,272.5C 326.886,285.183 324.886,297.183 319,308.5C 310.974,321.095 299.474,326.595 284.5,325C 281.751,323.877 279.251,322.377 277,320.5C 276.333,327.833 276.333,335.167 277,342.5C 277.942,347.276 280.775,350.276 285.5,351.5C 270.848,352.499 256.182,352.833 241.5,352.5C 241.5,351.5 241.5,350.5 241.5,349.5C 244.785,349.731 247.285,348.397 249,345.5C 250.12,331.878 250.62,318.211 250.5,304.5C 250.333,292.5 250.167,280.5 250,268.5C 248.104,264.437 244.937,262.103 240.5,261.5C 240.36,259.876 241.027,258.71 242.5,258C 252.751,255.304 262.751,252.137 272.5,248.5 Z"/></g>
<g><path style="opacity:1" fill="#3a4040" d="M 363.5,248.5 C 364.833,248.5 366.167,248.5 367.5,248.5C 367.335,251.518 367.502,254.518 368,257.5C 377.689,248.135 388.856,245.968 401.5,251C 414.602,260.96 419.436,274.127 416,290.5C 413.722,308.1 404.222,319.6 387.5,325C 380.193,326.692 373.693,325.192 368,320.5C 367.333,328.167 367.333,335.833 368,343.5C 369.351,347.683 372.184,350.349 376.5,351.5C 361.848,352.499 347.182,352.833 332.5,352.5C 332.5,351.5 332.5,350.5 332.5,349.5C 337.814,349.017 340.647,346.017 341,340.5C 341.667,316.5 341.667,292.5 341,268.5C 339.078,264.403 335.912,262.07 331.5,261.5C 331.36,259.876 332.027,258.71 333.5,258C 343.713,255.121 353.713,251.954 363.5,248.5 Z"/></g>
<g><path style="opacity:1" fill="#3b4040" d="M 497.5,279.5 C 481.5,279.5 465.5,279.5 449.5,279.5C 449.198,282.059 449.532,284.393 450.5,286.5C 451.378,297.875 457.378,304.709 468.5,307C 480.742,308.754 490.408,304.588 497.5,294.5C 491.091,317.318 475.758,327.485 451.5,325C 428.86,317.241 419.36,301.408 423,277.5C 434.533,250.487 454.033,242.32 481.5,253C 491.32,259.142 496.653,267.975 497.5,279.5 Z"/></g>
<g><path style="opacity:1" fill="#393f3f" d="M 538.5,311.5 C 538.907,317.324 541.907,320.991 547.5,322.5C 532.833,323.833 518.167,323.833 503.5,322.5C 507.97,321.524 510.803,318.857 512,314.5C 512.667,299.167 512.667,283.833 512,268.5C 509.956,263.952 506.456,261.619 501.5,261.5C 501.5,260.5 501.5,259.5 501.5,258.5C 511.105,255.682 520.772,253.015 530.5,250.5C 532.861,250.326 535.194,249.993 537.5,249.5C 537.169,270.34 537.503,291.007 538.5,311.5 Z"/></g>
<g><path style="opacity:1" fill="#f7f7f7" d="M 193.5,250.5 C 200.445,248.775 205.278,251.108 208,257.5C 208.988,260.424 209.654,263.424 210,266.5C 210.667,279.5 210.667,292.5 210,305.5C 209.786,311.608 207.953,317.108 204.5,322C 199.564,324.415 195.064,323.915 191,320.5C 188.784,315.759 187.45,310.759 187,305.5C 186.333,292.833 186.333,280.167 187,267.5C 186.726,260.81 188.893,255.143 193.5,250.5 Z"/></g>
<g><path style="opacity:1" fill="#f6f6f6" d="M 471.5,264.5 C 471.5,268.167 471.5,271.833 471.5,275.5C 464.5,275.5 457.5,275.5 450.5,275.5C 450.5,272.167 450.5,268.833 450.5,265.5C 450.793,254.694 456.126,249.86 466.5,251C 470.234,254.699 471.901,259.199 471.5,264.5 Z"/></g>
<g><path style="opacity:1" fill="#e73e67" d="M 38.5,254.5 C 54.9141,255.169 59.2474,262.669 51.5,277C 41.7979,283.233 34.6312,281.066 30,270.5C 28.9072,263.016 31.7406,257.683 38.5,254.5 Z"/></g>
<g><path style="opacity:1" fill="#f5f5f5" d="M 281.5,256.5 C 287.097,255.611 291.263,257.611 294,262.5C 299.939,279.47 299.939,296.47 294,313.5C 290.042,320.762 284.376,322.428 277,318.5C 276.167,298.825 276.334,279.158 277.5,259.5C 278.901,258.479 280.235,257.479 281.5,256.5 Z"/></g>
<g><path style="opacity:1" fill="#f4f4f4" d="M 372.5,256.5 C 378.097,255.611 382.263,257.611 385,262.5C 390.997,279.463 390.997,296.463 385,313.5C 381.042,320.762 375.376,322.428 368,318.5C 367.167,298.825 367.334,279.158 368.5,259.5C 369.901,258.479 371.235,257.479 372.5,256.5 Z"/></g>
<g><path style="opacity:1" fill="#c5c5c6" d="M 471.5,264.5 C 472.483,268.298 472.817,272.298 472.5,276.5C 464.833,276.5 457.167,276.5 449.5,276.5C 449.185,272.629 449.518,268.962 450.5,265.5C 450.5,268.833 450.5,272.167 450.5,275.5C 457.5,275.5 464.5,275.5 471.5,275.5C 471.5,271.833 471.5,268.167 471.5,264.5 Z"/></g>
<g><path style="opacity:1" fill="#c7c7c7" d="M 497.5,279.5 C 482.009,280.496 466.342,280.83 450.5,280.5C 450.5,282.5 450.5,284.5 450.5,286.5C 449.532,284.393 449.198,282.059 449.5,279.5C 465.5,279.5 481.5,279.5 497.5,279.5 Z"/></g>
<g><path style="opacity:1" fill="#e73e67" d="M 38.5,293.5 C 53.3004,293.789 58.1338,300.789 53,314.5C 45.9278,321.106 38.9278,321.106 32,314.5C 29.3008,309.959 28.9675,305.292 31,300.5C 33.3959,297.933 35.8959,295.6 38.5,293.5 Z"/></g>
</svg>
