<?xml version="1.0" encoding="UTF-8"?>
<!DOCTYPE svg PUBLIC "-//W3C//DTD SVG 1.1//EN" "http://www.w3.org/Graphics/SVG/1.1/DTD/svg11.dtd">
<svg xmlns="http://www.w3.org/2000/svg" version="1.1" width="400px" height="400px" style="shape-rendering:geometricPrecision; text-rendering:geometricPrecision; image-rendering:optimizeQuality; fill-rule:evenodd; clip-rule:evenodd" xmlns:xlink="http://www.w3.org/1999/xlink">
<g><path style="opacity:1" fill="#f9f9f9" d="M -0.5,-0.5 C 132.833,-0.5 266.167,-0.5 399.5,-0.5C 399.5,132.833 399.5,266.167 399.5,399.5C 266.167,399.5 132.833,399.5 -0.5,399.5C -0.5,266.167 -0.5,132.833 -0.5,-0.5 Z"/></g>
<g><path style="opacity:1" fill="#3863af" d="M 193.5,34.5 C 195.833,34.5 198.167,34.5 200.5,34.5C 200.5,60.1667 200.5,85.8333 200.5,111.5C 199.209,111.263 198.209,111.596 197.5,112.5C 190.467,113.031 185.967,116.697 184,123.5C 183.5,152.165 183.333,180.831 183.5,209.5C 179.034,211.566 174.701,213.9 170.5,216.5C 170.106,157.03 170.106,102.53 170.5,53C 169.877,50.3927 169.21,47.8927 168.5,45.5C 175.691,39.408 184.024,35.7414 193.5,34.5 Z"/></g>
<g><path style="opacity:1" fill="#2177bb" d="M 193.5,34.5 C 201.985,32.9854 210.318,33.9854 218.5,37.5C 218.555,39.541 218.555,41.7077 218.5,44C 221.167,44.6667 221.167,45.3333 218.5,46C 221.167,46.6667 221.167,47.3333 218.5,48C 221.167,48.6667 221.167,49.3333 218.5,50C 221.167,50.6667 221.167,51.3333 218.5,52C 221.167,52.6667 221.167,53.3333 218.5,54C 221.167,54.6667 221.167,55.3333 218.5,56C 221.167,56.6667 221.167,57.3333 218.5,58C 221.167,58.6667 221.167,59.3333 218.5,60C 221.167,60.6667 221.167,61.3333 218.5,62C 221.167,62.6667 221.167,63.3333 218.5,64C 221.167,64.6667 221.167,65.3333 218.5,66C 221.167,66.6667 221.167,67.3333 218.5,68C 221.167,68.6667 221.167,69.3333 218.5,70C 221.167,70.6667 221.167,71.3333 218.5,72C 221.167,72.6667 221.167,73.3333 218.5,74C 221.167,74.6667 221.167,75.3333 218.5,76C 221.167,76.6667 221.167,77.3333 218.5,78C 221.167,78.6667 221.167,79.3333 218.5,80C 221.167,80.6667 221.167,81.3333 218.5,82C 221.167,82.6667 221.167,83.3333 218.5,84C 221.167,84.6667 221.167,85.3333 218.5,86C 221.167,86.6667 221.167,87.3333 218.5,88C 221.167,88.6667 221.167,89.3333 218.5,90C 221.167,90.6667 221.167,91.3333 218.5,92C 221.167,92.6667 221.167,93.3333 218.5,94C 221.167,94.6667 221.167,95.3333 218.5,96C 221.167,96.6667 221.167,97.3333 218.5,98C 221.167,98.6667 221.167,99.3333 218.5,100C 221.167,100.667 221.167,101.333 218.5,102C 221.167,102.667 221.167,103.333 218.5,104C 221.167,104.667 221.167,105.333 218.5,106C 221.167,106.667 221.167,107.333 218.5,108C 221.167,108.667 221.167,109.333 218.5,110C 219.167,110.333 219.833,110.667 220.5,111C 220.17,144.111 219.17,176.944 217.5,209.5C 217.167,209.5 216.833,209.5 216.5,209.5C 216.667,177.832 216.5,146.165 216,114.5C 215.5,114 215,113.5 214.5,113C 208.843,112.501 203.176,112.334 197.5,112.5C 198.209,111.596 199.209,111.263 200.5,111.5C 200.5,85.8333 200.5,60.1667 200.5,34.5C 198.167,34.5 195.833,34.5 193.5,34.5 Z"/></g>
<g><path style="opacity:1" fill="#1f7dbb" d="M 218.5,37.5 C 225.869,41.8481 233.202,46.1815 240.5,50.5C 241.389,56.9279 243.056,62.7612 245.5,68C 243.203,69.2633 242.37,71.0966 243,73.5C 243.805,71.0989 244.638,71.2656 245.5,74C 244.101,75.0616 243.101,76.395 242.5,78C 242.735,80.3517 242.901,82.8517 243,85.5C 243.914,84.3463 244.747,84.513 245.5,86C 244.101,87.0616 243.101,88.395 242.5,90C 242.735,92.3517 242.901,94.8517 243,97.5C 243.914,96.3463 244.747,96.513 245.5,98C 244.101,99.0616 243.101,100.395 242.5,102C 242.735,104.352 242.901,106.852 243,109.5C 243.914,108.346 244.747,108.513 245.5,110C 244.101,111.062 243.101,112.395 242.5,114C 242.735,116.352 242.901,118.852 243,121.5C 243.914,120.346 244.747,120.513 245.5,122C 244.101,123.062 243.101,124.395 242.5,126C 242.735,128.352 242.901,130.852 243,133.5C 243.914,132.346 244.747,132.513 245.5,134C 244.667,134.833 243.833,135.667 243,136.5C 243.544,138.716 243.377,140.883 242.5,143C 242.667,143.833 242.833,144.667 243,145.5C 243.914,144.346 244.747,144.513 245.5,146C 244.101,147.062 243.101,148.395 242.5,150C 242.761,152.073 242.761,154.073 242.5,156C 240.939,156.941 239.605,158.108 238.5,159.5C 239.275,161.302 240.275,161.969 241.5,161.5C 240.781,163.764 240.448,166.097 240.5,168.5C 239.668,186.329 239.168,204.329 239,222.5C 231.82,218.002 224.654,213.669 217.5,209.5C 219.17,176.944 220.17,144.111 220.5,111C 219.833,110.667 219.167,110.333 218.5,110C 221.167,109.333 221.167,108.667 218.5,108C 221.167,107.333 221.167,106.667 218.5,106C 221.167,105.333 221.167,104.667 218.5,104C 221.167,103.333 221.167,102.667 218.5,102C 221.167,101.333 221.167,100.667 218.5,100C 221.167,99.3333 221.167,98.6667 218.5,98C 221.167,97.3333 221.167,96.6667 218.5,96C 221.167,95.3333 221.167,94.6667 218.5,94C 221.167,93.3333 221.167,92.6667 218.5,92C 221.167,91.3333 221.167,90.6667 218.5,90C 221.167,89.3333 221.167,88.6667 218.5,88C 221.167,87.3333 221.167,86.6667 218.5,86C 221.167,85.3333 221.167,84.6667 218.5,84C 221.167,83.3333 221.167,82.6667 218.5,82C 221.167,81.3333 221.167,80.6667 218.5,80C 221.167,79.3333 221.167,78.6667 218.5,78C 221.167,77.3333 221.167,76.6667 218.5,76C 221.167,75.3333 221.167,74.6667 218.5,74C 221.167,73.3333 221.167,72.6667 218.5,72C 221.167,71.3333 221.167,70.6667 218.5,70C 221.167,69.3333 221.167,68.6667 218.5,68C 221.167,67.3333 221.167,66.6667 218.5,66C 221.167,65.3333 221.167,64.6667 218.5,64C 221.167,63.3333 221.167,62.6667 218.5,62C 221.167,61.3333 221.167,60.6667 218.5,60C 221.167,59.3333 221.167,58.6667 218.5,58C 221.167,57.3333 221.167,56.6667 218.5,56C 221.167,55.3333 221.167,54.6667 218.5,54C 221.167,53.3333 221.167,52.6667 218.5,52C 221.167,51.3333 221.167,50.6667 218.5,50C 221.167,49.3333 221.167,48.6667 218.5,48C 221.167,47.3333 221.167,46.6667 218.5,46C 221.167,45.3333 221.167,44.6667 218.5,44C 218.555,41.7077 218.555,39.541 218.5,37.5 Z"/></g>
<g><path style="opacity:1" fill="#395dae" d="M 168.5,45.5 C 169.21,47.8927 169.877,50.3927 170.5,53C 170.106,102.53 170.106,157.03 170.5,216.5C 169.128,217.512 167.795,218.512 166.5,219.5C 164.02,220.242 161.687,221.242 159.5,222.5C 159.793,218.563 159.46,214.73 158.5,211C 151.842,210.5 145.175,210.334 138.5,210.5C 144.319,209.672 150.319,209.172 156.5,209C 150.833,208.667 145.167,208.333 139.5,208C 141.727,207.879 143.56,207.046 145,205.5C 145.333,206.167 145.667,206.833 146,207.5C 146.667,206.167 147.333,206.167 148,207.5C 148.975,205.074 149.808,202.407 150.5,199.5C 150.023,198.522 149.357,197.689 148.5,197C 148.324,195.34 148.991,193.674 150.5,192C 149.36,189.908 149.36,187.741 150.5,185.5C 149.687,184.186 148.687,183.019 147.5,182C 148.425,177.279 148.425,172.612 147.5,168C 148.167,165.667 148.833,163.333 149.5,161C 147.285,159.609 147.285,157.943 149.5,156C 149.147,149.353 149.147,142.353 149.5,135C 148.833,133.667 147.833,132.667 146.5,132C 149.145,131.409 149.811,130.075 148.5,128C 150.526,124.175 150.693,120.341 149,116.5C 148.444,118.595 147.944,118.762 147.5,117C 147.759,115.739 148.426,114.739 149.5,114C 149.167,113 148.833,112 148.5,111C 149.833,109.667 151.167,108.333 152.5,107C 151.747,105.513 150.914,105.346 150,106.5C 150.353,104.772 150.519,103.106 150.5,101.5C 150.023,100.522 149.357,99.6891 148.5,99C 150.081,94.5928 150.748,90.2595 150.5,86C 149.364,84.4702 148.364,83.1369 147.5,82C 147.82,77.823 148.486,73.4897 149.5,69C 146.833,68.3333 146.833,67.6667 149.5,67C 148.833,66.6667 148.167,66.3333 147.5,66C 148.591,63.9361 148.758,61.7695 148,59.5C 146.319,61.4278 144.486,61.7612 142.5,60.5C 150.832,54.9981 159.499,49.9981 168.5,45.5 Z"/></g>
<g><path style="opacity:1" fill="#1f83c1" d="M 240.5,50.5 C 248.864,54.677 256.864,59.3436 264.5,64.5C 264.511,66.0174 265.177,67.1841 266.5,68C 266.167,68.3333 265.833,68.6667 265.5,69C 267,70.5 268.5,72 270,73.5C 270.333,73.1667 270.667,72.8333 271,72.5C 271.651,74.235 271.485,75.9017 270.5,77.5C 271.025,78.1924 271.692,78.6924 272.5,79C 272.676,80.6597 272.009,82.3264 270.5,84C 269.939,85.5655 270.606,86.8989 272.5,88C 270.566,90.2713 270.566,92.2713 272.5,94C 272.112,95.5252 272.112,97.1918 272.5,99C 270.832,100.567 270.498,102.234 271.5,104C 271.333,104.5 271.167,105 271,105.5C 270.417,103.998 269.584,102.665 268.5,101.5C 269.017,103.019 268.35,104.352 266.5,105.5C 268.372,107.535 270.039,109.702 271.5,112C 270.439,125.197 270.439,138.697 271.5,152.5C 264.978,152.177 258.645,152.51 252.5,153.5C 247.686,154.655 244.019,157.322 241.5,161.5C 240.275,161.969 239.275,161.302 238.5,159.5C 239.605,158.108 240.939,156.941 242.5,156C 242.761,154.073 242.761,152.073 242.5,150C 243.101,148.395 244.101,147.062 245.5,146C 244.747,144.513 243.914,144.346 243,145.5C 242.833,144.667 242.667,143.833 242.5,143C 243.377,140.883 243.544,138.716 243,136.5C 243.833,135.667 244.667,134.833 245.5,134C 244.747,132.513 243.914,132.346 243,133.5C 242.901,130.852 242.735,128.352 242.5,126C 243.101,124.395 244.101,123.062 245.5,122C 244.747,120.513 243.914,120.346 243,121.5C 242.901,118.852 242.735,116.352 242.5,114C 243.101,112.395 244.101,111.062 245.5,110C 244.747,108.513 243.914,108.346 243,109.5C 242.901,106.852 242.735,104.352 242.5,102C 243.101,100.395 244.101,99.0616 245.5,98C 244.747,96.513 243.914,96.3463 243,97.5C 242.901,94.8517 242.735,92.3517 242.5,90C 243.101,88.395 244.101,87.0616 245.5,86C 244.747,84.513 243.914,84.3463 243,85.5C 242.901,82.8517 242.735,80.3517 242.5,78C 243.101,76.395 244.101,75.0616 245.5,74C 244.638,71.2656 243.805,71.0989 243,73.5C 242.37,71.0966 243.203,69.2633 245.5,68C 243.056,62.7612 241.389,56.9279 240.5,50.5 Z"/></g>
<g><path style="opacity:1" fill="#3857a8" d="M 138.5,210.5 C 132.496,211.837 128.829,215.504 127.5,221.5C 126.833,228.345 126.167,235.345 125.5,242.5C 124.817,242.863 124.15,243.196 123.5,243.5C 122.874,240.328 122.207,237.161 121.5,234C 123.513,232.209 123.513,230.875 121.5,230C 122.167,228.333 122.833,226.667 123.5,225C 120.833,224.333 120.833,223.667 123.5,223C 121.487,221.209 121.487,219.875 123.5,219C 120.833,218.333 120.833,217.667 123.5,217C 120.833,216.333 120.833,215.667 123.5,215C 120.833,214.333 120.833,213.667 123.5,213C 120.833,212.333 120.833,211.667 123.5,211C 120.833,210.333 120.833,209.667 123.5,209C 120.833,208.333 120.833,207.667 123.5,207C 120.833,206.333 120.833,205.667 123.5,205C 120.833,204.333 120.833,203.667 123.5,203C 120.833,202.333 120.833,201.667 123.5,201C 120.833,200.333 120.833,199.667 123.5,199C 120.833,198.333 120.833,197.667 123.5,197C 120.833,196.333 120.833,195.667 123.5,195C 120.833,194.333 120.833,193.667 123.5,193C 120.833,192.333 120.833,191.667 123.5,191C 120.833,190.333 120.833,189.667 123.5,189C 120.833,188.333 120.833,187.667 123.5,187C 120.833,186.333 120.833,185.667 123.5,185C 120.833,184.333 120.833,183.667 123.5,183C 120.833,182.333 120.833,181.667 123.5,181C 120.833,180.333 120.833,179.667 123.5,179C 120.833,178.333 120.833,177.667 123.5,177C 120.833,176.333 120.833,175.667 123.5,175C 120.833,174.333 120.833,173.667 123.5,173C 120.833,172.333 120.833,171.667 123.5,171C 120.833,170.333 120.833,169.667 123.5,169C 120.833,168.333 120.833,167.667 123.5,167C 120.833,166.333 120.833,165.667 123.5,165C 120.833,164.333 120.833,163.667 123.5,163C 120.833,162.333 120.833,161.667 123.5,161C 120.833,160.333 120.833,159.667 123.5,159C 120.833,158.333 120.833,157.667 123.5,157C 120.833,156.333 120.833,155.667 123.5,155C 120.833,154.333 120.833,153.667 123.5,153C 120.833,152.333 120.833,151.667 123.5,151C 120.833,150.333 120.833,149.667 123.5,149C 120.833,148.333 120.833,147.667 123.5,147C 120.833,146.333 120.833,145.667 123.5,145C 120.833,144.333 120.833,143.667 123.5,143C 120.833,142.333 120.833,141.667 123.5,141C 120.833,140.333 120.833,139.667 123.5,139C 120.833,138.333 120.833,137.667 123.5,137C 120.833,136.333 120.833,135.667 123.5,135C 120.833,134.333 120.833,133.667 123.5,133C 120.833,132.333 120.833,131.667 123.5,131C 120.833,130.333 120.833,129.667 123.5,129C 120.833,128.333 120.833,127.667 123.5,127C 120.833,126.333 120.833,125.667 123.5,125C 120.833,124.333 120.833,123.667 123.5,123C 120.833,122.333 120.833,121.667 123.5,121C 120.833,120.333 120.833,119.667 123.5,119C 120.833,118.333 120.833,117.667 123.5,117C 120.833,116.333 120.833,115.667 123.5,115C 120.833,114.333 120.833,113.667 123.5,113C 120.833,112.333 120.833,111.667 123.5,111C 120.833,110.333 120.833,109.667 123.5,109C 120.833,108.333 120.833,107.667 123.5,107C 120.833,106.333 120.833,105.667 123.5,105C 120.833,104.333 120.833,103.667 123.5,103C 120.833,102.333 120.833,101.667 123.5,101C 120.833,100.333 120.833,99.6667 123.5,99C 120.833,98.3333 120.833,97.6667 123.5,97C 120.833,96.3333 120.833,95.6667 123.5,95C 120.833,94.3333 120.833,93.6667 123.5,93C 120.833,92.3333 120.833,91.6667 123.5,91C 120.833,90.3333 120.833,89.6667 123.5,89C 120.833,88.3333 120.833,87.6667 123.5,87C 122.167,85 122.167,83 123.5,81C 122.736,78.9307 122.236,76.764 122,74.5C 121.329,73.7476 120.496,73.4142 119.5,73.5C 126.997,68.9169 134.663,64.5836 142.5,60.5C 144.486,61.7612 146.319,61.4278 148,59.5C 148.758,61.7695 148.591,63.9361 147.5,66C 148.167,66.3333 148.833,66.6667 149.5,67C 146.833,67.6667 146.833,68.3333 149.5,69C 148.486,73.4897 147.82,77.823 147.5,82C 148.364,83.1369 149.364,84.4702 150.5,86C 150.748,90.2595 150.081,94.5928 148.5,99C 149.357,99.6891 150.023,100.522 150.5,101.5C 150.519,103.106 150.353,104.772 150,106.5C 150.914,105.346 151.747,105.513 152.5,107C 151.167,108.333 149.833,109.667 148.5,111C 148.833,112 149.167,113 149.5,114C 148.426,114.739 147.759,115.739 147.5,117C 147.944,118.762 148.444,118.595 149,116.5C 150.693,120.341 150.526,124.175 148.5,128C 149.811,130.075 149.145,131.409 146.5,132C 147.833,132.667 148.833,133.667 149.5,135C 149.147,142.353 149.147,149.353 149.5,156C 147.285,157.943 147.285,159.609 149.5,161C 148.833,163.333 148.167,165.667 147.5,168C 148.425,172.612 148.425,177.279 147.5,182C 148.687,183.019 149.687,184.186 150.5,185.5C 149.36,187.741 149.36,189.908 150.5,192C 148.991,193.674 148.324,195.34 148.5,197C 149.357,197.689 150.023,198.522 150.5,199.5C 149.808,202.407 148.975,205.074 148,207.5C 147.333,206.167 146.667,206.167 146,207.5C 145.667,206.833 145.333,206.167 145,205.5C 143.56,207.046 141.727,207.879 139.5,208C 145.167,208.333 150.833,208.667 156.5,209C 150.319,209.172 144.319,209.672 138.5,210.5 Z"/></g>
<g><path style="opacity:1" fill="#1a89c8" d="M 264.5,64.5 C 275.763,70.4417 286.763,76.7751 297.5,83.5C 297.598,84.882 297.598,86.382 297.5,88C 298.362,90.7344 299.195,90.9011 300,88.5C 302.354,91.1881 302.521,93.8548 300.5,96.5C 301.46,97.8123 301.294,99.1456 300,100.5C 299.016,98.2053 298.183,98.5386 297.5,101.5C 299.991,102.541 299.991,103.374 297.5,104C 300.167,104.667 300.167,105.333 297.5,106C 300.167,106.667 300.167,107.333 297.5,108C 300.167,108.667 300.167,109.333 297.5,110C 300.167,110.667 300.167,111.333 297.5,112C 300.167,112.667 300.167,113.333 297.5,114C 300.167,114.667 300.167,115.333 297.5,116C 300.167,116.667 300.167,117.333 297.5,118C 300.167,118.667 300.167,119.333 297.5,120C 300.167,120.667 300.167,121.333 297.5,122C 300.167,122.667 300.167,123.333 297.5,124C 300.167,124.667 300.167,125.333 297.5,126C 300.167,126.667 300.167,127.333 297.5,128C 300.167,128.667 300.167,129.333 297.5,130C 300.167,130.667 300.167,131.333 297.5,132C 300.167,132.667 300.167,133.333 297.5,134C 300.167,134.667 300.167,135.333 297.5,136C 300.167,136.667 300.167,137.333 297.5,138C 300.167,138.667 300.167,139.333 297.5,140C 300.167,140.667 300.167,141.333 297.5,142C 300.167,142.667 300.167,143.333 297.5,144C 300.167,144.667 300.167,145.333 297.5,146C 300.167,146.667 300.167,147.333 297.5,148C 300.167,148.667 300.167,149.333 297.5,150C 300.167,150.667 300.167,151.333 297.5,152C 300.167,152.667 300.167,153.333 297.5,154C 300.167,154.667 300.167,155.333 297.5,156C 300.167,156.667 300.167,157.333 297.5,158C 300.167,158.667 300.167,159.333 297.5,160C 300.167,160.667 300.167,161.333 297.5,162C 300.167,162.667 300.167,163.333 297.5,164C 300.167,164.667 300.167,165.333 297.5,166C 300.167,166.667 300.167,167.333 297.5,168C 300.167,168.667 300.167,169.333 297.5,170C 300.167,170.667 300.167,171.333 297.5,172C 300.167,172.667 300.167,173.333 297.5,174C 300.167,174.667 300.167,175.333 297.5,176C 300.167,176.667 300.167,177.333 297.5,178C 300.167,178.667 300.167,179.333 297.5,180C 300.167,180.667 300.167,181.333 297.5,182C 300.167,182.667 300.167,183.333 297.5,184C 300.167,184.667 300.167,185.333 297.5,186C 300.167,186.667 300.167,187.333 297.5,188C 300.167,188.667 300.167,189.333 297.5,190C 300.167,190.667 300.167,191.333 297.5,192C 300.167,192.667 300.167,193.333 297.5,194C 300.167,194.667 300.167,195.333 297.5,196C 300.167,196.667 300.167,197.333 297.5,198C 300.167,198.667 300.167,199.333 297.5,200C 300.167,200.667 300.167,201.333 297.5,202C 300.167,202.667 300.167,203.333 297.5,204C 300.167,204.667 300.167,205.333 297.5,206C 300.167,206.667 300.167,207.333 297.5,208C 300.167,208.667 300.167,209.333 297.5,210C 300.167,210.667 300.167,211.333 297.5,212C 300.167,212.667 300.167,213.333 297.5,214C 300.167,214.667 300.167,215.333 297.5,216C 300.167,216.667 300.167,217.333 297.5,218C 300.167,218.667 300.167,219.333 297.5,220C 300.167,220.667 300.167,221.333 297.5,222C 300.167,222.667 300.167,223.333 297.5,224C 300.167,224.667 300.167,225.333 297.5,226C 300.167,226.667 300.167,227.333 297.5,228C 300.167,228.667 300.167,229.333 297.5,230C 300.167,230.667 300.167,231.333 297.5,232C 300.167,232.667 300.167,233.333 297.5,234C 300.167,234.667 300.167,235.333 297.5,236C 300.167,236.667 300.167,237.333 297.5,238C 300.167,238.667 300.167,239.333 297.5,240C 300.167,240.667 300.167,241.333 297.5,242C 300.167,242.667 300.167,243.333 297.5,244C 300.167,244.667 300.167,245.333 297.5,246C 300.167,246.667 300.167,247.333 297.5,248C 300.167,248.667 300.167,249.333 297.5,250C 300.167,250.667 300.167,251.333 297.5,252C 298.167,252.333 298.833,252.667 299.5,253C 298.748,253.671 298.414,254.504 298.5,255.5C 292.5,252.5 286.5,249.5 280.5,246.5C 278.813,244.834 276.813,243.5 274.5,242.5C 273.833,213.336 273.167,184.336 272.5,155.5C 272.389,154.883 272.056,154.383 271.5,154C 265.175,153.5 258.842,153.334 252.5,153.5C 258.645,152.51 264.978,152.177 271.5,152.5C 270.439,138.697 270.439,125.197 271.5,112C 270.039,109.702 268.372,107.535 266.5,105.5C 268.35,104.352 269.017,103.019 268.5,101.5C 269.584,102.665 270.417,103.998 271,105.5C 271.167,105 271.333,104.5 271.5,104C 270.498,102.234 270.832,100.567 272.5,99C 272.112,97.1918 272.112,95.5252 272.5,94C 270.566,92.2713 270.566,90.2713 272.5,88C 270.606,86.8989 269.939,85.5655 270.5,84C 272.009,82.3264 272.676,80.6597 272.5,79C 271.692,78.6924 271.025,78.1924 270.5,77.5C 271.485,75.9017 271.651,74.235 271,72.5C 270.667,72.8333 270.333,73.1667 270,73.5C 268.5,72 267,70.5 265.5,69C 265.833,68.6667 266.167,68.3333 266.5,68C 265.177,67.1841 264.511,66.0174 264.5,64.5 Z"/></g>
<g><path style="opacity:1" fill="#3851a2" d="M 119.5,73.5 C 120.496,73.4142 121.329,73.7476 122,74.5C 122.236,76.764 122.736,78.9307 123.5,81C 122.167,83 122.167,85 123.5,87C 120.833,87.6667 120.833,88.3333 123.5,89C 120.833,89.6667 120.833,90.3333 123.5,91C 120.833,91.6667 120.833,92.3333 123.5,93C 120.833,93.6667 120.833,94.3333 123.5,95C 120.833,95.6667 120.833,96.3333 123.5,97C 120.833,97.6667 120.833,98.3333 123.5,99C 120.833,99.6667 120.833,100.333 123.5,101C 120.833,101.667 120.833,102.333 123.5,103C 120.833,103.667 120.833,104.333 123.5,105C 120.833,105.667 120.833,106.333 123.5,107C 120.833,107.667 120.833,108.333 123.5,109C 120.833,109.667 120.833,110.333 123.5,111C 120.833,111.667 120.833,112.333 123.5,113C 120.833,113.667 120.833,114.333 123.5,115C 120.833,115.667 120.833,116.333 123.5,117C 120.833,117.667 120.833,118.333 123.5,119C 120.833,119.667 120.833,120.333 123.5,121C 120.833,121.667 120.833,122.333 123.5,123C 120.833,123.667 120.833,124.333 123.5,125C 120.833,125.667 120.833,126.333 123.5,127C 120.833,127.667 120.833,128.333 123.5,129C 120.833,129.667 120.833,130.333 123.5,131C 120.833,131.667 120.833,132.333 123.5,133C 120.833,133.667 120.833,134.333 123.5,135C 120.833,135.667 120.833,136.333 123.5,137C 120.833,137.667 120.833,138.333 123.5,139C 120.833,139.667 120.833,140.333 123.5,141C 120.833,141.667 120.833,142.333 123.5,143C 120.833,143.667 120.833,144.333 123.5,145C 120.833,145.667 120.833,146.333 123.5,147C 120.833,147.667 120.833,148.333 123.5,149C 120.833,149.667 120.833,150.333 123.5,151C 120.833,151.667 120.833,152.333 123.5,153C 120.833,153.667 120.833,154.333 123.5,155C 120.833,155.667 120.833,156.333 123.5,157C 120.833,157.667 120.833,158.333 123.5,159C 120.833,159.667 120.833,160.333 123.5,161C 120.833,161.667 120.833,162.333 123.5,163C 120.833,163.667 120.833,164.333 123.5,165C 120.833,165.667 120.833,166.333 123.5,167C 120.833,167.667 120.833,168.333 123.5,169C 120.833,169.667 120.833,170.333 123.5,171C 120.833,171.667 120.833,172.333 123.5,173C 120.833,173.667 120.833,174.333 123.5,175C 120.833,175.667 120.833,176.333 123.5,177C 120.833,177.667 120.833,178.333 123.5,179C 120.833,179.667 120.833,180.333 123.5,181C 120.833,181.667 120.833,182.333 123.5,183C 120.833,183.667 120.833,184.333 123.5,185C 120.833,185.667 120.833,186.333 123.5,187C 120.833,187.667 120.833,188.333 123.5,189C 120.833,189.667 120.833,190.333 123.5,191C 120.833,191.667 120.833,192.333 123.5,193C 120.833,193.667 120.833,194.333 123.5,195C 120.833,195.667 120.833,196.333 123.5,197C 120.833,197.667 120.833,198.333 123.5,199C 120.833,199.667 120.833,200.333 123.5,201C 120.833,201.667 120.833,202.333 123.5,203C 120.833,203.667 120.833,204.333 123.5,205C 120.833,205.667 120.833,206.333 123.5,207C 120.833,207.667 120.833,208.333 123.5,209C 120.833,209.667 120.833,210.333 123.5,211C 120.833,211.667 120.833,212.333 123.5,213C 120.833,213.667 120.833,214.333 123.5,215C 120.833,215.667 120.833,216.333 123.5,217C 120.833,217.667 120.833,218.333 123.5,219C 121.487,219.875 121.487,221.209 123.5,223C 120.833,223.667 120.833,224.333 123.5,225C 122.833,226.667 122.167,228.333 121.5,230C 123.513,230.875 123.513,232.209 121.5,234C 122.207,237.161 122.874,240.328 123.5,243.5C 121.205,244.475 119.205,245.808 117.5,247.5C 113.034,249.566 108.701,251.9 104.5,254.5C 103.811,253.226 102.977,253.226 102,254.5C 101.684,198.692 101.351,142.692 101,86.5C 100.617,85.944 100.117,85.6107 99.5,85.5C 105.799,81.0115 112.466,77.0115 119.5,73.5 Z"/></g>
<g><path style="opacity:1" fill="#198ecd" d="M 297.5,83.5 C 306.534,88.0119 315.2,93.0119 323.5,98.5C 324.127,108.945 324.127,118.778 323.5,128C 324,128.5 324.5,129 325,129.5C 325.72,127.888 325.554,126.388 324.5,125C 326.004,123.509 326.837,121.676 327,119.5C 327.163,121.676 327.996,123.509 329.5,125C 328.747,126.487 327.914,126.654 327,125.5C 326.333,126.833 326.333,128.167 327,129.5C 327.805,127.099 328.638,127.266 329.5,130C 328.57,131.194 327.903,132.527 327.5,134C 327.579,136.091 327.913,138.258 328.5,140.5C 327.738,144.111 327.238,147.778 327,151.5C 326.667,148.167 326.333,144.833 326,141.5C 325.5,142 325,142.5 324.5,143C 326.013,145.454 325.346,147.121 322.5,148C 323.33,185.429 323.83,222.929 324,260.5C 324.5,261 325,261.5 325.5,262C 323.381,264.218 323.048,266.718 324.5,269.5C 325.192,268.975 325.692,268.308 326,267.5C 327.334,268.878 327.501,270.211 326.5,271.5C 316.833,266.669 307.5,261.336 298.5,255.5C 298.414,254.504 298.748,253.671 299.5,253C 298.833,252.667 298.167,252.333 297.5,252C 300.167,251.333 300.167,250.667 297.5,250C 300.167,249.333 300.167,248.667 297.5,248C 300.167,247.333 300.167,246.667 297.5,246C 300.167,245.333 300.167,244.667 297.5,244C 300.167,243.333 300.167,242.667 297.5,242C 300.167,241.333 300.167,240.667 297.5,240C 300.167,239.333 300.167,238.667 297.5,238C 300.167,237.333 300.167,236.667 297.5,236C 300.167,235.333 300.167,234.667 297.5,234C 300.167,233.333 300.167,232.667 297.5,232C 300.167,231.333 300.167,230.667 297.5,230C 300.167,229.333 300.167,228.667 297.5,228C 300.167,227.333 300.167,226.667 297.5,226C 300.167,225.333 300.167,224.667 297.5,224C 300.167,223.333 300.167,222.667 297.5,222C 300.167,221.333 300.167,220.667 297.5,220C 300.167,219.333 300.167,218.667 297.5,218C 300.167,217.333 300.167,216.667 297.5,216C 300.167,215.333 300.167,214.667 297.5,214C 300.167,213.333 300.167,212.667 297.5,212C 300.167,211.333 300.167,210.667 297.5,210C 300.167,209.333 300.167,208.667 297.5,208C 300.167,207.333 300.167,206.667 297.5,206C 300.167,205.333 300.167,204.667 297.5,204C 300.167,203.333 300.167,202.667 297.5,202C 300.167,201.333 300.167,200.667 297.5,200C 300.167,199.333 300.167,198.667 297.5,198C 300.167,197.333 300.167,196.667 297.5,196C 300.167,195.333 300.167,194.667 297.5,194C 300.167,193.333 300.167,192.667 297.5,192C 300.167,191.333 300.167,190.667 297.5,190C 300.167,189.333 300.167,188.667 297.5,188C 300.167,187.333 300.167,186.667 297.5,186C 300.167,185.333 300.167,184.667 297.5,184C 300.167,183.333 300.167,182.667 297.5,182C 300.167,181.333 300.167,180.667 297.5,180C 300.167,179.333 300.167,178.667 297.5,178C 300.167,177.333 300.167,176.667 297.5,176C 300.167,175.333 300.167,174.667 297.5,174C 300.167,173.333 300.167,172.667 297.5,172C 300.167,171.333 300.167,170.667 297.5,170C 300.167,169.333 300.167,168.667 297.5,168C 300.167,167.333 300.167,166.667 297.5,166C 300.167,165.333 300.167,164.667 297.5,164C 300.167,163.333 300.167,162.667 297.5,162C 300.167,161.333 300.167,160.667 297.5,160C 300.167,159.333 300.167,158.667 297.5,158C 300.167,157.333 300.167,156.667 297.5,156C 300.167,155.333 300.167,154.667 297.5,154C 300.167,153.333 300.167,152.667 297.5,152C 300.167,151.333 300.167,150.667 297.5,150C 300.167,149.333 300.167,148.667 297.5,148C 300.167,147.333 300.167,146.667 297.5,146C 300.167,145.333 300.167,144.667 297.5,144C 300.167,143.333 300.167,142.667 297.5,142C 300.167,141.333 300.167,140.667 297.5,140C 300.167,139.333 300.167,138.667 297.5,138C 300.167,137.333 300.167,136.667 297.5,136C 300.167,135.333 300.167,134.667 297.5,134C 300.167,133.333 300.167,132.667 297.5,132C 300.167,131.333 300.167,130.667 297.5,130C 300.167,129.333 300.167,128.667 297.5,128C 300.167,127.333 300.167,126.667 297.5,126C 300.167,125.333 300.167,124.667 297.5,124C 300.167,123.333 300.167,122.667 297.5,122C 300.167,121.333 300.167,120.667 297.5,120C 300.167,119.333 300.167,118.667 297.5,118C 300.167,117.333 300.167,116.667 297.5,116C 300.167,115.333 300.167,114.667 297.5,114C 300.167,113.333 300.167,112.667 297.5,112C 300.167,111.333 300.167,110.667 297.5,110C 300.167,109.333 300.167,108.667 297.5,108C 300.167,107.333 300.167,106.667 297.5,106C 300.167,105.333 300.167,104.667 297.5,104C 299.991,103.374 299.991,102.541 297.5,101.5C 298.183,98.5386 299.016,98.2053 300,100.5C 301.294,99.1456 301.46,97.8123 300.5,96.5C 302.521,93.8548 302.354,91.1881 300,88.5C 299.195,90.9011 298.362,90.7344 297.5,88C 297.598,86.382 297.598,84.882 297.5,83.5 Z"/></g>
<g><path style="opacity:1" fill="#384ba2" d="M 99.5,85.5 C 100.117,85.6107 100.617,85.944 101,86.5C 101.351,142.692 101.684,198.692 102,254.5C 102.977,253.226 103.811,253.226 104.5,254.5C 99.9634,256.93 95.6301,259.597 91.5,262.5C 89.8333,263.167 88.1667,263.833 86.5,264.5C 85.6709,208.237 85.1709,151.904 85,95.5C 83.8932,96.7119 83.3932,96.3786 83.5,94.5C 88.5016,90.9969 93.835,87.9969 99.5,85.5 Z"/></g>
<g><path style="opacity:1" fill="#384b9c" d="M 83.5,94.5 C 83.3932,96.3786 83.8932,96.7119 85,95.5C 85.1709,151.904 85.6709,208.237 86.5,264.5C 80.3717,268.736 74.0384,272.736 67.5,276.5C 68.1266,273.185 68.1266,270.019 67.5,267C 67.7591,265.739 68.4258,264.739 69.5,264C 68.1667,219.333 68.1667,174.667 69.5,130C 68.4258,129.261 67.7591,128.261 67.5,127C 68.449,120.694 68.1156,114.194 66.5,107.5C 65.4728,108.791 64.4728,108.791 63.5,107.5C 69.4763,102.174 76.1429,97.8405 83.5,94.5 Z"/></g>
<g><path style="opacity:1" fill="#1b96d3" d="M 323.5,98.5 C 337.263,104.436 345.763,114.77 349,129.5C 349.667,175.833 349.667,222.167 349,268.5C 348.626,273.243 347.126,277.576 344.5,281.5C 337.89,279.197 331.89,275.863 326.5,271.5C 327.501,270.211 327.334,268.878 326,267.5C 325.692,268.308 325.192,268.975 324.5,269.5C 323.048,266.718 323.381,264.218 325.5,262C 325,261.5 324.5,261 324,260.5C 323.83,222.929 323.33,185.429 322.5,148C 325.346,147.121 326.013,145.454 324.5,143C 325,142.5 325.5,142 326,141.5C 326.333,144.833 326.667,148.167 327,151.5C 327.238,147.778 327.738,144.111 328.5,140.5C 327.913,138.258 327.579,136.091 327.5,134C 327.903,132.527 328.57,131.194 329.5,130C 328.638,127.266 327.805,127.099 327,129.5C 326.333,128.167 326.333,126.833 327,125.5C 327.914,126.654 328.747,126.487 329.5,125C 327.996,123.509 327.163,121.676 327,119.5C 326.837,121.676 326.004,123.509 324.5,125C 325.554,126.388 325.72,127.888 325,129.5C 324.5,129 324,128.5 323.5,128C 324.127,118.778 324.127,108.945 323.5,98.5 Z"/></g>
<g><path style="opacity:1" fill="#3d459c" d="M 63.5,107.5 C 64.4728,108.791 65.4728,108.791 66.5,107.5C 68.1156,114.194 68.449,120.694 67.5,127C 67.7591,128.261 68.4258,129.261 69.5,130C 68.1667,174.667 68.1667,219.333 69.5,264C 68.4258,264.739 67.7591,265.739 67.5,267C 68.1266,270.019 68.1266,273.185 67.5,276.5C 64.2559,276.898 61.5892,278.398 59.5,281C 58.2068,281.49 56.8734,281.657 55.5,281.5C 53.8563,277.281 52.3563,272.947 51,268.5C 50.3333,222.5 50.3333,176.5 51,130.5C 52.5921,121.308 56.7588,113.641 63.5,107.5 Z"/></g>
<g><path style="opacity:1" fill="#f6f7f9" d="M 197.5,112.5 C 203.176,112.334 208.843,112.501 214.5,113C 215,113.5 215.5,114 216,114.5C 216.5,146.165 216.667,177.832 216.5,209.5C 216.667,227.17 216.5,244.836 216,262.5C 215.062,264.488 214.228,266.488 213.5,268.5C 206.517,274.998 198.183,277.331 188.5,275.5C 186.61,275.703 185.11,275.037 184,273.5C 183.5,252.169 183.333,230.836 183.5,209.5C 183.333,180.831 183.5,152.165 184,123.5C 185.967,116.697 190.467,113.031 197.5,112.5 Z"/></g>
<g><path style="opacity:1" fill="#f8f9f9" d="M 252.5,153.5 C 258.842,153.334 265.175,153.5 271.5,154C 272.056,154.383 272.389,154.883 272.5,155.5C 272.667,192.168 272.5,228.835 272,265.5C 265.229,274.912 256.062,278.245 244.5,275.5C 242.983,275.489 241.816,274.823 241,273.5C 240.5,238.502 240.333,203.502 240.5,168.5C 240.448,166.097 240.781,163.764 241.5,161.5C 244.019,157.322 247.686,154.655 252.5,153.5 Z"/></g>
<g><path style="opacity:1" fill="#2c9bce" d="M 240.5,168.5 C 240.333,203.502 240.5,238.502 241,273.5C 241.816,274.823 242.983,275.489 244.5,275.5C 243.531,276.309 242.698,277.309 242,278.5C 241,276.833 240,275.167 239,273.5C 238.5,274.5 238,275.5 237.5,276.5C 237.569,278.278 237.903,280.111 238.5,282C 236.219,283.851 236.219,285.518 238.5,287C 238.5,290.333 238.5,293.667 238.5,297C 237.833,298.667 237.167,300.333 236.5,302C 237.687,303.019 238.687,304.186 239.5,305.5C 238.471,305.296 237.471,305.796 236.5,307C 236.764,309.785 237.764,312.619 239.5,315.5C 238.471,315.296 237.471,315.796 236.5,317C 238.266,319.096 239.599,321.429 240.5,324C 239.101,325.062 238.101,326.395 237.5,328C 238.239,334.784 238.572,341.451 238.5,348C 237.672,348.915 236.672,349.581 235.5,350C 236.056,350.383 236.389,350.883 236.5,351.5C 230.63,354.19 224.963,357.356 219.5,361C 216.647,362.43 213.647,363.263 210.5,363.5C 214.113,361.191 215.447,358.025 214.5,354C 217.044,352.225 217.044,350.392 214.5,348.5C 215.278,345.108 215.278,341.942 214.5,339C 216.756,337.166 216.756,335.499 214.5,334C 214.47,326.439 214.803,318.773 215.5,311C 213.078,309.112 213.078,307.112 215.5,305C 214.167,303.667 214.167,302.333 215.5,301C 213.201,298.465 213.201,295.798 215.5,293C 214.833,292.333 214.167,291.667 213.5,291C 216.858,289.165 217.191,286.998 214.5,284.5C 215.128,282.742 216.128,281.242 217.5,280C 216.333,278.833 215.167,277.667 214,276.5C 213.699,273.538 213.532,270.872 213.5,268.5C 214.228,266.488 215.062,264.488 216,262.5C 216.5,244.836 216.667,227.17 216.5,209.5C 216.833,209.5 217.167,209.5 217.5,209.5C 224.654,213.669 231.82,218.002 239,222.5C 239.168,204.329 239.668,186.329 240.5,168.5 Z"/></g>
<g><path style="opacity:1" fill="#f9f9f9" d="M 138.5,210.5 C 145.175,210.334 151.842,210.5 158.5,211C 159.46,214.73 159.793,218.563 159.5,222.5C 159.667,236.504 159.5,250.504 159,264.5C 156.744,269.757 152.91,273.257 147.5,275C 141.843,275.499 136.176,275.666 130.5,275.5C 129.504,275.586 128.671,275.252 128,274.5C 127.5,256.836 127.333,239.17 127.5,221.5C 128.829,215.504 132.496,211.837 138.5,210.5 Z"/></g>
<g><path style="opacity:1" fill="#2b89c7" d="M 183.5,209.5 C 183.333,230.836 183.5,252.169 184,273.5C 185.11,275.037 186.61,275.703 188.5,275.5C 189.429,276.315 190.429,277.148 191.5,278C 190.949,279.398 190.616,280.732 190.5,282C 191.743,283.154 192.743,284.488 193.5,286C 192.5,287.667 191.5,289.333 190.5,291C 193.529,294.503 192.862,297.837 188.5,301C 190.756,302.499 190.756,304.166 188.5,306C 188.62,313.393 188.62,320.893 188.5,328.5C 188.667,328.833 188.833,329.167 189,329.5C 189.915,328.672 190.581,327.672 191,326.5C 191.5,327.5 192,328.5 192.5,329.5C 191.835,331.101 191.501,332.601 191.5,334C 194.167,335.333 194.167,336.667 191.5,338C 194.28,340.109 194.113,341.942 191,343.5C 187.032,338.242 186.532,338.742 189.5,345C 188.167,347 188.167,349 189.5,351C 187.988,353.653 187.655,356.319 188.5,359C 188.138,360.434 187.472,361.601 186.5,362.5C 179.651,361.076 173.651,358.076 168.5,353.5C 169.807,351.777 169.807,349.943 168.5,348C 169.167,347.667 169.833,347.333 170.5,347C 169.362,340.626 169.362,334.293 170.5,328C 169.833,327.333 169.167,326.667 168.5,326C 169.833,324.667 169.833,323.333 168.5,322C 169.167,321 169.833,320 170.5,319C 169.698,315.847 169.365,312.847 169.5,310C 172.167,308.667 172.167,307.333 169.5,306C 168.911,304.127 169.578,302.46 171.5,301C 170.5,300 169.5,299 168.5,298C 169.167,297.667 169.833,297.333 170.5,297C 170.614,294.189 170.281,291.522 169.5,289C 171.807,287.172 171.474,285.506 168.5,284C 171.763,283.131 172.096,281.797 169.5,280C 172.167,278.667 172.167,277.333 169.5,276C 172.167,274.667 172.167,273.333 169.5,272C 169.607,256.224 169.941,240.557 170.5,225C 167.833,224.333 167.833,223.667 170.5,223C 168.431,222.676 168.098,221.842 169.5,220.5C 168.675,219.614 167.675,219.281 166.5,219.5C 167.795,218.512 169.128,217.512 170.5,216.5C 174.701,213.9 179.034,211.566 183.5,209.5 Z"/></g>
<g><path style="opacity:1" fill="#2d83c1" d="M 166.5,219.5 C 167.675,219.281 168.675,219.614 169.5,220.5C 168.098,221.842 168.431,222.676 170.5,223C 167.833,223.667 167.833,224.333 170.5,225C 169.941,240.557 169.607,256.224 169.5,272C 172.167,273.333 172.167,274.667 169.5,276C 172.167,277.333 172.167,278.667 169.5,280C 172.096,281.797 171.763,283.131 168.5,284C 171.474,285.506 171.807,287.172 169.5,289C 170.281,291.522 170.614,294.189 170.5,297C 169.833,297.333 169.167,297.667 168.5,298C 169.5,299 170.5,300 171.5,301C 169.578,302.46 168.911,304.127 169.5,306C 172.167,307.333 172.167,308.667 169.5,310C 169.365,312.847 169.698,315.847 170.5,319C 169.833,320 169.167,321 168.5,322C 169.833,323.333 169.833,324.667 168.5,326C 169.167,326.667 169.833,327.333 170.5,328C 169.362,334.293 169.362,340.626 170.5,347C 169.833,347.333 169.167,347.667 168.5,348C 169.807,349.943 169.807,351.777 168.5,353.5C 159.434,348.974 150.768,343.974 142.5,338.5C 144.196,338.315 145.529,337.481 146.5,336C 145.535,332.783 145.535,329.45 146.5,326C 145.809,324.933 145.309,323.766 145,322.5C 144.667,323.5 144.333,324.5 144,325.5C 142.436,322.046 142.436,318.712 144,315.5C 144.805,317.901 145.638,317.734 146.5,315C 145.446,313.612 145.28,312.112 146,310.5C 148.861,310.908 149.028,310.075 146.5,308C 147.167,307.333 147.833,306.667 148.5,306C 147.313,304.981 146.313,303.814 145.5,302.5C 145.746,298.674 146.079,294.841 146.5,291C 145.921,287.861 144.921,284.861 143.5,282C 144.5,281.667 145.5,281.333 146.5,281C 144.152,280.654 142.319,279.487 141,277.5C 140.667,277.833 140.333,278.167 140,278.5C 136.633,277.867 133.466,276.867 130.5,275.5C 136.176,275.666 141.843,275.499 147.5,275C 152.91,273.257 156.744,269.757 159,264.5C 159.5,250.504 159.667,236.504 159.5,222.5C 161.687,221.242 164.02,220.242 166.5,219.5 Z"/></g>
<g><path style="opacity:1" fill="#2ea3d4" d="M 272.5,155.5 C 273.167,184.336 273.833,213.336 274.5,242.5C 276.813,243.5 278.813,244.834 280.5,246.5C 280.062,246.435 279.728,246.601 279.5,247C 284.024,248.69 285.357,251.357 283.5,255C 284.167,255.667 284.833,256.333 285.5,257C 282.4,259.792 280.733,263.292 280.5,267.5C 282.435,271.191 284.102,274.691 285.5,278C 283.804,279.266 281.971,279.1 280,277.5C 278.833,278.667 277.667,279.833 276.5,281C 276.888,282.525 276.888,284.192 276.5,286C 279.667,289.155 281.501,292.988 282,297.5C 282.333,296.167 282.667,294.833 283,293.5C 284.353,297.072 284.187,300.739 282.5,304.5C 282.39,306.374 283.056,307.874 284.5,309C 283.874,309.75 283.374,310.584 283,311.5C 282.174,309.595 281.007,309.261 279.5,310.5C 281.111,313.22 281.944,316.22 282,319.5C 282.333,317.167 282.667,314.833 283,312.5C 283.226,315.095 283.726,317.595 284.5,320C 283.638,322.734 282.805,322.901 282,320.5C 281.333,321.833 280.667,323.167 280,324.5C 277.293,324.989 275.126,326.656 273.5,329.5C 261.244,336.824 248.911,344.157 236.5,351.5C 236.389,350.883 236.056,350.383 235.5,350C 236.672,349.581 237.672,348.915 238.5,348C 238.572,341.451 238.239,334.784 237.5,328C 238.101,326.395 239.101,325.062 240.5,324C 239.599,321.429 238.266,319.096 236.5,317C 237.471,315.796 238.471,315.296 239.5,315.5C 237.764,312.619 236.764,309.785 236.5,307C 237.471,305.796 238.471,305.296 239.5,305.5C 238.687,304.186 237.687,303.019 236.5,302C 237.167,300.333 237.833,298.667 238.5,297C 238.5,293.667 238.5,290.333 238.5,287C 236.219,285.518 236.219,283.851 238.5,282C 237.903,280.111 237.569,278.278 237.5,276.5C 238,275.5 238.5,274.5 239,273.5C 240,275.167 241,276.833 242,278.5C 242.698,277.309 243.531,276.309 244.5,275.5C 256.062,278.245 265.229,274.912 272,265.5C 272.5,228.835 272.667,192.168 272.5,155.5 Z"/></g>
<g><path style="opacity:1" fill="#3577bb" d="M 127.5,221.5 C 127.333,239.17 127.5,256.836 128,274.5C 128.671,275.252 129.504,275.586 130.5,275.5C 133.466,276.867 136.633,277.867 140,278.5C 140.333,278.167 140.667,277.833 141,277.5C 142.319,279.487 144.152,280.654 146.5,281C 145.5,281.333 144.5,281.667 143.5,282C 144.921,284.861 145.921,287.861 146.5,291C 146.079,294.841 145.746,298.674 145.5,302.5C 146.313,303.814 147.313,304.981 148.5,306C 147.833,306.667 147.167,307.333 146.5,308C 149.028,310.075 148.861,310.908 146,310.5C 145.28,312.112 145.446,313.612 146.5,315C 145.638,317.734 144.805,317.901 144,315.5C 142.436,318.712 142.436,322.046 144,325.5C 144.333,324.5 144.667,323.5 145,322.5C 145.309,323.766 145.809,324.933 146.5,326C 145.535,329.45 145.535,332.783 146.5,336C 145.529,337.481 144.196,338.315 142.5,338.5C 133.499,334.002 124.832,329.002 116.5,323.5C 118.05,321.7 119.05,319.533 119.5,317C 119.567,313.111 119.234,309.111 118.5,305C 118.759,303.739 119.426,302.739 120.5,302C 119.167,300 119.167,298 120.5,296C 117.872,292.535 117.872,289.035 120.5,285.5C 118.027,283.902 118.027,282.402 120.5,281C 120.656,279.33 119.99,277.663 118.5,276C 119.353,268.794 120.019,262.127 120.5,256C 119.638,253.266 118.805,253.099 118,255.5C 117.535,254.069 116.701,252.903 115.5,252C 116.253,250.513 117.086,250.346 118,251.5C 118.579,250.072 118.412,248.738 117.5,247.5C 119.205,245.808 121.205,244.475 123.5,243.5C 124.15,243.196 124.817,242.863 125.5,242.5C 126.167,235.345 126.833,228.345 127.5,221.5 Z"/></g>
<g><path style="opacity:1" fill="#336bb5" d="M 117.5,247.5 C 118.412,248.738 118.579,250.072 118,251.5C 117.086,250.346 116.253,250.513 115.5,252C 116.701,252.903 117.535,254.069 118,255.5C 118.805,253.099 119.638,253.266 120.5,256C 120.019,262.127 119.353,268.794 118.5,276C 119.99,277.663 120.656,279.33 120.5,281C 118.027,282.402 118.027,283.902 120.5,285.5C 117.872,289.035 117.872,292.535 120.5,296C 119.167,298 119.167,300 120.5,302C 119.426,302.739 118.759,303.739 118.5,305C 119.234,309.111 119.567,313.111 119.5,317C 119.05,319.533 118.05,321.7 116.5,323.5C 106.833,318.669 97.4998,313.336 88.5,307.5C 88.3437,306.502 88.8437,305.502 90,304.5C 91.6246,308.047 93.4579,307.88 95.5,304C 94.5305,302.242 93.3639,301.742 92,302.5C 91.8333,301.667 91.6667,300.833 91.5,300C 92.5357,297.592 92.5357,295.259 91.5,293C 92.6813,290.254 93.6813,287.588 94.5,285C 93.1913,281.013 93.1913,277.013 94.5,273C 91.526,271.494 91.1927,269.828 93.5,268C 92.1667,267 92.1667,266 93.5,265C 92.6195,264.292 91.9528,263.458 91.5,262.5C 95.6301,259.597 99.9634,256.93 104.5,254.5C 108.701,251.9 113.034,249.566 117.5,247.5 Z"/></g>
<g><path style="opacity:1" fill="#27a7d9" d="M 280.5,246.5 C 286.5,249.5 292.5,252.5 298.5,255.5C 307.5,261.336 316.833,266.669 326.5,271.5C 331.89,275.863 337.89,279.197 344.5,281.5C 341.803,286.706 338.137,291.206 333.5,295C 313.64,306.763 293.64,318.263 273.5,329.5C 275.126,326.656 277.293,324.989 280,324.5C 280.667,323.167 281.333,321.833 282,320.5C 282.805,322.901 283.638,322.734 284.5,320C 283.726,317.595 283.226,315.095 283,312.5C 282.667,314.833 282.333,317.167 282,319.5C 281.944,316.22 281.111,313.22 279.5,310.5C 281.007,309.261 282.174,309.595 283,311.5C 283.374,310.584 283.874,309.75 284.5,309C 283.056,307.874 282.39,306.374 282.5,304.5C 284.187,300.739 284.353,297.072 283,293.5C 282.667,294.833 282.333,296.167 282,297.5C 281.501,292.988 279.667,289.155 276.5,286C 276.888,284.192 276.888,282.525 276.5,281C 277.667,279.833 278.833,278.667 280,277.5C 281.971,279.1 283.804,279.266 285.5,278C 284.102,274.691 282.435,271.191 280.5,267.5C 280.733,263.292 282.4,259.792 285.5,257C 284.833,256.333 284.167,255.667 283.5,255C 285.357,251.357 284.024,248.69 279.5,247C 279.728,246.601 280.062,246.435 280.5,246.5 Z"/></g>
<g><path style="opacity:1" fill="#3865b0" d="M 91.5,262.5 C 91.9528,263.458 92.6195,264.292 93.5,265C 92.1667,266 92.1667,267 93.5,268C 91.1927,269.828 91.526,271.494 94.5,273C 93.1913,277.013 93.1913,281.013 94.5,285C 93.6813,287.588 92.6813,290.254 91.5,293C 92.5357,295.259 92.5357,297.592 91.5,300C 91.6667,300.833 91.8333,301.667 92,302.5C 93.3639,301.742 94.5305,302.242 95.5,304C 93.4579,307.88 91.6246,308.047 90,304.5C 88.8437,305.502 88.3437,306.502 88.5,307.5C 80.5321,303.516 72.8654,299.016 65.5,294C 61.7978,290.077 58.4644,285.91 55.5,281.5C 56.8734,281.657 58.2068,281.49 59.5,281C 61.5892,278.398 64.2559,276.898 67.5,276.5C 74.0384,272.736 80.3717,268.736 86.5,264.5C 88.1667,263.833 89.8333,263.167 91.5,262.5 Z"/></g>
<g><path style="opacity:1" fill="#2c90c8" d="M 213.5,268.5 C 213.532,270.872 213.699,273.538 214,276.5C 215.167,277.667 216.333,278.833 217.5,280C 216.128,281.242 215.128,282.742 214.5,284.5C 217.191,286.998 216.858,289.165 213.5,291C 214.167,291.667 214.833,292.333 215.5,293C 213.201,295.798 213.201,298.465 215.5,301C 214.167,302.333 214.167,303.667 215.5,305C 213.078,307.112 213.078,309.112 215.5,311C 214.803,318.773 214.47,326.439 214.5,334C 216.756,335.499 216.756,337.166 214.5,339C 215.278,341.942 215.278,345.108 214.5,348.5C 217.044,350.392 217.044,352.225 214.5,354C 215.447,358.025 214.113,361.191 210.5,363.5C 207.474,365.019 204.141,365.685 200.5,365.5C 196.122,365.378 191.789,364.878 187.5,364C 186.944,363.617 186.611,363.117 186.5,362.5C 187.472,361.601 188.138,360.434 188.5,359C 187.655,356.319 187.988,353.653 189.5,351C 188.167,349 188.167,347 189.5,345C 186.532,338.742 187.032,338.242 191,343.5C 194.113,341.942 194.28,340.109 191.5,338C 194.167,336.667 194.167,335.333 191.5,334C 191.501,332.601 191.835,331.101 192.5,329.5C 192,328.5 191.5,327.5 191,326.5C 190.581,327.672 189.915,328.672 189,329.5C 188.833,329.167 188.667,328.833 188.5,328.5C 188.62,320.893 188.62,313.393 188.5,306C 190.756,304.166 190.756,302.499 188.5,301C 192.862,297.837 193.529,294.503 190.5,291C 191.5,289.333 192.5,287.667 193.5,286C 192.743,284.488 191.743,283.154 190.5,282C 190.616,280.732 190.949,279.398 191.5,278C 190.429,277.148 189.429,276.315 188.5,275.5C 198.183,277.331 206.517,274.998 213.5,268.5 Z"/></g>
</svg>
