<?xml version="1.0" encoding="UTF-8"?>
<svg id="Layer_1" data-name="Layer 1" xmlns="http://www.w3.org/2000/svg" viewBox="0 0 960 960">
  <defs>
    <style>
      .cls-1 {
        fill: #1f5b98;
      }

      .cls-1, .cls-2, .cls-3, .cls-4 {
        stroke-width: 0px;
      }

      .cls-2 {
        fill: #5294cf;
      }

      .cls-3 {
        fill: #2d72b8;
      }

      .cls-4 {
        fill: #1a476f;
      }
    </style>
  </defs>
  <path class="cls-2" d="M602.59,955.32h11.56l188.66-94.34,3.14-4.44V103.49l-3.14-4.46L614.15,4.77h-11.7l.14,950.55"/>
  <path class="cls-1" d="M357.07,955.32h-11.72l-188.5-94.34-3.83-6.58-1.94-747.07,5.77-8.3L345.36,4.77h11.86l-.14,950.55"/>
  <path class="cls-3" d="M345.69,4.77h268.28v950.55h-268.28V4.77Z"/>
  <path class="cls-4" d="M901.57,458.69l-6.38-1.41-91.03-8.49-1.35.67-188.83-7.55h-268.29l-188.83,7.55v-144l-.2.11.2-.42,188.83-43.75h268.29l188.83,43.75,69.42,36.9v-23.72l29.34-3.21-3.04-5.92-92.89-66.42-2.83.92-188.83-58.51h-268.29l-188.83,58.51V99.03l-98.75,115.69v101.04l.76-.55,28.57,3.12v24.21l-29.34,15.7v100.53l.76-.08,28.57.42v42.2l-24.65.37-4.69-.45v100.57l29.34,15.78v24.49l-28.11,3.1-1.23-.92v101.02l98.75,115.71v-144.64l188.83,58.51h268.29l189.39-58.68,2.52,1.1,91.66-65.44,4.02-6.52-29.34-3.24v-24l-3.84-1.54-62.74,33.82-2.27,4.74-189.39,43.5v.05h-268.29v-.05l-188.83-43.69v-144.52l188.83,7.53v.18h268.29l188.83-7.71,4.3,1.98,88.23-7.6,6.22-3.04-29.34-.42v-42.2l29.34-.42"/>
  <path class="cls-3" d="M802.81,716.33v144.64l98.75-115.71v-100.36l-98.18,71.25-.57.17"/>
  <path class="cls-3" d="M802.81,655.23l.57-.13,98.18-52.81v-100.98l-98.75,9.08v144.84"/>
  <path class="cls-3" d="M803.38,305.28l-.57-.13v144.31l98.75,9.23v-100.93l-98.18-52.48"/>
  <path class="cls-3" d="M803.38,244.26l98.18,70.86v-100.37l-98.75-115.72v144.66l.57.2v.37"/>
</svg>