<?xml version="1.0" encoding="UTF-8"?>
<!DOCTYPE svg PUBLIC "-//W3C//DTD SVG 1.1//EN" "http://www.w3.org/Graphics/SVG/1.1/DTD/svg11.dtd">
<svg xmlns="http://www.w3.org/2000/svg" version="1.1" width="600px" height="600px" style="shape-rendering:geometricPrecision; text-rendering:geometricPrecision; image-rendering:optimizeQuality; fill-rule:evenodd; clip-rule:evenodd" xmlns:xlink="http://www.w3.org/1999/xlink">
<g><path style="opacity:1" fill="#f9f9f9" d="M -0.5,-0.5 C 199.5,-0.5 399.5,-0.5 599.5,-0.5C 599.5,199.5 599.5,399.5 599.5,599.5C 399.5,599.5 199.5,599.5 -0.5,599.5C -0.5,399.5 -0.5,199.5 -0.5,-0.5 Z"/></g>
<g><path style="opacity:1" fill="#6464da" d="M 48.5,477.5 C 51.8411,477.656 54.6745,478.989 57,481.5C 56.5735,478.879 55.0735,476.879 52.5,475.5C 48.2404,468.512 43.2404,467.845 37.5,473.5C 34.0254,472.857 32.8588,470.857 34,467.5C 35.8333,465.167 37.6667,462.833 39.5,460.5C 38.4798,458.568 38.3131,456.568 39,454.5C 82.7921,413.377 124.459,370.377 164,325.5C 213.667,267.833 263.333,210.167 313,152.5C 330.333,130.5 347.667,108.5 365,86.5C 365.333,84.5 365.667,82.5 366,80.5C 369.364,79.2607 372.864,78.5941 376.5,78.5C 376.338,76.4727 376.505,74.4727 377,72.5C 379.754,70.8726 382.588,69.3726 385.5,68C 441.32,52.2357 497.82,39.4023 555,29.5C 560.47,29.1265 562.303,31.4599 560.5,36.5C 559.092,37.2432 557.759,38.0766 556.5,39C 561.149,43.131 563.483,48.2976 563.5,54.5C 560.773,113.862 550.607,171.862 533,228.5C 531.415,229.376 530.415,230.709 530,232.5C 472.469,275.016 416.969,320.183 363.5,368C 293.346,431.482 225.013,497.148 158.5,565C 155.506,565.513 152.839,566.68 150.5,568.5C 148.734,567.909 147.067,567.076 145.5,566C 112.574,538.285 79.7405,510.452 47,482.5C 46.4014,480.465 46.9014,478.799 48.5,477.5 Z"/></g>
<g><path style="opacity:1" fill="#6464da" d="M 34.5,40.5 C 52.5859,45.7712 70.9193,50.2712 89.5,54C 119.841,59.6675 150.175,65.3341 180.5,71C 181.833,71.6667 183.167,72.3333 184.5,73C 210.322,98.299 236.155,123.466 262,148.5C 263.048,152.48 261.715,155.48 258,157.5C 257.562,160.376 256.562,163.043 255,165.5C 226.768,204.411 196.268,241.578 163.5,277C 160.167,277.667 156.833,277.667 153.5,277C 125.789,255.629 98.9554,233.129 73,209.5C 67.9063,191.979 62.2396,174.646 56,157.5C 49.5175,122.185 41.5175,87.1851 32,52.5C 30.7734,47.938 31.6067,43.938 34.5,40.5 Z"/></g>
<g><path style="opacity:1" fill="#e6e5f5" d="M 47.5,59.5 C 48.675,59.281 49.675,59.6143 50.5,60.5C 52.1531,64.7785 53.6531,69.1119 55,73.5C 58.9766,92.0203 61.6432,110.687 63,129.5C 58.2762,106.045 53.1095,82.712 47.5,59.5 Z"/></g>
<g><path style="opacity:1" fill="#ebeaf7" d="M 152.5,74.5 C 161.445,74.7989 170.445,76.2989 179.5,79C 183.533,83.3679 187.866,87.3679 192.5,91C 179.308,85.4284 165.974,79.9284 152.5,74.5 Z"/></g>
<g><path style="opacity:1" fill="#f8f8f9" d="M 434.5,126.5 C 454.322,127.482 467.822,137.149 475,155.5C 477.083,180.35 465.749,194.017 441,196.5C 425.708,193.549 415.708,184.549 411,169.5C 410.279,153.282 417.112,141.282 431.5,133.5C 432.132,130.939 433.132,128.605 434.5,126.5 Z"/></g>
<g><path style="opacity:1" fill="#dcdaf3" d="M 337.5,154.5 C 337.737,153.209 337.404,152.209 336.5,151.5C 346.888,138.607 356.721,125.274 366,111.5C 366.654,110.304 367.154,110.304 367.5,111.5C 357.442,125.875 347.442,140.208 337.5,154.5 Z"/></g>
<g><path style="opacity:1" fill="#aaa8e7" d="M 327.5,150.5 C 327.5,150.167 327.5,149.833 327.5,149.5C 330.118,145.709 332.951,142.043 336,138.5C 334.249,143.114 331.415,147.114 327.5,150.5 Z"/></g>
<g><path style="opacity:1" fill="#f1f1f8" d="M 336.5,151.5 C 337.404,152.209 337.737,153.209 337.5,154.5C 321.371,178.805 303.871,202.138 285,224.5C 250.08,266.091 214.413,307.091 178,347.5C 138.596,385.782 99.0961,423.948 59.5,462C 58.5509,462.617 57.7175,462.451 57,461.5C 56.3653,459.365 56.6986,457.365 58,455.5C 158.962,360.936 251.796,259.603 336.5,151.5 Z"/></g>
<g><path style="opacity:1" fill="#efeef7" d="M 456.5,280.5 C 456.167,280.5 455.833,280.5 455.5,280.5C 475.841,261.328 496.674,242.662 518,224.5C 521.779,219.277 524.779,213.61 527,207.5C 528.333,198.833 529.667,190.167 531,181.5C 533.995,176.194 536.828,176.194 539.5,181.5C 535.64,196.582 531.473,211.582 527,226.5C 503.054,243.949 479.554,261.949 456.5,280.5 Z"/></g>
<g><path style="opacity:1" fill="#e6e5f6" d="M 327.5,149.5 C 327.5,149.833 327.5,150.167 327.5,150.5C 276.197,216.489 221.531,279.822 163.5,340.5C 163.167,340.5 162.833,340.5 162.5,340.5C 188.102,311.058 213.936,281.724 240,252.5C 269.031,217.975 298.198,183.642 327.5,149.5 Z"/></g>
<g><path style="opacity:1" fill="#b7b4ea" d="M 455.5,280.5 C 455.833,280.5 456.167,280.5 456.5,280.5C 453.878,282.782 451.212,285.115 448.5,287.5C 449.532,284.461 451.865,282.128 455.5,280.5 Z"/></g>
<g><path style="opacity:1" fill="#6564da" d="M 448.5,339.5 C 449.873,339.343 451.207,339.51 452.5,340C 492.991,381.48 530.157,425.647 564,472.5C 570.476,474.606 571.143,477.939 566,482.5C 544.667,505.833 523.333,529.167 502,552.5C 498.955,554.781 495.788,556.781 492.5,558.5C 489.367,557.139 486.033,556.306 482.5,556C 479.5,552.333 476.5,548.667 473.5,545C 429.841,512.015 387.341,477.515 346,441.5C 345.333,439.833 345.333,438.167 346,436.5C 353.802,427.697 361.969,419.197 370.5,411C 368.016,408.716 367.849,406.216 370,403.5C 394.126,379.395 420.293,358.062 448.5,339.5 Z"/></g>
<g><path style="opacity:1" fill="#9e9ce3" d="M 162.5,340.5 C 162.833,340.5 163.167,340.5 163.5,340.5C 160.204,344.298 156.704,347.964 153,351.5C 155.131,347.183 158.298,343.516 162.5,340.5 Z"/></g>
<g><path style="opacity:1" fill="#cccaef" d="M 388.5,407.5 C 388.5,406.833 388.167,406.5 387.5,406.5C 397.447,396.06 397.781,396.393 388.5,407.5 Z"/></g>
<g><path style="opacity:1" fill="#f4f4f9" d="M 387.5,406.5 C 388.167,406.5 388.5,406.833 388.5,407.5C 381.223,417.303 375.39,427.969 371,439.5C 370.264,442.592 370.431,445.592 371.5,448.5C 371.158,449.338 370.492,449.672 369.5,449.5C 364.462,446.313 359.795,442.647 355.5,438.5C 365.297,426.941 375.963,416.274 387.5,406.5 Z"/></g>
<g><path style="opacity:1" fill="#dedcf4" d="M 234.5,477.5 C 234.167,477.5 233.833,477.5 233.5,477.5C 256.544,451.788 281.211,427.788 307.5,405.5C 307.833,405.667 308.167,405.833 308.5,406C 283.608,429.61 258.942,453.444 234.5,477.5 Z"/></g>
<g><path style="opacity:1" fill="#d0ccf1" d="M 371.5,448.5 C 375.833,452.5 380.167,456.5 384.5,460.5C 379.214,457.212 374.214,453.546 369.5,449.5C 370.492,449.672 371.158,449.338 371.5,448.5 Z"/></g>
<g><path style="opacity:1" fill="#a8a3e6" d="M 384.5,460.5 C 386.544,461.031 388.211,462.198 389.5,464C 387.228,463.923 385.562,462.757 384.5,460.5 Z"/></g>
<g><path style="opacity:1" fill="#c8c6ef" d="M 52.5,475.5 C 55.0735,476.879 56.5735,478.879 57,481.5C 54.6745,478.989 51.8411,477.656 48.5,477.5C 49.8333,476.833 51.1667,476.167 52.5,475.5 Z"/></g>
<g><path style="opacity:1" fill="#aca9e8" d="M 233.5,477.5 C 233.833,477.5 234.167,477.5 234.5,477.5C 230.822,482.362 226.488,486.195 221.5,489C 225.369,484.963 229.369,481.13 233.5,477.5 Z"/></g>
<g><path style="opacity:1" fill="#bfbded" d="M 440.5,497.5 C 439.833,497.5 439.5,497.833 439.5,498.5C 437.037,496.539 434.703,494.372 432.5,492C 433.167,491.333 433.833,491.333 434.5,492C 436.763,493.617 438.763,495.45 440.5,497.5 Z"/></g>
<g><path style="opacity:1" fill="#eeedf7" d="M 439.5,498.5 C 439.5,497.833 439.833,497.5 440.5,497.5C 457.671,511.167 475.005,524.667 492.5,538C 491.328,540.055 489.661,540.722 487.5,540C 479.167,533.667 470.833,527.333 462.5,521C 454.965,513.298 447.298,505.798 439.5,498.5 Z"/></g>
</svg>
