<?xml version="1.0" encoding="UTF-8"?>
<!DOCTYPE svg PUBLIC "-//W3C//DTD SVG 1.1//EN" "http://www.w3.org/Graphics/SVG/1.1/DTD/svg11.dtd">
<svg xmlns="http://www.w3.org/2000/svg" version="1.1" width="400px" height="400px" style="shape-rendering:geometricPrecision; text-rendering:geometricPrecision; image-rendering:optimizeQuality; fill-rule:evenodd; clip-rule:evenodd" xmlns:xlink="http://www.w3.org/1999/xlink">
<g><path style="opacity:1" fill="#3d96ed" d="M -0.5,-0.5 C 24.5,-0.5 49.5,-0.5 74.5,-0.5C 74.5,2.16667 74.5,4.83333 74.5,7.5C 71.8333,7.5 69.1667,7.5 66.5,7.5C 66.5,10.1667 66.5,12.8333 66.5,15.5C 63.8333,15.5 61.1667,15.5 58.5,15.5C 58.5,18.1667 58.5,20.8333 58.5,23.5C 55.8333,23.5 53.1667,23.5 50.5,23.5C 50.5,26.1667 50.5,28.8333 50.5,31.5C 51.5,31.5 52.5,31.5 53.5,31.5C 53.5,35.5 51.5,37.5 47.5,37.5C 47.5,35.5 47.5,33.5 47.5,31.5C 45.8333,31.5 44.1667,31.5 42.5,31.5C 42.5,34.1667 42.5,36.8333 42.5,39.5C 39.8333,39.5 37.1667,39.5 34.5,39.5C 34.5,42.1667 34.5,44.8333 34.5,47.5C 33.5,47.5 32.5,47.5 31.5,47.5C 31.5,48.5 31.5,49.5 31.5,50.5C 28.8333,50.5 26.1667,50.5 23.5,50.5C 23.5,52.1667 23.5,53.8333 23.5,55.5C 21.8333,55.5 20.1667,55.5 18.5,55.5C 18.5,58.1667 18.5,60.8333 18.5,63.5C 15.8333,63.5 13.1667,63.5 10.5,63.5C 10.5,66.1667 10.5,68.8333 10.5,71.5C 7.83333,71.5 5.16667,71.5 2.5,71.5C 2.5,74.1667 2.5,76.8333 2.5,79.5C 1.5,79.5 0.5,79.5 -0.5,79.5C -0.5,52.8333 -0.5,26.1667 -0.5,-0.5 Z"/></g>
<g><path style="opacity:1" fill="#3e8fec" d="M 74.5,-0.5 C 102.833,-0.5 131.167,-0.5 159.5,-0.5C 159.719,0.675044 159.386,1.67504 158.5,2.5C 156.611,3.60398 154.945,4.93731 153.5,6.5C 151.955,7.45189 150.288,7.78522 148.5,7.5C 148.5,10.1667 148.5,12.8333 148.5,15.5C 146.833,15.5 145.167,15.5 143.5,15.5C 143.5,18.1667 143.5,20.8333 143.5,23.5C 139.833,23.5 136.167,23.5 132.5,23.5C 132.5,26.1667 132.5,28.8333 132.5,31.5C 129.833,31.5 127.167,31.5 124.5,31.5C 124.5,34.1667 124.5,36.8333 124.5,39.5C 122.833,39.5 121.167,39.5 119.5,39.5C 119.5,41.1667 119.5,42.8333 119.5,44.5C 116.833,44.5 114.167,44.5 111.5,44.5C 111.5,45.5 111.5,46.5 111.5,47.5C 110.5,47.5 109.5,47.5 108.5,47.5C 108.5,50.1667 108.5,52.8333 108.5,55.5C 106.833,55.5 105.167,55.5 103.5,55.5C 103.5,58.1667 103.5,60.8333 103.5,63.5C 100.833,63.5 98.1667,63.5 95.5,63.5C 95.719,64.675 95.3857,65.675 94.5,66.5C 92.6115,67.604 90.9448,68.9373 89.5,70.5C 86.9135,71.48 84.2469,71.8134 81.5,71.5C 81.5,74.1667 81.5,76.8333 81.5,79.5C 79.8333,79.5 78.1667,79.5 76.5,79.5C 76.5,82.1667 76.5,84.8333 76.5,87.5C 72.8333,87.5 69.1667,87.5 65.5,87.5C 65.5,90.1667 65.5,92.8333 65.5,95.5C 63.8333,95.5 62.1667,95.5 60.5,95.5C 60.5,98.1667 60.5,100.833 60.5,103.5C 56.8333,103.5 53.1667,103.5 49.5,103.5C 49.5,106.167 49.5,108.833 49.5,111.5C 47.8333,111.5 46.1667,111.5 44.5,111.5C 44.5,114.167 44.5,116.833 44.5,119.5C 41.8333,119.5 39.1667,119.5 36.5,119.5C 36.5,122.167 36.5,124.833 36.5,127.5C 32.8333,127.5 29.1667,127.5 25.5,127.5C 25.5,130.167 25.5,132.833 25.5,135.5C 23.8333,135.5 22.1667,135.5 20.5,135.5C 20.5,138.167 20.5,140.833 20.5,143.5C 17.8333,143.5 15.1667,143.5 12.5,143.5C 12.5,146.167 12.5,148.833 12.5,151.5C 9.83333,151.5 7.16667,151.5 4.5,151.5C 4.5,154.167 4.5,156.833 4.5,159.5C 2.83333,159.5 1.16667,159.5 -0.5,159.5C -0.5,132.833 -0.5,106.167 -0.5,79.5C 0.5,79.5 1.5,79.5 2.5,79.5C 2.5,76.8333 2.5,74.1667 2.5,71.5C 5.16667,71.5 7.83333,71.5 10.5,71.5C 10.5,68.8333 10.5,66.1667 10.5,63.5C 13.1667,63.5 15.8333,63.5 18.5,63.5C 18.5,60.8333 18.5,58.1667 18.5,55.5C 20.1667,55.5 21.8333,55.5 23.5,55.5C 23.5,53.8333 23.5,52.1667 23.5,50.5C 26.1667,50.5 28.8333,50.5 31.5,50.5C 31.5,49.5 31.5,48.5 31.5,47.5C 32.5,47.5 33.5,47.5 34.5,47.5C 34.5,44.8333 34.5,42.1667 34.5,39.5C 37.1667,39.5 39.8333,39.5 42.5,39.5C 42.5,36.8333 42.5,34.1667 42.5,31.5C 44.1667,31.5 45.8333,31.5 47.5,31.5C 47.5,33.5 47.5,35.5 47.5,37.5C 51.5,37.5 53.5,35.5 53.5,31.5C 52.5,31.5 51.5,31.5 50.5,31.5C 50.5,28.8333 50.5,26.1667 50.5,23.5C 53.1667,23.5 55.8333,23.5 58.5,23.5C 58.5,20.8333 58.5,18.1667 58.5,15.5C 61.1667,15.5 63.8333,15.5 66.5,15.5C 66.5,12.8333 66.5,10.1667 66.5,7.5C 69.1667,7.5 71.8333,7.5 74.5,7.5C 74.5,4.83333 74.5,2.16667 74.5,-0.5 Z"/></g>
<g><path style="opacity:1" fill="#4189e6" d="M 159.5,-0.5 C 187.5,-0.5 215.5,-0.5 243.5,-0.5C 243.5,4.83333 243.5,10.1667 243.5,15.5C 242.167,15.5 240.833,15.5 239.5,15.5C 239.823,11.774 239.489,8.10728 238.5,4.5C 236.502,6.75798 234.502,9.09131 232.5,11.5C 231.571,12.6888 231.238,14.0222 231.5,15.5C 228.833,15.5 226.167,15.5 223.5,15.5C 223.5,18.1667 223.5,20.8333 223.5,23.5C 218.833,24.1667 216.167,26.8333 215.5,31.5C 214.167,31.5 212.833,31.5 211.5,31.5C 211.172,36.8746 211.505,42.2079 212.5,47.5C 216.22,48.513 219.886,49.6796 223.5,51C 214.612,49.7895 205.445,49.2895 196,49.5C 190.77,49.7371 185.603,50.4037 180.5,51.5C 177.494,50.8208 174.494,50.1542 171.5,49.5C 171.5,48.5 171.5,47.5 171.5,46.5C 168.833,46.5 166.167,46.5 163.5,46.5C 163.5,47.5 163.5,48.5 163.5,49.5C 166.073,49.1485 168.406,49.6485 170.5,51C 166.958,51.8512 163.625,51.3512 160.5,49.5C 158.205,50.4318 155.871,51.2652 153.5,52C 156.644,52.966 159.644,54.2994 162.5,56C 165.146,56.4974 167.813,56.6641 170.5,56.5C 147.85,63.1495 129.85,76.1495 116.5,95.5C 116.167,95.5 115.833,95.5 115.5,95.5C 115.631,94.6236 115.298,93.9569 114.5,93.5C 113.757,94.9079 112.923,96.2412 112,97.5C 111.667,97.1667 111.333,96.8333 111,96.5C 108.475,98.6752 105.642,100.342 102.5,101.5C 96.8931,109.802 95.8931,118.802 99.5,128.5C 98.5524,133.435 98.219,138.435 98.5,143.5C 101.893,143.375 103.226,145.042 102.5,148.5C 102.07,152.683 100.57,156.349 98,159.5C 97.5007,154.511 97.3341,149.511 97.5,144.5C 96.5,144.5 95.5,144.5 94.5,144.5C 94.5,146.833 94.5,149.167 94.5,151.5C 92.0069,151.976 90.0069,153.31 88.5,155.5C 88.5,158.167 88.5,160.833 88.5,163.5C 86.461,165.874 84.1277,167.874 81.5,169.5C 76.8316,166.818 73.4983,168.152 71.5,173.5C 72.1667,174.833 72.8333,176.167 73.5,177.5C 71.5,180.833 68.8333,183.5 65.5,185.5C 61.888,182.783 58.888,183.449 56.5,187.5C 55.5713,188.689 55.238,190.022 55.5,191.5C 52.8333,191.5 50.1667,191.5 47.5,191.5C 47.5,194.167 47.5,196.833 47.5,199.5C 44.4652,199.521 42.1319,200.854 40.5,203.5C 40.5,206.167 40.5,208.833 40.5,211.5C 38.461,213.874 36.1277,215.874 33.5,217.5C 28.8316,214.818 25.4983,216.152 23.5,221.5C 24.1667,222.833 24.8333,224.167 25.5,225.5C 23.5,228.833 20.8333,231.5 17.5,233.5C 12.8316,230.818 9.49828,232.152 7.5,237.5C 8.16667,238.833 8.83333,240.167 9.5,241.5C 7.29084,245.723 3.95751,248.389 -0.5,249.5C -0.5,219.5 -0.5,189.5 -0.5,159.5C 1.16667,159.5 2.83333,159.5 4.5,159.5C 4.5,156.833 4.5,154.167 4.5,151.5C 7.16667,151.5 9.83333,151.5 12.5,151.5C 12.5,148.833 12.5,146.167 12.5,143.5C 15.1667,143.5 17.8333,143.5 20.5,143.5C 20.5,140.833 20.5,138.167 20.5,135.5C 22.1667,135.5 23.8333,135.5 25.5,135.5C 25.5,132.833 25.5,130.167 25.5,127.5C 29.1667,127.5 32.8333,127.5 36.5,127.5C 36.5,124.833 36.5,122.167 36.5,119.5C 39.1667,119.5 41.8333,119.5 44.5,119.5C 44.5,116.833 44.5,114.167 44.5,111.5C 46.1667,111.5 47.8333,111.5 49.5,111.5C 49.5,108.833 49.5,106.167 49.5,103.5C 53.1667,103.5 56.8333,103.5 60.5,103.5C 60.5,100.833 60.5,98.1667 60.5,95.5C 62.1667,95.5 63.8333,95.5 65.5,95.5C 65.5,92.8333 65.5,90.1667 65.5,87.5C 69.1667,87.5 72.8333,87.5 76.5,87.5C 76.5,84.8333 76.5,82.1667 76.5,79.5C 78.1667,79.5 79.8333,79.5 81.5,79.5C 81.5,76.8333 81.5,74.1667 81.5,71.5C 84.2469,71.8134 86.9135,71.48 89.5,70.5C 90.9448,68.9373 92.6115,67.604 94.5,66.5C 95.3857,65.675 95.719,64.675 95.5,63.5C 98.1667,63.5 100.833,63.5 103.5,63.5C 103.5,60.8333 103.5,58.1667 103.5,55.5C 105.167,55.5 106.833,55.5 108.5,55.5C 108.5,52.8333 108.5,50.1667 108.5,47.5C 109.5,47.5 110.5,47.5 111.5,47.5C 111.5,46.5 111.5,45.5 111.5,44.5C 114.167,44.5 116.833,44.5 119.5,44.5C 119.5,42.8333 119.5,41.1667 119.5,39.5C 121.167,39.5 122.833,39.5 124.5,39.5C 124.5,36.8333 124.5,34.1667 124.5,31.5C 127.167,31.5 129.833,31.5 132.5,31.5C 132.5,28.8333 132.5,26.1667 132.5,23.5C 136.167,23.5 139.833,23.5 143.5,23.5C 143.5,20.8333 143.5,18.1667 143.5,15.5C 145.167,15.5 146.833,15.5 148.5,15.5C 148.5,12.8333 148.5,10.1667 148.5,7.5C 150.288,7.78522 151.955,7.45189 153.5,6.5C 154.945,4.93731 156.611,3.60398 158.5,2.5C 159.386,1.67504 159.719,0.675044 159.5,-0.5 Z"/></g>
<g><path style="opacity:1" fill="#4983e6" d="M 243.5,-0.5 C 266.833,-0.5 290.167,-0.5 313.5,-0.5C 312.389,3.95751 309.723,7.29084 305.5,9.5C 304.328,9.08138 303.328,8.41471 302.5,7.5C 301.52,10.0865 301.187,12.7531 301.5,15.5C 300.167,15.5 298.833,15.5 297.5,15.5C 296.782,19.242 294.782,22.242 291.5,24.5C 288.833,24.5 286.167,24.5 283.5,24.5C 283.493,31.1808 280.826,36.5141 275.5,40.5C 272.833,40.5 270.167,40.5 267.5,40.5C 267.561,48.7381 263.895,54.4047 256.5,57.5C 256.5,58.5 256.5,59.5 256.5,60.5C 252.548,58.8111 248.381,57.8111 244,57.5C 241.833,57.6667 239.667,57.8333 237.5,58C 241.428,59.0731 245.428,60.0731 249.5,61C 250.171,61.9862 250.171,63.1529 249.5,64.5C 248.167,64.1667 246.833,63.8333 245.5,63.5C 237.181,59.726 228.514,56.726 219.5,54.5C 219.082,53.7784 218.416,53.2784 217.5,53C 205.992,52.1741 194.659,52.3407 183.5,53.5C 181.374,54.0482 179.374,54.7148 177.5,55.5C 175.139,55.6741 172.806,56.0074 170.5,56.5C 167.813,56.6641 165.146,56.4974 162.5,56C 159.644,54.2994 156.644,52.966 153.5,52C 155.871,51.2652 158.205,50.4318 160.5,49.5C 163.625,51.3512 166.958,51.8512 170.5,51C 168.406,49.6485 166.073,49.1485 163.5,49.5C 163.5,48.5 163.5,47.5 163.5,46.5C 166.167,46.5 168.833,46.5 171.5,46.5C 171.5,47.5 171.5,48.5 171.5,49.5C 174.494,50.1542 177.494,50.8208 180.5,51.5C 185.603,50.4037 190.77,49.7371 196,49.5C 205.445,49.2895 214.612,49.7895 223.5,51C 219.886,49.6796 216.22,48.513 212.5,47.5C 211.505,42.2079 211.172,36.8746 211.5,31.5C 212.833,31.5 214.167,31.5 215.5,31.5C 216.167,26.8333 218.833,24.1667 223.5,23.5C 223.5,20.8333 223.5,18.1667 223.5,15.5C 226.167,15.5 228.833,15.5 231.5,15.5C 231.238,14.0222 231.571,12.6888 232.5,11.5C 234.502,9.09131 236.502,6.75798 238.5,4.5C 239.489,8.10728 239.823,11.774 239.5,15.5C 240.833,15.5 242.167,15.5 243.5,15.5C 243.5,10.1667 243.5,4.83333 243.5,-0.5 Z"/></g>
<g><path style="opacity:1" fill="#4b7de6" d="M 313.5,-0.5 C 328.167,-0.5 342.833,-0.5 357.5,-0.5C 355.129,3.8607 351.462,6.52737 346.5,7.5C 346.662,5.4727 346.495,3.4727 346,1.5C 343.442,5.57709 339.942,8.24376 335.5,9.5C 335.5,11.5 335.5,13.5 335.5,15.5C 337.604,15.2011 339.604,15.5344 341.5,16.5C 339.833,18.1667 338.167,19.8333 336.5,21.5C 335.833,20.1667 335.167,18.8333 334.5,17.5C 332.5,19.5 330.5,21.5 328.5,23.5C 327.833,21.5 327.167,19.5 326.5,17.5C 324.396,19.5832 324.062,21.9165 325.5,24.5C 323.457,26.208 321.79,28.208 320.5,30.5C 322.167,31.1667 323.833,31.8333 325.5,32.5C 323.833,34.1667 322.167,35.8333 320.5,37.5C 319.534,35.604 319.201,33.604 319.5,31.5C 318.022,31.238 316.689,31.5713 315.5,32.5C 312.833,35.1667 310.167,37.8333 307.5,40.5C 306.311,41.4287 304.978,41.762 303.5,41.5C 303.5,43.5 303.5,45.5 303.5,47.5C 300.833,47.5 298.167,47.5 295.5,47.5C 295.719,48.675 295.386,49.675 294.5,50.5C 288.79,52.9944 286.456,57.3277 287.5,63.5C 283.115,62.7938 279.615,64.1271 277,67.5C 276.349,69.235 276.515,70.9017 277.5,72.5C 275.753,74.59 273.753,76.2567 271.5,77.5C 272.007,75.7382 271.341,74.0715 269.5,72.5C 266.512,72.3701 263.512,72.0368 260.5,71.5C 258.94,69.8706 259.273,68.704 261.5,68C 261,67.5 260.5,67 260,66.5C 258.301,67.4061 256.467,67.7394 254.5,67.5C 252.566,66.8897 250.899,65.8897 249.5,64.5C 250.171,63.1529 250.171,61.9862 249.5,61C 245.428,60.0731 241.428,59.0731 237.5,58C 239.667,57.8333 241.833,57.6667 244,57.5C 248.381,57.8111 252.548,58.8111 256.5,60.5C 256.5,59.5 256.5,58.5 256.5,57.5C 263.895,54.4047 267.561,48.7381 267.5,40.5C 270.167,40.5 272.833,40.5 275.5,40.5C 280.826,36.5141 283.493,31.1808 283.5,24.5C 286.167,24.5 288.833,24.5 291.5,24.5C 294.782,22.242 296.782,19.242 297.5,15.5C 298.833,15.5 300.167,15.5 301.5,15.5C 301.187,12.7531 301.52,10.0865 302.5,7.5C 303.328,8.41471 304.328,9.08138 305.5,9.5C 309.723,7.29084 312.389,3.95751 313.5,-0.5 Z"/></g>
<g><path style="opacity:1" fill="#527ce6" d="M 357.5,-0.5 C 371.5,-0.5 385.5,-0.5 399.5,-0.5C 399.5,10.1667 399.5,20.8333 399.5,31.5C 398.167,31.5 396.833,31.5 395.5,31.5C 395.762,32.9778 395.429,34.3112 394.5,35.5C 391.744,38.9267 388.41,41.5934 384.5,43.5C 383.571,44.6888 383.238,46.0222 383.5,47.5C 382.167,47.5 380.833,47.5 379.5,47.5C 379.762,48.9778 379.429,50.3112 378.5,51.5C 375.744,54.9267 372.41,57.5934 368.5,59.5C 367.571,60.6888 367.238,62.0222 367.5,63.5C 366.167,63.5 364.833,63.5 363.5,63.5C 363.762,64.9778 363.429,66.3112 362.5,67.5C 359.744,70.9267 356.41,73.5934 352.5,75.5C 351.571,76.6888 351.238,78.0222 351.5,79.5C 350.167,79.5 348.833,79.5 347.5,79.5C 347.762,80.9778 347.429,82.3112 346.5,83.5C 343.744,86.9267 340.41,89.5934 336.5,91.5C 335.571,92.6888 335.238,94.0222 335.5,95.5C 334.167,95.5 332.833,95.5 331.5,95.5C 331.762,96.9778 331.429,98.3112 330.5,99.5C 327.744,102.927 324.41,105.593 320.5,107.5C 319.571,108.689 319.238,110.022 319.5,111.5C 318.167,111.5 316.833,111.5 315.5,111.5C 315.762,112.978 315.429,114.311 314.5,115.5C 311.748,118.76 308.581,121.427 305,123.5C 304.399,129.84 303.733,136.174 303,142.5C 301.124,133.209 300.458,123.876 301,114.5C 300.667,114.167 300.333,113.833 300,113.5C 299.434,115.723 298.6,117.723 297.5,119.5C 296.504,119.414 295.671,119.748 295,120.5C 293.5,118.167 292,115.833 290.5,113.5C 290.876,111.617 291.876,110.117 293.5,109C 287.403,105.97 285.236,101.136 287,94.5C 286.184,95.8228 285.017,96.4894 283.5,96.5C 281.147,94.1401 279.147,91.4735 277.5,88.5C 277.703,86.6096 277.037,85.1096 275.5,84C 275.616,82.7318 275.949,81.3985 276.5,80C 275.146,78.7063 273.812,78.5396 272.5,79.5C 271.702,79.0431 271.369,78.3764 271.5,77.5C 273.753,76.2567 275.753,74.59 277.5,72.5C 276.515,70.9017 276.349,69.235 277,67.5C 279.615,64.1271 283.115,62.7938 287.5,63.5C 286.456,57.3277 288.79,52.9944 294.5,50.5C 295.386,49.675 295.719,48.675 295.5,47.5C 298.167,47.5 300.833,47.5 303.5,47.5C 303.5,45.5 303.5,43.5 303.5,41.5C 304.978,41.762 306.311,41.4287 307.5,40.5C 310.167,37.8333 312.833,35.1667 315.5,32.5C 316.689,31.5713 318.022,31.238 319.5,31.5C 319.201,33.604 319.534,35.604 320.5,37.5C 322.167,35.8333 323.833,34.1667 325.5,32.5C 323.833,31.8333 322.167,31.1667 320.5,30.5C 321.79,28.208 323.457,26.208 325.5,24.5C 324.062,21.9165 324.396,19.5832 326.5,17.5C 327.167,19.5 327.833,21.5 328.5,23.5C 330.5,21.5 332.5,19.5 334.5,17.5C 335.167,18.8333 335.833,20.1667 336.5,21.5C 338.167,19.8333 339.833,18.1667 341.5,16.5C 339.604,15.5344 337.604,15.2011 335.5,15.5C 335.5,13.5 335.5,11.5 335.5,9.5C 339.942,8.24376 343.442,5.57709 346,1.5C 346.495,3.4727 346.662,5.4727 346.5,7.5C 351.462,6.52737 355.129,3.8607 357.5,-0.5 Z"/></g>
<g><path style="opacity:1" fill="#5776e7" d="M 399.5,31.5 C 399.5,42.1667 399.5,52.8333 399.5,63.5C 394.167,63.5 388.833,63.5 383.5,63.5C 383.5,68.8333 383.5,74.1667 383.5,79.5C 378.167,79.5 372.833,79.5 367.5,79.5C 367.5,84.8333 367.5,90.1667 367.5,95.5C 356.833,95.5 346.167,95.5 335.5,95.5C 335.238,94.0222 335.571,92.6888 336.5,91.5C 340.41,89.5934 343.744,86.9267 346.5,83.5C 347.429,82.3112 347.762,80.9778 347.5,79.5C 348.833,79.5 350.167,79.5 351.5,79.5C 351.238,78.0222 351.571,76.6888 352.5,75.5C 356.41,73.5934 359.744,70.9267 362.5,67.5C 363.429,66.3112 363.762,64.9778 363.5,63.5C 364.833,63.5 366.167,63.5 367.5,63.5C 367.238,62.0222 367.571,60.6888 368.5,59.5C 372.41,57.5934 375.744,54.9267 378.5,51.5C 379.429,50.3112 379.762,48.9778 379.5,47.5C 380.833,47.5 382.167,47.5 383.5,47.5C 383.238,46.0222 383.571,44.6888 384.5,43.5C 388.41,41.5934 391.744,38.9267 394.5,35.5C 395.429,34.3112 395.762,32.9778 395.5,31.5C 396.833,31.5 398.167,31.5 399.5,31.5 Z"/></g>
<g><path style="opacity:1" fill="#5889d4" d="M 183.5,53.5 C 194.659,52.3407 205.992,52.1741 217.5,53C 218.416,53.2784 219.082,53.7784 219.5,54.5C 207.526,53.6084 195.526,53.2751 183.5,53.5 Z"/></g>
<g><path style="opacity:1" fill="#f7f9f9" d="M 245.5,63.5 C 246.833,63.8333 248.167,64.1667 249.5,64.5C 250.899,65.8897 252.566,66.8897 254.5,67.5C 256.147,69.3264 258.147,70.6597 260.5,71.5C 266.876,76.5086 272.543,82.1753 277.5,88.5C 279.147,91.4735 281.147,94.1401 283.5,96.5C 284.831,101.657 286.664,106.657 289,111.5C 289.999,117.006 291.165,122.34 292.5,127.5C 292.941,138.264 292.274,148.931 290.5,159.5C 288.796,162.939 287.462,166.605 286.5,170.5C 281.346,181.476 275.68,192.143 269.5,202.5C 265.786,206.883 262.453,211.55 259.5,216.5C 254.126,222.54 249.126,228.874 244.5,235.5C 234.611,245.601 224.944,255.934 215.5,266.5C 210.456,271.548 205.122,276.214 199.5,280.5C 192.542,274.878 185.876,268.878 179.5,262.5C 170.138,252.141 160.805,241.808 151.5,231.5C 149.547,227.88 146.881,224.88 143.5,222.5C 141.938,218.608 139.605,215.275 136.5,212.5C 131.159,204.162 125.826,195.828 120.5,187.5C 118.674,182.516 116.341,177.849 113.5,173.5C 109.259,162.534 106.592,151.201 105.5,139.5C 106.375,123.999 110.042,109.332 116.5,95.5C 129.85,76.1495 147.85,63.1495 170.5,56.5C 172.806,56.0074 175.139,55.6741 177.5,55.5C 190.596,53.6754 203.596,54.1754 216.5,57C 219.422,60.0554 222.589,60.2221 226,57.5C 231.941,61.0291 238.441,63.0291 245.5,63.5 Z"/></g>
<g><path style="opacity:1" fill="#e3f1f8" d="M 183.5,53.5 C 195.526,53.2751 207.526,53.6084 219.5,54.5C 228.514,56.726 237.181,59.726 245.5,63.5C 238.441,63.0291 231.941,61.0291 226,57.5C 222.589,60.2221 219.422,60.0554 216.5,57C 203.596,54.1754 190.596,53.6754 177.5,55.5C 179.374,54.7148 181.374,54.0482 183.5,53.5 Z"/></g>
<g><path style="opacity:1" fill="#5c75e1" d="M 399.5,63.5 C 399.5,85.5 399.5,107.5 399.5,129.5C 396.479,132.172 393.146,134.505 389.5,136.5C 386.402,138.928 384.069,141.928 382.5,145.5C 380.072,148.598 377.072,150.931 373.5,152.5C 370.402,154.928 368.069,157.928 366.5,161.5C 361.313,165.597 356.313,169.93 351.5,174.5C 352.689,175.429 354.022,175.762 355.5,175.5C 355.5,176.833 355.5,178.167 355.5,179.5C 353.508,179.672 351.842,179.005 350.5,177.5C 345.313,181.597 340.313,185.93 335.5,190.5C 337.5,191.167 339.5,191.833 341.5,192.5C 339.833,194.167 338.167,195.833 336.5,197.5C 335.833,196.167 335.167,194.833 334.5,193.5C 332.072,196.598 329.072,198.931 325.5,200.5C 322.402,202.928 320.069,205.928 318.5,209.5C 316.072,212.598 313.072,214.931 309.5,216.5C 306.402,218.928 304.069,221.928 302.5,225.5C 300.072,228.598 297.072,230.931 293.5,232.5C 290.402,234.928 288.069,237.928 286.5,241.5C 284.072,244.598 281.072,246.931 277.5,248.5C 274.402,250.928 272.069,253.928 270.5,257.5C 265.833,261.5 261.167,265.5 256.5,269.5C 254.931,273.072 252.598,276.072 249.5,278.5C 245.928,280.069 242.928,282.402 240.5,285.5C 238.931,289.072 236.598,292.072 233.5,294.5C 229.928,296.069 226.928,298.402 224.5,301.5C 223.571,300.311 223.238,298.978 223.5,297.5C 222.167,297.5 220.833,297.5 219.5,297.5C 219.5,299.5 219.5,301.5 219.5,303.5C 214.371,303.719 214.371,304.386 219.5,305.5C 219.48,307.143 220.147,308.476 221.5,309.5C 220.095,309.76 218.762,310.093 217.5,310.5C 216.833,310.5 216.167,310.5 215.5,310.5C 211.731,306.229 207.731,302.062 203.5,298C 201.635,296.699 199.635,296.365 197.5,297C 188.967,303.575 182.467,311.742 178,321.5C 176.418,332.837 180.918,340.67 191.5,345C 196.861,345.609 202.195,345.442 207.5,344.5C 210.216,344.322 212.883,343.822 215.5,343C 217.734,340.937 219.734,338.771 221.5,336.5C 222.153,337.807 222.82,339.14 223.5,340.5C 223.376,341.107 223.043,341.44 222.5,341.5C 220.616,342.339 219.283,343.672 218.5,345.5C 216.09,345.921 214.257,347.254 213,349.5C 211.814,347.323 209.981,346.323 207.5,346.5C 207.5,347.5 207.5,348.5 207.5,349.5C 202.456,349.173 197.456,349.506 192.5,350.5C 192.167,351.5 191.5,352.167 190.5,352.5C 185.792,350.279 181.792,347.112 178.5,343C 177.207,342.51 175.873,342.343 174.5,342.5C 174.118,345.899 172.451,348.566 169.5,350.5C 170.333,350.833 171.167,351.167 172,351.5C 174.075,350.692 175.742,349.358 177,347.5C 178.626,348.289 180.126,349.289 181.5,350.5C 179.106,351.349 176.773,352.349 174.5,353.5C 172.072,356.598 169.072,358.931 165.5,360.5C 162.402,362.928 160.069,365.928 158.5,369.5C 153.833,373.5 149.167,377.5 144.5,381.5C 143.833,380.167 143.167,378.833 142.5,377.5C 140.833,379.167 139.167,380.833 137.5,382.5C 139.5,383.167 141.5,383.833 143.5,384.5C 140.744,387.927 137.41,390.593 133.5,392.5C 131.08,394.578 129.08,396.912 127.5,399.5C 106.167,399.5 84.8333,399.5 63.5,399.5C 63.5,388.833 63.5,378.167 63.5,367.5C 74.1667,367.5 84.8333,367.5 95.5,367.5C 95.5,356.833 95.5,346.167 95.5,335.5C 106.167,335.5 116.833,335.5 127.5,335.5C 127.5,330.167 127.5,324.833 127.5,319.5C 132.833,319.5 138.167,319.5 143.5,319.5C 143.5,314.167 143.5,308.833 143.5,303.5C 148.833,303.5 154.167,303.5 159.5,303.5C 159.5,293.167 159.5,282.833 159.5,272.5C 162.206,272.425 164.873,272.092 167.5,271.5C 167.343,270.127 167.51,268.793 168,267.5C 169,268.833 170,270.167 171,271.5C 171.772,270.151 172.939,269.318 174.5,269C 171.79,267.54 171.124,265.54 172.5,263C 171.473,262.487 170.473,261.987 169.5,261.5C 168.962,259.883 168.629,258.216 168.5,256.5C 168.783,255.711 169.283,255.044 170,254.5C 170.592,260.26 173.758,262.927 179.5,262.5C 179.966,264.201 179.966,265.701 179.5,267C 181.301,267.317 181.634,267.984 180.5,269C 185.204,269.181 188.204,271.514 189.5,276C 193.193,278.373 196.859,280.706 200.5,283C 201.149,285.481 202.149,285.814 203.5,284C 203.167,283 202.833,282 202.5,281C 204.135,280.46 205.468,280.96 206.5,282.5C 208.836,280.927 208.836,279.594 206.5,278.5C 211.108,275.758 214.108,271.758 215.5,266.5C 218.756,264.75 221.589,262.417 224,259.5C 224.333,259.833 224.667,260.167 225,260.5C 229.695,251.972 236.195,245.306 244.5,240.5C 244.5,238.833 244.5,237.167 244.5,235.5C 246.024,234.826 247.358,233.826 248.5,232.5C 250.769,235.058 252.435,234.558 253.5,231C 252.663,229.989 252.33,228.822 252.5,227.5C 253.822,227.67 254.989,227.337 256,226.5C 256.202,224.744 256.702,223.078 257.5,221.5C 259.009,223.915 260.676,224.081 262.5,222C 261.747,220.513 260.914,220.346 260,221.5C 259.506,219.866 259.34,218.199 259.5,216.5C 261.478,214.741 263.644,213.075 266,211.5C 266.939,208.4 268.105,205.4 269.5,202.5C 271.532,201.952 272.532,200.619 272.5,198.5C 273.822,198.67 274.989,198.337 276,197.5C 278.481,190.2 281.815,183.2 286,176.5C 286.495,174.527 286.662,172.527 286.5,170.5C 289.656,167.617 290.99,163.951 290.5,159.5C 292.947,154.562 293.947,149.228 293.5,143.5C 294.317,141.031 294.817,138.365 295,135.5C 295.333,137.833 295.667,140.167 296,142.5C 297.356,134.905 297.856,127.238 297.5,119.5C 298.6,117.723 299.434,115.723 300,113.5C 300.333,113.833 300.667,114.167 301,114.5C 300.458,123.876 301.124,133.209 303,142.5C 303.733,136.174 304.399,129.84 305,123.5C 308.581,121.427 311.748,118.76 314.5,115.5C 315.429,114.311 315.762,112.978 315.5,111.5C 316.833,111.5 318.167,111.5 319.5,111.5C 319.238,110.022 319.571,108.689 320.5,107.5C 324.41,105.593 327.744,102.927 330.5,99.5C 331.429,98.3112 331.762,96.9778 331.5,95.5C 332.833,95.5 334.167,95.5 335.5,95.5C 346.167,95.5 356.833,95.5 367.5,95.5C 367.5,90.1667 367.5,84.8333 367.5,79.5C 372.833,79.5 378.167,79.5 383.5,79.5C 383.5,74.1667 383.5,68.8333 383.5,63.5C 388.833,63.5 394.167,63.5 399.5,63.5 Z"/></g>
<g><path style="opacity:1" fill="#608ad8" d="M 260.5,71.5 C 258.147,70.6597 256.147,69.3264 254.5,67.5C 256.467,67.7394 258.301,67.4061 260,66.5C 260.5,67 261,67.5 261.5,68C 259.273,68.704 258.94,69.8706 260.5,71.5 Z"/></g>
<g><path style="opacity:1" fill="#6f8dc1" d="M 229.5,71.5 C 228.624,71.3691 227.957,71.7025 227.5,72.5C 228.127,73.4168 228.461,74.4168 228.5,75.5C 226.37,73.8729 224.37,72.0396 222.5,70C 225.212,69.1742 227.545,69.6742 229.5,71.5 Z"/></g>
<g><path style="opacity:1" fill="#5581dd" d="M 260.5,71.5 C 263.512,72.0368 266.512,72.3701 269.5,72.5C 271.341,74.0715 272.007,75.7382 271.5,77.5C 271.369,78.3764 271.702,79.0431 272.5,79.5C 273.812,78.5396 275.146,78.7063 276.5,80C 275.949,81.3985 275.616,82.7318 275.5,84C 277.037,85.1096 277.703,86.6096 277.5,88.5C 272.543,82.1753 266.876,76.5086 260.5,71.5 Z"/></g>
<g><path style="opacity:1" fill="#497fd8" d="M 195.5,128.5 C 194.833,128.5 194.5,128.167 194.5,127.5C 194.5,111.833 194.5,96.1667 194.5,80.5C 190.869,79.588 187.203,79.4213 183.5,80C 180.54,83.124 177.707,86.2907 175,89.5C 174.664,87.9255 173.831,86.5922 172.5,85.5C 171.52,86.9814 170.353,88.3147 169,89.5C 169.245,93.8134 169.245,98.1468 169,102.5C 168.667,102.833 168.333,103.167 168,103.5C 167.529,101.754 166.862,100.087 166,98.5C 163.749,101.017 162.916,104.017 163.5,107.5C 166.5,107.167 167.833,108.5 167.5,111.5C 166.167,111.5 164.833,111.5 163.5,111.5C 163.598,108.752 162.598,108.086 160.5,109.5C 162.463,97.9201 167.463,87.9201 175.5,79.5C 176.847,78.8288 178.014,78.8288 179,79.5C 180.188,78.4366 180.688,77.1033 180.5,75.5C 183.02,74.7683 185.354,73.6017 187.5,72C 189.764,71.7638 191.931,71.2638 194,70.5C 194.333,70.8333 194.667,71.1667 195,71.5C 195.5,90.4971 195.667,109.497 195.5,128.5 Z"/></g>
<g><path style="opacity:1" fill="#5f80c1" d="M 196.5,68.5 C 196.667,129.834 196.5,191.168 196,252.5C 195.148,251.429 194.315,250.429 193.5,249.5C 193.107,247.716 192.441,246.05 191.5,244.5C 193.335,245.122 194.502,246.456 195,248.5C 195.5,208.501 195.667,168.501 195.5,128.5C 195.667,109.497 195.5,90.4971 195,71.5C 194.667,71.1667 194.333,70.8333 194,70.5C 191.931,71.2638 189.764,71.7638 187.5,72C 185.354,73.6017 183.02,74.7683 180.5,75.5C 180.688,77.1033 180.188,78.4366 179,79.5C 178.014,78.8288 176.847,78.8288 175.5,79.5C 180.784,72.6229 187.784,68.9562 196.5,68.5 Z"/></g>
<g><path style="opacity:1" fill="#4982e6" d="M 194.5,127.5 C 193.5,127.5 192.5,127.5 191.5,127.5C 191.5,124.833 191.5,122.167 191.5,119.5C 190.022,119.238 188.689,119.571 187.5,120.5C 187.486,129.177 183.486,135.177 175.5,138.5C 174.691,140.071 174.357,141.738 174.5,143.5C 172.833,143.5 171.167,143.5 169.5,143.5C 168.043,147.094 166.543,150.761 165,154.5C 163.638,153.075 162.138,152.242 160.5,152C 161.752,153.828 161.752,155.661 160.5,157.5C 158.942,151.078 158.276,144.411 158.5,137.5C 158.457,127.998 159.123,118.665 160.5,109.5C 162.598,108.086 163.598,108.752 163.5,111.5C 164.833,111.5 166.167,111.5 167.5,111.5C 167.833,108.5 166.5,107.167 163.5,107.5C 162.916,104.017 163.749,101.017 166,98.5C 166.862,100.087 167.529,101.754 168,103.5C 168.333,103.167 168.667,102.833 169,102.5C 169.245,98.1468 169.245,93.8134 169,89.5C 170.353,88.3147 171.52,86.9814 172.5,85.5C 173.831,86.5922 174.664,87.9255 175,89.5C 177.707,86.2907 180.54,83.124 183.5,80C 187.203,79.4213 190.869,79.588 194.5,80.5C 194.5,96.1667 194.5,111.833 194.5,127.5 Z"/></g>
<g><path style="opacity:1" fill="#4e7dd9" d="M 229.5,71.5 C 236.395,73.4376 243.061,76.271 249.5,80C 252.666,82.0001 255.332,84.5001 257.5,87.5C 253.289,85.8798 249.122,85.2131 245,85.5C 242.322,88.5175 241.822,91.8508 243.5,95.5C 244.5,95.5 245.5,95.5 246.5,95.5C 247.625,100.562 247.292,105.562 245.5,110.5C 242.806,97.4437 237.139,85.7771 228.5,75.5C 228.461,74.4168 228.127,73.4168 227.5,72.5C 227.957,71.7025 228.624,71.3691 229.5,71.5 Z"/></g>
<g><path style="opacity:1" fill="#4f7de0" d="M 257.5,87.5 C 260.833,88.8333 263.167,91.1667 264.5,94.5C 264.943,98.7182 266.776,102.051 270,104.5C 270.004,107.792 271.17,110.458 273.5,112.5C 273.232,115.119 273.565,117.619 274.5,120C 273.299,120.903 272.465,122.069 272,123.5C 271.548,120.123 270.882,116.789 270,113.5C 267.071,111.77 264.238,110.603 261.5,110C 262.76,108.887 263.927,108.72 265,109.5C 265.944,108.737 266.444,107.737 266.5,106.5C 264.568,96.4598 262.568,96.7931 260.5,107.5C 259.167,107.5 257.833,107.5 256.5,107.5C 256.719,108.675 256.386,109.675 255.5,110.5C 254.702,108.922 254.202,107.256 254,105.5C 252.603,106.226 251.769,107.393 251.5,109C 253.557,116.303 254.724,123.469 255,130.5C 254.667,129.5 254.333,128.5 254,127.5C 253.333,126.167 252.667,126.167 252,127.5C 251.988,122.306 251.155,117.306 249.5,112.5C 248.978,117.279 248.645,122.279 248.5,127.5C 248.167,127.5 247.833,127.5 247.5,127.5C 247.353,121.767 246.686,116.1 245.5,110.5C 247.292,105.562 247.625,100.562 246.5,95.5C 245.5,95.5 244.5,95.5 243.5,95.5C 241.822,91.8508 242.322,88.5175 245,85.5C 249.122,85.2131 253.289,85.8798 257.5,87.5 Z"/></g>
<g><path style="opacity:1" fill="#537ce5" d="M 273.5,112.5 C 276.818,123.795 278.485,135.462 278.5,147.5C 277.058,149.54 276.058,151.873 275.5,154.5C 273.741,155.754 272.241,155.421 271,153.5C 270.505,155.473 270.338,157.473 270.5,159.5C 268.473,159.338 266.473,159.505 264.5,160C 263.333,161.833 261.833,163.333 260,164.5C 259.802,166.382 259.302,168.048 258.5,169.5C 258.5,167.5 258.5,165.5 258.5,163.5C 257.5,163.5 256.5,163.5 255.5,163.5C 255.349,160.282 254.516,159.949 253,162.5C 252.142,170.081 250.475,177.415 248,184.5C 246.431,183.286 245.598,181.619 245.5,179.5C 246.14,176.118 246.64,172.784 247,169.5C 246.333,170.833 245.667,170.833 245,169.5C 244.802,171.382 244.302,173.048 243.5,174.5C 243.714,169.317 244.714,164.317 246.5,159.5C 247.974,156.336 249.474,153.003 251,149.5C 251.73,142.452 251.397,135.452 250,128.5C 249.617,127.944 249.117,127.611 248.5,127.5C 248.645,122.279 248.978,117.279 249.5,112.5C 251.155,117.306 251.988,122.306 252,127.5C 252.667,126.167 253.333,126.167 254,127.5C 254.333,128.5 254.667,129.5 255,130.5C 254.724,123.469 253.557,116.303 251.5,109C 251.769,107.393 252.603,106.226 254,105.5C 254.202,107.256 254.702,108.922 255.5,110.5C 256.386,109.675 256.719,108.675 256.5,107.5C 257.833,107.5 259.167,107.5 260.5,107.5C 262.568,96.7931 264.568,96.4598 266.5,106.5C 266.444,107.737 265.944,108.737 265,109.5C 263.927,108.72 262.76,108.887 261.5,110C 264.238,110.603 267.071,111.77 270,113.5C 270.882,116.789 271.548,120.123 272,123.5C 272.465,122.069 273.299,120.903 274.5,120C 273.565,117.619 273.232,115.119 273.5,112.5 Z"/></g>
<g><path style="opacity:1" fill="#587bda" d="M 297.5,119.5 C 297.856,127.238 297.356,134.905 296,142.5C 295.667,140.167 295.333,137.833 295,135.5C 294.817,138.365 294.317,141.031 293.5,143.5C 293.821,137.974 293.488,132.64 292.5,127.5C 291.165,122.34 289.999,117.006 289,111.5C 286.664,106.657 284.831,101.657 283.5,96.5C 285.017,96.4894 286.184,95.8228 287,94.5C 285.236,101.136 287.403,105.97 293.5,109C 291.876,110.117 290.876,111.617 290.5,113.5C 292,115.833 293.5,118.167 295,120.5C 295.671,119.748 296.504,119.414 297.5,119.5 Z"/></g>
<g><path style="opacity:1" fill="#5f7acd" d="M 264.5,94.5 C 271.861,103.514 276.694,113.847 279,125.5C 279.824,134.343 279.657,143.01 278.5,151.5C 278.5,150.167 278.5,148.833 278.5,147.5C 278.485,135.462 276.818,123.795 273.5,112.5C 271.17,110.458 270.004,107.792 270,104.5C 266.776,102.051 264.943,98.7182 264.5,94.5 Z"/></g>
<g><path style="opacity:1" fill="#4f85d3" d="M 115.5,95.5 C 115.833,95.5 116.167,95.5 116.5,95.5C 110.042,109.332 106.375,123.999 105.5,139.5C 106.592,151.201 109.259,162.534 113.5,173.5C 111.394,172.434 109.894,170.767 109,168.5C 106.099,159.13 104.265,149.463 103.5,139.5C 104.142,133.513 104.642,127.513 105,121.5C 108.033,117.914 108.867,113.914 107.5,109.5C 108.325,108.614 109.325,108.281 110.5,108.5C 110.275,103.407 111.941,99.0741 115.5,95.5 Z"/></g>
<g><path style="opacity:1" fill="#6370e1" d="M 399.5,129.5 C 399.5,142.167 399.5,154.833 399.5,167.5C 394.833,168.167 392.167,170.833 391.5,175.5C 392.978,175.238 394.311,175.571 395.5,176.5C 392.833,179.167 390.167,181.833 387.5,184.5C 384.833,184.5 382.167,184.5 379.5,184.5C 376.854,186.132 375.521,188.465 375.5,191.5C 376.978,191.238 378.311,191.571 379.5,192.5C 376.833,195.167 374.167,197.833 371.5,200.5C 368.833,200.5 366.167,200.5 363.5,200.5C 360.854,202.132 359.521,204.465 359.5,207.5C 360.978,207.238 362.311,207.571 363.5,208.5C 360.833,211.167 358.167,213.833 355.5,216.5C 352.833,216.5 350.167,216.5 347.5,216.5C 344.854,218.132 343.521,220.465 343.5,223.5C 344.978,223.238 346.311,223.571 347.5,224.5C 344.833,227.167 342.167,229.833 339.5,232.5C 336.833,232.5 334.167,232.5 331.5,232.5C 328.854,234.132 327.521,236.465 327.5,239.5C 328.978,239.238 330.311,239.571 331.5,240.5C 328.833,243.167 326.167,245.833 323.5,248.5C 320.833,248.5 318.167,248.5 315.5,248.5C 312.854,250.132 311.521,252.465 311.5,255.5C 312.978,255.238 314.311,255.571 315.5,256.5C 312.833,259.167 310.167,261.833 307.5,264.5C 304.833,264.5 302.167,264.5 299.5,264.5C 296.854,266.132 295.521,268.465 295.5,271.5C 296.978,271.238 298.311,271.571 299.5,272.5C 296.833,275.167 294.167,277.833 291.5,280.5C 288.833,280.5 286.167,280.5 283.5,280.5C 280.854,282.132 279.521,284.465 279.5,287.5C 280.978,287.238 282.311,287.571 283.5,288.5C 280.833,291.167 278.167,293.833 275.5,296.5C 272.833,296.5 270.167,296.5 267.5,296.5C 264.854,298.132 263.521,300.465 263.5,303.5C 264.978,303.238 266.311,303.571 267.5,304.5C 264.833,307.167 262.167,309.833 259.5,312.5C 258.311,313.429 256.978,313.762 255.5,313.5C 255.5,315.5 255.5,317.5 255.5,319.5C 254.022,319.238 252.689,319.571 251.5,320.5C 248.465,323.87 245.132,326.87 241.5,329.5C 237.888,326.783 234.888,327.449 232.5,331.5C 231.571,332.689 231.238,334.022 231.5,335.5C 232.978,335.238 234.311,335.571 235.5,336.5C 232.49,339.677 229.323,342.677 226,345.5C 224.598,344.355 223.431,343.022 222.5,341.5C 223.043,341.44 223.376,341.107 223.5,340.5C 222.82,339.14 222.153,337.807 221.5,336.5C 223.067,331.63 223.567,326.63 223,321.5C 221.374,317.714 219.541,314.047 217.5,310.5C 218.762,310.093 220.095,309.76 221.5,309.5C 220.147,308.476 219.48,307.143 219.5,305.5C 214.371,304.386 214.371,303.719 219.5,303.5C 219.5,301.5 219.5,299.5 219.5,297.5C 220.833,297.5 222.167,297.5 223.5,297.5C 223.238,298.978 223.571,300.311 224.5,301.5C 226.928,298.402 229.928,296.069 233.5,294.5C 236.598,292.072 238.931,289.072 240.5,285.5C 242.928,282.402 245.928,280.069 249.5,278.5C 252.598,276.072 254.931,273.072 256.5,269.5C 261.167,265.5 265.833,261.5 270.5,257.5C 272.069,253.928 274.402,250.928 277.5,248.5C 281.072,246.931 284.072,244.598 286.5,241.5C 288.069,237.928 290.402,234.928 293.5,232.5C 297.072,230.931 300.072,228.598 302.5,225.5C 304.069,221.928 306.402,218.928 309.5,216.5C 313.072,214.931 316.072,212.598 318.5,209.5C 320.069,205.928 322.402,202.928 325.5,200.5C 329.072,198.931 332.072,196.598 334.5,193.5C 335.167,194.833 335.833,196.167 336.5,197.5C 338.167,195.833 339.833,194.167 341.5,192.5C 339.5,191.833 337.5,191.167 335.5,190.5C 340.313,185.93 345.313,181.597 350.5,177.5C 351.842,179.005 353.508,179.672 355.5,179.5C 355.5,178.167 355.5,176.833 355.5,175.5C 354.022,175.762 352.689,175.429 351.5,174.5C 356.313,169.93 361.313,165.597 366.5,161.5C 368.069,157.928 370.402,154.928 373.5,152.5C 377.072,150.931 380.072,148.598 382.5,145.5C 384.069,141.928 386.402,138.928 389.5,136.5C 393.146,134.505 396.479,132.172 399.5,129.5 Z"/></g>
<g><path style="opacity:1" fill="#6589d2" d="M 160.5,109.5 C 159.123,118.665 158.457,127.998 158.5,137.5C 158.276,144.411 158.942,151.078 160.5,157.5C 162.057,163.394 163.057,169.394 163.5,175.5C 156.624,157.542 154.791,138.875 158,119.5C 158.311,115.91 159.144,112.577 160.5,109.5 Z"/></g>
<g><path style="opacity:1" fill="#507ce5" d="M 194.5,127.5 C 194.5,128.167 194.833,128.5 195.5,128.5C 195.667,168.501 195.5,208.501 195,248.5C 194.502,246.456 193.335,245.122 191.5,244.5C 189.36,241.034 187.694,237.367 186.5,233.5C 186.822,231.278 186.155,229.444 184.5,228C 185.025,227.308 185.692,226.808 186.5,226.5C 187.398,222.733 188.398,219.066 189.5,215.5C 189.167,214.167 188.833,212.833 188.5,211.5C 187.206,216.084 185.373,220.418 183,224.5C 182.186,220.705 180.686,217.205 178.5,214C 179.551,212.615 180.884,211.615 182.5,211C 181.663,209.989 181.33,208.822 181.5,207.5C 179.408,207.561 177.908,208.561 177,210.5C 174.905,208.071 174.405,205.404 175.5,202.5C 173.728,200.059 172.394,197.392 171.5,194.5C 172.04,193.252 172.707,192.085 173.5,191C 173.501,187.699 173.334,184.199 173,180.5C 172.667,180.167 172.333,179.833 172,179.5C 171.654,181.218 171.154,182.885 170.5,184.5C 170.709,185.086 171.043,185.586 171.5,186C 170.074,188.045 169.074,190.212 168.5,192.5C 166.21,187.073 164.543,181.407 163.5,175.5C 163.057,169.394 162.057,163.394 160.5,157.5C 161.752,155.661 161.752,153.828 160.5,152C 162.138,152.242 163.638,153.075 165,154.5C 166.543,150.761 168.043,147.094 169.5,143.5C 171.167,143.5 172.833,143.5 174.5,143.5C 174.357,141.738 174.691,140.071 175.5,138.5C 183.486,135.177 187.486,129.177 187.5,120.5C 188.689,119.571 190.022,119.238 191.5,119.5C 191.5,122.167 191.5,124.833 191.5,127.5C 192.5,127.5 193.5,127.5 194.5,127.5 Z"/></g>
<g><path style="opacity:1" fill="#6283d8" d="M 247.5,127.5 C 247.833,127.5 248.167,127.5 248.5,127.5C 249.117,127.611 249.617,127.944 250,128.5C 251.397,135.452 251.73,142.452 251,149.5C 249.474,153.003 247.974,156.336 246.5,159.5C 247.404,148.865 247.737,138.198 247.5,127.5 Z"/></g>
<g><path style="opacity:1" fill="#8b9dd6" d="M 292.5,127.5 C 293.488,132.64 293.821,137.974 293.5,143.5C 293.947,149.228 292.947,154.562 290.5,159.5C 292.274,148.931 292.941,138.264 292.5,127.5 Z"/></g>
<g><path style="opacity:1" fill="#5c7bdc" d="M 278.5,147.5 C 278.5,148.833 278.5,150.167 278.5,151.5C 276.183,161.164 272.516,170.164 267.5,178.5C 265.582,183.343 262.916,187.677 259.5,191.5C 259.414,189.323 258.747,187.323 257.5,185.5C 257.808,184.692 258.308,184.025 259,183.5C 259.71,184.973 260.876,185.64 262.5,185.5C 261.896,182.407 260.396,179.741 258,177.5C 257.803,179.861 256.636,181.528 254.5,182.5C 253.341,178.878 253.175,175.211 254,171.5C 254.26,173.618 255.26,175.284 257,176.5C 257.617,175.551 257.451,174.718 256.5,174C 257.582,172.67 258.249,171.17 258.5,169.5C 259.302,168.048 259.802,166.382 260,164.5C 261.833,163.333 263.333,161.833 264.5,160C 266.473,159.505 268.473,159.338 270.5,159.5C 270.338,157.473 270.505,155.473 271,153.5C 272.241,155.421 273.741,155.754 275.5,154.5C 276.058,151.873 277.058,149.54 278.5,147.5 Z"/></g>
<g><path style="opacity:1" fill="#5876e6" d="M 267.5,178.5 C 265.983,178.511 264.816,179.177 264,180.5C 262.833,179.333 261.667,178.167 260.5,177C 262.393,172.936 264.059,168.769 265.5,164.5C 267.823,162.683 270.156,161.683 272.5,161.5C 273.206,163.766 273.039,166.099 272,168.5C 271.333,169.833 270.667,169.833 270,168.5C 268.241,171.608 267.408,174.941 267.5,178.5 Z"/></g>
<g><path style="opacity:1" fill="#6e81c3" d="M 290.5,159.5 C 290.99,163.951 289.656,167.617 286.5,170.5C 287.462,166.605 288.796,162.939 290.5,159.5 Z"/></g>
<g><path style="opacity:1" fill="#696fe1" d="M 399.5,167.5 C 399.5,182.833 399.5,198.167 399.5,213.5C 395.758,214.218 392.758,216.218 390.5,219.5C 390.5,222.167 390.5,224.833 390.5,227.5C 388.112,231.551 385.112,232.217 381.5,229.5C 377.277,231.709 374.611,235.042 373.5,239.5C 372.167,239.5 370.833,239.5 369.5,239.5C 369.666,244.844 369.499,250.177 369,255.5C 367.801,252.274 367.301,248.941 367.5,245.5C 360.684,247.656 356.684,252.322 355.5,259.5C 348.322,260.684 343.656,264.684 341.5,271.5C 340.167,271.5 338.833,271.5 337.5,271.5C 337.666,276.844 337.499,282.177 337,287.5C 335.801,284.274 335.301,280.941 335.5,277.5C 331.042,278.611 327.709,281.277 325.5,285.5C 328.182,290.168 326.848,293.502 321.5,295.5C 320.167,294.833 318.833,294.167 317.5,293.5C 311.802,296.524 308.468,301.19 307.5,307.5C 298.833,309.5 293.5,314.833 291.5,323.5C 285.19,324.468 280.524,327.802 277.5,333.5C 280.182,338.168 278.848,341.502 273.5,343.5C 272.167,342.833 270.833,342.167 269.5,341.5C 263.802,344.524 260.468,349.19 259.5,355.5C 252.322,356.684 247.656,360.684 245.5,367.5C 248.978,367.184 252.312,367.684 255.5,369C 250.177,369.499 244.844,369.666 239.5,369.5C 239.5,370.833 239.5,372.167 239.5,373.5C 235.758,374.218 232.758,376.218 230.5,379.5C 230.5,382.167 230.5,384.833 230.5,387.5C 228.112,391.551 225.112,392.217 221.5,389.5C 217.277,391.709 214.611,395.042 213.5,399.5C 198.167,399.5 182.833,399.5 167.5,399.5C 167.521,396.465 168.854,394.132 171.5,392.5C 174.167,392.5 176.833,392.5 179.5,392.5C 182.167,389.833 184.833,387.167 187.5,384.5C 186.311,383.571 184.978,383.238 183.5,383.5C 183.521,380.465 184.854,378.132 187.5,376.5C 190.167,376.5 192.833,376.5 195.5,376.5C 198.167,373.833 200.833,371.167 203.5,368.5C 202.311,367.571 200.978,367.238 199.5,367.5C 199.924,363.732 201.924,361.065 205.5,359.5C 206.833,360.167 208.167,360.833 209.5,361.5C 212.797,359.205 215.797,356.538 218.5,353.5C 220.382,352.907 222.215,352.24 224,351.5C 224.103,346.757 222.27,345.757 218.5,348.5C 217.833,348.167 217.167,347.833 216.5,347.5C 217.243,346.818 217.909,346.151 218.5,345.5C 219.283,343.672 220.616,342.339 222.5,341.5C 223.431,343.022 224.598,344.355 226,345.5C 229.323,342.677 232.49,339.677 235.5,336.5C 234.311,335.571 232.978,335.238 231.5,335.5C 231.238,334.022 231.571,332.689 232.5,331.5C 234.888,327.449 237.888,326.783 241.5,329.5C 245.132,326.87 248.465,323.87 251.5,320.5C 252.689,319.571 254.022,319.238 255.5,319.5C 255.5,317.5 255.5,315.5 255.5,313.5C 256.978,313.762 258.311,313.429 259.5,312.5C 262.167,309.833 264.833,307.167 267.5,304.5C 266.311,303.571 264.978,303.238 263.5,303.5C 263.521,300.465 264.854,298.132 267.5,296.5C 270.167,296.5 272.833,296.5 275.5,296.5C 278.167,293.833 280.833,291.167 283.5,288.5C 282.311,287.571 280.978,287.238 279.5,287.5C 279.521,284.465 280.854,282.132 283.5,280.5C 286.167,280.5 288.833,280.5 291.5,280.5C 294.167,277.833 296.833,275.167 299.5,272.5C 298.311,271.571 296.978,271.238 295.5,271.5C 295.521,268.465 296.854,266.132 299.5,264.5C 302.167,264.5 304.833,264.5 307.5,264.5C 310.167,261.833 312.833,259.167 315.5,256.5C 314.311,255.571 312.978,255.238 311.5,255.5C 311.521,252.465 312.854,250.132 315.5,248.5C 318.167,248.5 320.833,248.5 323.5,248.5C 326.167,245.833 328.833,243.167 331.5,240.5C 330.311,239.571 328.978,239.238 327.5,239.5C 327.521,236.465 328.854,234.132 331.5,232.5C 334.167,232.5 336.833,232.5 339.5,232.5C 342.167,229.833 344.833,227.167 347.5,224.5C 346.311,223.571 344.978,223.238 343.5,223.5C 343.521,220.465 344.854,218.132 347.5,216.5C 350.167,216.5 352.833,216.5 355.5,216.5C 358.167,213.833 360.833,211.167 363.5,208.5C 362.311,207.571 360.978,207.238 359.5,207.5C 359.521,204.465 360.854,202.132 363.5,200.5C 366.167,200.5 368.833,200.5 371.5,200.5C 374.167,197.833 376.833,195.167 379.5,192.5C 378.311,191.571 376.978,191.238 375.5,191.5C 375.521,188.465 376.854,186.132 379.5,184.5C 382.167,184.5 384.833,184.5 387.5,184.5C 390.167,181.833 392.833,179.167 395.5,176.5C 394.311,175.571 392.978,175.238 391.5,175.5C 392.167,170.833 394.833,168.167 399.5,167.5 Z"/></g>
<g><path style="opacity:1" fill="#4883e6" d="M 115.5,95.5 C 111.941,99.0741 110.275,103.407 110.5,108.5C 109.325,108.281 108.325,108.614 107.5,109.5C 108.867,113.914 108.033,117.914 105,121.5C 104.642,127.513 104.142,133.513 103.5,139.5C 104.265,149.463 106.099,159.13 109,168.5C 109.894,170.767 111.394,172.434 113.5,173.5C 113.664,178.741 115.331,183.408 118.5,187.5C 116.759,189.013 115.759,191.013 115.5,193.5C 116.615,195.733 116.615,197.899 115.5,200C 117,201.167 118.5,202.333 120,203.5C 120.667,204.5 120.667,205.5 120,206.5C 117.429,207.245 114.929,207.579 112.5,207.5C 110.811,205.216 110.145,202.882 110.5,200.5C 109.5,199.167 108.5,199.167 107.5,200.5C 107.501,208.168 104.168,213.835 97.5,217.5C 96.1667,216.833 94.8333,216.167 93.5,215.5C 92.8333,215.833 92.1667,216.167 91.5,216.5C 91.5015,224.168 88.1682,229.835 81.5,233.5C 80.1667,232.833 78.8333,232.167 77.5,231.5C 76.8333,231.833 76.1667,232.167 75.5,232.5C 75.4752,240.23 72.1418,245.896 65.5,249.5C 60.8316,246.818 57.4983,248.152 55.5,253.5C 56.1667,254.833 56.8333,256.167 57.5,257.5C 55.5,259.833 53.5,262.167 51.5,264.5C 48.7476,266.336 45.7476,267.336 42.5,267.5C 42.5407,273.084 40.2073,277.417 35.5,280.5C 32.8333,280.5 30.1667,280.5 27.5,280.5C 27.4929,287.181 24.8263,292.514 19.5,296.5C 17.9936,297.747 16.4936,297.747 15,296.5C 12.8149,298.54 10.3149,299.874 7.5,300.5C 7.78627,302.277 8.45293,303.944 9.5,305.5C 7.29084,309.723 3.95751,312.389 -0.5,313.5C -0.5,292.167 -0.5,270.833 -0.5,249.5C 3.95751,248.389 7.29084,245.723 9.5,241.5C 8.83333,240.167 8.16667,238.833 7.5,237.5C 9.49828,232.152 12.8316,230.818 17.5,233.5C 20.8333,231.5 23.5,228.833 25.5,225.5C 24.8333,224.167 24.1667,222.833 23.5,221.5C 25.4983,216.152 28.8316,214.818 33.5,217.5C 36.1277,215.874 38.461,213.874 40.5,211.5C 40.5,208.833 40.5,206.167 40.5,203.5C 42.1319,200.854 44.4652,199.521 47.5,199.5C 47.5,196.833 47.5,194.167 47.5,191.5C 50.1667,191.5 52.8333,191.5 55.5,191.5C 55.238,190.022 55.5713,188.689 56.5,187.5C 58.888,183.449 61.888,182.783 65.5,185.5C 68.8333,183.5 71.5,180.833 73.5,177.5C 72.8333,176.167 72.1667,174.833 71.5,173.5C 73.4983,168.152 76.8316,166.818 81.5,169.5C 84.1277,167.874 86.461,165.874 88.5,163.5C 88.5,160.833 88.5,158.167 88.5,155.5C 90.0069,153.31 92.0069,151.976 94.5,151.5C 94.5,149.167 94.5,146.833 94.5,144.5C 95.5,144.5 96.5,144.5 97.5,144.5C 97.3341,149.511 97.5007,154.511 98,159.5C 100.57,156.349 102.07,152.683 102.5,148.5C 103.226,145.042 101.893,143.375 98.5,143.5C 98.219,138.435 98.5524,133.435 99.5,128.5C 95.8931,118.802 96.8931,109.802 102.5,101.5C 105.642,100.342 108.475,98.6752 111,96.5C 111.333,96.8333 111.667,97.1667 112,97.5C 112.923,96.2412 113.757,94.9079 114.5,93.5C 115.298,93.9569 115.631,94.6236 115.5,95.5 Z"/></g>
<g><path style="opacity:1" fill="#5776e5" d="M 258.5,169.5 C 258.249,171.17 257.582,172.67 256.5,174C 257.451,174.718 257.617,175.551 257,176.5C 255.26,175.284 254.26,173.618 254,171.5C 253.175,175.211 253.341,178.878 254.5,182.5C 256.636,181.528 257.803,179.861 258,177.5C 260.396,179.741 261.896,182.407 262.5,185.5C 260.876,185.64 259.71,184.973 259,183.5C 258.308,184.025 257.808,184.692 257.5,185.5C 258.747,187.323 259.414,189.323 259.5,191.5C 258.265,191.279 257.265,190.612 256.5,189.5C 255.667,190.5 254.833,191.5 254,192.5C 253.059,190.939 251.892,189.605 250.5,188.5C 248.769,190.587 248.102,192.754 248.5,195C 251.382,197.194 251.882,199.694 250,202.5C 249.667,201.5 249.333,200.5 249,199.5C 244.144,200.737 241.811,204.07 242,209.5C 242.889,208.112 243.389,208.278 243.5,210C 241.566,212.502 240.566,215.336 240.5,218.5C 238.833,218.5 237.167,218.5 235.5,218.5C 233.883,221.805 232.217,225.138 230.5,228.5C 229.5,228.5 228.5,228.5 227.5,228.5C 227.567,226.599 227.233,224.766 226.5,223C 226.833,222.5 227.167,222 227.5,221.5C 228.451,222.326 229.451,222.492 230.5,222C 229.077,219.38 229.243,216.88 231,214.5C 233.813,217.044 235.98,216.377 237.5,212.5C 236.009,211.756 234.509,211.09 233,210.5C 233.57,207.25 234.07,203.916 234.5,200.5C 234.5,200.167 234.5,199.833 234.5,199.5C 237.596,194.443 240.429,189.109 243,183.5C 243.498,180.518 243.665,177.518 243.5,174.5C 244.302,173.048 244.802,171.382 245,169.5C 245.667,170.833 246.333,170.833 247,169.5C 246.64,172.784 246.14,176.118 245.5,179.5C 245.598,181.619 246.431,183.286 248,184.5C 250.475,177.415 252.142,170.081 253,162.5C 254.516,159.949 255.349,160.282 255.5,163.5C 256.5,163.5 257.5,163.5 258.5,163.5C 258.5,165.5 258.5,167.5 258.5,169.5 Z"/></g>
<g><path style="opacity:1" fill="#5a7ecb" d="M 113.5,173.5 C 116.341,177.849 118.674,182.516 120.5,187.5C 119.833,187.5 119.167,187.5 118.5,187.5C 115.331,183.408 113.664,178.741 113.5,173.5 Z"/></g>
<g><path style="opacity:1" fill="#6979c9" d="M 286.5,170.5 C 286.662,172.527 286.495,174.527 286,176.5C 281.815,183.2 278.481,190.2 276,197.5C 274.989,198.337 273.822,198.67 272.5,198.5C 272.532,200.619 271.532,201.952 269.5,202.5C 275.68,192.143 281.346,181.476 286.5,170.5 Z"/></g>
<g><path style="opacity:1" fill="#4b7de6" d="M 118.5,187.5 C 119.167,187.5 119.833,187.5 120.5,187.5C 120.134,191.62 120.134,195.12 120.5,198C 122.833,199 125.167,200 127.5,201C 128.547,204.381 130.047,207.547 132,210.5C 133.47,211.267 134.97,211.933 136.5,212.5C 139.605,215.275 141.938,218.608 143.5,222.5C 143.75,224.674 144.75,226.341 146.5,227.5C 144.863,228.218 143.197,228.384 141.5,228C 137.096,223.624 132.929,219.124 129,214.5C 128.5,215 128,215.5 127.5,216C 128.781,218.427 129.781,220.927 130.5,223.5C 126.833,223.5 123.167,223.5 119.5,223.5C 119.719,224.675 119.386,225.675 118.5,226.5C 113.264,229.202 111.097,233.536 112,239.5C 109.379,239.296 106.545,239.296 103.5,239.5C 103.719,240.675 103.386,241.675 102.5,242.5C 97.1344,244.65 96.8011,246.65 101.5,248.5C 99.4565,250.208 97.7899,252.208 96.5,254.5C 98.1667,255.167 99.8333,255.833 101.5,256.5C 99.8333,258.167 98.1667,259.833 96.5,261.5C 95.1448,256.582 93.3115,256.582 91,261.5C 90.5045,259.527 90.3379,257.527 90.5,255.5C 89.5,255.5 88.5,255.5 87.5,255.5C 87.719,256.675 87.3857,257.675 86.5,258.5C 81.1047,261.177 79.1047,265.51 80.5,271.5C 82.288,271.215 83.9547,271.548 85.5,272.5C 83.8333,274.167 82.1667,275.833 80.5,277.5C 79.1448,272.582 77.3115,272.582 75,277.5C 74.5045,275.527 74.3379,273.527 74.5,271.5C 73.5,271.5 72.5,271.5 71.5,271.5C 71.719,272.675 71.3857,273.675 70.5,274.5C 64.7896,276.994 62.4562,281.328 63.5,287.5C 65.604,287.201 67.604,287.534 69.5,288.5C 67.8333,290.167 66.1667,291.833 64.5,293.5C 63.1448,288.582 61.3115,288.582 59,293.5C 58.5045,291.527 58.3379,289.527 58.5,287.5C 53.4361,288.629 51.7695,291.629 53.5,296.5C 51.1349,300.755 50.1349,300.421 50.5,295.5C 49.5,295.5 48.5,295.5 47.5,295.5C 47.7683,298.119 47.435,300.619 46.5,303C 48.9005,303.186 51.2338,303.686 53.5,304.5C 49.6895,308.24 45.3561,311.24 40.5,313.5C 39.8333,312.167 39.1667,310.833 38.5,309.5C 37.1218,311.213 35.4552,312.547 33.5,313.5C 31.9436,312.453 30.2769,311.786 28.5,311.5C 28.5,314.167 28.5,316.833 28.5,319.5C 29.675,319.281 30.675,319.614 31.5,320.5C 29.1667,322.833 26.8333,325.167 24.5,327.5C 23.5713,326.311 23.238,324.978 23.5,323.5C 20.9876,323.423 18.9876,324.423 17.5,326.5C 16.5934,329.421 16.2601,332.421 16.5,335.5C 13.5,335.5 10.5,335.5 7.5,335.5C 7.71901,336.675 7.38568,337.675 6.5,338.5C 4.13035,340.217 1.79702,341.883 -0.5,343.5C -0.5,333.5 -0.5,323.5 -0.5,313.5C 3.95751,312.389 7.29084,309.723 9.5,305.5C 8.45293,303.944 7.78627,302.277 7.5,300.5C 10.3149,299.874 12.8149,298.54 15,296.5C 16.4936,297.747 17.9936,297.747 19.5,296.5C 24.8263,292.514 27.4929,287.181 27.5,280.5C 30.1667,280.5 32.8333,280.5 35.5,280.5C 40.2073,277.417 42.5407,273.084 42.5,267.5C 45.7476,267.336 48.7476,266.336 51.5,264.5C 53.5,262.167 55.5,259.833 57.5,257.5C 56.8333,256.167 56.1667,254.833 55.5,253.5C 57.4983,248.152 60.8316,246.818 65.5,249.5C 72.1418,245.896 75.4752,240.23 75.5,232.5C 76.1667,232.167 76.8333,231.833 77.5,231.5C 78.8333,232.167 80.1667,232.833 81.5,233.5C 88.1682,229.835 91.5015,224.168 91.5,216.5C 92.1667,216.167 92.8333,215.833 93.5,215.5C 94.8333,216.167 96.1667,216.833 97.5,217.5C 104.168,213.835 107.501,208.168 107.5,200.5C 108.5,199.167 109.5,199.167 110.5,200.5C 110.145,202.882 110.811,205.216 112.5,207.5C 114.929,207.579 117.429,207.245 120,206.5C 120.667,205.5 120.667,204.5 120,203.5C 118.5,202.333 117,201.167 115.5,200C 116.615,197.899 116.615,195.733 115.5,193.5C 115.759,191.013 116.759,189.013 118.5,187.5 Z"/></g>
<g><path style="opacity:1" fill="#d9ecf9" d="M 196.5,68.5 C 197.17,129.373 197.837,190.373 198.5,251.5C 195.302,255.654 193.635,254.987 193.5,249.5C 194.315,250.429 195.148,251.429 196,252.5C 196.5,191.168 196.667,129.834 196.5,68.5 Z"/></g>
<g><path style="opacity:1" fill="#6b7ec9" d="M 243.5,174.5 C 243.665,177.518 243.498,180.518 243,183.5C 240.429,189.109 237.596,194.443 234.5,199.5C 237.246,191.022 240.246,182.689 243.5,174.5 Z"/></g>
<g><path style="opacity:1" fill="#587fdb" d="M 186.5,233.5 C 184.36,229.897 182.193,226.23 180,222.5C 175.878,212.638 172.045,202.638 168.5,192.5C 169.074,190.212 170.074,188.045 171.5,186C 171.043,185.586 170.709,185.086 170.5,184.5C 171.154,182.885 171.654,181.218 172,179.5C 172.333,179.833 172.667,180.167 173,180.5C 173.334,184.199 173.501,187.699 173.5,191C 172.707,192.085 172.04,193.252 171.5,194.5C 172.394,197.392 173.728,200.059 175.5,202.5C 174.405,205.404 174.905,208.071 177,210.5C 177.908,208.561 179.408,207.561 181.5,207.5C 181.33,208.822 181.663,209.989 182.5,211C 180.884,211.615 179.551,212.615 178.5,214C 180.686,217.205 182.186,220.705 183,224.5C 185.373,220.418 187.206,216.084 188.5,211.5C 188.833,212.833 189.167,214.167 189.5,215.5C 188.398,219.066 187.398,222.733 186.5,226.5C 185.692,226.808 185.025,227.308 184.5,228C 186.155,229.444 186.822,231.278 186.5,233.5 Z"/></g>
<g><path style="opacity:1" fill="#6079db" d="M 259.5,191.5 C 253.902,201.034 247.569,210.034 240.5,218.5C 240.566,215.336 241.566,212.502 243.5,210C 243.389,208.278 242.889,208.112 242,209.5C 241.811,204.07 244.144,200.737 249,199.5C 249.333,200.5 249.667,201.5 250,202.5C 251.882,199.694 251.382,197.194 248.5,195C 248.102,192.754 248.769,190.587 250.5,188.5C 251.892,189.605 253.059,190.939 254,192.5C 254.833,191.5 255.667,190.5 256.5,189.5C 257.265,190.612 258.265,191.279 259.5,191.5 Z"/></g>
<g><path style="opacity:1" fill="#587dce" d="M 120.5,187.5 C 125.826,195.828 131.159,204.162 136.5,212.5C 134.97,211.933 133.47,211.267 132,210.5C 130.047,207.547 128.547,204.381 127.5,201C 125.167,200 122.833,199 120.5,198C 120.134,195.12 120.134,191.62 120.5,187.5 Z"/></g>
<g><path style="opacity:1" fill="#6978c5" d="M 269.5,202.5 C 268.105,205.4 266.939,208.4 266,211.5C 263.644,213.075 261.478,214.741 259.5,216.5C 262.453,211.55 265.786,206.883 269.5,202.5 Z"/></g>
<g><path style="opacity:1" fill="#706ae1" d="M 399.5,213.5 C 399.5,228.833 399.5,244.167 399.5,259.5C 398.022,259.238 396.689,259.571 395.5,260.5C 391.833,264.167 388.167,267.833 384.5,271.5C 383.571,272.689 383.238,274.022 383.5,275.5C 382.022,275.238 380.689,275.571 379.5,276.5C 375.833,280.167 372.167,283.833 368.5,287.5C 367.571,286.311 367.238,284.978 367.5,283.5C 366.167,283.5 364.833,283.5 363.5,283.5C 363.5,284.833 363.5,286.167 363.5,287.5C 362.167,287.5 360.833,287.5 359.5,287.5C 359.5,292.833 359.5,298.167 359.5,303.5C 356.833,303.5 354.167,303.5 351.5,303.5C 351.5,302.167 351.5,300.833 351.5,299.5C 350.167,299.5 348.833,299.5 347.5,299.5C 347.5,300.833 347.5,302.167 347.5,303.5C 346.167,303.5 344.833,303.5 343.5,303.5C 343.828,308.875 343.495,314.208 342.5,319.5C 341.655,323.351 339.322,325.351 335.5,325.5C 335.5,322.167 335.5,318.833 335.5,315.5C 334.167,315.5 332.833,315.5 331.5,315.5C 331.5,316.833 331.5,318.167 331.5,319.5C 330.167,319.5 328.833,319.5 327.5,319.5C 327.5,324.833 327.5,330.167 327.5,335.5C 324.833,335.5 322.167,335.5 319.5,335.5C 319.5,334.167 319.5,332.833 319.5,331.5C 318.167,331.5 316.833,331.5 315.5,331.5C 315.5,332.833 315.5,334.167 315.5,335.5C 314.167,335.5 312.833,335.5 311.5,335.5C 311.5,340.833 311.5,346.167 311.5,351.5C 308.833,351.5 306.167,351.5 303.5,351.5C 303.5,352.833 303.5,354.167 303.5,355.5C 302.022,355.238 300.689,355.571 299.5,356.5C 295.833,360.167 292.167,363.833 288.5,367.5C 287.571,368.689 287.238,370.022 287.5,371.5C 286.022,371.238 284.689,371.571 283.5,372.5C 279.833,376.167 276.167,379.833 272.5,383.5C 271.571,384.689 271.238,386.022 271.5,387.5C 270.022,387.238 268.689,387.571 267.5,388.5C 263.753,391.908 260.42,395.574 257.5,399.5C 242.833,399.5 228.167,399.5 213.5,399.5C 214.611,395.042 217.277,391.709 221.5,389.5C 225.112,392.217 228.112,391.551 230.5,387.5C 230.5,384.833 230.5,382.167 230.5,379.5C 232.758,376.218 235.758,374.218 239.5,373.5C 239.5,372.167 239.5,370.833 239.5,369.5C 244.844,369.666 250.177,369.499 255.5,369C 252.312,367.684 248.978,367.184 245.5,367.5C 247.656,360.684 252.322,356.684 259.5,355.5C 260.468,349.19 263.802,344.524 269.5,341.5C 270.833,342.167 272.167,342.833 273.5,343.5C 278.848,341.502 280.182,338.168 277.5,333.5C 280.524,327.802 285.19,324.468 291.5,323.5C 293.5,314.833 298.833,309.5 307.5,307.5C 308.468,301.19 311.802,296.524 317.5,293.5C 318.833,294.167 320.167,294.833 321.5,295.5C 326.848,293.502 328.182,290.168 325.5,285.5C 327.709,281.277 331.042,278.611 335.5,277.5C 335.301,280.941 335.801,284.274 337,287.5C 337.499,282.177 337.666,276.844 337.5,271.5C 338.833,271.5 340.167,271.5 341.5,271.5C 343.656,264.684 348.322,260.684 355.5,259.5C 356.684,252.322 360.684,247.656 367.5,245.5C 367.301,248.941 367.801,252.274 369,255.5C 369.499,250.177 369.666,244.844 369.5,239.5C 370.833,239.5 372.167,239.5 373.5,239.5C 374.611,235.042 377.277,231.709 381.5,229.5C 385.112,232.217 388.112,231.551 390.5,227.5C 390.5,224.833 390.5,222.167 390.5,219.5C 392.758,216.218 395.758,214.218 399.5,213.5 Z"/></g>
<g><path style="opacity:1" fill="#527ce6" d="M 146.5,227.5 C 147.167,227.5 147.5,227.833 147.5,228.5C 145.723,230.539 144.057,232.706 142.5,235C 142.613,236.28 143.28,237.113 144.5,237.5C 145.258,236.189 146.258,235.689 147.5,236C 149.5,237.333 151.167,239 152.5,241C 152.043,241.414 151.709,241.914 151.5,242.5C 153.113,243.427 154.779,244.261 156.5,245C 155.833,245.333 155.167,245.667 154.5,246C 159.541,247.008 159.208,247.508 153.5,247.5C 153.649,246.448 153.483,245.448 153,244.5C 152.598,245.872 152.098,247.205 151.5,248.5C 153.743,249.474 156.076,249.808 158.5,249.5C 158.5,250.5 158.5,251.5 158.5,252.5C 161.346,252.03 163.679,252.863 165.5,255C 165.167,255.333 164.833,255.667 164.5,256C 165.959,255.645 167.293,255.811 168.5,256.5C 168.629,258.216 168.962,259.883 169.5,261.5C 167.884,262.989 165.884,263.989 163.5,264.5C 162.478,265.354 161.645,266.354 161,267.5C 160.586,267.043 160.086,266.709 159.5,266.5C 158.548,268.045 158.215,269.712 158.5,271.5C 157.5,271.5 156.5,271.5 155.5,271.5C 155.762,272.978 155.429,274.311 154.5,275.5C 151.744,278.927 148.41,281.593 144.5,283.5C 143.571,284.689 143.238,286.022 143.5,287.5C 142.167,287.5 140.833,287.5 139.5,287.5C 139.762,288.978 139.429,290.311 138.5,291.5C 135.744,294.927 132.41,297.593 128.5,299.5C 127.571,300.689 127.238,302.022 127.5,303.5C 126.167,303.5 124.833,303.5 123.5,303.5C 123.762,304.978 123.429,306.311 122.5,307.5C 119.744,310.927 116.41,313.593 112.5,315.5C 111.571,316.689 111.238,318.022 111.5,319.5C 110.167,319.5 108.833,319.5 107.5,319.5C 107.762,320.978 107.429,322.311 106.5,323.5C 103.744,326.927 100.41,329.593 96.5,331.5C 95.5713,332.689 95.238,334.022 95.5,335.5C 94.1667,335.5 92.8333,335.5 91.5,335.5C 91.762,336.978 91.4287,338.311 90.5,339.5C 87.7436,342.927 84.4103,345.593 80.5,347.5C 79.5713,348.689 79.238,350.022 79.5,351.5C 78.1667,351.5 76.8333,351.5 75.5,351.5C 75.762,352.978 75.4287,354.311 74.5,355.5C 71.7436,358.927 68.4103,361.593 64.5,363.5C 63.5713,364.689 63.238,366.022 63.5,367.5C 62.1667,367.5 60.8333,367.5 59.5,367.5C 59.762,368.978 59.4287,370.311 58.5,371.5C 55.7436,374.927 52.4103,377.593 48.5,379.5C 47.5713,380.689 47.238,382.022 47.5,383.5C 46.1667,383.5 44.8333,383.5 43.5,383.5C 42.7823,387.242 40.7823,390.242 37.5,392.5C 35.6675,393.248 34.0009,394.248 32.5,395.5C 31.8333,394.167 31.1667,392.833 30.5,391.5C 27.7488,393.91 25.4155,396.577 23.5,399.5C 15.5,399.5 7.5,399.5 -0.5,399.5C -0.5,380.833 -0.5,362.167 -0.5,343.5C 1.79702,341.883 4.13035,340.217 6.5,338.5C 7.38568,337.675 7.71901,336.675 7.5,335.5C 10.5,335.5 13.5,335.5 16.5,335.5C 16.2601,332.421 16.5934,329.421 17.5,326.5C 18.9876,324.423 20.9876,323.423 23.5,323.5C 23.238,324.978 23.5713,326.311 24.5,327.5C 26.8333,325.167 29.1667,322.833 31.5,320.5C 30.675,319.614 29.675,319.281 28.5,319.5C 28.5,316.833 28.5,314.167 28.5,311.5C 30.2769,311.786 31.9436,312.453 33.5,313.5C 35.4552,312.547 37.1218,311.213 38.5,309.5C 39.1667,310.833 39.8333,312.167 40.5,313.5C 45.3561,311.24 49.6895,308.24 53.5,304.5C 51.2338,303.686 48.9005,303.186 46.5,303C 47.435,300.619 47.7683,298.119 47.5,295.5C 48.5,295.5 49.5,295.5 50.5,295.5C 50.1349,300.421 51.1349,300.755 53.5,296.5C 51.7695,291.629 53.4361,288.629 58.5,287.5C 58.3379,289.527 58.5045,291.527 59,293.5C 61.3115,288.582 63.1448,288.582 64.5,293.5C 66.1667,291.833 67.8333,290.167 69.5,288.5C 67.604,287.534 65.604,287.201 63.5,287.5C 62.4562,281.328 64.7896,276.994 70.5,274.5C 71.3857,273.675 71.719,272.675 71.5,271.5C 72.5,271.5 73.5,271.5 74.5,271.5C 74.3379,273.527 74.5045,275.527 75,277.5C 77.3115,272.582 79.1448,272.582 80.5,277.5C 82.1667,275.833 83.8333,274.167 85.5,272.5C 83.9547,271.548 82.288,271.215 80.5,271.5C 79.1047,265.51 81.1047,261.177 86.5,258.5C 87.3857,257.675 87.719,256.675 87.5,255.5C 88.5,255.5 89.5,255.5 90.5,255.5C 90.3379,257.527 90.5045,259.527 91,261.5C 93.3115,256.582 95.1448,256.582 96.5,261.5C 98.1667,259.833 99.8333,258.167 101.5,256.5C 99.8333,255.833 98.1667,255.167 96.5,254.5C 97.7899,252.208 99.4565,250.208 101.5,248.5C 96.8011,246.65 97.1344,244.65 102.5,242.5C 103.386,241.675 103.719,240.675 103.5,239.5C 106.545,239.296 109.379,239.296 112,239.5C 111.097,233.536 113.264,229.202 118.5,226.5C 119.386,225.675 119.719,224.675 119.5,223.5C 123.167,223.5 126.833,223.5 130.5,223.5C 129.781,220.927 128.781,218.427 127.5,216C 128,215.5 128.5,215 129,214.5C 132.929,219.124 137.096,223.624 141.5,228C 143.197,228.384 144.863,228.218 146.5,227.5 Z"/></g>
<g><path style="opacity:1" fill="#5c72ce" d="M 259.5,216.5 C 259.34,218.199 259.506,219.866 260,221.5C 260.914,220.346 261.747,220.513 262.5,222C 260.676,224.081 259.009,223.915 257.5,221.5C 256.702,223.078 256.202,224.744 256,226.5C 254.989,227.337 253.822,227.67 252.5,227.5C 252.33,228.822 252.663,229.989 253.5,231C 252.435,234.558 250.769,235.058 248.5,232.5C 247.358,233.826 246.024,234.826 244.5,235.5C 249.126,228.874 254.126,222.54 259.5,216.5 Z"/></g>
<g><path style="opacity:1" fill="#5b7bbb" d="M 143.5,222.5 C 146.881,224.88 149.547,227.88 151.5,231.5C 149.57,231.229 148.236,230.229 147.5,228.5C 147.5,227.833 147.167,227.5 146.5,227.5C 144.75,226.341 143.75,224.674 143.5,222.5 Z"/></g>
<g><path style="opacity:1" fill="#6177d5" d="M 234.5,200.5 C 234.07,203.916 233.57,207.25 233,210.5C 234.509,211.09 236.009,211.756 237.5,212.5C 235.98,216.377 233.813,217.044 231,214.5C 229.243,216.88 229.077,219.38 230.5,222C 229.451,222.492 228.451,222.326 227.5,221.5C 227.167,222 226.833,222.5 226.5,223C 227.233,224.766 227.567,226.599 227.5,228.5C 228.5,228.5 229.5,228.5 230.5,228.5C 232.217,225.138 233.883,221.805 235.5,218.5C 237.167,218.5 238.833,218.5 240.5,218.5C 234.531,226.768 227.865,234.435 220.5,241.5C 219.503,241.53 218.836,241.03 218.5,240C 219.233,238.234 219.567,236.401 219.5,234.5C 224.538,223.098 229.538,211.765 234.5,200.5 Z"/></g>
<g><path style="opacity:1" fill="#6a79c0" d="M 219.5,234.5 C 219.567,236.401 219.233,238.234 218.5,240C 218.836,241.03 219.503,241.53 220.5,241.5C 217.848,245.19 214.848,247.856 211.5,249.5C 213.956,244.248 216.622,239.248 219.5,234.5 Z"/></g>
<g><path style="opacity:1" fill="#6874c5" d="M 244.5,235.5 C 244.5,237.167 244.5,238.833 244.5,240.5C 236.195,245.306 229.695,251.972 225,260.5C 224.667,260.167 224.333,259.833 224,259.5C 221.589,262.417 218.756,264.75 215.5,266.5C 224.944,255.934 234.611,245.601 244.5,235.5 Z"/></g>
<g><path style="opacity:1" fill="#5378d8" d="M 147.5,228.5 C 148.236,230.229 149.57,231.229 151.5,231.5C 160.805,241.808 170.138,252.141 179.5,262.5C 173.758,262.927 170.592,260.26 170,254.5C 169.283,255.044 168.783,255.711 168.5,256.5C 167.293,255.811 165.959,255.645 164.5,256C 164.833,255.667 165.167,255.333 165.5,255C 163.679,252.863 161.346,252.03 158.5,252.5C 158.5,251.5 158.5,250.5 158.5,249.5C 156.076,249.808 153.743,249.474 151.5,248.5C 152.098,247.205 152.598,245.872 153,244.5C 153.483,245.448 153.649,246.448 153.5,247.5C 159.208,247.508 159.541,247.008 154.5,246C 155.167,245.667 155.833,245.333 156.5,245C 154.779,244.261 153.113,243.427 151.5,242.5C 151.709,241.914 152.043,241.414 152.5,241C 151.167,239 149.5,237.333 147.5,236C 146.258,235.689 145.258,236.189 144.5,237.5C 143.28,237.113 142.613,236.28 142.5,235C 144.057,232.706 145.723,230.539 147.5,228.5 Z"/></g>
<g><path style="opacity:1" fill="#7669e1" d="M 399.5,259.5 C 399.5,275.5 399.5,291.5 399.5,307.5C 398.022,307.238 396.689,307.571 395.5,308.5C 391.833,312.167 388.167,315.833 384.5,319.5C 383.571,320.689 383.238,322.022 383.5,323.5C 382.022,323.238 380.689,323.571 379.5,324.5C 375.833,328.167 372.167,331.833 368.5,335.5C 367.571,336.689 367.238,338.022 367.5,339.5C 366.022,339.238 364.689,339.571 363.5,340.5C 359.833,344.167 356.167,347.833 352.5,351.5C 351.571,352.689 351.238,354.022 351.5,355.5C 350.022,355.238 348.689,355.571 347.5,356.5C 344.167,359.833 340.833,363.167 337.5,366.5C 335.604,367.466 333.604,367.799 331.5,367.5C 331.799,369.604 331.466,371.604 330.5,373.5C 327.167,376.833 323.833,380.167 320.5,383.5C 319.571,384.689 319.238,386.022 319.5,387.5C 318.022,387.238 316.689,387.571 315.5,388.5C 311.753,391.908 308.42,395.574 305.5,399.5C 289.5,399.5 273.5,399.5 257.5,399.5C 260.42,395.574 263.753,391.908 267.5,388.5C 268.689,387.571 270.022,387.238 271.5,387.5C 271.238,386.022 271.571,384.689 272.5,383.5C 276.167,379.833 279.833,376.167 283.5,372.5C 284.689,371.571 286.022,371.238 287.5,371.5C 287.238,370.022 287.571,368.689 288.5,367.5C 292.167,363.833 295.833,360.167 299.5,356.5C 300.689,355.571 302.022,355.238 303.5,355.5C 303.5,354.167 303.5,352.833 303.5,351.5C 306.167,351.5 308.833,351.5 311.5,351.5C 311.5,346.167 311.5,340.833 311.5,335.5C 312.833,335.5 314.167,335.5 315.5,335.5C 315.5,334.167 315.5,332.833 315.5,331.5C 316.833,331.5 318.167,331.5 319.5,331.5C 319.5,332.833 319.5,334.167 319.5,335.5C 322.167,335.5 324.833,335.5 327.5,335.5C 327.5,330.167 327.5,324.833 327.5,319.5C 328.833,319.5 330.167,319.5 331.5,319.5C 331.5,318.167 331.5,316.833 331.5,315.5C 332.833,315.5 334.167,315.5 335.5,315.5C 335.5,318.833 335.5,322.167 335.5,325.5C 339.322,325.351 341.655,323.351 342.5,319.5C 343.495,314.208 343.828,308.875 343.5,303.5C 344.833,303.5 346.167,303.5 347.5,303.5C 347.5,302.167 347.5,300.833 347.5,299.5C 348.833,299.5 350.167,299.5 351.5,299.5C 351.5,300.833 351.5,302.167 351.5,303.5C 354.167,303.5 356.833,303.5 359.5,303.5C 359.5,298.167 359.5,292.833 359.5,287.5C 360.833,287.5 362.167,287.5 363.5,287.5C 363.5,286.167 363.5,284.833 363.5,283.5C 364.833,283.5 366.167,283.5 367.5,283.5C 367.238,284.978 367.571,286.311 368.5,287.5C 372.167,283.833 375.833,280.167 379.5,276.5C 380.689,275.571 382.022,275.238 383.5,275.5C 383.238,274.022 383.571,272.689 384.5,271.5C 388.167,267.833 391.833,264.167 395.5,260.5C 396.689,259.571 398.022,259.238 399.5,259.5 Z"/></g>
<g><path style="opacity:1" fill="#5775e6" d="M 169.5,261.5 C 170.473,261.987 171.473,262.487 172.5,263C 171.124,265.54 171.79,267.54 174.5,269C 172.939,269.318 171.772,270.151 171,271.5C 170,270.167 169,268.833 168,267.5C 167.51,268.793 167.343,270.127 167.5,271.5C 164.873,272.092 162.206,272.425 159.5,272.5C 159.5,282.833 159.5,293.167 159.5,303.5C 154.167,303.5 148.833,303.5 143.5,303.5C 143.5,308.833 143.5,314.167 143.5,319.5C 138.167,319.5 132.833,319.5 127.5,319.5C 127.5,324.833 127.5,330.167 127.5,335.5C 116.833,335.5 106.167,335.5 95.5,335.5C 95.238,334.022 95.5713,332.689 96.5,331.5C 100.41,329.593 103.744,326.927 106.5,323.5C 107.429,322.311 107.762,320.978 107.5,319.5C 108.833,319.5 110.167,319.5 111.5,319.5C 111.238,318.022 111.571,316.689 112.5,315.5C 116.41,313.593 119.744,310.927 122.5,307.5C 123.429,306.311 123.762,304.978 123.5,303.5C 124.833,303.5 126.167,303.5 127.5,303.5C 127.238,302.022 127.571,300.689 128.5,299.5C 132.41,297.593 135.744,294.927 138.5,291.5C 139.429,290.311 139.762,288.978 139.5,287.5C 140.833,287.5 142.167,287.5 143.5,287.5C 143.238,286.022 143.571,284.689 144.5,283.5C 148.41,281.593 151.744,278.927 154.5,275.5C 155.429,274.311 155.762,272.978 155.5,271.5C 156.5,271.5 157.5,271.5 158.5,271.5C 158.215,269.712 158.548,268.045 159.5,266.5C 160.086,266.709 160.586,267.043 161,267.5C 161.645,266.354 162.478,265.354 163.5,264.5C 165.884,263.989 167.884,262.989 169.5,261.5 Z"/></g>
<g><path style="opacity:1" fill="#6071c9" d="M 179.5,262.5 C 185.876,268.878 192.542,274.878 199.5,280.5C 205.122,276.214 210.456,271.548 215.5,266.5C 214.108,271.758 211.108,275.758 206.5,278.5C 208.836,279.594 208.836,280.927 206.5,282.5C 205.468,280.96 204.135,280.46 202.5,281C 202.833,282 203.167,283 203.5,284C 202.149,285.814 201.149,285.481 200.5,283C 196.859,280.706 193.193,278.373 189.5,276C 188.204,271.514 185.204,269.181 180.5,269C 181.634,267.984 181.301,267.317 179.5,267C 179.966,265.701 179.966,264.201 179.5,262.5 Z"/></g>
<g><path style="opacity:1" fill="#f7f8f9" d="M 215.5,310.5 C 222.309,318.948 223.142,327.948 218,337.5C 215.002,340.738 211.502,343.071 207.5,344.5C 202.195,345.442 196.861,345.609 191.5,345C 180.918,340.67 176.418,332.837 178,321.5C 182.467,311.742 188.967,303.575 197.5,297C 199.635,296.365 201.635,296.699 203.5,298C 207.731,302.062 211.731,306.229 215.5,310.5 Z"/></g>
<g><path style="opacity:1" fill="#7e64e0" d="M 399.5,307.5 C 399.5,338.167 399.5,368.833 399.5,399.5C 368.167,399.5 336.833,399.5 305.5,399.5C 308.42,395.574 311.753,391.908 315.5,388.5C 316.689,387.571 318.022,387.238 319.5,387.5C 319.238,386.022 319.571,384.689 320.5,383.5C 323.833,380.167 327.167,376.833 330.5,373.5C 331.466,371.604 331.799,369.604 331.5,367.5C 333.604,367.799 335.604,367.466 337.5,366.5C 340.833,363.167 344.167,359.833 347.5,356.5C 348.689,355.571 350.022,355.238 351.5,355.5C 351.238,354.022 351.571,352.689 352.5,351.5C 356.167,347.833 359.833,344.167 363.5,340.5C 364.689,339.571 366.022,339.238 367.5,339.5C 367.238,338.022 367.571,336.689 368.5,335.5C 372.167,331.833 375.833,328.167 379.5,324.5C 380.689,323.571 382.022,323.238 383.5,323.5C 383.238,322.022 383.571,320.689 384.5,319.5C 388.167,315.833 391.833,312.167 395.5,308.5C 396.689,307.571 398.022,307.238 399.5,307.5 Z"/></g>
<g><path style="opacity:1" fill="#5776e7" d="M 95.5,335.5 C 95.5,346.167 95.5,356.833 95.5,367.5C 84.8333,367.5 74.1667,367.5 63.5,367.5C 63.238,366.022 63.5713,364.689 64.5,363.5C 68.4103,361.593 71.7436,358.927 74.5,355.5C 75.4287,354.311 75.762,352.978 75.5,351.5C 76.8333,351.5 78.1667,351.5 79.5,351.5C 79.238,350.022 79.5713,348.689 80.5,347.5C 84.4103,345.593 87.7436,342.927 90.5,339.5C 91.4287,338.311 91.762,336.978 91.5,335.5C 92.8333,335.5 94.1667,335.5 95.5,335.5 Z"/></g>
<g><path style="opacity:1" fill="#7075c6" d="M 215.5,310.5 C 216.167,310.5 216.833,310.5 217.5,310.5C 219.541,314.047 221.374,317.714 223,321.5C 223.567,326.63 223.067,331.63 221.5,336.5C 219.734,338.771 217.734,340.937 215.5,343C 212.883,343.822 210.216,344.322 207.5,344.5C 211.502,343.071 215.002,340.738 218,337.5C 223.142,327.948 222.309,318.948 215.5,310.5 Z"/></g>
<g><path style="opacity:1" fill="#636fe1" d="M 218.5,345.5 C 217.909,346.151 217.243,346.818 216.5,347.5C 217.167,347.833 217.833,348.167 218.5,348.5C 222.27,345.757 224.103,346.757 224,351.5C 222.215,352.24 220.382,352.907 218.5,353.5C 215.797,356.538 212.797,359.205 209.5,361.5C 208.167,360.833 206.833,360.167 205.5,359.5C 201.924,361.065 199.924,363.732 199.5,367.5C 200.978,367.238 202.311,367.571 203.5,368.5C 200.833,371.167 198.167,373.833 195.5,376.5C 192.833,376.5 190.167,376.5 187.5,376.5C 184.854,378.132 183.521,380.465 183.5,383.5C 184.978,383.238 186.311,383.571 187.5,384.5C 184.833,387.167 182.167,389.833 179.5,392.5C 176.833,392.5 174.167,392.5 171.5,392.5C 168.854,394.132 167.521,396.465 167.5,399.5C 154.167,399.5 140.833,399.5 127.5,399.5C 129.08,396.912 131.08,394.578 133.5,392.5C 137.41,390.593 140.744,387.927 143.5,384.5C 141.5,383.833 139.5,383.167 137.5,382.5C 139.167,380.833 140.833,379.167 142.5,377.5C 143.167,378.833 143.833,380.167 144.5,381.5C 149.167,377.5 153.833,373.5 158.5,369.5C 160.069,365.928 162.402,362.928 165.5,360.5C 169.072,358.931 172.072,356.598 174.5,353.5C 176.773,352.349 179.106,351.349 181.5,350.5C 180.126,349.289 178.626,348.289 177,347.5C 175.742,349.358 174.075,350.692 172,351.5C 171.167,351.167 170.333,350.833 169.5,350.5C 172.451,348.566 174.118,345.899 174.5,342.5C 175.873,342.343 177.207,342.51 178.5,343C 181.792,347.112 185.792,350.279 190.5,352.5C 191.5,352.167 192.167,351.5 192.5,350.5C 197.456,349.506 202.456,349.173 207.5,349.5C 207.5,348.5 207.5,347.5 207.5,346.5C 209.981,346.323 211.814,347.323 213,349.5C 214.257,347.254 216.09,345.921 218.5,345.5 Z"/></g>
<g><path style="opacity:1" fill="#5776e7" d="M 63.5,367.5 C 63.5,378.167 63.5,388.833 63.5,399.5C 50.1667,399.5 36.8333,399.5 23.5,399.5C 25.4155,396.577 27.7488,393.91 30.5,391.5C 31.1667,392.833 31.8333,394.167 32.5,395.5C 34.0009,394.248 35.6675,393.248 37.5,392.5C 40.7823,390.242 42.7823,387.242 43.5,383.5C 44.8333,383.5 46.1667,383.5 47.5,383.5C 47.238,382.022 47.5713,380.689 48.5,379.5C 52.4103,377.593 55.7436,374.927 58.5,371.5C 59.4287,370.311 59.762,368.978 59.5,367.5C 60.8333,367.5 62.1667,367.5 63.5,367.5 Z"/></g>
</svg>
