<?xml version="1.0" encoding="UTF-8"?>
<!DOCTYPE svg PUBLIC "-//W3C//DTD SVG 1.1//EN" "http://www.w3.org/Graphics/SVG/1.1/DTD/svg11.dtd">
<svg xmlns="http://www.w3.org/2000/svg" version="1.1" width="512px" height="512px" style="shape-rendering:geometricPrecision; text-rendering:geometricPrecision; image-rendering:optimizeQuality; fill-rule:evenodd; clip-rule:evenodd" xmlns:xlink="http://www.w3.org/1999/xlink">
<g><path style="opacity:1" fill="#f5c89e" d="M 245.5,38.5 C 304.5,37.1667 363.5,37.1667 422.5,38.5C 363.512,39.8296 304.512,39.8296 245.5,38.5 Z"/></g>
<g><path style="opacity:1" fill="#f9f3ed" d="M 425.5,38.5 C 427.099,38.2322 428.432,38.5655 429.5,39.5C 429.565,39.9382 429.399,40.2716 429,40.5C 427.698,39.9152 426.531,39.2485 425.5,38.5 Z"/></g>
<g><path style="opacity:1" fill="#f9ede0" d="M 431.5,39.5 C 432.492,39.3284 433.158,39.6618 433.5,40.5C 432.673,41.4387 432.006,41.1054 431.5,39.5 Z"/></g>
<g><path style="opacity:1" fill="#e17002" d="M 245.5,38.5 C 304.512,39.8296 363.512,39.8296 422.5,38.5C 423.5,38.5 424.5,38.5 425.5,38.5C 426.531,39.2485 427.698,39.9152 429,40.5C 429.399,40.2716 429.565,39.9382 429.5,39.5C 430.167,39.5 430.833,39.5 431.5,39.5C 432.006,41.1054 432.673,41.4387 433.5,40.5C 433.833,40.5 434.167,40.5 434.5,40.5C 435.006,42.1054 435.673,42.4387 436.5,41.5C 452.007,47.5044 463.174,58.1711 470,73.5C 470.977,75.74 471.477,78.0733 471.5,80.5C 471.062,80.4346 470.728,80.6012 470.5,81C 471.066,81.9947 471.733,82.828 472.5,83.5C 473.823,148.153 473.823,212.82 472.5,277.5C 471.766,278.878 471.099,280.378 470.5,282C 470.728,282.399 471.062,282.565 471.5,282.5C 471.5,283.5 471.5,284.5 471.5,285.5C 470.072,287.074 469.739,288.741 470.5,290.5C 470.425,293.206 470.092,295.873 469.5,298.5C 467.204,298.804 466.871,299.804 468.5,301.5C 468.5,301.833 468.5,302.167 468.5,302.5C 467.733,303.172 467.066,304.005 466.5,305C 466.728,305.399 467.062,305.565 467.5,305.5C 467.5,306.167 467.5,306.833 467.5,307.5C 465.895,308.006 465.561,308.673 466.5,309.5C 466.5,310.167 466.5,310.833 466.5,311.5C 464.895,312.006 464.561,312.673 465.5,313.5C 465.371,315.216 465.038,316.883 464.5,318.5C 462.895,319.006 462.561,319.673 463.5,320.5C 463.5,320.833 463.5,321.167 463.5,321.5C 461.895,322.006 461.561,322.673 462.5,323.5C 462.5,323.833 462.5,324.167 462.5,324.5C 460.895,325.006 460.561,325.673 461.5,326.5C 461.5,326.833 461.5,327.167 461.5,327.5C 459.895,328.006 459.561,328.673 460.5,329.5C 460.5,329.833 460.5,330.167 460.5,330.5C 458.895,331.006 458.561,331.673 459.5,332.5C 459.443,333.609 459.11,334.609 458.5,335.5C 456.895,336.006 456.561,336.673 457.5,337.5C 453.299,348.235 448.299,358.569 442.5,368.5C 440.302,368.409 439.969,369.075 441.5,370.5C 440.833,370.5 440.5,370.833 440.5,371.5C 437.79,370.593 435.623,371.593 434,374.5C 430.17,380.157 426.337,385.824 422.5,391.5C 414.65,399.516 406.983,407.682 399.5,416C 398.5,416.333 397.5,416.667 396.5,417C 386.1,426.705 374.766,435.205 362.5,442.5C 363.127,443.417 363.461,444.417 363.5,445.5C 352.242,452.461 340.242,457.795 327.5,461.5C 326.673,460.561 326.006,460.895 325.5,462.5C 321.009,464.41 316.343,465.743 311.5,466.5C 310.105,465.185 309.105,465.519 308.5,467.5C 307.833,467.5 307.167,467.5 306.5,467.5C 305.673,466.561 305.006,466.895 304.5,468.5C 303.833,468.5 303.167,468.5 302.5,468.5C 302.565,468.062 302.399,467.728 302,467.5C 301.005,468.066 300.172,468.733 299.5,469.5C 298.833,469.5 298.167,469.5 297.5,469.5C 297.565,469.062 297.399,468.728 297,468.5C 296.005,469.066 295.172,469.733 294.5,470.5C 293.5,470.5 292.5,470.5 291.5,470.5C 291.565,470.062 291.399,469.728 291,469.5C 290.005,470.066 289.172,470.733 288.5,471.5C 227.553,479.848 172.553,465.848 123.5,429.5C 124.412,428.262 124.579,426.928 124,425.5C 98.6216,405.636 78.2883,381.303 63,352.5C 62.7216,353.416 62.2216,354.082 61.5,354.5C 56.3689,346.147 52.3689,337.147 49.5,327.5C 51.0311,326.075 50.6977,325.409 48.5,325.5C 48.5,324.833 48.5,324.167 48.5,323.5C 49.4387,322.673 49.1054,322.006 47.5,321.5C 47.5,321.167 47.5,320.833 47.5,320.5C 48.4387,319.673 48.1054,319.006 46.5,318.5C 45.6993,316.958 45.366,315.292 45.5,313.5C 46.4387,312.673 46.1054,312.006 44.5,311.5C 44.5,310.833 44.5,310.167 44.5,309.5C 45.4387,308.673 45.1054,308.006 43.5,307.5C 43.5,307.167 43.5,306.833 43.5,306.5C 44.8146,305.105 44.4812,304.105 42.5,303.5C 41.7347,300.904 41.4013,298.237 41.5,295.5C 41.9382,295.565 42.2716,295.399 42.5,295C 41.9341,294.005 41.2674,293.172 40.5,292.5C 39.7929,289.214 39.4595,285.881 39.5,282.5C 39.9382,282.565 40.2716,282.399 40.5,282C 39.9011,280.378 39.2344,278.878 38.5,277.5C 36.6015,256.346 37.6015,235.346 41.5,214.5C 43.7957,214.196 44.129,213.196 42.5,211.5C 42.5172,209.435 42.8505,207.435 43.5,205.5C 45.4241,205.289 45.7574,204.623 44.5,203.5C 44.5,202.833 44.5,202.167 44.5,201.5C 46.1054,200.994 46.4387,200.327 45.5,199.5C 45.6287,197.784 45.962,196.117 46.5,194.5C 48.1054,193.994 48.4387,193.327 47.5,192.5C 54.4394,169.624 64.7728,148.624 78.5,129.5C 79.8333,129.5 80.5,128.833 80.5,127.5C 80.8333,126.833 81.1667,126.167 81.5,125.5C 82.4916,125.672 83.1583,125.338 83.5,124.5C 85.6135,125.34 87.4469,124.673 89,122.5C 92.3036,118.525 95.637,114.525 99,110.5C 99.2503,106.49 101.417,103.323 105.5,101C 104.402,100.23 104.402,99.397 105.5,98.5C 128.253,76.7756 154.586,60.7756 184.5,50.5C 185.327,51.4387 185.994,51.1054 186.5,49.5C 186.833,49.5 187.167,49.5 187.5,49.5C 188.327,50.4387 188.994,50.1054 189.5,48.5C 192.112,47.6295 194.779,46.9628 197.5,46.5C 198.327,47.4387 198.994,47.1054 199.5,45.5C 202.763,44.5178 206.097,43.8511 209.5,43.5C 210.779,44.7152 211.779,44.3818 212.5,42.5C 213.167,42.5 213.833,42.5 214.5,42.5C 215.779,43.7152 216.779,43.3818 217.5,41.5C 218.5,41.5 219.5,41.5 220.5,41.5C 221.779,42.7152 222.779,42.3818 223.5,40.5C 230.743,39.0629 238.076,38.3963 245.5,38.5 Z"/></g>
<g><path style="opacity:1" fill="#fae9db" d="M 434.5,40.5 C 435.492,40.3284 436.158,40.6618 436.5,41.5C 435.673,42.4387 435.006,42.1054 434.5,40.5 Z"/></g>
<g><path style="opacity:1" fill="#f3bd8b" d="M 223.5,40.5 C 222.779,42.3818 221.779,42.7152 220.5,41.5C 221.209,40.596 222.209,40.2627 223.5,40.5 Z"/></g>
<g><path style="opacity:1" fill="#f6c598" d="M 217.5,41.5 C 216.779,43.3818 215.779,43.7152 214.5,42.5C 215.209,41.596 216.209,41.2627 217.5,41.5 Z"/></g>
<g><path style="opacity:1" fill="#f6c598" d="M 212.5,42.5 C 211.779,44.3818 210.779,44.7152 209.5,43.5C 210.209,42.596 211.209,42.2627 212.5,42.5 Z"/></g>
<g><path style="opacity:1" fill="#f9ede0" d="M 199.5,45.5 C 198.994,47.1054 198.327,47.4387 197.5,46.5C 197.842,45.6618 198.508,45.3284 199.5,45.5 Z"/></g>
<g><path style="opacity:1" fill="#f9f0e6" d="M 189.5,48.5 C 188.994,50.1054 188.327,50.4387 187.5,49.5C 187.842,48.6618 188.508,48.3284 189.5,48.5 Z"/></g>
<g><path style="opacity:1" fill="#f9f0e6" d="M 186.5,49.5 C 185.994,51.1054 185.327,51.4387 184.5,50.5C 184.842,49.6618 185.508,49.3284 186.5,49.5 Z"/></g>
<g><path style="opacity:1" fill="#f8efe6" d="M 471.5,80.5 C 472.404,81.209 472.737,82.209 472.5,83.5C 471.733,82.828 471.066,81.9947 470.5,81C 470.728,80.6012 471.062,80.4346 471.5,80.5 Z"/></g>
<g><path style="opacity:1" fill="#e77b29" d="M 105.5,98.5 C 104.402,99.397 104.402,100.23 105.5,101C 101.417,103.323 99.2503,106.49 99,110.5C 95.637,114.525 92.3036,118.525 89,122.5C 87.4469,124.673 85.6135,125.34 83.5,124.5C 83.5,124.167 83.5,123.833 83.5,123.5C 85.1126,120.714 86.946,118.047 89,115.5C 94.5313,109.683 100.031,104.017 105.5,98.5 Z"/></g>
<g><path style="opacity:1" fill="#f5e0ca" d="M 83.5,123.5 C 83.5,123.833 83.5,124.167 83.5,124.5C 83.1583,125.338 82.4916,125.672 81.5,125.5C 81.8333,124.5 82.5,123.833 83.5,123.5 Z"/></g>
<g><path style="opacity:1" fill="#f5e0ca" d="M 80.5,127.5 C 80.5,128.833 79.8333,129.5 78.5,129.5C 78.8333,128.5 79.5,127.833 80.5,127.5 Z"/></g>
<g><path style="opacity:1" fill="#faf9f9" d="M 256.5,133.5 C 283.703,132.882 301.203,145.549 309,171.5C 311.933,193.123 304.433,209.956 286.5,222C 260.84,234.002 239.34,228.836 222,206.5C 208.69,178.903 214.523,156.403 239.5,139C 245.038,136.374 250.705,134.54 256.5,133.5 Z"/></g>
<g><path style="opacity:1" fill="#f9ede0" d="M 47.5,192.5 C 48.4387,193.327 48.1054,193.994 46.5,194.5C 46.3284,193.508 46.6618,192.842 47.5,192.5 Z"/></g>
<g><path style="opacity:1" fill="#f9ede0" d="M 45.5,199.5 C 46.4387,200.327 46.1054,200.994 44.5,201.5C 44.3284,200.508 44.6618,199.842 45.5,199.5 Z"/></g>
<g><path style="opacity:1" fill="#f1bb87" d="M 44.5,203.5 C 45.7574,204.623 45.4241,205.289 43.5,205.5C 43.3284,204.508 43.6618,203.842 44.5,203.5 Z"/></g>
<g><path style="opacity:1" fill="#f2bb87" d="M 42.5,211.5 C 44.129,213.196 43.7957,214.196 41.5,214.5C 41.2627,213.209 41.596,212.209 42.5,211.5 Z"/></g>
<g><path style="opacity:1" fill="#edb57d" d="M 362.5,243.5 C 295.669,242.501 228.669,242.168 161.5,242.5C 194.263,241.83 227.763,241.497 262,241.5C 295.833,241.833 329.667,242.167 363.5,242.5C 363.376,243.107 363.043,243.44 362.5,243.5 Z"/></g>
<g><path style="opacity:1" fill="#faf9f8" d="M 161.5,242.5 C 228.669,242.168 295.669,242.501 362.5,243.5C 335.807,269.194 309.14,294.861 282.5,320.5C 282.5,335.167 282.5,349.833 282.5,364.5C 269.167,364.5 255.833,364.5 242.5,364.5C 242.833,349.485 242.499,334.485 241.5,319.5C 214.786,293.784 188.12,268.118 161.5,242.5 Z"/></g>
<g><path style="opacity:1" fill="#f9f4ef" d="M 38.5,277.5 C 39.2344,278.878 39.9011,280.378 40.5,282C 40.2716,282.399 39.9382,282.565 39.5,282.5C 38.5489,281.081 38.2155,279.415 38.5,277.5 Z"/></g>
<g><path style="opacity:1" fill="#f9f4ef" d="M 472.5,277.5 C 472.784,279.415 472.451,281.081 471.5,282.5C 471.062,282.565 470.728,282.399 470.5,282C 471.099,280.378 471.766,278.878 472.5,277.5 Z"/></g>
<g><path style="opacity:1" fill="#f9f2eb" d="M 471.5,285.5 C 471.784,287.415 471.451,289.081 470.5,290.5C 469.739,288.741 470.072,287.074 471.5,285.5 Z"/></g>
<g><path style="opacity:1" fill="#faede1" d="M 40.5,292.5 C 41.2674,293.172 41.9341,294.005 42.5,295C 42.2716,295.399 41.9382,295.565 41.5,295.5C 40.596,294.791 40.2627,293.791 40.5,292.5 Z"/></g>
<g><path style="opacity:1" fill="#f3bb89" d="M 469.5,298.5 C 469.737,299.791 469.404,300.791 468.5,301.5C 466.871,299.804 467.204,298.804 469.5,298.5 Z"/></g>
<g><path style="opacity:1" fill="#f8efe6" d="M 468.5,302.5 C 468.737,303.791 468.404,304.791 467.5,305.5C 467.062,305.565 466.728,305.399 466.5,305C 467.066,304.005 467.733,303.172 468.5,302.5 Z"/></g>
<g><path style="opacity:1" fill="#f9ede1" d="M 42.5,303.5 C 44.4812,304.105 44.8146,305.105 43.5,306.5C 42.596,305.791 42.2627,304.791 42.5,303.5 Z"/></g>
<g><path style="opacity:1" fill="#f9e9db" d="M 43.5,307.5 C 45.1054,308.006 45.4387,308.673 44.5,309.5C 43.6618,309.158 43.3284,308.492 43.5,307.5 Z"/></g>
<g><path style="opacity:1" fill="#fae9db" d="M 467.5,307.5 C 467.672,308.492 467.338,309.158 466.5,309.5C 465.561,308.673 465.895,308.006 467.5,307.5 Z"/></g>
<g><path style="opacity:1" fill="#f8ede2" d="M 44.5,311.5 C 46.1054,312.006 46.4387,312.673 45.5,313.5C 44.6618,313.158 44.3284,312.492 44.5,311.5 Z"/></g>
<g><path style="opacity:1" fill="#fae9db" d="M 466.5,311.5 C 466.672,312.492 466.338,313.158 465.5,313.5C 464.561,312.673 464.895,312.006 466.5,311.5 Z"/></g>
<g><path style="opacity:1" fill="#f8ede2" d="M 46.5,318.5 C 48.1054,319.006 48.4387,319.673 47.5,320.5C 46.6618,320.158 46.3284,319.492 46.5,318.5 Z"/></g>
<g><path style="opacity:1" fill="#fae9db" d="M 464.5,318.5 C 464.672,319.492 464.338,320.158 463.5,320.5C 462.561,319.673 462.895,319.006 464.5,318.5 Z"/></g>
<g><path style="opacity:1" fill="#f9e9da" d="M 47.5,321.5 C 49.1054,322.006 49.4387,322.673 48.5,323.5C 47.6618,323.158 47.3284,322.492 47.5,321.5 Z"/></g>
<g><path style="opacity:1" fill="#fae9db" d="M 463.5,321.5 C 463.672,322.492 463.338,323.158 462.5,323.5C 461.561,322.673 461.895,322.006 463.5,321.5 Z"/></g>
<g><path style="opacity:1" fill="#fae9db" d="M 462.5,324.5 C 462.672,325.492 462.338,326.158 461.5,326.5C 460.561,325.673 460.895,325.006 462.5,324.5 Z"/></g>
<g><path style="opacity:1" fill="#fae9dd" d="M 48.5,325.5 C 50.6977,325.409 51.0311,326.075 49.5,327.5C 48.6618,327.158 48.3284,326.492 48.5,325.5 Z"/></g>
<g><path style="opacity:1" fill="#fae9db" d="M 461.5,327.5 C 461.672,328.492 461.338,329.158 460.5,329.5C 459.561,328.673 459.895,328.006 461.5,327.5 Z"/></g>
<g><path style="opacity:1" fill="#f9ede0" d="M 460.5,330.5 C 460.672,331.492 460.338,332.158 459.5,332.5C 458.561,331.673 458.895,331.006 460.5,330.5 Z"/></g>
<g><path style="opacity:1" fill="#f9e9db" d="M 458.5,335.5 C 458.672,336.492 458.338,337.158 457.5,337.5C 456.561,336.673 456.895,336.006 458.5,335.5 Z"/></g>
<g><path style="opacity:1" fill="#de5300" d="M 282.5,320.5 C 283.496,335.324 283.829,350.324 283.5,365.5C 269.656,365.829 255.99,365.496 242.5,364.5C 255.833,364.5 269.167,364.5 282.5,364.5C 282.5,349.833 282.5,335.167 282.5,320.5 Z"/></g>
<g><path style="opacity:1" fill="#fae9dd" d="M 442.5,368.5 C 442.672,369.492 442.338,370.158 441.5,370.5C 439.969,369.075 440.302,368.409 442.5,368.5 Z"/></g>
<g><path style="opacity:1" fill="#e57925" d="M 123.5,429.5 C 115.886,424.219 108.886,418.219 102.5,411.5C 102.167,410.5 101.5,409.833 100.5,409.5C 97.8621,406.526 95.1954,403.526 92.5,400.5C 92.9382,400.565 93.2716,400.399 93.5,400C 92.7562,398.961 91.7562,398.461 90.5,398.5C 78.4836,385.464 68.8169,370.798 61.5,354.5C 62.2216,354.082 62.7216,353.416 63,352.5C 78.2883,381.303 98.6216,405.636 124,425.5C 124.579,426.928 124.412,428.262 123.5,429.5 Z"/></g>
<g><path style="opacity:1" fill="#e67926" d="M 440.5,371.5 C 436.224,379.066 431.224,386.066 425.5,392.5C 424.167,392.5 423.5,393.167 423.5,394.5C 418.71,400.461 413.71,406.294 408.5,412C 402.833,417 397.167,422 391.5,427C 388.28,429.437 384.947,431.603 381.5,433.5C 380.167,433.5 379.5,434.167 379.5,435.5C 374.433,439.229 369.099,442.562 363.5,445.5C 363.461,444.417 363.127,443.417 362.5,442.5C 374.766,435.205 386.1,426.705 396.5,417C 397.5,416.667 398.5,416.333 399.5,416C 406.983,407.682 414.65,399.516 422.5,391.5C 426.337,385.824 430.17,380.157 434,374.5C 435.623,371.593 437.79,370.593 440.5,371.5 Z"/></g>
<g><path style="opacity:1" fill="#f8ede0" d="M 425.5,392.5 C 425.167,393.5 424.5,394.167 423.5,394.5C 423.5,393.167 424.167,392.5 425.5,392.5 Z"/></g>
<g><path style="opacity:1" fill="#f5d2b0" d="M 90.5,398.5 C 91.7562,398.461 92.7562,398.961 93.5,400C 93.2716,400.399 92.9382,400.565 92.5,400.5C 91.5,400.167 90.8333,399.5 90.5,398.5 Z"/></g>
<g><path style="opacity:1" fill="#f9faf9" d="M 100.5,409.5 C 101.5,409.833 102.167,410.5 102.5,411.5C 101.167,411.5 100.5,410.833 100.5,409.5 Z"/></g>
<g><path style="opacity:1" fill="#f8ede2" d="M 381.5,433.5 C 381.167,434.5 380.5,435.167 379.5,435.5C 379.5,434.167 380.167,433.5 381.5,433.5 Z"/></g>
<g><path style="opacity:1" fill="#f9ede0" d="M 327.5,461.5 C 327.158,462.338 326.492,462.672 325.5,462.5C 326.006,460.895 326.673,460.561 327.5,461.5 Z"/></g>
<g><path style="opacity:1" fill="#f9ede1" d="M 311.5,466.5 C 310.791,467.404 309.791,467.737 308.5,467.5C 309.105,465.519 310.105,465.185 311.5,466.5 Z"/></g>
<g><path style="opacity:1" fill="#f9e9da" d="M 306.5,467.5 C 306.158,468.338 305.492,468.672 304.5,468.5C 305.006,466.895 305.673,466.561 306.5,467.5 Z"/></g>
<g><path style="opacity:1" fill="#faefe5" d="M 302.5,468.5 C 301.791,469.404 300.791,469.737 299.5,469.5C 300.172,468.733 301.005,468.066 302,467.5C 302.399,467.728 302.565,468.062 302.5,468.5 Z"/></g>
<g><path style="opacity:1" fill="#faefe5" d="M 297.5,469.5 C 296.791,470.404 295.791,470.737 294.5,470.5C 295.172,469.733 296.005,469.066 297,468.5C 297.399,468.728 297.565,469.062 297.5,469.5 Z"/></g>
<g><path style="opacity:1" fill="#f9ede0" d="M 291.5,470.5 C 290.791,471.404 289.791,471.737 288.5,471.5C 289.172,470.733 290.005,470.066 291,469.5C 291.399,469.728 291.565,470.062 291.5,470.5 Z"/></g>
</svg>
