<?xml version="1.0" encoding="UTF-8"?>
<!DOCTYPE svg PUBLIC "-//W3C//DTD SVG 1.1//EN" "http://www.w3.org/Graphics/SVG/1.1/DTD/svg11.dtd">
<svg xmlns="http://www.w3.org/2000/svg" version="1.1" width="600px" height="600px" style="shape-rendering:geometricPrecision; text-rendering:geometricPrecision; image-rendering:optimizeQuality; fill-rule:evenodd; clip-rule:evenodd" xmlns:xlink="http://www.w3.org/1999/xlink">
<g><path style="opacity:1" fill="#f9f9f9" d="M -0.5,-0.5 C 199.5,-0.5 399.5,-0.5 599.5,-0.5C 599.5,199.5 599.5,399.5 599.5,599.5C 399.5,599.5 199.5,599.5 -0.5,599.5C -0.5,399.5 -0.5,199.5 -0.5,-0.5 Z"/></g>
<g><path style="opacity:1" fill="#132c44" d="M 189.5,30.5 C 288.999,29.5006 388.665,29.1672 488.5,29.5C 488.832,74.3364 488.499,119.003 487.5,163.5C 487.5,119.167 487.5,74.8333 487.5,30.5C 388.167,30.5 288.833,30.5 189.5,30.5 Z"/></g>
<g><path style="opacity:1" fill="#001932" d="M 189.5,30.5 C 288.833,30.5 388.167,30.5 487.5,30.5C 487.5,74.8333 487.5,119.167 487.5,163.5C 484.501,182.973 473.501,195.473 454.5,201C 448.231,202.257 441.898,202.757 435.5,202.5C 431.414,192.108 425.747,182.775 418.5,174.5C 415.564,169.895 411.898,165.895 407.5,162.5C 405.12,159.119 402.12,156.453 398.5,154.5C 395.554,151.687 392.221,149.354 388.5,147.5C 384.361,144.928 380.027,142.595 375.5,140.5C 373.703,139.27 371.703,138.604 369.5,138.5C 367.786,137.262 365.786,136.595 363.5,136.5C 362.07,135.463 360.403,134.796 358.5,134.5C 357.432,133.566 356.099,133.232 354.5,133.5C 350.409,132.105 346.076,131.438 341.5,131.5C 337.366,130.515 333.032,130.182 328.5,130.5C 325.5,130.5 322.5,130.5 319.5,130.5C 315.434,130.307 311.434,130.64 307.5,131.5C 303.593,131.726 299.926,132.726 296.5,134.5C 287.448,136.289 279.115,139.623 271.5,144.5C 251.164,154.836 235.831,170.169 225.5,190.5C 220.214,199.09 216.548,208.424 214.5,218.5C 213.232,220.905 212.565,223.572 212.5,226.5C 211.676,229.764 211.342,233.098 211.5,236.5C 211.5,239.833 211.5,243.167 211.5,246.5C 211.182,251.032 211.515,255.366 212.5,259.5C 212.194,262.385 212.527,265.052 213.5,267.5C 214.342,273.397 215.676,279.064 217.5,284.5C 217.989,285.995 218.655,287.329 219.5,288.5C 219.604,290.703 220.27,292.703 221.5,294.5C 222.74,298.651 224.74,302.317 227.5,305.5C 229.446,309.439 231.779,313.106 234.5,316.5C 236.788,320.456 239.788,323.789 243.5,326.5C 246.895,330.898 250.895,334.564 255.5,337.5C 263.775,344.747 273.108,350.414 283.5,354.5C 283.5,354.833 283.5,355.167 283.5,355.5C 283.667,413.501 283.5,471.501 283,529.5C 279.337,551.662 266.504,564.662 244.5,568.5C 200.167,568.5 155.833,568.5 111.5,568.5C 111.5,414.833 111.5,261.167 111.5,107.5C 119.561,63.7731 145.561,38.1065 189.5,30.5 Z"/></g>
<g><path style="opacity:1" fill="#132b44" d="M 111.5,107.5 C 111.5,261.167 111.5,414.833 111.5,568.5C 155.833,568.5 200.167,568.5 244.5,568.5C 200.003,569.499 155.336,569.832 110.5,569.5C 110.167,415.332 110.5,261.332 111.5,107.5 Z"/></g>
<g><path style="opacity:1" fill="#690c43" d="M 328.5,130.5 C 333.032,130.182 337.366,130.515 341.5,131.5C 339.712,131.215 338.045,131.548 336.5,132.5C 295.207,173.293 254.041,214.293 213,255.5C 212.51,256.793 212.343,258.127 212.5,259.5C 211.515,255.366 211.182,251.032 211.5,246.5C 212.239,246.631 212.906,246.464 213.5,246C 251.361,207.805 289.528,169.972 328,132.5C 328.464,131.906 328.631,131.239 328.5,130.5 Z"/></g>
<g><path style="opacity:1" fill="#560c3d" d="M 319.5,130.5 C 317.631,131.165 315.631,131.831 313.5,132.5C 280.859,166.141 247.525,199.141 213.5,231.5C 212.83,233.291 212.163,234.958 211.5,236.5C 211.342,233.098 211.676,229.764 212.5,226.5C 244.473,195.194 276.14,163.527 307.5,131.5C 311.434,130.64 315.434,130.307 319.5,130.5 Z"/></g>
<g><path style="opacity:1" fill="#600c3e" d="M 319.5,130.5 C 322.5,130.5 325.5,130.5 328.5,130.5C 328.631,131.239 328.464,131.906 328,132.5C 289.528,169.972 251.361,207.805 213.5,246C 212.906,246.464 212.239,246.631 211.5,246.5C 211.5,243.167 211.5,239.833 211.5,236.5C 212.163,234.958 212.83,233.291 213.5,231.5C 247.525,199.141 280.859,166.141 313.5,132.5C 315.631,131.831 317.631,131.165 319.5,130.5 Z"/></g>
<g><path style="opacity:1" fill="#710c43" d="M 341.5,131.5 C 346.076,131.438 350.409,132.105 354.5,133.5C 352.801,133.34 351.134,133.506 349.5,134C 304.388,178.112 259.555,222.612 215,267.5C 214.31,266.262 213.81,266.262 213.5,267.5C 212.527,265.052 212.194,262.385 212.5,259.5C 212.343,258.127 212.51,256.793 213,255.5C 254.041,214.293 295.207,173.293 336.5,132.5C 338.045,131.548 339.712,131.215 341.5,131.5 Z"/></g>
<g><path style="opacity:1" fill="#50113d" d="M 307.5,131.5 C 276.14,163.527 244.473,195.194 212.5,226.5C 212.565,223.572 213.232,220.905 214.5,218.5C 240.779,191.717 267.779,164.551 295.5,137C 295.167,136.667 294.833,136.333 294.5,136C 295.416,135.722 296.082,135.222 296.5,134.5C 299.926,132.726 303.593,131.726 307.5,131.5 Z"/></g>
<g><path style="opacity:1" fill="#7c0c43" d="M 354.5,133.5 C 356.099,133.232 357.432,133.566 358.5,134.5C 310.359,180.475 263.193,227.808 217,276.5C 216.421,277.928 216.588,279.262 217.5,280.5C 217.5,281.833 217.5,283.167 217.5,284.5C 215.676,279.064 214.342,273.397 213.5,267.5C 213.81,266.262 214.31,266.262 215,267.5C 259.555,222.612 304.388,178.112 349.5,134C 351.134,133.506 352.801,133.34 354.5,133.5 Z"/></g>
<g><path style="opacity:1" fill="#820744" d="M 358.5,134.5 C 360.403,134.796 362.07,135.463 363.5,136.5C 315.139,184.862 266.472,232.862 217.5,280.5C 216.588,279.262 216.421,277.928 217,276.5C 263.193,227.808 310.359,180.475 358.5,134.5 Z"/></g>
<g><path style="opacity:1" fill="#47113d" d="M 296.5,134.5 C 296.082,135.222 295.416,135.722 294.5,136C 294.833,136.333 295.167,136.667 295.5,137C 267.779,164.551 240.779,191.717 214.5,218.5C 216.548,208.424 220.214,199.09 225.5,190.5C 241.167,175.5 256.5,160.167 271.5,144.5C 279.115,139.623 287.448,136.289 296.5,134.5 Z"/></g>
<g><path style="opacity:1" fill="#880744" d="M 363.5,136.5 C 365.786,136.595 367.786,137.262 369.5,138.5C 319.248,188.086 269.248,238.086 219.5,288.5C 218.655,287.329 217.989,285.995 217.5,284.5C 217.5,283.167 217.5,281.833 217.5,280.5C 266.472,232.862 315.139,184.862 363.5,136.5 Z"/></g>
<g><path style="opacity:1" fill="#910644" d="M 369.5,138.5 C 371.703,138.604 373.703,139.27 375.5,140.5C 375.414,141.496 375.748,142.329 376.5,143C 356.528,161.971 336.862,181.305 317.5,201C 318.056,201.383 318.389,201.883 318.5,202.5C 300.339,206.992 288.672,218.326 283.5,236.5C 282.761,236.369 282.094,236.536 281.5,237C 262.446,256.054 243.446,275.054 224.5,294C 223.552,294.483 222.552,294.649 221.5,294.5C 220.27,292.703 219.604,290.703 219.5,288.5C 269.248,238.086 319.248,188.086 369.5,138.5 Z"/></g>
<g><path style="opacity:1" fill="#9a064a" d="M 375.5,140.5 C 380.027,142.595 384.361,144.928 388.5,147.5C 385.732,149.087 383.065,150.92 380.5,153C 364.653,168.681 348.986,184.514 333.5,200.5C 330.023,201.167 326.689,201.834 323.5,202.5C 321.833,202.5 320.167,202.5 318.5,202.5C 318.389,201.883 318.056,201.383 317.5,201C 336.862,181.305 356.528,161.971 376.5,143C 375.748,142.329 375.414,141.496 375.5,140.5 Z"/></g>
<g><path style="opacity:1" fill="#39123c" d="M 271.5,144.5 C 256.5,160.167 241.167,175.5 225.5,190.5C 235.831,170.169 251.164,154.836 271.5,144.5 Z"/></g>
<g><path style="opacity:1" fill="#a5064b" d="M 388.5,147.5 C 392.221,149.354 395.554,151.687 398.5,154.5C 381.605,168.725 365.605,184.058 350.5,200.5C 347.023,201.167 343.689,201.834 340.5,202.5C 337.167,202.5 333.833,202.5 330.5,202.5C 328.167,202.5 325.833,202.5 323.5,202.5C 326.689,201.834 330.023,201.167 333.5,200.5C 348.986,184.514 364.653,168.681 380.5,153C 383.065,150.92 385.732,149.087 388.5,147.5 Z"/></g>
<g><path style="opacity:1" fill="#b0064b" d="M 398.5,154.5 C 402.12,156.453 405.12,159.119 407.5,162.5C 394.868,174.631 382.368,186.965 370,199.5C 369.761,200.788 370.261,201.788 371.5,202.5C 369.167,202.5 366.833,202.5 364.5,202.5C 356.833,202.5 349.167,202.5 341.5,202.5C 341.167,202.5 340.833,202.5 340.5,202.5C 343.689,201.834 347.023,201.167 350.5,200.5C 365.605,184.058 381.605,168.725 398.5,154.5 Z"/></g>
<g><path style="opacity:1" fill="#bc014b" d="M 407.5,162.5 C 411.898,165.895 415.564,169.895 418.5,174.5C 408.167,182.833 398.833,192.167 390.5,202.5C 385.167,202.5 379.833,202.5 374.5,202.5C 373.5,202.5 372.5,202.5 371.5,202.5C 370.261,201.788 369.761,200.788 370,199.5C 382.368,186.965 394.868,174.631 407.5,162.5 Z"/></g>
<g><path style="opacity:1" fill="#cd014e" d="M 418.5,174.5 C 425.747,182.775 431.414,192.108 435.5,202.5C 433.833,202.5 432.167,202.5 430.5,202.5C 422.167,202.5 413.833,202.5 405.5,202.5C 402.167,202.5 398.833,202.5 395.5,202.5C 393.833,202.5 392.167,202.5 390.5,202.5C 398.833,192.167 408.167,182.833 418.5,174.5 Z"/></g>
<g><path style="opacity:1" fill="#fa528a" d="M 330.5,202.5 C 333.833,202.5 337.167,202.5 340.5,202.5C 340.833,202.5 341.167,202.5 341.5,202.5C 342.263,203.268 343.263,203.768 344.5,204C 324.362,223.138 304.528,242.638 285,262.5C 284.722,261.584 284.222,260.918 283.5,260.5C 283.5,256.833 283.5,253.167 283.5,249.5C 284.41,247.981 285.243,246.315 286,244.5C 299.167,231.333 312.333,218.167 325.5,205C 327.491,204.626 329.158,203.793 330.5,202.5 Z"/></g>
<g><path style="opacity:1" fill="#fa4584" d="M 341.5,202.5 C 349.167,202.5 356.833,202.5 364.5,202.5C 365.263,203.268 366.263,203.768 367.5,204C 339.695,230.805 312.195,257.972 285,285.5C 284.768,284.263 284.268,283.263 283.5,282.5C 283.5,275.167 283.5,267.833 283.5,260.5C 284.222,260.918 284.722,261.584 285,262.5C 304.528,242.638 324.362,223.138 344.5,204C 343.263,203.768 342.263,203.268 341.5,202.5 Z"/></g>
<g><path style="opacity:1" fill="#f93275" d="M 374.5,202.5 C 379.833,202.5 385.167,202.5 390.5,202.5C 392.167,202.5 393.833,202.5 395.5,202.5C 395.631,203.239 395.464,203.906 395,204.5C 357.897,241.288 320.73,277.954 283.5,314.5C 283.5,312.167 283.5,309.833 283.5,307.5C 283.5,302.833 283.5,298.167 283.5,293.5C 284.321,296.641 284.821,299.975 285,303.5C 318.113,270.387 351.279,237.221 384.5,204C 380.975,203.821 377.641,203.321 374.5,202.5 Z"/></g>
<g><path style="opacity:1" fill="#fa2970" d="M 395.5,202.5 C 398.833,202.5 402.167,202.5 405.5,202.5C 408.641,203.321 411.975,203.821 415.5,204C 371.694,246.806 328.194,289.972 285,333.5C 284.817,330.635 284.317,327.969 283.5,325.5C 283.5,321.833 283.5,318.167 283.5,314.5C 320.73,277.954 357.897,241.288 395,204.5C 395.464,203.906 395.631,203.239 395.5,202.5 Z"/></g>
<g><path style="opacity:1" fill="#fa1f6a" d="M 405.5,202.5 C 413.833,202.5 422.167,202.5 430.5,202.5C 431.263,203.268 432.263,203.768 433.5,204C 384.306,253.528 334.806,302.694 285,351.5C 284.768,350.263 284.268,349.263 283.5,348.5C 283.5,340.833 283.5,333.167 283.5,325.5C 284.317,327.969 284.817,330.635 285,333.5C 328.194,289.972 371.694,246.806 415.5,204C 411.975,203.821 408.641,203.321 405.5,202.5 Z"/></g>
<g><path style="opacity:1" fill="#fa397d" d="M 364.5,202.5 C 366.833,202.5 369.167,202.5 371.5,202.5C 372.5,202.5 373.5,202.5 374.5,202.5C 377.641,203.321 380.975,203.821 384.5,204C 351.279,237.221 318.113,270.387 285,303.5C 284.821,299.975 284.321,296.641 283.5,293.5C 283.5,291.833 283.5,290.167 283.5,288.5C 283.5,286.5 283.5,284.5 283.5,282.5C 284.268,283.263 284.768,284.263 285,285.5C 312.195,257.972 339.695,230.805 367.5,204C 366.263,203.768 365.263,203.268 364.5,202.5 Z"/></g>
<g><path style="opacity:1" fill="#f75f94" d="M 318.5,202.5 C 320.167,202.5 321.833,202.5 323.5,202.5C 325.833,202.5 328.167,202.5 330.5,202.5C 329.158,203.793 327.491,204.626 325.5,205C 312.333,218.167 299.167,231.333 286,244.5C 285.243,246.315 284.41,247.981 283.5,249.5C 283.5,246.833 283.5,244.167 283.5,241.5C 283.5,239.833 283.5,238.167 283.5,236.5C 288.672,218.326 300.339,206.992 318.5,202.5 Z"/></g>
<g><path style="opacity:1" fill="#fa1564" d="M 430.5,202.5 C 432.167,202.5 433.833,202.5 435.5,202.5C 438.175,207.859 439.842,213.526 440.5,219.5C 393.425,265.908 346.758,312.575 300.5,359.5C 294.741,358.581 289.074,357.247 283.5,355.5C 283.5,355.167 283.5,354.833 283.5,354.5C 283.5,352.5 283.5,350.5 283.5,348.5C 284.268,349.263 284.768,350.263 285,351.5C 334.806,302.694 384.306,253.528 433.5,204C 432.263,203.768 431.263,203.268 430.5,202.5 Z"/></g>
<g><path style="opacity:1" fill="#fa115e" d="M 440.5,219.5 C 444.346,231.286 445.346,243.286 443.5,255.5C 443.829,249.794 443.495,244.128 442.5,238.5C 401.041,279.459 359.707,320.626 318.5,362C 324.825,362.5 331.158,362.666 337.5,362.5C 324.946,364.417 312.613,363.417 300.5,359.5C 346.758,312.575 393.425,265.908 440.5,219.5 Z"/></g>
<g><path style="opacity:1" fill="#fa0257" d="M 443.5,255.5 C 443.844,260.122 443.177,264.455 441.5,268.5C 441.657,267.127 441.49,265.793 441,264.5C 407.254,297.424 374.421,329.758 342.5,361.5C 341.081,362.451 339.415,362.784 337.5,362.5C 331.158,362.666 324.825,362.5 318.5,362C 359.707,320.626 401.041,279.459 442.5,238.5C 443.495,244.128 443.829,249.794 443.5,255.5 Z"/></g>
<g><path style="opacity:1" fill="#9a064a" d="M 283.5,236.5 C 283.5,238.167 283.5,239.833 283.5,241.5C 282.518,244.962 282.185,248.629 282.5,252.5C 281.761,252.369 281.094,252.536 280.5,253C 262.938,270.729 245.272,288.229 227.5,305.5C 224.74,302.317 222.74,298.651 221.5,294.5C 222.552,294.649 223.552,294.483 224.5,294C 243.446,275.054 262.446,256.054 281.5,237C 282.094,236.536 282.761,236.369 283.5,236.5 Z"/></g>
<g><path style="opacity:1" fill="#a5064a" d="M 282.5,252.5 C 282.829,258.206 282.495,263.872 281.5,269.5C 265.431,284.902 249.764,300.569 234.5,316.5C 231.779,313.106 229.446,309.439 227.5,305.5C 245.272,288.229 262.938,270.729 280.5,253C 281.094,252.536 281.761,252.369 282.5,252.5 Z"/></g>
<g><path style="opacity:1" fill="#fa0652" d="M 441.5,268.5 C 433.274,307.465 411.274,335.631 375.5,353C 365.099,358.18 354.099,361.013 342.5,361.5C 374.421,329.758 407.254,297.424 441,264.5C 441.49,265.793 441.657,267.127 441.5,268.5 Z"/></g>
<g><path style="opacity:1" fill="#b0064b" d="M 283.5,241.5 C 283.5,244.167 283.5,246.833 283.5,249.5C 283.5,253.167 283.5,256.833 283.5,260.5C 283.5,267.833 283.5,275.167 283.5,282.5C 283.5,284.5 283.5,286.5 283.5,288.5C 282.883,288.389 282.383,288.056 282,287.5C 269.638,300.196 256.971,312.53 244,324.5C 243.536,325.094 243.369,325.761 243.5,326.5C 239.788,323.789 236.788,320.456 234.5,316.5C 249.764,300.569 265.431,284.902 281.5,269.5C 282.495,263.872 282.829,258.206 282.5,252.5C 282.185,248.629 282.518,244.962 283.5,241.5 Z"/></g>
<g><path style="opacity:1" fill="#bc014b" d="M 283.5,288.5 C 283.5,290.167 283.5,291.833 283.5,293.5C 283.5,298.167 283.5,302.833 283.5,307.5C 274.365,317.467 264.699,326.967 254.5,336C 255.056,336.383 255.389,336.883 255.5,337.5C 250.895,334.564 246.895,330.898 243.5,326.5C 243.369,325.761 243.536,325.094 244,324.5C 256.971,312.53 269.638,300.196 282,287.5C 282.383,288.056 282.883,288.389 283.5,288.5 Z"/></g>
<g><path style="opacity:1" fill="#cc004c" d="M 283.5,307.5 C 283.5,309.833 283.5,312.167 283.5,314.5C 283.5,318.167 283.5,321.833 283.5,325.5C 283.5,333.167 283.5,340.833 283.5,348.5C 283.5,350.5 283.5,352.5 283.5,354.5C 273.108,350.414 263.775,344.747 255.5,337.5C 255.389,336.883 255.056,336.383 254.5,336C 264.699,326.967 274.365,317.467 283.5,307.5 Z"/></g>
</svg>
