<?xml version="1.0" encoding="UTF-8"?>
<svg version="1.1" xmlns="http://www.w3.org/2000/svg" width="400" height="400">
<path d="M0 0 C132 0 264 0 400 0 C400 132 400 264 400 400 C268 400 136 400 0 400 C0 268 0 136 0 0 Z " fill="#080A0B" transform="translate(0,0)"/>
<path d="M0 0 C1.5759365 1.35957912 3.13791861 2.73545735 4.6875 4.125 C6.11449219 5.32189453 6.11449219 5.32189453 7.5703125 6.54296875 C26.8689867 23.03145789 40.60039079 47.91907762 43.44140625 73.25390625 C45.58635038 106.99421781 38.88797078 135.88385776 16.6875 162.125 C16.17445313 162.76050781 15.66140625 163.39601563 15.1328125 164.05078125 C8.77603183 171.79918148 1.0022715 177.61582624 -7.3125 183.125 C-8.44945312 183.8984375 -8.44945312 183.8984375 -9.609375 184.6875 C-17.01473568 189.4587391 -25.00808554 192.36118128 -33.3125 195.125 C-34.01987305 195.3720166 -34.72724609 195.6190332 -35.45605469 195.87353516 C-61.38418008 204.74861649 -91.74821981 201.54020863 -116.296875 189.68359375 C-145.20741129 174.38976032 -165.54317072 150.21749963 -175.3125 118.94921875 C-183.01952952 89.47585196 -178.32774002 58.36272658 -163.3125 32.125 C-147.94382249 6.47053327 -123.73352615 -11.57823244 -94.8359375 -19.0625 C-62.33015837 -26.84701286 -26.66492987 -20.81997724 0 0 Z " fill="#FBFBFB" transform="translate(267.3125,110.875)"/>
<path d="M0 0 C1.5759365 1.35957912 3.13791861 2.73545735 4.6875 4.125 C6.11449219 5.32189453 6.11449219 5.32189453 7.5703125 6.54296875 C26.8689867 23.03145789 40.60039079 47.91907762 43.44140625 73.25390625 C45.58635038 106.99421781 38.88797078 135.88385776 16.6875 162.125 C16.17445313 162.76050781 15.66140625 163.39601563 15.1328125 164.05078125 C8.77603183 171.79918148 1.0022715 177.61582624 -7.3125 183.125 C-8.44945312 183.8984375 -8.44945312 183.8984375 -9.609375 184.6875 C-17.01473568 189.4587391 -25.00808554 192.36118128 -33.3125 195.125 C-34.01987305 195.3720166 -34.72724609 195.6190332 -35.45605469 195.87353516 C-61.38418008 204.74861649 -91.74821981 201.54020863 -116.296875 189.68359375 C-145.20741129 174.38976032 -165.54317072 150.21749963 -175.3125 118.94921875 C-183.01952952 89.47585196 -178.32774002 58.36272658 -163.3125 32.125 C-147.94382249 6.47053327 -123.73352615 -11.57823244 -94.8359375 -19.0625 C-62.33015837 -26.84701286 -26.66492987 -20.81997724 0 0 Z M-97.3125 -2.875 C-96.73840968 0.69864359 -95.81304964 3.40884304 -94.02734375 6.55078125 C-93.35541992 7.74477539 -93.35541992 7.74477539 -92.66992188 8.96289062 C-92.20134766 9.77951172 -91.73277344 10.59613281 -91.25 11.4375 C-90.54133789 12.69143555 -90.54133789 12.69143555 -89.81835938 13.97070312 C-88.65582244 16.02569265 -87.48707909 18.07687737 -86.3125 20.125 C-87.33988281 20.5375 -88.36726563 20.95 -89.42578125 21.375 C-110.51473455 30.06634422 -125.21654859 43.73931573 -134.5234375 64.83203125 C-137.21093097 72.64172763 -137.6486942 79.64837368 -137.625 87.875 C-137.64111328 88.9784375 -137.65722656 90.081875 -137.67382812 91.21875 C-137.68021836 102.10771805 -135.74001 111.70810575 -130.1875 121.125 C-125.36854858 129.5365747 -125.36854858 129.5365747 -125.3125 132.125 C-126.36959499 134.50994456 -127.4442889 136.63734067 -128.75 138.875 C-129.08837891 139.47699219 -129.42675781 140.07898438 -129.77539062 140.69921875 C-130.61018265 142.18068065 -131.45991494 143.65370608 -132.3125 145.125 C-140.32513585 137.58615479 -145.9728646 127.57626972 -149.3125 117.125 C-149.68375 116.02542969 -150.055 114.92585938 -150.4375 113.79296875 C-157.19965572 90.99417289 -153.83307305 67.47019777 -142.9765625 46.55078125 C-135.49048063 33.37775874 -125.33850064 24.03738052 -113.3125 15.125 C-113.85973683 11.75037285 -114.3674 10.04265 -116.3125 7.125 C-132.83368272 12.2878696 -145.63938992 30.52611514 -153.6796875 44.79296875 C-155.57740595 48.6655856 -157.1586022 52.57217131 -158.625 56.625 C-158.86758545 57.28846436 -159.1101709 57.95192871 -159.36010742 58.63549805 C-167.43590361 82.26341075 -164.96267501 109.26748211 -154.5 131.6875 C-148.43152173 142.65804773 -140.96288603 152.11342875 -132.3125 161.125 C-128.61846139 159.8936538 -128.40273763 158.99967981 -126.61328125 155.65234375 C-126.12666016 154.75322266 -125.64003906 153.85410156 -125.13867188 152.92773438 C-124.63916016 151.98220703 -124.13964844 151.03667969 -123.625 150.0625 C-122.85833008 148.6384082 -122.85833008 148.6384082 -122.07617188 147.18554688 C-120.81308106 144.83643406 -119.55900089 142.48294574 -118.3125 140.125 C-115.23000955 141.61178213 -112.77369311 143.26161549 -110.125 145.4375 C-99.05726217 154.14002795 -87.40332192 158.70630129 -73.3125 159.125 C-72.64299316 159.16141602 -71.97348633 159.19783203 -71.28369141 159.23535156 C-51.74277247 160.28163699 -34.86490685 154.62943945 -19.9375 141.75 C-12.45087714 134.58300307 -6.18989703 126.81849257 -2.3125 117.125 C-2.3125 116.465 -2.3125 115.805 -2.3125 115.125 C3.6275 115.125 9.5675 115.125 15.6875 115.125 C13.72188568 119.47743171 11.72803151 123.80776435 9.6875 128.125 C9.254375 129.05570313 8.82125 129.98640625 8.375 130.9453125 C2.10192715 143.45411848 -7.49771698 153.71572929 -19.3125 161.125 C-20.24578125 161.73859375 -21.1790625 162.3521875 -22.140625 162.984375 C-29.83755849 167.80010344 -37.62629095 170.63656887 -46.3125 173.125 C-47.55515625 173.49367188 -48.7978125 173.86234375 -50.078125 174.2421875 C-55.12677576 175.47025414 -60.13949546 175.46723239 -65.3125 175.4375 C-66.32417236 175.43258545 -67.33584473 175.4276709 -68.37817383 175.42260742 C-80.640128 175.23300461 -91.61773153 173.39214189 -102.859375 168.2109375 C-105.02078037 167.25413703 -107.00681779 166.60983972 -109.3125 166.125 C-111.67890945 169.33658723 -111.67890945 169.33658723 -112.16796875 173.140625 C-110.3777337 177.29331634 -105.26724634 178.50831197 -101.3125 180.125 C-78.18794615 188.49335483 -51.83448275 187.60332554 -29.1875 178.125 C-27.885349 177.47905108 -26.59299976 176.81287177 -25.3125 176.125 C-24.60609375 175.76921875 -23.8996875 175.4134375 -23.171875 175.046875 C-16.77556561 171.69216728 -11.03901272 167.50717894 -5.3125 163.125 C-4.3534375 162.40183594 -4.3534375 162.40183594 -3.375 161.6640625 C12.0992556 149.27033 22.7733677 129.05886268 27.6875 110.125 C27.6875 108.805 27.6875 107.485 27.6875 106.125 C19.1075 106.125 10.5275 106.125 1.6875 106.125 C2.0175 104.475 2.3475 102.825 2.6875 101.125 C2.90373271 97.18956476 2.87261884 93.2533265 2.875 89.3125 C2.88724609 88.25740234 2.89949219 87.20230469 2.91210938 86.11523438 C2.92341973 80.06419446 2.45411089 74.91414576 0.6875 69.125 C0.43871094 68.23554688 0.18992187 67.34609375 -0.06640625 66.4296875 C-5.79533553 49.21522367 -17.61181116 35.9580494 -33.3125 27.125 C-34.13621094 26.65191406 -34.95992187 26.17882812 -35.80859375 25.69140625 C-48.9189944 18.62227822 -61.79355632 18.72713687 -76.3125 19.125 C-76.71082031 18.06732422 -76.71082031 18.06732422 -77.1171875 16.98828125 C-78.37748967 13.96932214 -79.85207994 11.17314924 -81.4375 8.3125 C-81.97632813 7.33667969 -82.51515625 6.36085938 -83.0703125 5.35546875 C-83.48023438 4.61941406 -83.89015625 3.88335937 -84.3125 3.125 C-53.12891196 2.30842906 -53.12891196 2.30842906 -40.3125 7.125 C-39.35214844 7.42535156 -38.39179688 7.72570312 -37.40234375 8.03515625 C-16.31717135 14.8856131 0.0525179 30.58586625 10 50.0625 C15.7019964 61.75794659 18.33542915 73.26253656 19.6875 86.125 C22.6575 86.125 25.6275 86.125 28.6875 86.125 C29.43049013 63.83529623 20.45438876 44.18340296 6.6875 27.125 C6.22472656 26.52042969 5.76195312 25.91585937 5.28515625 25.29296875 C-0.58341102 17.80412365 -8.45907749 12.33648775 -16.3125 7.125 C-17.43205078 6.3515625 -17.43205078 6.3515625 -18.57421875 5.5625 C-23.72869464 2.20202675 -29.04426685 -0.06523294 -34.8125 -2.125 C-35.50029541 -2.3712915 -36.18809082 -2.61758301 -36.89672852 -2.87133789 C-47.0610828 -6.3385001 -56.59179912 -7.19372244 -67.3125 -7.125 C-68.5190625 -7.13273437 -69.725625 -7.14046875 -70.96875 -7.1484375 C-80.23224442 -7.12829947 -88.59319008 -6.08737734 -97.3125 -2.875 Z " fill="#F7F8F8" transform="translate(267.3125,110.875)"/>
<path d="M0 0 C1.19496094 -0.020625 2.38992187 -0.04125 3.62109375 -0.0625 C11.94028162 -0.09855282 19.36939467 1.01726696 27.375 3.25 C29.24091797 3.76240234 29.24091797 3.76240234 31.14453125 4.28515625 C44.07052756 8.6491319 55.43155065 15.77868642 65.26171875 25.2421875 C67.35564412 27.30801614 67.35564412 27.30801614 69.8125 29.0859375 C83.65537332 40.77641283 93.8337434 62.31149905 96.125 80 C96.47727833 84.41576789 96.44526795 88.82311884 96.375 93.25 C93.405 93.25 90.435 93.25 87.375 93.25 C87.22804688 92.0640625 87.08109375 90.878125 86.9296875 89.65625 C83.56134705 64.5683706 73.3691994 43.50486551 53.296875 27.40625 C49.4877512 24.59523885 45.61686973 22.33076564 41.375 20.25 C40.75625 19.90582031 40.1375 19.56164062 39.5 19.20703125 C33.46276632 15.92428544 26.97223549 14.08427809 20.375 12.25 C19.2303125 11.88390625 18.085625 11.5178125 16.90625 11.140625 C10.53251577 9.56857981 3.89068001 10.04203835 -2.625 10.125 C-3.98567049 10.13505022 -5.34634817 10.14417246 -6.70703125 10.15234375 C-10.01320647 10.1757918 -13.3190088 10.20861144 -16.625 10.25 C-15.75875 11.73113281 -15.75875 11.73113281 -14.875 13.2421875 C-14.124774 14.53632735 -13.37478632 15.83060537 -12.625 17.125 C-12.2434375 17.77597656 -11.861875 18.42695312 -11.46875 19.09765625 C-8.625 24.0234375 -8.625 24.0234375 -8.625 26.25 C-8.05168945 26.23428955 -7.47837891 26.2185791 -6.88769531 26.20239258 C14.17594638 25.70178256 31.99410844 29.02602128 48 43.75 C59.81849408 55.12407151 69.86970744 70.01387425 70.46899414 86.89819336 C70.5094466 90.03694816 70.51132526 93.17351619 70.5 96.3125 C70.50386719 97.38822266 70.50773438 98.46394531 70.51171875 99.57226562 C70.50978516 101.13170898 70.50978516 101.13170898 70.5078125 102.72265625 C70.50668457 103.66375244 70.50555664 104.60484863 70.50439453 105.57446289 C70.375 108.25 70.375 108.25 69.375 113.25 C77.955 113.25 86.535 113.25 95.375 113.25 C93.0216804 129.72323717 84.71712483 145.3473491 74.375 158.25 C73.76011719 159.02988281 73.14523437 159.80976563 72.51171875 160.61328125 C59.63090896 176.054252 41.35459 184.91689207 22.375 190.25 C21.18519531 190.61351562 19.99539062 190.97703125 18.76953125 191.3515625 C13.12137997 192.73679268 7.40654118 192.53996457 1.625 192.5 C0.5215625 192.50773438 -0.581875 192.51546875 -1.71875 192.5234375 C-16.27727592 192.48926256 -31.00590802 189.86907441 -43.625 182.25 C-44.421875 180.296875 -44.421875 180.296875 -44.625 178.25 C-43.1875 175.5 -43.1875 175.5 -41.625 173.25 C-38.43437663 173.89449001 -35.58377675 175.08264938 -32.60351562 176.37060547 C-13.69080359 184.43405277 8.97545347 185.19045888 28.375 178.25 C29.69951172 177.816875 29.69951172 177.816875 31.05078125 177.375 C51.12584252 170.20304829 67.98117967 154.81316991 77.375 135.8125 C79.4902221 131.33351721 81.42233879 126.8062095 83.375 122.25 C77.435 122.25 71.495 122.25 65.375 122.25 C64.715 124.23 64.055 126.21 63.375 128.25 C54.27822352 146.74180793 38.08457595 157.88886418 19.125 164.6875 C11.60113179 166.83717663 4.18347437 166.67656392 -3.56542969 166.33544922 C-5.34717086 166.26152681 -7.13085013 166.23748106 -8.9140625 166.22265625 C-22.50675896 165.7646813 -37.31410461 158.67735213 -46.83203125 149.0078125 C-48.44454019 147.01664286 -48.44454019 147.01664286 -50.625 147.25 C-54.585 154.18 -58.545 161.11 -62.625 168.25 C-76.37728725 161.37385637 -86.55523875 141.44733846 -91.42578125 127.375 C-99.4326961 101.44411735 -97.34351361 73.95835635 -84.84375 49.80859375 C-76.8138396 36.13470945 -65.11383981 21.47019107 -50.625 14.25 C-47.625 15.25 -47.625 15.25 -46.375 17.0625 C-45.4594861 19.73274888 -45.59142215 20.63936674 -46.625 23.25 C-48.62890625 25.14453125 -48.62890625 25.14453125 -51.1875 27.0625 C-52.09371094 27.76375 -52.99992187 28.465 -53.93359375 29.1875 C-54.82175781 29.868125 -55.70992187 30.54875 -56.625 31.25 C-70.21114397 41.86340722 -79.79881325 58.45146777 -83.625 75.25 C-83.78838867 75.87447021 -83.95177734 76.49894043 -84.12011719 77.14233398 C-89.83914627 100.20583323 -84.36060552 123.27067482 -72.5847168 143.35083008 C-70.33233108 146.99619648 -68.40548926 150.02252863 -64.625 152.25 C-63.42215599 150.17426919 -62.23794299 148.09116905 -61.0625 146 C-60.72025391 145.41347656 -60.37800781 144.82695312 -60.02539062 144.22265625 C-58.16846147 140.93581177 -58.16846147 140.93581177 -57.66796875 137.265625 C-59.43347297 133.54725694 -61.47699353 129.98498899 -63.56640625 126.44140625 C-69.02751167 116.67638132 -70.16539555 106.34110645 -70.0625 95.3125 C-70.05492676 94.17095459 -70.04735352 93.02940918 -70.03955078 91.85327148 C-69.87898195 83.65429863 -69.16026799 76.74739496 -65.625 69.25 C-65.17769531 68.29480469 -64.73039062 67.33960938 -64.26953125 66.35546875 C-54.35035944 46.91601944 -38.77639296 34.9593095 -18.625 27.25 C-18.95822266 26.65985107 -19.29144531 26.06970215 -19.63476562 25.46166992 C-21.13811285 22.79060037 -22.63164361 20.11416705 -24.125 17.4375 C-24.64964844 16.50873047 -25.17429687 15.57996094 -25.71484375 14.62304688 C-26.45927734 13.2840332 -26.45927734 13.2840332 -27.21875 11.91796875 C-27.67958984 11.09578857 -28.14042969 10.2736084 -28.61523438 9.42651367 C-29.625 7.25 -29.625 7.25 -29.625 4.25 C-28.27370353 3.76279787 -26.91875684 3.28571816 -25.5625 2.8125 C-24.43134766 2.41224609 -24.43134766 2.41224609 -23.27734375 2.00390625 C-15.63514593 -0.16832376 -7.88953146 0.03339484 0 0 Z M-6.51953125 33.77734375 C-7.46771729 34.31786377 -8.41590332 34.85838379 -9.39282227 35.4152832 C-10.39756592 36.00011475 -11.40230957 36.58494629 -12.4375 37.1875 C-13.47124756 37.78071045 -14.50499512 38.3739209 -15.57006836 38.98510742 C-21.90374512 42.63191936 -28.20333695 46.33492961 -34.44750977 50.13305664 C-39.82185069 53.39987243 -45.29758464 56.47246134 -50.796875 59.5234375 C-54.08489158 61.50517202 -54.08489158 61.50517202 -56.625 64.25 C-57.09547061 67.05951166 -57.09547061 67.05951166 -57.04492188 70.29443359 C-57.06083374 71.53937592 -57.07674561 72.78431824 -57.09313965 74.06698608 C-57.09440702 75.42746931 -57.0945837 76.78795393 -57.09375 78.1484375 C-57.10085161 79.54465034 -57.10855062 80.94086025 -57.11682129 82.33706665 C-57.13027107 85.2641816 -57.13183329 88.19102685 -57.12597656 91.11816406 C-57.12008611 94.86337259 -57.15063971 98.6072822 -57.19109344 102.35223961 C-57.21698923 105.23655122 -57.21984616 108.12055109 -57.21620178 111.00496292 C-57.21789198 112.38524255 -57.22752511 113.76553674 -57.24534607 115.14570236 C-57.26756112 117.07926716 -57.25461469 119.0131384 -57.24023438 120.94677734 C-57.24228882 122.0458139 -57.24434326 123.14485046 -57.24645996 124.27719116 C-56.29458012 128.83059278 -53.39078013 131.01067196 -49.6940918 133.60522461 C-49.07703369 133.95077393 -48.45997559 134.29632324 -47.82421875 134.65234375 C-46.74648193 135.26529297 -46.74648193 135.26529297 -45.64697266 135.890625 C-44.87659668 136.31859375 -44.1062207 136.7465625 -43.3125 137.1875 C-41.62589432 138.14381245 -39.93971821 139.1008828 -38.25390625 140.05859375 C-36.90256592 140.82212158 -36.90256592 140.82212158 -35.52392578 141.60107422 C-30.2402641 144.6064516 -24.99758929 147.68222155 -19.75 150.75 C-18.72221436 151.3493335 -17.69442871 151.94866699 -16.63549805 152.56616211 C-8.81955803 157.12540637 -8.81955803 157.12540637 -6.04174805 158.90429688 C-2.54992365 160.84862823 0.53390517 160.98048854 4.375 160.25 C7.6439218 158.89943244 10.56888548 157.12345684 13.5625 155.25 C14.39330078 154.74960205 15.22410156 154.2492041 16.08007812 153.73364258 C18.52312594 152.25680789 20.95072272 150.75739988 23.375 149.25 C24.62078729 148.4825752 25.86684855 147.71559484 27.11328125 146.94921875 C29.22946963 145.64402472 31.34292691 144.33438818 33.453125 143.01953125 C36.30161262 141.2944445 39.18848905 139.69465434 42.125 138.125 C50.24264284 133.89648784 50.24264284 133.89648784 57.375 128.25 C57.49531273 126.27760364 57.54523634 124.30088392 57.56787109 122.32495117 C57.59196548 120.42243843 57.59196548 120.42243843 57.61654663 118.48149109 C57.62803318 117.08532376 57.63864188 115.68914897 57.6484375 114.29296875 C57.65642302 113.24270728 57.65642302 113.24270728 57.66456985 112.17122841 C57.6913198 108.46434243 57.71068755 104.75749033 57.72509766 101.05053711 C57.74173895 97.22009726 57.78650521 93.39051899 57.8374691 89.56040478 C57.87112132 86.6169994 57.8826728 83.67379882 57.88832474 80.73021889 C57.89504441 79.31837705 57.91028545 77.90654904 57.93421555 76.49489403 C57.96581303 74.51790942 57.96290617 72.5404646 57.95849609 70.56323242 C57.96658295 69.43817795 57.9746698 68.31312347 57.98300171 67.15397644 C57.61802638 64.05030161 57.61802638 64.05030161 54.97784424 61.94670105 C54.11890564 61.3867897 53.25996704 60.82687836 52.375 60.25 C51.63942871 59.76805176 50.90385742 59.28610352 50.14599609 58.78955078 C49.40430176 58.34595215 48.66260742 57.90235352 47.8984375 57.4453125 C47.06884521 56.94765381 46.23925293 56.44999512 45.38452148 55.93725586 C44.51512939 55.42171143 43.6457373 54.90616699 42.75 54.375 C41.84773682 53.83689697 40.94547363 53.29879395 40.01586914 52.74438477 C34.85696342 49.68086288 29.67199432 46.69946904 24.3671875 43.89453125 C21.75588858 42.45933954 19.19447409 40.97036112 16.6328125 39.44921875 C15.77888916 38.94463135 14.92496582 38.44004395 14.04516602 37.92016602 C12.33306608 36.90566545 10.62505688 35.88422286 8.92163086 34.85522461 C8.13409424 34.38995361 7.34655762 33.92468262 6.53515625 33.4453125 C5.83011963 33.02266113 5.12508301 32.60000977 4.39868164 32.16455078 C0.06805506 30.20743567 -2.71604401 31.58929864 -6.51953125 33.77734375 Z " fill="#111312" transform="translate(199.625,103.75)"/>
<path d="M0 0 C-1.58964153 4.21495861 -3.57451833 8.18408433 -5.625 12.1875 C-11.76196484 24.32995359 -17.32316937 36.71343222 -21.9921875 49.49609375 C-23.32510873 52.80773139 -24.22871396 54.64411339 -27.53125 56.16796875 C-28.5109375 56.50441406 -29.490625 56.84085938 -30.5 57.1875 C-31.4796875 57.53167969 -32.459375 57.87585938 -33.46875 58.23046875 C-36 59 -36 59 -38 59 C-38.18517254 55.27009596 -37.70677619 52.67902704 -36.25 49.25 C-35.8890625 48.39148438 -35.528125 47.53296875 -35.15625 46.6484375 C-33.45711261 42.75649443 -31.7559116 38.8667415 -30 35 C-33.46793491 35.60840963 -35.16980069 35.99815171 -38 38 C-41.40335662 43.3185535 -44.00240533 49.00721598 -46 55 C-48.87109375 56.38671875 -48.87109375 56.38671875 -52.4375 57.6875 C-53.61183594 58.12449219 -54.78617188 58.56148437 -55.99609375 59.01171875 C-59 60 -59 60 -61 60 C-60.38735139 54.64783365 -58.61783074 50.20686283 -56.5 45.3125 C-56.14687744 44.48814453 -55.79375488 43.66378906 -55.42993164 42.81445312 C-51.51762961 33.76323388 -47.42490971 24.81233783 -43 16 C-42.42636719 14.8346875 -41.85273438 13.669375 -41.26171875 12.46875 C-38.32648398 7.14469648 -36.18485913 4.52578462 -30.25 2.75 C-26.82512019 2.04206395 -25.3590774 1.88030753 -22 3 C-22.38671875 3.60585937 -22.7734375 4.21171875 -23.171875 4.8359375 C-26.81412729 10.69599687 -29.6539024 16.51373015 -32 23 C-27.29788922 21.5778982 -24.89414277 20.47800252 -22.515625 16.09375 C-21.75081464 14.56727324 -20.99588789 13.03581166 -20.25 11.5 C-16.08669374 3.65864594 -16.08669374 3.65864594 -12.0546875 1.21484375 C-7.91297284 0.11590879 -4.27802639 0 0 0 Z " fill="#101212" transform="translate(230,170)"/>
<path d="M0 0 C0.99 0.66 1.98 1.32 3 2 C-0.3 4.97 -3.6 7.94 -7 11 C-7.99 10.34 -8.98 9.68 -10 9 C-9.34 9 -8.68 9 -8 9 C-8 8.34 -8 7.68 -8 7 C-6 5.66666667 -4 4.33333333 -2 3 C-2 2.34 -2 1.68 -2 1 C-1.34 0.67 -0.68 0.34 0 0 Z " fill="#151719" transform="translate(126,113)"/>
<path d="M0 0 C0 3.51700839 -0.69225467 4.36436147 -2.75 7.125 C-3.26046875 7.82882813 -3.7709375 8.53265625 -4.296875 9.2578125 C-6.19467845 11.19914355 -7.35107221 11.61993645 -10 12 C-8.52278578 8.54798361 -6.56205999 6.35038064 -3.875 3.75 C-3.15054688 3.04359375 -2.42609375 2.3371875 -1.6796875 1.609375 C-1.12539062 1.07828125 -0.57109375 0.5471875 0 0 Z " fill="#262626" transform="translate(154,146)"/>
<path d="M0 0 C-1.2491742 3.45925163 -2.67527795 6.14693203 -5 9 C-6.125 4.25 -6.125 4.25 -5 2 C-6.32 1.67 -7.64 1.34 -9 1 C-5.846632 0.29925156 -3.27275026 0 0 0 Z " fill="#333333" transform="translate(230,170)"/>
<path d="M0 0 C2 0 2 0 3.54296875 1.390625 C4.08566406 2.00421875 4.62835938 2.6178125 5.1875 3.25 C5.73792969 3.85328125 6.28835938 4.4565625 6.85546875 5.078125 C8 7 8 7 7.67578125 9.234375 C7.45277344 9.81703125 7.22976563 10.3996875 7 11 C5.82439821 9.73742767 4.65977135 8.46462916 3.5 7.1875 C2.8503125 6.47980469 2.200625 5.77210937 1.53125 5.04296875 C0 3 0 3 0 0 Z " fill="#151718" transform="translate(277,117)"/>
<path d="M0 0 C0 3 0 3 -1.53125 4.60546875 C-2.1809375 5.12753906 -2.830625 5.64960937 -3.5 6.1875 C-4.1496875 6.71730469 -4.799375 7.24710937 -5.46875 7.79296875 C-5.9740625 8.19128906 -6.479375 8.58960937 -7 9 C-7.66 8.67 -8.32 8.34 -9 8 C-6.03 5.36 -3.06 2.72 0 0 Z " fill="#D8D9DB" transform="translate(129,114)"/>
<path d="M0 0 C0.66 0.33 1.32 0.66 2 1 C2 2.32 2 3.64 2 5 C2.99 5 3.98 5 5 5 C5 5.66 5 6.32 5 7 C2.5625 6.25 2.5625 6.25 0 5 C-0.875 2.9375 -0.875 2.9375 -1 1 C-0.67 0.67 -0.34 0.34 0 0 Z " fill="#303533" transform="translate(156,281)"/>
<path d="M0 0 C0.33 0.99 0.66 1.98 1 3 C-0.98 4.98 -2.96 6.96 -5 9 C-5.66 8.67 -6.32 8.34 -7 8 C-4.69 5.36 -2.38 2.72 0 0 Z " fill="#CBCCCC" transform="translate(137,139)"/>
<path d="M0 0 C0.99 0.33 1.98 0.66 3 1 C2.67 2.65 2.34 4.3 2 6 C0.68 6.33 -0.64 6.66 -2 7 C-1.34 4.69 -0.68 2.38 0 0 Z " fill="#DCE0DF" transform="translate(221,186)"/>
<path d="M0 0 C0.93065133 2.60582371 1.14917407 3.64198224 0.0625 6.25 C-0.4634375 7.11625 -0.4634375 7.11625 -1 8 C-1.99 7.67 -2.98 7.34 -4 7 C-2.68 4.69 -1.36 2.38 0 0 Z " fill="#232524" transform="translate(211,180)"/>
</svg>
