<?xml version="1.0" encoding="UTF-8"?>
<svg version="1.1" xmlns="http://www.w3.org/2000/svg" width="256" height="256">
<path d="M0 0 C84.48 0 168.96 0 256 0 C256 84.48 256 168.96 256 256 C171.52 256 87.04 256 0 256 C0 171.52 0 87.04 0 0 Z " fill="#23A8E1" transform="translate(0,0)"/>
<path d="M0 0 C0.21351842 4.77103235 -0.56993244 8.92992608 -1.8125 13.5 C-2.18016766 14.91229764 -2.54601779 16.32506955 -2.91015625 17.73828125 C-3.09336426 18.44678223 -3.27657227 19.1552832 -3.46533203 19.88525391 C-4.28839365 23.14066932 -5.0277595 26.40804434 -5.75 29.6875 C-6.11351563 31.33298828 -6.11351563 31.33298828 -6.484375 33.01171875 C-6.95703953 35.75102452 -7.10282563 38.22884921 -7 41 C-5.96875 40.505 -4.9375 40.01 -3.875 39.5 C3.19489849 36.86141289 11.67445259 36.48308364 18.5625 39.625 C27.06109498 47.90568229 29.07161621 55.23159705 29.29199219 66.94458008 C29.36568662 77.69958023 28.65148326 86.79100874 25 97 C24.69964844 97.9178125 24.39929688 98.835625 24.08984375 99.78125 C21.77568117 106.27292685 18.18232718 111.56114031 14 117 C13.5153125 117.65097656 13.030625 118.30195313 12.53125 118.97265625 C5.54331075 127.80463502 -3.9474488 132.30691055 -15 134 C-18.12792403 134.31475115 -21.23229019 134.45129595 -24.375 134.5 C-25.11161865 134.51853027 -25.8482373 134.53706055 -26.60717773 134.55615234 C-33.03558221 134.48225431 -38.14497734 132.46369716 -43.0234375 128.25390625 C-45.64526093 124.9728382 -47.76074104 122.08955458 -49 118 C-49.680625 118.70125 -50.36125 119.4025 -51.0625 120.125 C-59.84561219 128.8340972 -67.57075595 133.97685949 -80.25 134.375 C-86.58813419 134.31039841 -91.15304275 133.18743607 -96 129 C-101.8358006 121.71744104 -101.84092212 112.91338957 -101 104 C-99.99201809 97.30823723 -98.40448104 90.71678493 -96.91699219 84.11914062 C-95.79738241 79.1234786 -94.73202506 74.11628573 -93.6640625 69.109375 C-93.46088913 68.15697937 -93.25771576 67.20458374 -93.04838562 66.22332764 C-92.63512278 64.28565948 -92.22193024 62.34797633 -91.80880737 60.41027832 C-90.80761186 55.72055833 -89.80047961 51.03211661 -88.79296875 46.34375 C-88.20128906 43.5903125 -87.60960937 40.836875 -87 38 C-77.76 38 -68.52 38 -59 38 C-59.45375 40.76375 -59.9075 43.5275 -60.375 46.375 C-60.58261963 47.64802979 -60.58261963 47.64802979 -60.79443359 48.94677734 C-62.47109656 59.07844695 -64.66633085 69.06353638 -67 79.0625 C-67.7708207 82.37664742 -68.54078279 85.69095553 -69.30517578 89.0065918 C-69.73700974 90.86699806 -70.17665513 92.72563119 -70.62841797 94.58129883 C-71.67803591 98.99313405 -72.23000036 102.99498415 -72.125 107.5625 C-72.09792969 109.11130859 -72.09792969 109.11130859 -72.0703125 110.69140625 C-72.04710938 111.45324219 -72.02390625 112.21507812 -72 113 C-68.5077712 114.99445067 -66.05401221 115.25959851 -62.01953125 114.5859375 C-56.75658248 113.05896977 -53.9875938 109.42520136 -51.375 104.875 C-48.42013654 98.54856157 -47.2778135 91.79366946 -45.9921875 84.9765625 C-45.34245635 81.5749295 -44.56730044 78.23800198 -43.6953125 74.88671875 C-41.11066258 64.73562337 -39.1190714 54.44340167 -37 44.1875 C-36.55750147 42.05659705 -36.11479457 39.92573735 -35.671875 37.79492188 C-33.32306793 26.51427221 -33.32306793 26.51427221 -31.0546875 15.21728516 C-30.84706787 14.16145988 -30.84706787 14.16145988 -30.63525391 13.08430481 C-30.27976219 11.26554961 -29.92873897 9.44592252 -29.578125 7.6262207 C-29 5 -29 5 -28 3 C-25.85449219 2.49755859 -25.85449219 2.49755859 -23.046875 2.1484375 C-22.03496094 2.01953125 -21.02304688 1.890625 -19.98046875 1.7578125 C-18.91441406 1.63148437 -17.84835938 1.50515625 -16.75 1.375 C-15.17412109 1.17390625 -15.17412109 1.17390625 -13.56640625 0.96875 C-9.01122508 0.4029607 -4.59592692 -0.07802049 0 0 Z " fill="#F9FDFD" transform="translate(119,58)"/>
<path d="M0 0 C-2.92749136 14.01597821 -5.94306824 28.01170671 -9 42 C-8.2575 41.525625 -7.515 41.05125 -6.75 40.5625 C-0.3777607 36.94190949 6.84688684 37.31112236 14 38 C19.64631413 39.87335073 22.91643474 43.59986007 25.9921875 48.546875 C32.78897266 65.09098771 29.67652814 85.27112593 23.04101562 101.31933594 C16.61004721 115.73082992 8.04492083 126.11375191 -7 132 C-16.08298486 135.32343673 -28.4733801 135.62899561 -37.625 132.5 C-42.54445227 130.18106627 -45.31878682 126.63777414 -48 122 C-48.34675781 121.44602539 -48.69351563 120.89205078 -49.05078125 120.32128906 C-53.4025959 109.67904274 -48.94511051 94.97288471 -46.5 84.25 C-46.13613956 82.59651516 -45.77378445 80.94269844 -45.4128418 79.28857422 C-44.47920656 75.02898358 -43.52604129 70.77403735 -42.5668335 66.5201416 C-41.65615408 62.47126109 -40.76012514 58.41915085 -39.86328125 54.3671875 C-38.84911618 49.78919902 -37.8330178 45.21168786 -36.80639648 40.63647461 C-34.58080528 30.70870902 -32.45134856 20.76516004 -30.45825195 10.78759766 C-30.27738037 9.89476074 -30.09650879 9.00192383 -29.91015625 8.08203125 C-29.75683838 7.31093018 -29.60352051 6.5398291 -29.44555664 5.74536133 C-29 4 -29 4 -28 3 C-26.27178068 2.70169538 -24.53350704 2.4611615 -22.79296875 2.24609375 C-21.73142578 2.11396484 -20.66988281 1.98183594 -19.57617188 1.84570312 C-18.45791016 1.71099609 -17.33964844 1.57628906 -16.1875 1.4375 C-14.52750977 1.22963867 -14.52750977 1.22963867 -12.83398438 1.01757812 C-8.51232119 0.48684756 -4.35981887 0 0 0 Z " fill="#F9FDFD" transform="translate(204,58)"/>
<path d="M0 0 C4.86196223 4.3447322 6.67659869 9.02130371 7.37109375 15.41796875 C7.64099211 30.73866957 4.62059225 48.0255965 -5.69140625 59.95703125 C-9.46162228 63.55855753 -12.64338677 65.09739297 -18 65 C-23.5862069 62.82758621 -23.5862069 62.82758621 -25 60 C-25.4836725 52.18868913 -23.97873232 45.15697859 -22.25 37.5625 C-21.97559082 36.33144531 -21.70118164 35.10039062 -21.41845703 33.83203125 C-20.86884794 31.36668794 -20.31633433 28.90199014 -19.76074219 26.43798828 C-19.08863058 23.40054421 -18.45686466 20.35991202 -17.8515625 17.30859375 C-17.59971191 16.0709729 -17.59971191 16.0709729 -17.34277344 14.80834961 C-17.04073553 13.31786506 -16.74896298 11.82524638 -16.46972656 10.33032227 C-15.58083349 6.07566171 -14.41984186 3.71458265 -11 1 C-7.50069164 -0.74965418 -3.80865544 -0.69188377 0 0 Z " fill="#26A8DF" transform="translate(122,109)"/>
<path d="M0 0 C3.32246129 2.60018709 5.38966697 5.13014208 7 9 C7.41921911 12.50914343 7.33268978 16.03075196 7.3125 19.5625 C7.30758545 20.55813965 7.3026709 21.5537793 7.29760742 22.57958984 C7.18728937 29.48267139 6.58160532 35.54598671 4 42 C3.63648438 43.00160156 3.27296875 44.00320312 2.8984375 45.03515625 C0.03584791 52.48712335 -3.31647709 58.71469578 -9.3125 64.0625 C-13.25576295 65.43805684 -17.00315422 65.18258733 -21 64 C-23.02381807 62.4956888 -23.86405114 61.63042952 -24.3984375 59.15234375 C-24.30455488 50.28043611 -22.72575065 41.67231863 -21 33 C-20.63745117 31.16622803 -20.63745117 31.16622803 -20.26757812 29.29541016 C-19.58633307 25.89469121 -18.86832602 22.50306792 -18.12966919 19.11437988 C-17.83601056 17.75166117 -17.55067759 16.38712043 -17.27389526 15.02087402 C-16.87812459 13.08287078 -16.44552439 11.15250175 -16.01171875 9.22265625 C-15.64759888 7.53281616 -15.64759888 7.53281616 -15.27612305 5.80883789 C-12.42738843 -0.46143029 -6.06184765 -0.76975843 0 0 Z " fill="#27A8E0" transform="translate(206,109)"/>
<path d="M0 0 C4.29112543 3.79215736 6.37419163 7.18184139 7.1875 12.875 C6.42776979 18.19311144 4.01799473 22.98591717 -0.3125 26.375 C-5.25605581 28.02285194 -10.16521241 28.08657593 -15.3125 27.375 C-19.66641945 25.07834489 -22.43359396 21.90699096 -24.3125 17.375 C-24.94704342 10.92380856 -24.07069714 7.65679057 -20.3125 2.375 C-13.96708554 -3.50611584 -7.64242791 -3.74911558 0 0 Z " fill="#F5FCFD" transform="translate(60.3125,57.625)"/>
<path d="M0 0 C2 1 2 1 2.62182617 2.72143555 C3.86914837 8.46692521 4.34897218 13.93820027 4.3125 19.8125 C4.31121094 20.68036133 4.30992187 21.54822266 4.30859375 22.44238281 C4.20608653 29.32830558 3.23513059 35.45426041 1 42 C0.67 42 0.34 42 0 42 C-0.125 35.375 -0.125 35.375 1 32 C1.09387113 30.17766025 1.13070591 28.3520984 1.1328125 26.52734375 C1.13410156 25.46322266 1.13539063 24.39910156 1.13671875 23.30273438 C1.13285156 22.19220703 1.12898437 21.08167969 1.125 19.9375 C1.12886719 18.82310547 1.13273438 17.70871094 1.13671875 16.56054688 C1.13542969 15.49771484 1.13414062 14.43488281 1.1328125 13.33984375 C1.13168457 12.36394287 1.13055664 11.38804199 1.12939453 10.38256836 C1.15763793 7.98356611 1.15763793 7.98356611 0 6 C-0.039992 4.00039988 -0.04346799 1.99952758 0 0 Z " fill="#C8F2FC" transform="translate(229,108)"/>
<path d="M0 0 C9.24 0 18.48 0 28 0 C27.34 3.3 26.68 6.6 26 10 C25.67 10 25.34 10 25 10 C25 7.03 25 4.06 25 1 C17.08 1 9.16 1 1 1 C1 3.64 1 6.28 1 9 C0.67 9.33 0.34 9.66 0 10 C-0.23075082 11.34747084 -0.41153063 12.70377565 -0.5625 14.0625 C-0.7790625 16.0115625 -0.7790625 16.0115625 -1 18 C-1.66 18 -2.32 18 -3 18 C-2.40247977 11.72603759 -1.39316676 6.2692504 0 0 Z " fill="#CFF5FD" transform="translate(32,96)"/>
<path d="M0 0 C0.33 0 0.66 0 1 0 C1.36700592 9.5829324 -0.37875554 17.82564438 -3 27 C-3.50622708 29.64978236 -3.98748453 32.30102465 -4.4375 34.9609375 C-4.623125 35.63382813 -4.80875 36.30671875 -5 37 C-5.99 37.495 -5.99 37.495 -7 38 C-6.44322254 29.61285113 -4.7559147 21.56841382 -2.9375 13.375 C-2.65248001 12.07172706 -2.36797132 10.76834219 -2.08398438 9.46484375 C-1.39432225 6.30876282 -0.69955412 3.15390034 0 0 Z " fill="#D2F5FC" transform="translate(88,74)"/>
<path d="M0 0 C0.495 0.7425 0.99 1.485 1.5 2.25 C5.4784122 6.62625342 9.16607627 8.67796321 15.09375 9.3515625 C21.17841359 9.50794404 26.42700604 9.0069285 32.09765625 6.75390625 C34.04310625 5.98291683 35.96252755 5.46739346 38 5 C38 5.66 38 6.32 38 7 C37.01 7 36.02 7 35 7 C35 7.66 35 8.32 35 9 C29.53925921 10.83475089 24.80168245 11.27952065 19.0625 11.1875 C17.92264648 11.1865332 17.92264648 11.1865332 16.75976562 11.18554688 C11.76489485 11.1471576 6.9447279 10.70317518 2 10 C1.67 8.68 1.34 7.36 1 6 C0.67 6 0.34 6 0 6 C0 4.02 0 2.04 0 0 Z " fill="#3FAAD5" transform="translate(20,182)"/>
<path d="M0 0 C0 3 0 3 -1.8125 4.875 C-7.91476933 8.94317955 -15.53322865 13.1538855 -23.01171875 13.09765625 C-24.14770508 13.09282227 -24.14770508 13.09282227 -25.30664062 13.08789062 C-26.09232422 13.07951172 -26.87800781 13.07113281 -27.6875 13.0625 C-28.48478516 13.05798828 -29.28207031 13.05347656 -30.10351562 13.04882812 C-32.06904257 13.0370585 -34.03453085 13.01912348 -36 13 C-36 12.67 -36 12.34 -36 12 C-34.88882813 11.90203125 -33.77765625 11.8040625 -32.6328125 11.703125 C-19.80882489 10.46228011 -10.55997386 7.65215497 0 0 Z " fill="#51B2DC" transform="translate(128,180)"/>
<path d="M0 0 C3 1 3 1 4.67578125 3.3515625 C6.51586102 8.42128081 6.32196838 13.03074376 6.1875 18.375 C6.17396484 19.39722656 6.16042969 20.41945312 6.14648438 21.47265625 C6.11130217 23.98232049 6.06207539 26.4908809 6 29 C5.34 29 4.68 29 4 29 C4 21.41 4 13.82 4 6 C3.34 6 2.68 6 2 6 C1.34 4.02 0.68 2.04 0 0 Z " fill="#33A2CE" transform="translate(207,111)"/>
<path d="M0 0 C0.66 0 1.32 0 2 0 C1.35249772 5.84754632 0.34897141 11.51109409 -0.9375 17.25 C-1.10701172 18.03890625 -1.27652344 18.8278125 -1.45117188 19.640625 C-1.70543945 20.7853125 -1.70543945 20.7853125 -1.96484375 21.953125 C-2.1155835 22.63536133 -2.26632324 23.31759766 -2.42163086 24.02050781 C-3 26 -3 26 -5 30 C-4.67 25.38 -4.34 20.76 -4 16 C-3.34 16 -2.68 16 -2 16 C-2.02320313 15.43152344 -2.04640625 14.86304687 -2.0703125 14.27734375 C-2.19191688 9.07441352 -1.67723492 4.92687757 0 0 Z " fill="#37A6CF" transform="translate(165,100)"/>
<path d="M0 0 C0.33 0 0.66 0 1 0 C1 3.96 1 7.92 1 12 C3.31 12.66 5.62 13.32 8 14 C8 13.34 8 12.68 8 12 C10.31 12.33 12.62 12.66 15 13 C13.16675303 14.90963226 11.78031196 15.95203 9.09375 16.1171875 C5.72553328 15.82812412 3.41851262 15.25110757 0.5 13.5 C-1.72404614 9.79325643 -1.49755341 6.22512568 -1 2 C-0.67 1.34 -0.34 0.68 0 0 Z " fill="#40A8D2" transform="translate(98,158)"/>
<path d="M0 0 C0.66 1.32 1.32 2.64 2 4 C1.01 4 0.02 4 -1 4 C-0.67 9.28 -0.34 14.56 0 20 C-2.66604583 18.66697708 -2.99124788 17.81009519 -4 15 C-4.63568991 8.53715263 -3.58261629 5.37392443 0 0 Z " fill="#CDF2F9" transform="translate(40,60)"/>
<path d="M0 0 C0.33 0.66 0.66 1.32 1 2 C0.360625 2.7425 -0.27875 3.485 -0.9375 4.25 C-3.11621894 6.72351236 -3.11621894 6.72351236 -3.375 9.125 C-4 11 -4 11 -6.9375 12.625 C-7.948125 13.07875 -8.95875 13.5325 -10 14 C-10.66 14.66 -11.32 15.32 -12 16 C-14.125 15.625 -14.125 15.625 -16 15 C-15.5153125 14.67128906 -15.030625 14.34257812 -14.53125 14.00390625 C-8.86004008 9.97952844 -4.44889696 5.32447774 0 0 Z " fill="#3FA8D4" transform="translate(220,171)"/>
<path d="M0 0 C0.33 0 0.66 0 1 0 C1.2236337 1.41433206 1.42826476 2.83167618 1.625 4.25 C1.74101562 5.03890625 1.85703125 5.8278125 1.9765625 6.640625 C2.00366993 9.36943935 1.32279496 10.64942191 0 13 C-0.33 14.19625 -0.66 15.3925 -1 16.625 C-2 20 -2 20 -4 22 C-3.25403037 14.5403037 -1.63253871 7.31048782 0 0 Z " fill="#CFF3FB" transform="translate(26,124)"/>
<path d="M0 0 C0.33 0 0.66 0 1 0 C1.52719406 7.77611241 0.18518876 14.84131489 -3 22 C-3.99 22.33 -4.98 22.66 -6 23 C-5.81824219 22.34515625 -5.63648438 21.6903125 -5.44921875 21.015625 C-3.52672958 14.03551046 -1.72994005 7.0301819 0 0 Z " fill="#49ADD5" transform="translate(232,138)"/>
<path d="M0 0 C0.33 0 0.66 0 1 0 C0.67 6.27 0.34 12.54 0 19 C-0.99 19 -1.98 19 -3 19 C-2.48446121 12.50149789 -1.53332291 6.33773468 0 0 Z " fill="#44B0D6" transform="translate(188,129)"/>
<path d="M0 0 C0.33 0 0.66 0 1 0 C1.67090715 7.24579719 -0.41874318 11.75838097 -4 18 C-4.66 18 -5.32 18 -6 18 C-4 12 -2 6 0 0 Z " fill="#D0F4FC" transform="translate(126,146)"/>
<path d="M0 0 C-1.55478653 1.15627814 -3.11919719 2.2996219 -4.6875 3.4375 C-5.55761719 4.07558594 -6.42773438 4.71367187 -7.32421875 5.37109375 C-9.98310742 6.98971649 -11.93887169 7.6083962 -15 8 C-15 7.34 -15 6.68 -15 6 C-13.68 6 -12.36 6 -11 6 C-11 5.34 -11 4.68 -11 4 C-10.01 4 -9.02 4 -8 4 C-7.8453125 3.0409375 -7.8453125 3.0409375 -7.6875 2.0625 C-7.460625 1.381875 -7.23375 0.70125 -7 0 C-3.86650268 -1.04449911 -3.01031744 -0.93423645 0 0 Z " fill="#DBF9FD" transform="translate(128,181)"/>
<path d="M0 0 C2 3 2 3 2 5 C1.34 5 0.68 5 0 5 C-0.226875 5.78375 -0.45375 6.5675 -0.6875 7.375 C-2 10 -2 10 -7 12 C-4.69 8.04 -2.38 4.08 0 0 Z " fill="#3FA7D7" transform="translate(140,163)"/>
<path d="M0 0 C0.33 0 0.66 0 1 0 C1.38333333 11.96851852 1.38333333 11.96851852 -1 17 C-1.66 17.33 -2.32 17.66 -3 18 C-2.32418477 11.91766294 -1.26361972 5.98685848 0 0 Z " fill="#CDF3FA" transform="translate(168,94)"/>
<path d="M0 0 C0.66 0 1.32 0 2 0 C1.67 3.63 1.34 7.26 1 11 C2.32 10.67 3.64 10.34 5 10 C4.67 10.99 4.34 11.98 4 13 C1.69 12.67 -0.62 12.34 -3 12 C-2.01 8.04 -1.02 4.08 0 0 Z " fill="#D7F7FB" transform="translate(111,88)"/>
<path d="M0 0 C1.216875 -0.02578125 2.43375 -0.0515625 3.6875 -0.078125 C7.17460976 0.26729625 8.50053871 0.87551177 11 3.25 C9.35 3.25 7.7 3.25 6 3.25 C6 2.59 6 1.93 6 1.25 C4.24967156 1.39183696 2.49974466 1.53863429 0.75 1.6875 C-0.71179688 1.80931641 -0.71179688 1.80931641 -2.203125 1.93359375 C-4.9359548 2.16072733 -4.9359548 2.16072733 -7.234375 2.91015625 C-7.81703125 3.02230469 -8.3996875 3.13445312 -9 3.25 C-9.66 2.59 -10.32 1.93 -11 1.25 C-7.33434166 0.11364591 -3.82254889 0.04859172 0 0 Z " fill="#D7F9FD" transform="translate(211,95.75)"/>
<path d="M0 0 C2.53203862 1.26601931 2.81359065 2.34461131 4 4.875 C5.21201839 7.44107018 6.41269132 9.61903698 8 12 C7.01 12.495 7.01 12.495 6 13 C2 7.25 2 7.25 2 5 C0.35 5 -1.3 5 -3 5 C-2.01 3.35 -1.02 1.7 0 0 Z " fill="#4BA7D2" transform="translate(69,175)"/>
<path d="M0 0 C0.33 0 0.66 0 1 0 C1.31985731 6.71700347 0.4793824 11.75726932 -2 18 C-3.51553092 14.02549507 -2.49888623 10.79518851 -1.5625 6.75 C-1.27503906 5.48671875 -0.98757812 4.2234375 -0.69140625 2.921875 C-0.46324219 1.95765625 -0.23507813 0.9934375 0 0 Z " fill="#D1F6FD" transform="translate(80,112)"/>
<path d="M0 0 C0.33 0 0.66 0 1 0 C1.37804878 9.6402439 1.37804878 9.6402439 -1 14 C-1.66 14.66 -2.32 15.32 -3 16 C-3.99 15.67 -4.98 15.34 -6 15 C-5.38125 14.38125 -4.7625 13.7625 -4.125 13.125 C-1.28956063 8.95523622 -0.72665455 4.92404073 0 0 Z " fill="#36A4D0" transform="translate(67,67)"/>
<path d="M0 0 C0 0.99 0 1.98 0 3 C-3.64634939 6.53240097 -8.21223486 9.27725007 -13 11 C-13.66 10.67 -14.32 10.34 -15 10 C-10 6.66666667 -5 3.33333333 0 0 Z " fill="#41A9CF" transform="translate(128,180)"/>
<path d="M0 0 C0.66 0 1.32 0 2 0 C2.33 0.66 2.66 1.32 3 2 C6.96 2 10.92 2 15 2 C12.51944033 4.48055967 10.46282082 4.67776665 7.04296875 5.0390625 C4.02211532 4.9813024 2.27302077 3.91786127 0 2 C0 1.34 0 0.68 0 0 Z " fill="#46A8D3" transform="translate(46,169)"/>
<path d="M0 0 C3 1 3 1 4.6875 3.6875 C6.03558623 7.08981286 6.25833766 9.38327271 6 13 C5.01 13.495 5.01 13.495 4 14 C4 11.36 4 8.72 4 6 C3.34 6 2.68 6 2 6 C1.34 4.02 0.68 2.04 0 0 Z " fill="#41AAD6" transform="translate(207,111)"/>
<path d="M0 0 C0.33 0 0.66 0 1 0 C1 3.3 1 6.6 1 10 C1.66 10.33 2.32 10.66 3 11 C1.35 11.66 -0.3 12.32 -2 13 C-1.85769192 11.58297487 -1.71099254 10.1663904 -1.5625 8.75 C-1.48128906 7.96109375 -1.40007812 7.1721875 -1.31640625 6.359375 C-1.02365007 4.17635361 -0.57935581 2.1226818 0 0 Z " fill="#53ACD8" transform="translate(197,87)"/>
<path d="M0 0 C0.33 0 0.66 0 1 0 C0.51679152 6.2054142 -0.33318124 11.99945246 -2 18 C-2.33 18 -2.66 18 -3 18 C-3.31985731 11.28299653 -2.4793824 6.24273068 0 0 Z " fill="#D7F7FE" transform="translate(116,66)"/>
<path d="M0 0 C0.61875 0.350625 1.2375 0.70125 1.875 1.0625 C6.37011449 2.41103435 10.40954987 1.65959866 15 1 C13.24135754 3.1793144 12.30604 3.93686419 9.51953125 4.51171875 C8.17955078 4.59873047 8.17955078 4.59873047 6.8125 4.6875 C5.46091797 4.78611328 5.46091797 4.78611328 4.08203125 4.88671875 C3.05142578 4.94279297 3.05142578 4.94279297 2 5 C1.34 3.35 0.68 1.7 0 0 Z " fill="#D4F8FD" transform="translate(46,171)"/>
<path d="M0 0 C0.33 0 0.66 0 1 0 C1.05416188 1.60379341 1.09286638 3.20811406 1.125 4.8125 C1.14820313 5.70582031 1.17140625 6.59914062 1.1953125 7.51953125 C1 10 1 10 -1 13 C-1.66 13 -2.32 13 -3 13 C-2.01 8.71 -1.02 4.42 0 0 Z " fill="#CBF2FC" transform="translate(212,140)"/>
<path d="M0 0 C0.99 0 1.98 0 3 0 C2.34 3.96 1.68 7.92 1 12 C0.67 12 0.34 12 0 12 C0 8.04 0 4.08 0 0 Z " fill="#39A4D6" transform="translate(81,94)"/>
<path d="M0 0 C2.24940295 -0.08119503 4.49964871 -0.13927819 6.75 -0.1875 C8.00296875 -0.22230469 9.2559375 -0.25710937 10.546875 -0.29296875 C14.14109357 0.01197061 15.44725126 0.54394629 18 3 C16.33388095 3.042721 14.66617115 3.04063832 13 3 C12.67 2.67 12.34 2.34 12 2 C9.98405418 1.76572222 7.961526 1.58663876 5.9375 1.4375 C4.83277344 1.35371094 3.72804688 1.26992187 2.58984375 1.18359375 C1.73519531 1.12300781 0.88054687 1.06242187 0 1 C0 0.67 0 0.34 0 0 Z " fill="#D2F5FC" transform="translate(120,96)"/>
<path d="M0 0 C3.3 0.33 6.6 0.66 10 1 C10.33 3.31 10.66 5.62 11 8 C10.113125 7.21625 9.22625 6.4325 8.3125 5.625 C5.69279481 3.42843009 3.28284399 2.06209659 0 1 C0 0.67 0 0.34 0 0 Z " fill="#3CA6D1" transform="translate(54,55)"/>
<path d="M0 0 C3.3 0 6.6 0 10 0 C10 0.99 10 1.98 10 3 C6.7 2.67 3.4 2.34 0 2 C0 1.34 0 0.68 0 0 Z " fill="#DFFCFE" transform="translate(198,107)"/>
<path d="M0 0 C-0.49360009 4.27786748 -1.04783565 7.09567131 -3 11 C-3 7.7 -3 4.4 -3 1 C-1 0 -1 0 0 0 Z " fill="#36A6D3" transform="translate(76,131)"/>
<path d="M0 0 C2.97 0 5.94 0 9 0 C6.42544302 2.57455698 4.52404278 2.41265954 1 3 C0.34 3.66 -0.32 4.32 -1 5 C-0.67 3.35 -0.34 1.7 0 0 Z " fill="#C8F6FE" transform="translate(176,61)"/>
<path d="M0 0 C0.33 0 0.66 0 1 0 C1.08131463 1.43655854 1.13933559 2.8744483 1.1875 4.3125 C1.23970703 5.51326172 1.23970703 5.51326172 1.29296875 6.73828125 C0.93801608 9.47851584 0.10633718 10.29171079 -2 12 C-1 3.42857143 -1 3.42857143 0 0 Z " fill="#45ACD5" transform="translate(104,128)"/>
<path d="M0 0 C3 1 3 1 4.1875 3.0625 C4.455625 3.701875 4.72375 4.34125 5 5 C3.35 5 1.7 5 0 5 C-0.33 4.01 -0.66 3.02 -1 2 C-0.67 1.34 -0.34 0.68 0 0 Z " fill="#34A8D8" transform="translate(157,183)"/>
<path d="M0 0 C0.99 0 1.98 0 3 0 C1.25 5.75 1.25 5.75 -1 8 C-1.125 2.25 -1.125 2.25 0 0 Z " fill="#38A8D7" transform="translate(121,154)"/>
<path d="M0 0 C1.88343932 3.76687864 2.22057835 5.02958963 2 9 C1.01 9 0.02 9 -1 9 C-0.67 6.03 -0.34 3.06 0 0 Z " fill="#4BB3D5" transform="translate(101,140)"/>
<path d="M0 0 C0.33 0 0.66 0 1 0 C1 3.3 1 6.6 1 10 C0.34 10 -0.32 10 -1 10 C-1.33 10.66 -1.66 11.32 -2 12 C-1.33333333 8 -0.66666667 4 0 0 Z " fill="#C8F2FA" transform="translate(76,130)"/>
<path d="M0 0 C0.99 0.495 0.99 0.495 2 1 C2.59355614 3.64860427 2.74209269 6.29197322 3 9 C1.5 7.875 1.5 7.875 0 6 C-0.1875 2.8125 -0.1875 2.8125 0 0 Z " fill="#BDECFA" transform="translate(229,108)"/>
<path d="M0 0 C0.99 0.33 1.98 0.66 3 1 C2.34 3.97 1.68 6.94 1 10 C0.67 10 0.34 10 0 10 C0 6.7 0 3.4 0 0 Z " fill="#35A5DB" transform="translate(173,60)"/>
<path d="M0 0 C1.60875 0.3403125 1.60875 0.3403125 3.25 0.6875 C3.25 1.0175 3.25 1.3475 3.25 1.6875 C-0.38 2.0175 -4.01 2.3475 -7.75 2.6875 C-3.75 -0.3125 -3.75 -0.3125 0 0 Z " fill="#2AA3D3" transform="translate(195.75,56.3125)"/>
</svg>
