<?xml version="1.0" encoding="UTF-8"?><svg id="Layer_2" xmlns="http://www.w3.org/2000/svg" viewBox="0 0 449.52 449.52"><defs><style>.cls-1{fill:#fefefe;}.cls-2{fill:#2e70eb;}</style></defs><g id="Layer_1-2"><rect class="cls-2" width="449.52" height="449.52" rx="24.49" ry="24.49"/><g><rect class="cls-1" x="26.15" y="140.17" width="397.21" height="169.18" rx="16.4" ry="16.4"/><g><path class="cls-2" d="M362.19,230.75c2.77-8.46,5.45-16.52,8.01-24.63,.48-1.54,1.17-2.08,2.78-2.01,3.15,.13,6.31,.04,9.82,.04-1.56,4.17-3.02,8.08-4.5,11.99-4.35,11.45-8.49,22.98-13.13,34.3-3.58,8.72-11.36,11.31-19.81,10.03-.98-.15-1.53-.54-1.47-1.59,.03-.58,0-1.16,0-1.74,.01-1.66-.5-3.59,.18-4.91,.91-1.76,2.95-.23,4.5-.38,5.78-.58,9.4-6.32,7.26-11.67-4.46-11.14-8.94-22.27-13.4-33.41-1.05-2.61-1.04-2.62,1.86-2.62,2.49,0,5,.1,7.48-.04,1.46-.08,2.04,.5,2.44,1.79,2.53,8.19,5.73,16.17,7.99,24.84Z"/><path class="cls-2" d="M226.15,238.27c-3.48,4.7-8.12,6.15-13.48,5.92-7.84-.34-12.19-5.01-11.86-12.83,.24-5.76,2.69-8.91,8.23-10.77,4.42-1.49,8.99-1.54,13.56-1.53,2.19,0,2.7-.87,2.42-2.84-.38-2.62-2-4.23-4.81-4.52-3.58-.36-6.94,.57-10.15,1.99-1.53,.68-2.4,.55-3.03-1.11-.56-1.47-1.3-2.87-2.05-4.25-.55-1-.52-1.6,.65-2.08,7.36-3.03,14.87-4.21,22.57-1.51,4.91,1.72,7.56,5.48,7.7,10.55,.24,8.87,.11,17.75,.13,26.63,0,.41,.07,1.11-.11,1.19-2.05,.9-4.23,.22-6.34,.44-1,.1-1.49-.33-1.8-1.26-.41-1.24-.96-2.42-1.61-4.03Z"/><path class="cls-2" d="M99.26,209c5.04-6.05,11.42-6.66,18.22-4.67,5.24,1.53,7.85,5.65,8.02,10.85,.3,8.95,.11,17.92,.18,26.88,0,1.25-.49,1.53-1.62,1.51-2.49-.06-5-.11-7.49,.01-1.53,.07-1.98-.39-1.96-1.94,.08-6.89,.05-13.77,.03-20.66,0-1.07-.04-2.17-.24-3.21-.7-3.58-2.43-5.29-5.43-5.52-3.48-.27-6.29,1.4-7.5,4.55-.87,2.26-1.24,4.64-1.26,7.05-.04,5.89-.09,11.78,0,17.67,.02,1.64-.45,2.16-2.08,2.07-2.41-.13-4.83-.09-7.24-.01-1.24,.04-1.75-.26-1.74-1.64,.05-12.03,.05-24.06,0-36.1,0-1.28,.35-1.87,1.68-1.7,.41,.05,.83,0,1.25,0q5.26,0,7.18,4.85Z"/><path class="cls-2" d="M256.84,209.01c4.9-5.75,10.95-6.56,17.57-4.88,4.71,1.2,7.47,4.37,8.46,9.1,.74,3.53,.47,7.1,.49,10.66,.03,5.8-.08,11.61,.06,17.4,.05,1.92-.55,2.44-2.38,2.3-2.07-.16-4.16-.16-6.23,0-1.9,.14-2.56-.38-2.51-2.41,.14-6.46,.07-12.93,.03-19.39,0-1.4-.15-2.81-.39-4.19-.57-3.29-2.19-4.96-5.02-5.32-3.19-.42-6.22,1.07-7.49,3.77-1.04,2.2-1.5,4.56-1.51,6.98-.03,6.05-.13,12.1,0,18.15,.04,2.04-.63,2.55-2.53,2.42-2.32-.15-4.65-.08-6.98-.02-1.17,.03-1.6-.34-1.6-1.55,.03-12.1,.03-24.2,0-36.3,0-1.16,.36-1.69,1.56-1.58,.58,.06,1.16,0,1.74,0q4.98,0,6.71,4.86Z"/><path class="cls-2" d="M146.73,244.18c-3.76,.04-7.45-.32-11.04-1.57-1.22-.42-1.73-.99-1.66-2.3,.11-1.82,.1-3.65,0-5.47-.08-1.64,.32-2.02,1.96-1.36,3.78,1.52,7.69,2.65,11.83,2.6,.74,0,1.5-.06,2.22-.22,1.46-.33,2.69-1.05,2.97-2.64,.27-1.56-.82-2.42-1.97-3.16-2.88-1.84-6.12-2.95-9.19-4.4-4.99-2.35-8.19-5.74-7.87-11.7,.29-5.4,3.6-8.94,10.14-10.1,6.11-1.09,12.06-.37,17.86,1.88,1.44,.56,1.72,1.17,1.05,2.52-.74,1.48-1.39,3.01-1.93,4.57-.51,1.46-1.22,1.63-2.61,1.04-2.98-1.27-6.03-2.36-9.37-2.19-1.59,.08-3.41,.03-3.95,1.86-.58,1.97,1.15,2.78,2.54,3.46,3.27,1.6,6.63,3.04,9.92,4.61,4.87,2.33,6.8,6.36,6.37,11.57-.42,5.08-3.34,8.34-8.64,10.03-2.82,.9-5.72,.93-8.62,.97Z"/><path class="cls-2" d="M173.25,224.15c0-3.15-.09-6.31,.04-9.46,.07-1.77-.54-2.3-2.27-2.25-.97,.03-2.69,.81-2.81-.98-.1-1.57-1.02-3.73,1.24-4.59,4.1-1.57,5.86-4.86,6.82-8.76,.45-1.81,1.35-2.45,3.29-2.39,4.84,.15,4.82,.04,4.85,4.84,.03,4.16-.5,3.56,3.53,3.61,2,.02,3.99,.04,5.99,0,1.06-.02,1.56,.38,1.46,1.45,0,.08,0,.17,0,.25q.38,6.65-6.28,6.65-4.71,0-4.71,4.69c0,4.23-.02,8.46,0,12.7,.03,4.44,1.57,5.79,5.97,5.32,.41-.04,.83-.1,1.24-.09,1.31,.03,2.89-1.35,3.73-.48,.97,1.01,.31,2.85,.33,4.33,.05,3.81,.02,3.84-3.71,4.64-3.7,.79-7.42,.96-11.1-.04-4.42-1.2-6.86-4.25-7.31-8.97-.12-1.24-.25-2.48-.27-3.72-.04-2.24-.01-4.48-.01-6.72h-.01Z"/><path class="cls-2" d="M295.06,224.21c0-3.07-.1-6.14,.04-9.21,.08-1.89-.38-2.75-2.46-2.56-.9,.08-2.53,.71-2.61-.92-.08-1.57-1.05-3.74,1.18-4.62,4.05-1.61,5.92-4.79,6.85-8.74,.45-1.92,1.47-2.54,3.5-2.46,4.65,.18,4.65,.05,4.65,4.78,0,.5,.06,1-.01,1.49-.25,1.76,.5,2.32,2.24,2.22,2.24-.13,4.49,.04,6.74-.06,1.44-.06,2.03,.28,2.07,1.9,.14,6.47,.2,6.47-6.26,6.47q-4.77,0-4.77,4.87c0,4.4-.05,8.8,.02,13.19,.06,3.63,1.77,5.06,5.4,4.73,.74-.07,1.49-.11,2.23-.22q3.64-.53,3.64,3.08c0,1-.04,1.99,.01,2.99,.05,.97-.32,1.56-1.26,1.85-4.21,1.29-8.52,1.71-12.8,.78-5.21-1.13-7.8-4.28-8.09-9.6-.18-3.31-.03-6.63-.03-9.95-.09,0-.17,0-.26,0Z"/><path class="cls-2" d="M336.25,216.16c0,8.37-.06,16.75,.05,25.12,.02,1.9-.53,2.45-2.38,2.32-2.32-.16-4.65-.1-6.98-.02-1.26,.04-1.75-.31-1.75-1.65,.04-17.16,.04-34.32,0-51.48,0-1.31,.42-1.73,1.72-1.68,2.49,.08,4.99,.13,7.48-.01,1.66-.09,1.89,.63,1.88,2.04-.05,8.46-.03,16.91-.03,25.37Z"/><path class="cls-2" d="M78.2,223.84c0,5.88-.05,11.76,.03,17.63,.02,1.55-.3,2.22-2.02,2.12-2.48-.15-4.98-.09-7.47-.02-1.19,.03-1.56-.37-1.56-1.55,.03-12.09,.04-24.18,0-36.26,0-1.38,.55-1.65,1.76-1.62,2.49,.07,4.98,.09,7.47,0,1.43-.06,1.83,.43,1.82,1.83-.07,5.96-.03,11.92-.03,17.88Z"/><path class="cls-2" d="M78.7,194.45c-.09,3.37-2.42,5.29-6.23,5.12-3.94-.18-5.81-2-5.74-5.6,.07-3.58,2.19-5.3,6.35-5.17,3.93,.13,5.72,1.93,5.62,5.65Z"/><path class="cls-1" d="M221.58,225.6q3.64-.08,3.43,3.52c-.29,4.76-5.19,8.13-9.78,6.74-1.87-.57-2.95-1.84-3.09-3.75-.16-2.13,.65-3.89,2.51-5.02,2.12-1.3,4.51-1.49,6.93-1.49Z"/></g></g></g></svg>