<?xml version="1.0" encoding="UTF-8"?>
<svg version="1.1" xmlns="http://www.w3.org/2000/svg" width="364" height="364">
<path d="M0 0 C19.47 0 38.94 0 59 0 C59.04527796 20.43742456 59.08206516 40.87480805 59.10362434 61.31227016 C59.11390405 70.80333194 59.12790059 80.29436016 59.15087891 89.78540039 C59.17091463 98.06501908 59.18374041 106.34461345 59.18817699 114.62425572 C59.19076726 119.00168024 59.19678523 123.37903523 59.21146011 127.7564373 C59.2252056 131.89076362 59.22918903 136.0249929 59.22621536 140.1593399 C59.22675805 141.66317081 59.23063316 143.16700553 59.23841095 144.67081642 C59.35741302 168.90273326 56.69081637 194.47835819 39.34741211 212.9296875 C34.13801742 218.15424912 28.03981346 222.65339551 21 225 C33.54 225.33 46.08 225.66 59 226 C59 248.11 59 270.22 59 293 C3.89 293 -51.22 293 -108 293 C-108 227 -108 227 -107 226 C-103.97192956 225.8396444 -100.96414546 225.74039552 -97.93359375 225.68359375 C-97.02497086 225.66281265 -96.11634796 225.64203156 -95.18019104 225.62062073 C-92.26604054 225.55502328 -89.35179696 225.4961932 -86.4375 225.4375 C-84.46678709 225.39432446 -82.49608374 225.35071049 -80.52539062 225.30664062 C-75.68369012 225.19933157 -70.84189563 225.09809325 -66 225 C-66.7331543 224.61763184 -67.46630859 224.23526367 -68.22167969 223.84130859 C-75.49292378 219.97703107 -81.16217407 215.80773405 -87 210 C-87.93972656 209.11248047 -87.93972656 209.11248047 -88.8984375 208.20703125 C-101.29867006 195.49819561 -105.31106942 176.87916627 -108 160 C-94.39829485 157.10849755 -80.77563075 154.33736932 -67.125 151.6875 C-66.43461639 151.55285339 -65.74423279 151.41820679 -65.03292847 151.27947998 C-63.0666343 150.89644289 -61.09973568 150.5165126 -59.1328125 150.13671875 C-57.99730957 149.91717529 -56.86180664 149.69763184 -55.69189453 149.47143555 C-53 149 -53 149 -51 149 C-50.76925781 150.18335938 -50.53851563 151.36671875 -50.30078125 152.5859375 C-47.08517485 169.51824236 -47.08517485 169.51824236 -36 182 C-29.53935481 185.64820827 -22.79050945 185.42522524 -15.6875 183.875 C-9.60141098 182.15841079 -6.84284818 179.63264026 -3.25 174.5 C-0.90321292 169.80642585 -0.86905077 165.24379718 -0.84178162 160.0587616 C-0.83684364 159.37253623 -0.83190566 158.68631086 -0.82681805 157.97929078 C-0.81149765 155.68696118 -0.8030973 153.39465947 -0.79467773 151.10229492 C-0.78509491 149.45625566 -0.7750846 147.81021884 -0.76467896 146.16418457 C-0.73766759 141.69976263 -0.71663764 137.23533016 -0.69667697 132.77087188 C-0.67479416 128.10368292 -0.6474167 123.43652628 -0.62062073 118.7693634 C-0.57072488 109.93326377 -0.52577452 101.09714617 -0.48259836 92.26101142 C-0.43319943 82.20060606 -0.37829115 72.14023312 -0.32291877 62.07985914 C-0.20914642 41.38660154 -0.10302433 20.69331409 0 0 Z " fill="#040000" transform="translate(206,35)"/>
<path d="M0 0 C0.88602905 -0.01283524 1.77205811 -0.02567047 2.68493652 -0.03889465 C3.65451294 -0.04628159 4.62408936 -0.05366852 5.62304688 -0.0612793 C6.62452759 -0.06935104 7.6260083 -0.07742279 8.65783691 -0.08573914 C10.79319516 -0.09961545 12.92857592 -0.11032161 15.06396484 -0.11816406 C18.27292048 -0.13513381 21.48077851 -0.17895476 24.68945312 -0.22338867 C34.77268979 -0.29827902 43.96609696 0.03669002 53.70370483 2.72943115 C61.27058291 4.74367974 68.74572875 4.74475299 76.53564453 4.64355469 C78.97301973 4.61442759 81.40822509 4.6230444 83.84570312 4.63598633 C94.49528614 4.62055059 104.45750301 3.55394462 114.74325562 0.63793945 C117.03506816 0.13455057 119.08112893 0.05688772 121.42675781 0.06347656 C122.33989746 0.06359741 123.25303711 0.06371826 124.19384766 0.06384277 C125.62059814 0.07151672 125.62059814 0.07151672 127.07617188 0.0793457 C128.39705811 0.08085632 128.39705811 0.08085632 129.74462891 0.08239746 C133.02703152 0.08762062 136.30941553 0.10158189 139.59179688 0.11450195 C146.93429688 0.13512695 154.27679688 0.15575195 161.84179688 0.17700195 C161.84179688 22.28700195 161.84179688 44.39700195 161.84179688 67.17700195 C106.73179687 67.17700195 51.62179688 67.17700195 -5.15820312 67.17700195 C-5.15820312 0.06497943 -5.15820312 0.06497943 0 0 Z " fill="#51AFFE" transform="translate(103.158203125,260.822998046875)"/>
</svg>
