<?xml version="1.0" encoding="utf-8"?>
<!-- Generator: Adobe Illustrator 28.1.0, SVG Export Plug-In . SVG Version: 6.00 Build 0)  -->
<svg version="1.0" id="katman_1" xmlns="http://www.w3.org/2000/svg" xmlns:xlink="http://www.w3.org/1999/xlink" x="0px" y="0px"
	 viewBox="0 0 841.89 595.28" style="enable-background:new 0 0 841.89 595.28;" xml:space="preserve">
<style type="text/css">
	.st0{fill:#00CAFF;}
	.st1{fill:#1E1E1E;}
</style>
<path class="st0" d="M116.3,314.81h36.3v36.66H79.93v-73.32h36.37V314.81z M116.3,241.49v36.66h36.3v36.66h36.37v-73.32H116.3z"/>
<path class="st1" d="M261.64,345.07h72.67v36.66H225.27V211.16h36.37C261.64,211.16,261.64,345.07,261.64,345.07z M460.38,353.91
	c1.37-0.14,2.8-0.29,4.17-0.5v28.18c-5.82,1.15-11.36,1.65-16.68,1.65c-6.25,0-11.57-1.37-15.81-4.1c-4.31-2.73-6.9-6.68-7.83-11.72
	c-2.52,5.1-7.04,8.98-13.51,11.86c-6.47,2.88-14.16,4.24-23.07,4.24c-8.27,0-15.67-1.58-22.14-4.6
	c-6.47-3.09-11.57-7.33-15.24-12.87c-3.67-5.53-5.53-11.64-5.53-18.26c0-10.85,3.67-19.55,11-26.09
	c7.33-6.54,17.97-10.78,31.91-12.65l22.5-3.09c2.8-0.5,4.96-1.44,6.47-2.95c1.51-1.44,2.23-3.52,2.23-6.04
	c0-3.81-1.87-7.04-5.53-9.7s-8.63-4.03-14.38-4.03s-10.71,1.58-14.66,4.74c-3.95,3.16-6.11,7.4-6.4,12.79H344.8
	c0.93-8.98,3.81-16.75,8.48-23.29c4.74-6.54,10.93-11.57,18.69-15.09c7.69-3.52,16.75-5.32,27.03-5.32
	c11.28,0,20.92,2.01,29.11,6.04c8.12,4.03,14.38,9.85,18.76,17.39c4.38,7.55,6.54,16.6,6.54,26.95v36.66c0,3.16,0.5,5.61,1.65,7.33
	l0.14-0.14c1.08,1.8,2.88,2.66,5.39,2.66L460.38,353.91z M419.91,327.31l-26.45,4.53c-4.82,0.65-8.48,2.23-11.14,4.74
	c-2.59,2.52-3.88,5.61-3.88,9.42c0,3.52,1.37,6.33,4.1,8.63c2.73,2.3,6.4,3.45,11.14,3.45c7.98,0,14.3-2.73,19.12-8.12
	c4.82-5.46,7.19-12.15,7.19-19.98v-2.59L419.91,327.31z M518.53,223.23H484.1v35.72h-19.69v28.68h19.69v52.97
	c0,14.09,4.17,24.73,12.65,32.06c8.48,7.33,19.55,11,33.28,11c5.97,0,11.14-0.5,15.67-1.65v-29.54c-4.03,1.15-7.69,1.65-10.78,1.65
	c-4.82,0-8.77-1.58-11.86-4.74c-3.02-3.16-4.6-7.4-4.6-12.79v-48.95h27.24v-28.68h-27.24v-35.72H518.53z M666.31,288.79
	c4.46,9.2,6.61,18.9,6.47,28.97c0,3.67-0.14,7.62-0.5,11.86h-86.33c1.15,6.47,3.59,11.86,7.26,15.96
	c5.39,6.04,12.65,9.13,21.92,9.13c5.82,0,10.71-1.15,14.88-3.67c4.17-2.44,6.83-5.89,8.05-10.28h34.21
	c-1.29,8.84-4.53,16.46-9.7,22.93c-5.25,6.47-12,11.43-20.34,14.81c-8.27,3.38-17.68,5.1-28.1,5.1c-13.3,0-24.65-3.09-34-9.2
	c-9.34-6.18-16.46-14.09-21.13-23.65c-4.67-9.63-7.04-19.77-7.04-30.55c0-10.78,2.16-20.92,6.47-30.55
	c4.31-9.63,10.93-17.47,20.05-23.58c9.06-6.04,19.84-9.13,33.28-9.13s24.8,3.02,34,8.98l0,0c9.27,5.89,16.03,13.51,20.56,22.71
	V288.79z M635.91,304.67c-0.29-4.31-1.51-8.05-3.52-11.36s-4.74-5.97-8.19-7.83c-3.45-1.87-7.62-2.88-12.43-2.88
	c-5.61,0-10.42,1.37-14.38,4.24s-7.04,7.04-9.13,12.58c-0.65,1.58-1.15,3.38-1.58,5.18l0,0h49.31L635.91,304.67z M755.15,257.16
	L755.15,257.16c-7.33,0-14.52,2.16-21.49,6.54c-6.97,4.38-11.86,9.92-14.66,16.6v-21.28h-34.21V381.8H719V337.3
	c0-11.07,1.51-20.2,4.46-27.31c2.95-7.19,6.83-12.36,11.57-15.6c4.82-3.23,10.06-4.82,15.81-4.82c3.81,0,7.48,0.36,11.28,1.15
	v-33.06c-1.73-0.29-4.03-0.5-7.04-0.5H755.15z"/>
</svg>
