<svg id="logosandtypes_com" xmlns="http://www.w3.org/2000/svg" viewBox="0 0 150 150.2"><style>.st1{fill-rule:evenodd;clip-rule:evenodd;fill:#afafaf}</style><g id="Layer_3_2_"><g id="Layer_2_1_"><path id="Layer_3" d="M0 .2h150v150H0V.2z" fill="none"/></g></g><g id="lever"><g id="Group-copy-6"><path id="Triangle_47_copy_4-copy-2" class="st1" d="M99.8 106.3c1.6-1.5 4.2-1.5 5.8 0l22.3 20.9c1.6 1.5 1.1 2.7-1.2 2.7h-48c-2.3 0-2.8-1.2-1.2-2.7l22.3-20.9z"/><path id="Path-copy-2" d="M18.4 128.9L124.5 22.3c1.2 1.2 2.2 2.5 2.4 3.5L131 46c.5 2.3-.5 5.5-2.2 7.1l-74.5 73.7c-1.7 1.6-4.9 3-7.3 3l-26.9.3c-1.2.1-1.1-.2-1.7-1.2z" fill-rule="evenodd" clip-rule="evenodd" fill="#d9d9d9"/><path id="Path_345_copy_7-copy-2" class="st1" d="M17.9 127v-26.1c0-2.4 1.3-5.6 3-7.3l73.5-74.7c1.6-1.7 4.8-2.6 7.1-2.2l20.2 4.1c1.1.2 2.3.9 3.2 1.8L19 129.9c-.7-.8-1.1-1.8-1.1-2.9z"/></g></g></svg>