<?xml version="1.0" encoding="UTF-8"?><svg id="a" xmlns="http://www.w3.org/2000/svg" xmlns:xlink="http://www.w3.org/1999/xlink" viewBox="0 0 150 150"><defs><style>.e{fill:url(#c);}.f{fill:url(#b);}.g{fill:url(#d);}.h{fill:none;}</style><linearGradient id="b" x1="79.79" y1="61.32" x2="144.09" y2="85.03" gradientTransform="translate(0 151.6) scale(1 -1)" gradientUnits="userSpaceOnUse"><stop offset=".02" stop-color="#b02de9"/><stop offset=".8" stop-color="#6d00cc"/></linearGradient><linearGradient id="c" x1="23.36" y1="72.13" x2="92.48" y2="102.02" gradientTransform="translate(0 151.6) scale(1 -1)" gradientUnits="userSpaceOnUse"><stop offset="0" stop-color="#f0f"/><stop offset=".18" stop-color="#e80df9"/><stop offset=".54" stop-color="#c024ed"/><stop offset=".73" stop-color="#b02de9"/></linearGradient><linearGradient id="d" x1="7.23" y1="50.14" x2="148.92" y2="102.31" gradientTransform="translate(0 151.6) scale(1 -1)" gradientUnits="userSpaceOnUse"><stop offset=".02" stop-color="#f0f"/><stop offset=".09" stop-color="#e80df9"/><stop offset=".23" stop-color="#c024ed"/><stop offset=".3" stop-color="#b02de9"/><stop offset=".42" stop-color="#a42be3"/><stop offset=".63" stop-color="#8527d5"/><stop offset=".85" stop-color="#6021c3"/></linearGradient></defs><path class="h" d="M0,0H150V150H0V0Z"/><path class="f" d="M135.82,121.28h-23.83c-1.82,0-3.29-1.47-3.29-3.29V30.02c.01-1.81,1.48-3.27,3.29-3.28h23.83c1.81,0,3.29,1.46,3.3,3.28V117.99c0,1.81-1.46,3.29-3.28,3.29,0,0,0,0-.01,0h0Z"/><path class="e" d="M25.36,121.61l-21.29-10.72c-1.62-.82-2.28-2.79-1.46-4.42L42.1,27.91c.82-1.62,2.79-2.28,4.42-1.46l21.29,10.7c1.62,.82,2.28,2.79,1.46,4.42L29.77,120.15c-.82,1.62-2.79,2.28-4.42,1.46Z"/><path class="g" d="M88.24,119.84l16.88-85.66c.35-1.78-.8-3.5-2.57-3.86l-23.36-4.72c-1.79-.36-3.52,.8-3.88,2.59h0l-16.88,85.67c-.35,1.78,.8,3.5,2.58,3.86l23.35,4.71c1.78,.36,3.51-.78,3.88-2.56v-.03h0Z"/></svg>