<?xml version="1.0" encoding="UTF-8"?>
<svg id="Layer_1" data-name="Layer 1" xmlns="http://www.w3.org/2000/svg" xmlns:xlink="http://www.w3.org/1999/xlink" viewBox="0 0 150 150">
  <defs>
    <style>
      .cls-1 {
        fill: none;
      }

      .cls-2 {
        fill: url(#linear-gradient);
      }
    </style>
    <linearGradient id="linear-gradient" x1="76" y1="142.63" x2="76" y2="10.04" gradientUnits="userSpaceOnUse">
      <stop offset="0" stop-color="#6364ff"/>
      <stop offset="1" stop-color="#563acc"/>
    </linearGradient>
  </defs>
  <g id="Layer_2" data-name="Layer 2">
    <path class="cls-1" d="M0,0H150V150H0V0Z"/>
  </g>
  <path class="cls-2" d="M137.71,39.39c-1.92-14.24-14.32-25.48-29.05-27.66-2.49-.37-11.89-1.69-33.68-1.69h-.16c-21.81,0-26.48,1.33-28.97,1.69-14.32,2.12-27.38,12.22-30.56,26.62-1.51,7.1-1.67,14.97-1.39,22.19,.39,10.36,.47,20.69,1.41,31.01,.65,6.85,1.8,13.65,3.41,20.34,3,12.34,15.2,22.62,27.15,26.83,12.81,4.37,26.56,5.1,39.76,2.1,1.45-.35,2.88-.73,4.3-1.18,3.2-1.02,6.96-2.16,9.71-4.16,.04-.02,.08-.06,.1-.1,.02-.04,.02-.08,.02-.14v-9.98c0-.06,0-.1-.02-.14-.02-.04-.06-.06-.08-.1-.04-.02-.08-.04-.12-.04-.04-.02-.08-.02-.12,0-8.47,2.02-17.12,3.02-25.81,3-14.95,0-18.97-7.08-20.11-10.04-.92-2.55-1.51-5.22-1.75-7.92,0-.04,.02-.1,.02-.14,.02-.04,.06-.08,.08-.1,.04-.02,.08-.04,.12-.06h.14c8.3,2.02,16.83,3.02,25.38,3.02,2.04,0,4.1,0,6.16-.06,8.59-.22,17.65-.67,26.11-2.33,.2-.04,.41-.08,.59-.12,13.34-2.57,26.03-10.61,27.34-30.97,.04-.8,.16-8.4,.16-9.22,0-2.84,.92-20.05-.14-30.64Zm-21.13,51.41h-14.01V56.44c0-7.24-3.02-10.93-9.14-10.93-6.75,0-10.12,4.37-10.12,12.99v18.79h-13.95v-18.79c0-8.63-3.37-12.99-10.12-12.99-6.1,0-9.14,3.69-9.14,10.93v34.35h-14.01V55.4c0-7.24,1.86-12.99,5.55-17.24,3.79-4.26,8.79-6.45,14.99-6.45,7.18,0,12.61,2.77,16.22,8.28l3.51,5.85,3.49-5.85c3.61-5.51,9.04-8.28,16.2-8.28,6.2,0,11.2,2.18,15.01,6.45,3.69,4.24,5.55,10,5.53,17.24v35.39Z"/>
</svg>