<svg width="500" height="500" viewBox="0 0 500 500" fill="none" xmlns="http://www.w3.org/2000/svg">
<rect width="500" height="500" rx="67.2813" fill="black"/>
<path d="M370.818 242H313.503C308.018 242 303.571 237.552 303.571 232.064L303.571 132.183C303.571 129.873 301.699 128 299.39 128H272.039C269.729 128 267.857 129.873 267.857 132.183V232.064C267.857 237.552 263.411 242 257.926 242H242.074C236.59 242 232.143 237.552 232.143 232.065V132.183C232.143 129.873 230.271 128 227.961 128H200.61C198.301 128 196.429 129.873 196.429 132.183L196.428 232.064C196.428 237.552 191.982 242 186.497 242H129.182C126.872 242 125 243.873 125 246.183V351.817C125 354.127 126.872 356 129.182 356H192.247C194.556 356 196.429 354.127 196.429 351.817V251.935C196.429 246.448 200.875 242 206.36 242H222.211C227.696 242 232.143 246.448 232.143 251.936V351.817C232.143 354.127 234.015 356 236.324 356H263.675C265.985 356 267.857 354.127 267.857 351.817V251.936C267.857 246.448 272.304 242 277.789 242H293.64C299.125 242 303.571 246.448 303.571 251.935V351.817C303.571 354.127 305.444 356 307.753 356H370.818C373.128 356 375 354.127 375 351.817V246.183C375 243.873 373.128 242 370.818 242Z" fill="white"/>
</svg>
