<?xml version="1.0" encoding="UTF-8"?>
<svg version="1.1" xmlns="http://www.w3.org/2000/svg" width="185" height="185">
<path d="M0 0 C0.87398438 -0.03287109 1.74796875 -0.06574219 2.6484375 -0.09960938 C15.06949393 -0.19948629 25.29823982 6.55004746 35.6875 12.6875 C36.82098877 13.35064209 37.95447754 14.01378418 39.12231445 14.69702148 C41.3625895 16.00981146 43.600866 17.32601925 45.83691406 18.64599609 C48.43441529 20.17769522 51.03892891 21.69593311 53.6484375 23.20703125 C66.09807935 30.45777419 75.70710415 37.88435276 79.875 52.4375 C80.14915466 55.58389282 80.14915466 55.58389282 80.18139648 58.98681641 C80.19738388 60.26900055 80.21337128 61.55118469 80.22984314 62.8722229 C80.23622321 64.26116534 80.24161489 65.65011263 80.24609375 67.0390625 C80.25507556 68.4814767 80.26419765 69.92389002 80.27345276 71.36630249 C80.28990684 74.38729097 80.29763561 77.40816916 80.30053711 80.42919922 C80.30590032 84.26885382 80.34350833 88.10744606 80.38928127 91.94680214 C80.41928169 94.92743543 80.42626567 97.90782075 80.42726326 100.88859177 C80.43142453 102.30217703 80.44369088 103.71576592 80.46478081 105.12919998 C80.62265073 116.62984274 78.81462022 127.16790088 70.625 135.8125 C69.93921875 136.56273437 69.2534375 137.31296875 68.546875 138.0859375 C61.27383421 144.48706404 52.56288822 149.0303018 44.1875 153.8125 C43.02690134 154.47725364 41.86642032 155.14221273 40.70605469 155.80737305 C38.4441238 157.10326429 36.18161212 158.39814243 33.91845703 159.69189453 C31.36440325 161.15679783 28.81797096 162.63308704 26.27734375 164.12109375 C25.64207764 164.49121582 25.00681152 164.86133789 24.35229492 165.24267578 C22.76974129 166.16558974 21.18944247 167.09236731 19.609375 168.01953125 C13.28829709 171.29746165 7.75783188 171.85562754 0.75 171.875 C-0.18054199 171.87814209 -1.11108398 171.88128418 -2.06982422 171.88452148 C-9.79918053 171.75065361 -15.31249716 170.16117987 -22.125 166.4375 C-23.115 166.1075 -24.105 165.7775 -25.125 165.4375 C-25.125 164.7775 -25.125 164.1175 -25.125 163.4375 C-25.78242187 163.20546875 -26.43984375 162.9734375 -27.1171875 162.734375 C-31.03963364 161.04313848 -34.59418641 158.88651004 -38.25 156.6875 C-49.12654752 149.87918746 -49.12654752 149.87918746 -60.70703125 144.50390625 C-68.51439505 141.06059394 -75.26635338 129.46851852 -78.4760437 121.82304382 C-79.9855323 116.27420918 -79.57443423 110.37988322 -79.55859375 104.66796875 C-79.56316273 103.22219092 -79.56847042 101.77641526 -79.57447815 100.3306427 C-79.58338584 97.30717117 -79.58101453 94.28396407 -79.57104492 91.26049805 C-79.55957962 87.41069251 -79.57974007 83.56180761 -79.60896206 79.71212292 C-79.62742892 76.72726259 -79.62701058 73.74261842 -79.62132454 70.75771523 C-79.62117249 69.33972193 -79.6271197 67.92171288 -79.63961601 66.50377464 C-79.73339025 54.11673612 -77.54751174 44.74359967 -69.125 35.4375 C-62.86111055 29.12629898 -56.05630041 24.79946637 -48.25 20.625 C-46.03700342 19.41675004 -43.82477181 18.20709802 -41.61328125 16.99609375 C-40.52225098 16.4016748 -39.4312207 15.80725586 -38.30712891 15.19482422 C-32.85158293 12.18201005 -27.48779684 9.01139217 -22.13916016 5.81323242 C-14.69325311 1.42935957 -8.60451709 0.05563265 0 0 Z M-31.375 63.25 C-38.03873 72.8086291 -39.24021275 82.0463983 -38.125 93.4375 C-35.75339777 104.32288775 -29.19465583 113.09336044 -20.125 119.4375 C-10.10158045 125.44245332 0.78920753 126.03677836 12.0546875 123.80859375 C22.37536845 120.54866195 30.06980306 113.61113589 35.46484375 104.3515625 C40.28524345 94.39029331 40.91938019 84.44078382 38.1875 73.74609375 C34.2318812 62.46198475 26.29631822 54.82325583 15.90234375 49.41015625 C-1.6254416 42.08158319 -19.99953257 49.2145974 -31.375 63.25 Z " fill="#8C32DC" transform="translate(92.125,6.5625)"/>
</svg>
