<svg version="1.1" id="Layer_1" xmlns:x="ns_extend;" xmlns:i="ns_ai;" xmlns:graph="ns_graphs;" xmlns="http://www.w3.org/2000/svg" xmlns:xlink="http://www.w3.org/1999/xlink" x="0px" y="0px" viewBox="0 0 164.5 138" style="enable-background:new 0 0 164.5 138;" xml:space="preserve">
 <style type="text/css">
  .st0{fill:#2481D7;}
 </style>
 <metadata>
  <sfw xmlns="ns_sfw;">
   <slices>
   </slices>
   <sliceSourceBounds bottomLeftOrigin="true" height="138" width="164.5" x="0" y="0">
   </sliceSourceBounds>
  </sfw>
 </metadata>
 <g>
  <path class="st0" d="M147.6,24.6c-6.6,0-12.5,3.3-16.1,8.3l-24.3,34c-0.9,1.3-2.4,2.1-4,2.1c-2.7,0-4.9-2.2-4.9-4.9
		c0-1,0.3-2,0.8-2.7l20.5-30.7c2.1-3.1,3.3-6.9,3.3-11c0-10.9-8.8-19.7-19.7-19.7H0v19.7h88.4c0,5.4-4.4,9.9-9.9,9.9H0
		c0,7,1.5,13.7,4.1,19.7h64.5c0,5.4-4.4,9.9-9.9,9.9H9.9c9,12,23.3,19.7,39.5,19.7h24.3c2.7,0,4.9,2.2,4.9,4.9
		c0,2.7-2.2,4.9-4.9,4.9H49.3l-33,49.3H76c27.3,0,50.5-17.8,58.6-42.4l11.1-33.7c3.6-10.9,10.2-20.5,18.8-27.8
		C161.1,28.4,154.8,24.6,147.6,24.6z M147.6,38.1c-2,0-3.7-1.7-3.7-3.7s1.7-3.7,3.7-3.7s3.7,1.7,3.7,3.7
		C151.3,36.5,149.6,38.1,147.6,38.1z">
  </path>
 </g>
</svg>