<?xml version="1.0" encoding="UTF-8"?>
<!DOCTYPE svg PUBLIC "-//W3C//DTD SVG 1.1//EN" "http://www.w3.org/Graphics/SVG/1.1/DTD/svg11.dtd">
<svg xmlns="http://www.w3.org/2000/svg" version="1.1" width="600px" height="600px" style="shape-rendering:geometricPrecision; text-rendering:geometricPrecision; image-rendering:optimizeQuality; fill-rule:evenodd; clip-rule:evenodd" xmlns:xlink="http://www.w3.org/1999/xlink">
<g><path style="opacity:1" fill="#f9f9f9" d="M -0.5,-0.5 C 199.5,-0.5 399.5,-0.5 599.5,-0.5C 599.5,199.5 599.5,399.5 599.5,599.5C 399.5,599.5 199.5,599.5 -0.5,599.5C -0.5,399.5 -0.5,199.5 -0.5,-0.5 Z"/></g>
<g><path style="opacity:1" fill="#0751c8" d="M 496.5,185.5 C 496.833,188.167 497.167,190.833 497.5,193.5C 492.315,212.705 481.982,228.539 466.5,241C 464.33,242.586 461.996,243.92 459.5,245C 435.286,253.568 411.286,262.401 387.5,271.5C 385.839,258.031 384.839,244.364 384.5,230.5C 381.626,214.462 373.626,201.628 360.5,192C 343.407,184.413 326.073,177.413 308.5,171C 301.63,169.533 296.796,172.033 294,178.5C 293.667,216.167 293.333,253.833 293,291.5C 287.373,304.399 277.539,309.566 263.5,307C 212.392,288.945 161.392,270.612 110.5,252C 105.452,248.285 101.952,243.452 100,237.5C 99.3333,173.833 99.3333,110.167 100,46.5C 104.924,33.9061 114.091,28.4061 127.5,30C 239.658,70.1039 351.658,110.104 463.5,150C 480.247,156.578 491.247,168.411 496.5,185.5 Z"/></g>
<g><path style="opacity:1" fill="#6990de" d="M 496.5,185.5 C 498.413,188.04 498.746,190.707 497.5,193.5C 497.167,190.833 496.833,188.167 496.5,185.5 Z"/></g>
<g><path style="opacity:1" fill="#0751c8" d="M 292.5,318.5 C 293.167,363.833 293.833,409.167 294.5,454.5C 295.134,457.643 296.8,460.143 299.5,462C 303.926,462.791 308.259,462.457 312.5,461C 328.487,455.449 344.154,449.116 359.5,442C 373.953,431.945 382.453,418.112 385,400.5C 385.5,361.501 385.667,322.501 385.5,283.5C 415.574,273.465 445.241,262.298 474.5,250C 488.695,239.783 496.862,225.949 499,208.5C 499.667,284.5 499.667,360.5 499,436.5C 495.948,457.88 484.782,473.38 465.5,483C 387.09,511.47 308.757,540.137 230.5,569C 215.736,571.199 206.569,565.032 203,550.5C 202.333,487.167 202.333,423.833 203,360.5C 205.198,353.919 209.364,349.085 215.5,346C 241.012,336.33 266.679,327.163 292.5,318.5 Z"/></g>
<g><path style="opacity:1" fill="#a2bce6" d="M 384.5,230.5 C 384.839,244.364 385.839,258.031 387.5,271.5C 386.791,272.404 385.791,272.737 384.5,272.5C 384.5,258.5 384.5,244.5 384.5,230.5 Z"/></g>
<g><path style="opacity:1" fill="#b4c7ec" d="M 292.5,318.5 C 292.56,317.957 292.893,317.624 293.5,317.5C 294.5,363.162 294.833,408.828 294.5,454.5C 293.833,409.167 293.167,363.833 292.5,318.5 Z"/></g>
</svg>
