<svg version="1.1" id="Layer_1" xmlns:x="ns_extend;" xmlns:i="ns_ai;" xmlns:graph="ns_graphs;" xmlns="http://www.w3.org/2000/svg" xmlns:xlink="http://www.w3.org/1999/xlink" x="0px" y="0px" viewBox="0 0 51.6 47.8" style="enable-background:new 0 0 51.6 47.8;" xml:space="preserve">
 <style type="text/css">
  .st0{fill-rule:evenodd;clip-rule:evenodd;fill:#276DF6;}
 </style>
 <metadata>
  <sfw xmlns="ns_sfw;">
   <slices>
   </slices>
   <sliceSourceBounds bottomLeftOrigin="true" height="47.8" width="51.6" x="0" y="30.8">
   </sliceSourceBounds>
  </sfw>
 </metadata>
 <g>
  <path class="st0" d="M33.8,0l-6,12.6c-0.2-0.3-0.3-0.4-0.5-0.7c-0.9-0.9-2-1.7-3.2-2.2s-2.5-0.8-3.9-0.8c-2,0-3.8,0.5-5.5,1.6
		c-1.6,1.1-2.9,2.5-3.7,4.3L0,39.5l17.8,8.3l6-12.5c0.2,0.3,0.2,0.4,0.5,0.7c0.9,0.9,2,1.7,3.3,2.2c1.2,0.5,2.5,0.8,3.9,0.8
		c2,0,3.8-0.5,5.4-1.6s2.8-2.5,3.7-4.3l11-24.9L33.8,0z">
  </path>
 </g>
</svg>