<?xml version="1.0" encoding="utf-8"?>
<!-- Generator: Adobe Illustrator 26.5.0, SVG Export Plug-In . SVG Version: 6.00 Build 0)  -->
<svg version="1.0" id="katman_1" xmlns="http://www.w3.org/2000/svg" xmlns:xlink="http://www.w3.org/1999/xlink" x="0px" y="0px"
	 viewBox="0 0 1190.55 841.89" style="enable-background:new 0 0 1190.55 841.89;" xml:space="preserve">
<style type="text/css">
	.st0{fill:#1E4637;}
</style>
<path class="st0" d="M999.23,343.24c-18.11,0-32.28,10.22-38.06,26.22l-4.19-23.08h-45.14v135.34h54.58v-78.94
	c0-17.32,5.78-25.97,14.97-25.97c11.02,0,15.48,15.21,9.97,36.72l49.59-20.19C1041.99,362.13,1026.26,343.24,999.23,343.24z
	 M816.56,365.55c12.08,0,21.52,13.11,26.24,28.33l-36.21,20.19c-2.89-9.97-4.72-19.93-4.72-27.54
	C801.87,373.16,807.37,365.55,816.56,365.55z M860.91,424.03c1.83,16.79-4.19,35.4-18.11,35.4c-11.8,0-22.56-13.11-29.92-29.37
	l82.93-33.57c-6.04-30.68-33.34-53.76-70.59-53.76c-39.89,0-73.74,26.5-73.74,71.34c0,42.75,30.7,71.34,76.38,71.34
	c46.72,0,68.77-30.15,73.23-57.18L860.91,424.03z M739.67,440.03c-4.72,13.11-12.33,21.25-20.73,21.25
	c-7.08,0-11.55-4.46-11.55-14.96v-71.87h36.21l8.93-28.07h-45.14v-36.72h-14.97c-7.61,22.55-25.98,38.29-44.61,38.55
	c3.15,9.97,4.19,18.1,4.19,30.94v61.37c0,28.86,20.48,44.86,54.07,44.86c23.88,0,42.53-8.14,50.65-20.19L739.67,440.03z
	 M639.93,436.88c0-25.71-16.01-36.72-38.57-42.75l-35.7-9.44c-6.04-1.57-8.93-5.25-8.93-9.18c0-6.82,7.08-10.75,20.2-10.75
	c17.59,0,32.81,8.39,39.1,24.65l20.99-25.44c-12.86-12.07-37.53-21.25-64.83-21.25c-38.06,0-64.3,18.36-64.3,47.73
	c0,21.25,13.65,35.15,42.53,42.75l28.87,7.61c6.57,1.83,9.97,5.5,9.97,10.75c0,6.29-6.29,10.75-19.69,10.75
	c-21.77,0-45.14-11.79-54.86-32.79l-13.38,35.15c15.48,12.58,42,20.72,69.28,20.72C613.16,485.4,639.93,465.74,639.93,436.88z
	 M446.51,450L416.85,346.4h-58.52l43.31,133.24h34.38c-7.61,13.64-18.9,19.68-35.7,19.68c-14.18,0-25.98-4.72-34.38-12.07v36.46
	c7.36,5.78,18.63,9.18,32.81,9.18c30.17,0,46.46-13.37,59.3-47.47l52.5-139.01h-33.85L446.51,450z M253.36,461
	c20.73,0,35.96-15.21,35.96-36.19c0-20.97-15.22-36.19-35.96-36.19c-20.73,0-35.96,15.21-35.96,36.19
	C217.4,445.79,232.63,461,253.36,461z M253.36,308.11c61.15,0,104.45,36.72,104.45,88.65c0,51.93-43.31,88.65-104.45,88.65
	s-104.45-36.72-104.45-88.65C148.89,344.83,192.21,308.11,253.36,308.11z"/>
</svg>
