<!-- created by svgstack.com | Attribution is required. --><svg width="160" height="201" viewBox="0 0 160 201" fill="none" xmlns="http://www.w3.org/2000/svg"><g clip-path="url(#clip0_106_2077)"><path fill-rule="evenodd" clip-rule="evenodd" d="M32.1544 10.6943V21.1134L66.7289 21.8645C100.044 22.5879 101.669 22.8305 111.352 28.5241C143.805 47.6007 140.646 99.6134 106.159 113.996C100.167 116.496 90.2374 117.296 65.2012 117.296H32.1544V158.786V200.275H43.8565H55.5587V169.643V139.011L81.6225 138.156C103.729 137.43 109.301 136.522 118.325 132.165C133.342 124.911 147.861 109.335 153.478 94.4496C162.908 69.4581 156.105 39.0688 137.125 21.3986C118.533 4.09004 105.065 0.275146 62.5587 0.275146H32.1544V10.6943ZM32.1544 36.8368C32.1544 38.2241 30.2395 43.3134 27.8991 48.1475C23.6863 56.8517 11.1204 66.2326 3.67354 66.2326C1.65865 66.2326 0.239502 67.99 0.239502 70.4879C0.239502 73.3581 1.65866 74.7432 4.6012 74.7432C15.7842 74.7432 28.1097 86.4156 30.9948 99.7432C33.1501 109.692 36.848 108.239 41.7289 95.5241C46.3182 83.5666 56.3906 74.7432 65.448 74.7432C69.0331 74.7432 70.4523 73.5368 70.4523 70.4879C70.4523 67.99 69.0331 66.2326 67.0182 66.2326C59.5714 66.2326 47.0055 56.8517 42.7927 48.1475C40.4523 43.3134 38.5374 38.2241 38.5374 36.8368C38.5374 35.4517 37.1012 34.3177 35.3459 34.3177C33.5906 34.3177 32.1544 35.4517 32.1544 36.8368Z" fill="#FDD82F"/></g><defs><clipPath id="clip0_106_2077"><rect width="159.574" height="200" fill="white" transform="translate(0.239502 0.275146)"/></clipPath></defs></svg> 