<?xml version="1.0" encoding="UTF-8"?>
<svg version="1.1" xmlns="http://www.w3.org/2000/svg" width="800" height="800">
<path d="M0 0 C4.2325255 2.82168367 7.01476124 4.79611632 10.375 8.3125 C13.7239276 11.8056698 17.24612994 14.98896062 20.89892578 18.1550293 C24.25907436 21.10560364 27.50091196 24.17828153 30.75 27.25 C37.4495214 33.55708081 44.20304042 39.79812306 51 46 C52.97971935 47.81190208 54.95904849 49.62421515 56.9375 51.4375 C57.43096924 51.88971924 57.92443848 52.34193848 58.43286133 52.80786133 C64.85308359 58.69471449 71.24800757 64.60898979 77.64550781 70.52050781 C83.42124684 75.85697495 89.20049542 81.18935718 95 86.5 C100.80103264 91.81204208 106.58169117 97.14594334 112.35888672 102.48388672 C115.07177585 104.99014104 117.78593292 107.49502145 120.5 110 C123.76235685 113.01102872 127.02443592 116.02235526 130.28515625 119.03515625 C135.51475125 123.86630592 140.74924378 128.6918495 146 133.5 C151.78344764 138.79593938 157.54654483 144.11370386 163.30615234 149.43554688 C165.09530539 151.08802493 166.88543029 152.73944493 168.67578125 154.390625 C169.27398682 154.94242432 169.87219238 155.49422363 170.48852539 156.06274414 C171.64252775 157.12717736 172.79665716 158.19147287 173.95092773 159.25561523 C177.88790795 162.88790795 177.88790795 162.88790795 179 164 C179.33 109.88 179.66 55.76 180 0 C191.55 0 203.1 0 215 0 C215.33 54.12 215.66 108.24 216 164 C222.04111358 158.74753633 222.04111358 158.74753633 227.9296875 153.3515625 C228.57429932 152.74368896 229.21891113 152.13581543 229.88305664 151.50952148 C230.54039795 150.88762939 231.19773926 150.2657373 231.875 149.625 C236.99043571 144.80607718 242.14310466 140.04287635 247.38671875 135.36328125 C251.41221546 131.72288438 255.36547354 128.00590069 259.32788086 124.29711914 C264.20299579 119.73648813 269.11199218 115.2153101 274.0390625 110.7109375 C277.20255728 107.81793526 280.35175926 104.90958228 283.5 102 C287.6584021 98.15758215 291.82409074 94.32338403 296 90.5 C302.35033154 84.68504962 308.67602169 78.84358114 315 73 C321.81626302 66.70153025 328.63829457 60.40974739 335.48291016 54.14208984 C340.78859486 49.28158878 346.07398724 44.39919088 351.35888672 39.51611328 C354.61239388 36.51041862 357.86763876 33.50660606 361.12255859 30.50244141 C363.84399973 27.99053078 366.56501749 25.47816471 369.28515625 22.96484375 C370.37757398 21.95569649 371.47002174 20.94658173 372.5625 19.9375 C373.09407715 19.44644775 373.6256543 18.95539551 374.17333984 18.44946289 C376.90331624 15.92932487 379.63758608 13.41404737 382.37890625 10.90625 C382.92409912 10.40746338 383.46929199 9.90867676 384.03100586 9.39477539 C385.53303361 8.02157832 387.03601704 6.6494268 388.5390625 5.27734375 C389.96769743 3.95528952 391.37326597 2.60542889 392.7109375 1.19140625 C394 0 394 0 396 0 C396 62.37 396 124.74 396 189 C420.42 189 444.84 189 470 189 C470 279.09 470 369.18 470 462 C445.58 462 421.16 462 396 462 C396 517.44 396 572.88 396 630 C391.86526664 627.51915998 388.63825335 625.01324869 385.1875 621.75 C384.11646469 620.75328342 383.04485072 619.75718828 381.97265625 618.76171875 C381.45848145 618.2826709 380.94430664 617.80362305 380.41455078 617.31005859 C376.30907393 613.50785135 372.04269553 609.88747225 367.78515625 606.2578125 C361.24046748 600.67462294 354.77825765 595.03322652 348.43359375 589.22265625 C343.962935 585.13950243 339.38858111 581.18157621 334.78125 577.25390625 C328.23748858 571.67243614 321.77691033 566.03199262 315.43359375 560.22265625 C310.962935 556.13950243 306.38858111 552.18157621 301.78125 548.25390625 C295.23748858 542.67243614 288.77691033 537.03199262 282.43359375 531.22265625 C277.962935 527.13950243 273.38858111 523.18157621 268.78125 519.25390625 C267.58319225 518.2319362 266.3852799 517.20979569 265.1875 516.1875 C264.27846924 515.41176636 264.27846924 515.41176636 263.35107422 514.62036133 C259.60967738 511.4152347 255.93901522 508.14806271 252.3125 504.8125 C248.85984304 501.64169258 245.34469034 498.61964969 241.6875 495.6875 C236.55333211 491.54918364 231.73587373 487.13084779 226.94604492 482.60424805 C226.39021729 482.08000244 225.83438965 481.55575684 225.26171875 481.015625 C224.77662842 480.55446289 224.29153809 480.09330078 223.79174805 479.61816406 C221.26275629 477.33418023 218.61786339 475.18155283 216 473 C215.67 525.47 215.34 577.94 215 632 C203.45 632 191.9 632 180 632 C179.67 580.52 179.34 529.04 179 476 C171.08450397 482.78471088 163.29745216 489.49662972 155.65625 496.5546875 C151.13701153 500.71504527 146.49821391 504.72685535 141.8203125 508.70703125 C136.06321488 513.61125518 130.35353876 518.53926215 124.8125 523.6875 C121.18716792 527.05583447 117.48767607 530.2792202 113.625 533.375 C108.58583594 537.42666217 103.89534229 541.77354616 99.19189453 546.20263672 C94.898737 550.22343643 90.43753649 553.94997081 85.84375 557.625 C82.44364928 560.46464456 79.22413555 563.46388099 76 566.5 C71.94123272 570.32207891 67.85703191 574.01437447 63.5 577.5 C57.80368295 582.06041926 52.52680934 587.01734663 47.20703125 592.00390625 C42.5360668 596.38116714 37.70252459 600.5514289 32.828125 604.69921875 C27.0136386 609.65355493 21.23963576 614.63163227 15.625 619.8125 C8.37068966 626.50431034 8.37068966 626.50431034 5.375 629.1875 C4.76398438 629.73792969 4.15296875 630.28835938 3.5234375 630.85546875 C2 632 2 632 0 632 C0 575.9 0 519.8 0 462 C-24.42 462 -48.84 462 -74 462 C-74 371.91 -74 281.82 -74 189 C-49.58 189 -25.16 189 0 189 C0 126.63 0 64.26 0 0 Z M35 81 C35 116.64 35 152.28 35 189 C73.61 189 112.22 189 152 189 C147.33127538 183.47296921 147.33127538 183.47296921 142.3359375 178.421875 C141.69495117 177.82407227 141.05396484 177.22626953 140.39355469 176.61035156 C139.72743164 175.99643555 139.06130859 175.38251953 138.375 174.75 C137.6727832 174.09741211 136.97056641 173.44482422 136.24707031 172.77246094 C134.16888631 170.84373213 132.08557285 168.92073376 130 167 C129.4337793 166.47792969 128.86755859 165.95585937 128.28417969 165.41796875 C124.8652758 162.26858739 121.43378614 159.1331537 118 156 C116.02028065 154.18809792 114.04095151 152.37578485 112.0625 150.5625 C111.56903076 150.11028076 111.07556152 149.65806152 110.56713867 149.19213867 C104.14691641 143.30528551 97.75199243 137.39101021 91.35449219 131.47949219 C85.57875316 126.14302505 79.79950458 120.81064282 74 115.5 C69.8460747 111.69622448 65.70060553 107.88348085 61.5625 104.0625 C61.0274585 103.5687085 60.49241699 103.07491699 59.94116211 102.56616211 C57.12362017 99.96486683 54.30963286 97.35983674 51.5 94.75 C50.63652954 93.94937134 50.63652954 93.94937134 49.75561523 93.13256836 C48.66542679 92.12160918 47.57631031 91.10949217 46.48852539 90.09594727 C41.17328085 84.36009776 41.17328085 84.36009776 35 81 Z M356.77734375 83.16015625 C355.82832073 84.12524172 354.88182845 85.09282045 353.9375 86.0625 C350.11867342 89.96702255 346.19337909 93.61722491 342.0637207 97.19018555 C338.6703332 100.16607358 335.40325771 103.27353275 332.125 106.375 C327.00956429 111.19392282 321.85689534 115.95712365 316.61328125 120.63671875 C313.24893783 123.67921168 309.93674819 126.77546897 306.625 129.875 C300.12264912 135.96067958 293.57537779 141.99330353 287 148 C285.02006088 149.81165744 283.04107092 151.62434846 281.0625 153.4375 C280.56911133 153.88963867 280.07572266 154.34177734 279.56738281 154.80761719 C275.89256614 158.17719276 272.22575327 161.55535969 268.5625 164.9375 C267.76005859 165.67806641 267.76005859 165.67806641 266.94140625 166.43359375 C264.123796 169.03498451 261.3097171 171.64008501 258.5 174.25 C257.92435303 174.78375244 257.34870605 175.31750488 256.75561523 175.86743164 C255.66542679 176.87839082 254.57631031 177.89050783 253.48852539 178.90405273 C250.92482424 181.27947112 248.327744 183.57307401 245.62109375 185.78515625 C244.75613281 186.51605469 243.89117187 187.24695313 243 188 C243 188.33 243 188.66 243 189 C281.61 189 320.22 189 360 189 C360 153.36 360 117.72 360 81 C358.60294764 80.88384127 358.60294764 80.88384127 356.77734375 83.16015625 Z M-39 224 C-39 290.99 -39 357.98 -39 427 C-26.13 427 -13.26 427 0 427 C-0.1134375 422.48183594 -0.226875 417.96367187 -0.34375 413.30859375 C-0.37998233 410.4142112 -0.4113772 407.52132739 -0.42578125 404.62695312 C-0.44900735 400.04987694 -0.48828704 395.47761001 -0.63427734 390.90258789 C-1.45136768 364.26210997 -1.45136768 364.26210997 4.3828125 356.80908203 C7.5704048 353.53122888 11.03919815 350.90470816 14.87594604 348.43426514 C18.5355611 345.96311403 21.74094182 342.96850351 25 340 C25.52145599 339.5278154 26.04291199 339.0556308 26.58016968 338.56913757 C28.01737117 337.2605397 29.44630615 335.94288103 30.875 334.625 C34.56472196 331.22877865 38.2670673 327.84883673 42 324.5 C45.68830432 321.18998331 49.35070475 317.85290579 53 314.5 C57.45335487 310.40833893 61.93659854 306.35177054 66.4375 302.3125 C69.30600409 299.72384997 72.1547665 297.11414854 75 294.5 C79.45335487 290.40833893 83.93659854 286.35177054 88.4375 282.3125 C91.30600445 279.72384964 94.15472981 277.11410892 97 274.5 C103.09987144 268.89696824 109.25561163 263.35787086 115.421875 257.828125 C119.97050303 253.74305142 124.49731291 249.63564748 129 245.5 C142.70479354 232.91664714 142.70479354 232.91664714 149.125 227.5 C150.07375 226.675 151.0225 225.85 152 225 C152 224.67 152 224.34 152 224 C88.97 224 25.94 224 -39 224 Z M246 224 C249.90870343 228.560154 253.36625634 232.42963071 257.75 236.375 C258.52923828 237.07979492 258.52923828 237.07979492 259.32421875 237.79882812 C260.87903585 239.20348563 262.43890708 240.60232448 264 242 C265.66666667 243.5 267.33333333 245 269 246.5 C269.80179687 247.21929687 270.60359375 247.93859375 271.4296875 248.6796875 C274.34428447 251.31079783 277.23539224 253.96652475 280.125 256.625 C283.36213091 259.6022264 286.61137856 262.55952966 289.9375 265.4375 C294.06755185 269.01802312 298.0660407 272.73579762 302.07519531 276.45019531 C307.00645654 281.01596642 311.99297968 285.51744662 317 290 C322.40337858 294.84470939 327.78364423 299.71209075 333.125 304.625 C336.36217216 307.60218281 339.61137729 310.55952856 342.9375 313.4375 C347.06755185 317.01802312 351.0660407 320.73579762 355.07519531 324.45019531 C360.00645654 329.01596642 364.99297968 333.51744662 370 338 C378.94397437 346.01923389 378.94397437 346.01923389 383.19140625 349.94140625 C383.73104004 350.43914551 384.27067383 350.93688477 384.82666016 351.44970703 C385.87882113 352.42149681 386.92935222 353.39505507 387.97802734 354.37060547 C390.24414525 356.4634007 392.42516507 358.28344338 395 360 C395.39872742 362.78408813 395.39872742 362.78408813 395.43237305 366.37744141 C395.4425647 367.03122269 395.45275635 367.68500397 395.46325684 368.3585968 C395.49348958 370.5230047 395.50266785 372.68697083 395.51171875 374.8515625 C395.52855793 376.35087568 395.54670714 377.85017468 395.56611633 379.34945679 C395.61370562 383.29825407 395.64345685 387.24699388 395.66955566 391.19598389 C395.70454766 395.93263832 395.76158551 400.66907186 395.81494904 405.4055481 C395.89356769 412.60367121 395.94409309 419.80150315 396 427 C408.87 427 421.74 427 435 427 C435 360.01 435 293.02 435 224 C372.63 224 310.26 224 246 224 Z M175.90234375 250.81640625 C175.26989746 251.41211426 174.63745117 252.00782227 173.98583984 252.62158203 C173.3098877 253.26208496 172.63393555 253.90258789 171.9375 254.5625 C167.38336395 258.84818171 162.81799951 263.09146129 158.078125 267.171875 C154.6333138 270.20227282 151.28471699 273.33694015 147.91967773 276.45532227 C143.8252121 280.24680099 139.6914128 283.99110821 135.53515625 287.71484375 C132.63086734 290.33273129 129.75229225 292.97753203 126.875 295.625 C123.63788971 298.60224819 120.3886208 301.55953021 117.0625 304.4375 C112.930891 308.01937309 108.93070073 311.73837958 104.92041016 315.45458984 C100.82306071 319.24887039 96.68589227 322.99546447 92.52734375 326.72265625 C89.66917797 329.29809775 86.83289739 331.89685764 84 334.5 C79.54667383 338.59169207 75.06340112 342.64822977 70.5625 346.6875 C67.69399555 349.27615036 64.84527019 351.88589108 62 354.5 C58.30700957 357.89219324 54.60285464 361.27109943 50.875 364.625 C49.7532541 365.66253969 49.7532541 365.66253969 48.60884666 366.72103977 C46 369 46 369 43.37633705 370.79531002 C39.08614307 373.93518798 36.41347736 376.34819886 35.0966301 381.60887337 C34.64053914 386.09901475 34.76125131 390.58088121 34.86474609 395.08618164 C34.86757024 396.81162348 34.86597684 398.53707732 34.86032104 400.26251221 C34.85746186 404.92611828 34.91608004 409.58713122 34.98606062 414.25013661 C35.04874741 419.13068804 35.0544614 424.01130476 35.0663147 428.89219666 C35.0973458 438.12541052 35.1793369 447.35743461 35.27980959 456.5901255 C35.39174227 467.10508045 35.44660551 477.62009346 35.49676394 488.13549626 C35.60117564 509.75766054 35.77696782 531.3787552 36 553 C37.26728865 552.06221798 38.53281261 551.12205098 39.79760742 550.1809082 C40.85500374 549.39596733 40.85500374 549.39596733 41.9337616 548.59516907 C44.902691 546.30310812 47.60197942 543.77483454 50.3125 541.1875 C54.24595202 537.49102351 58.21806022 533.93556248 62.4375 530.5625 C67.45922225 526.53488871 72.12582761 522.20654144 76.80834961 517.79711914 C81.10144 513.77641955 85.56255492 510.04995606 90.15625 506.375 C93.55635072 503.53535544 96.77586445 500.53611901 100 497.5 C104.05876728 493.67792109 108.14296809 489.98562553 112.5 486.5 C118.19631705 481.93958074 123.47319066 476.98265337 128.79296875 471.99609375 C133.4639332 467.61883286 138.29747541 463.4485711 143.171875 459.30078125 C144.36486315 458.28418244 145.55756205 457.26724412 146.75 456.25 C147.35368408 455.73518066 147.95736816 455.22036133 148.5793457 454.68994141 C152.52484993 451.30898259 156.38126274 447.84905318 160.1875 444.3125 C164.88946059 439.9571987 169.71617798 435.87430129 174.72265625 431.875 C175.47417969 431.25625 176.22570312 430.6375 177 430 C177.53452947 429.61392673 178.06905893 429.22785345 178.61978626 428.83008099 C180.78496216 425.95918706 180.36821595 423.39352923 180.36076355 419.84370422 C180.36332682 419.11018508 180.3658901 418.37666593 180.36853105 417.62091893 C180.37348323 415.15631866 180.35695288 412.69232729 180.34057617 410.2277832 C180.33973021 408.46381647 180.34020444 406.69984868 180.34190369 404.93588257 C180.34276626 400.14066653 180.32509812 395.34567451 180.30418181 390.55051064 C180.28545866 385.54167576 180.28366802 380.53283604 180.28010559 375.52397156 C180.27077228 366.03608416 180.24614112 356.54830017 180.21605712 347.06045836 C180.18255309 336.26012517 180.16603717 325.45978709 180.15097082 314.65941489 C180.11959268 292.43955216 180.06680722 270.21978259 180 248 C178.20783438 248 177.14749397 249.63716853 175.90234375 250.81640625 Z M216 248 C215.83645669 270.95691642 215.71302819 293.91373675 215.6373148 316.87111759 C215.60122478 327.5307316 215.55202393 338.18998359 215.47192383 348.84936523 C215.40213928 358.14042844 215.35698903 367.43122947 215.34138054 376.72254747 C215.33225688 381.6420989 215.3108257 386.5609003 215.2598896 391.48021126 C215.21231835 396.11214997 215.19773056 400.74303094 215.20824623 405.37519073 C215.20632299 407.07355692 215.19243154 408.77195905 215.16556168 410.47011375 C214.76618664 419.34077791 214.76618664 419.34077791 217.51923943 427.52458 C219.25792144 429.29616388 220.92791839 430.64651298 223 432 C224.30324219 433.10408203 224.30324219 433.10408203 225.6328125 434.23046875 C226.86644531 435.19919922 226.86644531 435.19919922 228.125 436.1875 C232.4155987 439.63761155 236.48668488 443.23770252 240.5 447 C244.3745637 450.629669 248.28901565 454.11749417 252.4375 457.4375 C257.45922225 461.46511129 262.12582761 465.79345856 266.80834961 470.20288086 C270.27078844 473.44563261 273.79295976 476.53436781 277.5 479.5 C281.8570342 482.98562736 285.94121533 486.67793667 290 490.5 C294.90960298 495.12294958 299.94478543 499.46601179 305.2109375 503.68359375 C309.63734163 507.35986497 313.80801112 511.30426372 318.015625 515.2265625 C322.63353761 519.53105514 327.40761607 523.64312405 332.2109375 527.73828125 C333.41157252 528.76288704 334.61208993 529.78763067 335.8125 530.8125 C336.41578125 531.3269165 337.0190625 531.84133301 337.640625 532.37133789 C342.33295247 536.38838808 346.89361416 540.52317903 351.40234375 544.74609375 C353.44667872 546.51990018 355.45941369 548.08377694 357.66235352 549.64086914 C358.60172508 550.30645592 358.60172508 550.30645592 359.56007385 550.98548889 C360.03524948 551.32027756 360.51042511 551.65506622 361 552 C361.05569368 528.39952034 361.06757247 504.79939803 361.02334595 481.19888306 C361.00279328 469.65933181 361.00508602 458.12029879 361.03995037 446.58078003 C361.06125899 438.78605743 361.05273164 430.99170982 361.02174091 423.19702148 C361.00436381 418.58890119 361.00084215 413.98173186 361.03103638 409.37365723 C361.05896107 405.04777932 361.04941055 400.72359245 361.01126289 396.39780807 C361.00387257 394.81932297 361.01000513 393.24070459 361.03101921 391.66234207 C361.2989381 383.12484084 361.2989381 383.12484084 358.28198242 375.3526001 C356.2898866 373.32754808 354.29571364 371.66529728 352 370 C350.7625688 368.92611647 349.53213288 367.84405551 348.3125 366.75 C347.65636719 366.18539062 347.00023437 365.62078125 346.32421875 365.0390625 C343.37589578 362.45246655 340.50085394 359.79163286 337.625 357.125 C332.96076165 352.80232453 328.26305663 348.52183195 323.52734375 344.27734375 C320.66917797 341.70190225 317.83289739 339.10314236 315 336.5 C311.35072829 333.14706883 307.68830402 329.81001643 304 326.5 C299.79315673 322.72462783 295.62325147 318.91019552 291.4609375 315.0859375 C288.32332914 312.20577393 285.16979059 309.34468386 282 306.5 C278.3116951 303.18998278 274.64934235 299.852855 271 296.5 C265.69878077 291.63056955 260.35895189 286.80576976 255 282 C249.64103999 277.19422296 244.30181454 272.36878941 239 267.5 C237.48670984 266.11271658 235.97316124 264.72571587 234.45947266 263.33886719 C233.0583206 262.0535012 231.65995783 260.76509666 230.26171875 259.4765625 C229.41222656 258.70054687 228.56273437 257.92453125 227.6875 257.125 C226.94886719 256.44695312 226.21023438 255.76890625 225.44921875 255.0703125 C223.45896354 253.38795961 221.46951764 251.87402555 219.34692383 250.37060547 C218.7193367 249.9252243 218.09174957 249.47984314 217.44514465 249.02096558 C216.96824692 248.68404694 216.49134918 248.3471283 216 248 Z " fill="#20808D" transform="translate(202,84)"/>
</svg>
