<?xml version="1.0" encoding="UTF-8"?>
<svg version="1.1" xmlns="http://www.w3.org/2000/svg" width="178" height="178">
<path d="M0 0 C58.74 0 117.48 0 178 0 C178 58.74 178 117.48 178 178 C119.26 178 60.52 178 0 178 C0 119.26 0 60.52 0 0 Z " fill="#FEFEFE" transform="translate(0,0)"/>
<path d="M0 0 C3.12296623 1.57510862 4.72174046 3.62654799 6.86328125 6.37890625 C7.61867188 7.3328125 8.3740625 8.28671875 9.15234375 9.26953125 C11.01389481 11.82132034 12.66906966 14.3902822 14.23828125 17.12890625 C12.91828125 18.44890625 11.59828125 19.76890625 10.23828125 21.12890625 C6.44306815 19.63792967 4.62785394 17.37189776 2.23828125 14.12890625 C1.24828125 18.08890625 0.25828125 22.04890625 -0.76171875 26.12890625 C-2.74171875 26.12890625 -4.72171875 26.12890625 -6.76171875 26.12890625 C-7.09171875 25.79890625 -7.42171875 25.46890625 -7.76171875 25.12890625 C-7.67153879 22.93840604 -7.51505667 20.75044025 -7.32421875 18.56640625 C-7.22238281 17.36886719 -7.12054688 16.17132813 -7.015625 14.9375 C-6.93183594 14.01066406 -6.84804687 13.08382812 -6.76171875 12.12890625 C-7.31601563 12.48984375 -7.8703125 12.85078125 -8.44140625 13.22265625 C-9.16585937 13.68671875 -9.8903125 14.15078125 -10.63671875 14.62890625 C-11.35601562 15.09296875 -12.0753125 15.55703125 -12.81640625 16.03515625 C-14.76171875 17.12890625 -14.76171875 17.12890625 -16.76171875 17.12890625 C-19.76171875 12.74429087 -19.76171875 12.74429087 -19.76171875 10.12890625 C-17.21497172 8.13289799 -14.35876782 6.58299241 -11.57421875 4.94140625 C-10.80529297 4.46509766 -10.03636719 3.98878906 -9.24414062 3.49804688 C-3.63241499 0.16954695 -3.63241499 0.16954695 0 0 Z " fill="#2A2728" transform="translate(88.76171875,98.87109375)"/>
<path d="M0 0 C3.91915952 1.46968482 5.83784477 4.15885648 8.40625 7.37109375 C8.89996094 7.96148437 9.39367187 8.551875 9.90234375 9.16015625 C12.02389034 11.74088689 13.59159173 13.80211894 14.65625 16.99609375 C13.33625 18.31609375 12.01625 19.63609375 10.65625 20.99609375 C6.8610369 19.50511717 5.04582269 17.23908526 2.65625 13.99609375 C1.66625 17.95609375 0.67625 21.91609375 -0.34375 25.99609375 C-2.65375 25.66609375 -4.96375 25.33609375 -7.34375 24.99609375 C-7.43323558 20.52181451 -7.20118651 16.39045586 -6.34375 11.99609375 C-7.41625 12.67671875 -8.48875 13.35734375 -9.59375 14.05859375 C-13.00532733 16.03080377 -13.00532733 16.03080377 -15.78125 15.74609375 C-16.296875 15.49859375 -16.8125 15.25109375 -17.34375 14.99609375 C-17.67375 13.34609375 -18.00375 11.69609375 -18.34375 9.99609375 C-15.36198491 7.96768212 -12.35981262 5.97313001 -9.34375 3.99609375 C-8.69019531 3.55910156 -8.03664063 3.12210938 -7.36328125 2.671875 C-4.87479541 1.10627133 -2.98173884 -0.00496956 0 0 Z " fill="#282526" transform="translate(100.34375,30.00390625)"/>
<path d="M0 0 C4.3416747 0.88464759 6.26145274 4.01518401 8.953125 7.36328125 C9.49453125 8.00587891 10.0359375 8.64847656 10.59375 9.31054688 C12.89954192 12.09190837 14.54766422 14.08439891 15.703125 17.55078125 C13.723125 18.87078125 11.743125 20.19078125 9.703125 21.55078125 C7.723125 19.24078125 5.743125 16.93078125 3.703125 14.55078125 C1.89995279 18.51776011 1.21109509 22.23303545 0.703125 26.55078125 C-1.606875 26.22078125 -3.916875 25.89078125 -6.296875 25.55078125 C-6.37342036 21.03460526 -6.39916196 16.95992908 -5.296875 12.55078125 C-5.83957031 12.85113281 -6.38226563 13.15148437 -6.94140625 13.4609375 C-8.01455078 14.03134766 -8.01455078 14.03134766 -9.109375 14.61328125 C-9.81707031 14.99613281 -10.52476563 15.37898438 -11.25390625 15.7734375 C-13.296875 16.55078125 -13.296875 16.55078125 -16.296875 15.55078125 C-17.484375 12.98828125 -17.484375 12.98828125 -18.296875 10.55078125 C-17.39324219 9.99648437 -16.48960938 9.4421875 -15.55859375 8.87109375 C-14.36716921 8.13935269 -13.17576397 7.40758021 -11.984375 6.67578125 C-11.38947266 6.31097656 -10.79457031 5.94617188 -10.18164062 5.5703125 C-1.83215396 0.43934304 -1.83215396 0.43934304 0 0 Z " fill="#282627" transform="translate(93.296875,65.44921875)"/>
<path d="M0 0 C1.54074107 2.73929378 3.05392858 5.49287839 4.5625 8.25 C5.21895508 9.41595703 5.21895508 9.41595703 5.88867188 10.60546875 C6.29794922 11.35957031 6.70722656 12.11367187 7.12890625 12.890625 C7.51119385 13.58188477 7.89348145 14.27314453 8.28735352 14.98535156 C9.17049598 17.48199138 8.99717083 18.56516951 8 21 C6.14116231 23.34936937 3.89480955 25.29212872 1.6875 27.3125 C1.10548828 27.87517578 0.52347656 28.43785156 -0.07617188 29.01757812 C-1.80078125 30.61328125 -1.80078125 30.61328125 -5 33 C-7.01245117 32.89916992 -7.01245117 32.89916992 -9 32 C-9.99 30.68 -10.98 29.36 -12 28 C-9.36 25.69 -6.72 23.38 -4 21 C-9.94 20.01 -9.94 20.01 -16 19 C-15.67 16.36 -15.34 13.72 -15 11 C-11.04 11.33 -7.08 11.66 -3 12 C-3.680625 10.906875 -4.36125 9.81375 -5.0625 8.6875 C-6.22265625 6.82421875 -6.22265625 6.82421875 -7 5 C-6 2 -6 2 -4.0625 0.8125 C-2 0 -2 0 0 0 Z " fill="#282627" transform="translate(133,87)"/>
<path d="M0 0 C3.78496138 1.51398455 4.0072198 2.0144396 6 6 C3.69 7.98 1.38 9.96 -1 12 C2.63 12.66 6.26 13.32 10 14 C10.92538169 17.70152678 11.08174162 18.63458162 10 22 C8.58297487 21.85769192 7.1663904 21.71099254 5.75 21.5625 C4.56664062 21.44068359 4.56664062 21.44068359 3.359375 21.31640625 C1.17635361 21.02365007 -0.8773182 20.57935581 -3 20 C-2.6390625 20.62648438 -2.278125 21.25296875 -1.90625 21.8984375 C-1.4421875 22.71570313 -0.978125 23.53296875 -0.5 24.375 C-0.0359375 25.18710938 0.428125 25.99921875 0.90625 26.8359375 C2 29 2 29 2 31 C-0.64738916 32.4606285 -1.89448334 33 -5 33 C-6.5390224 30.44696285 -8.05595193 27.88460065 -9.5625 25.3125 C-10.00013672 24.59126953 -10.43777344 23.87003906 -10.88867188 23.12695312 C-12.62104887 20.13962586 -13.93937562 17.8487413 -14.1875 14.375 C-12.34925816 10.69851633 -9.51309768 8.35474646 -6.4375 5.6875 C-5.82197266 5.13771484 -5.20644531 4.58792969 -4.57226562 4.02148438 C-3.0571779 2.67082478 -1.52976006 1.33401886 0 0 Z " fill="#282526" transform="translate(50,73)"/>
<path d="M0 0 C0.86931152 0.01047363 1.73862305 0.02094727 2.63427734 0.03173828 C3.57529297 0.03818359 4.51630859 0.04462891 5.48583984 0.05126953 C6.47068359 0.06802734 7.45552734 0.08478516 8.47021484 0.10205078 C9.46279297 0.11107422 10.45537109 0.12009766 11.47802734 0.12939453 C13.93399618 0.15300962 16.38948653 0.18594279 18.84521484 0.22705078 C18.84521484 2.53705078 18.84521484 4.84705078 18.84521484 7.22705078 C15.54521484 7.55705078 12.24521484 7.88705078 8.84521484 8.22705078 C11.15521484 10.86705078 13.46521484 13.50705078 15.84521484 16.22705078 C13.59521484 20.72705078 13.59521484 20.72705078 9.84521484 22.22705078 C9.35150391 21.64955078 8.85779297 21.07205078 8.34912109 20.47705078 C7.70845703 19.73455078 7.06779297 18.99205078 6.40771484 18.22705078 C5.76962891 17.48455078 5.13154297 16.74205078 4.47412109 15.97705078 C3.6678125 15.11080078 3.6678125 15.11080078 2.84521484 14.22705078 C2.51521484 14.22705078 2.18521484 14.22705078 1.84521484 14.22705078 C1.51521484 17.19705078 1.18521484 20.16705078 0.84521484 23.22705078 C-1.79478516 23.22705078 -4.43478516 23.22705078 -7.15478516 23.22705078 C-5.69995459 0.60060704 -5.69995459 0.60060704 0 0 Z " fill="#282526" transform="translate(60.15478515625,46.77294921875)"/>
<path d="M0 0 C6.93998648 2.16163513 13.43117569 4.8936214 20 8 C20.27195445 15.07081565 20.2150072 23.5699856 17 30 C15.02 30 13.04 30 11 30 C9.63115642 25.48281619 10.52924754 22.41225737 12 18 C8.04 19.98 4.08 21.96 0 24 C-3 19 -3 19 -3 17 C-0.8125 15.4921875 -0.8125 15.4921875 2 13.875 C2.928125 13.33617188 3.85625 12.79734375 4.8125 12.2421875 C5.534375 11.83226563 6.25625 11.42234375 7 11 C2.545 9.02 2.545 9.02 -2 7 C-1.125 2.25 -1.125 2.25 0 0 Z " fill="#282526" transform="translate(115,53)"/>
<path d="M0 0 C1.98 0 3.96 0 6 0 C7 1 7 1 7.09765625 3.28515625 C7.08605469 4.20167969 7.07445312 5.11820312 7.0625 6.0625 C7.05347656 6.98160156 7.04445313 7.90070313 7.03515625 8.84765625 C7.02355469 9.55792969 7.01195312 10.26820312 7 11 C7.61488281 10.55527344 8.22976562 10.11054687 8.86328125 9.65234375 C9.67152344 9.08644531 10.47976562 8.52054688 11.3125 7.9375 C12.11300781 7.36902344 12.91351563 6.80054687 13.73828125 6.21484375 C14.48464844 5.81394531 15.23101562 5.41304688 16 5 C16.99 5.33 17.98 5.66 19 6 C20.1875 8.5625 20.1875 8.5625 21 11 C18.36 12.98 15.72 14.96 13 17 C15.98806107 18.49403054 18.89656201 19.79310745 22 21 C21.34 23.31 20.68 25.62 20 28 C17.43471112 27.40615522 14.87324546 26.80038512 12.3125 26.1875 C11.59126953 26.02185547 10.87003906 25.85621094 10.12695312 25.68554688 C9.42119141 25.51474609 8.71542969 25.34394531 7.98828125 25.16796875 C7.02208862 24.94016724 7.02208862 24.94016724 6.03637695 24.70776367 C4 24 4 24 -1 21 C-0.67 14.07 -0.34 7.14 0 0 Z " fill="#2B2829" transform="translate(45,110)"/>
<path d="M0 0 C3.39417765 3.12621626 5.6062718 5.56541027 7 10 C7.66 10 8.32 10 9 10 C9.144375 8.906875 9.28875 7.81375 9.4375 6.6875 C10 3 10 3 11 0 C13.31 0.33 15.62 0.66 18 1 C14.68831169 19.31168831 14.68831169 19.31168831 12 22 C4.96596509 22.32058604 -2.07030839 22.31994126 -9 21 C-9 18.69 -9 16.38 -9 14 C-5.13013042 13.92557943 -1.7264085 13.95297814 2 15 C1.4946875 14.30132812 0.989375 13.60265625 0.46875 12.8828125 C-0.1809375 11.97273437 -0.830625 11.06265625 -1.5 10.125 C-2.1496875 9.22007812 -2.799375 8.31515625 -3.46875 7.3828125 C-5 5 -5 5 -5 3 C-2.5 1.375 -2.5 1.375 0 0 Z " fill="#272425" transform="translate(107,123)"/>
<path d="M0 0 C2.4375 1.5625 2.4375 1.5625 4 4 C4 7.82389746 3.85254277 10.05611336 1.25 12.9375 C-1.49491218 14.23370853 -3.00074212 14.52487013 -6 14 C-8.3125 12.375 -8.3125 12.375 -10 10 C-10.61195145 6.3282913 -10.48706506 4.71186432 -8.375 1.625 C-5.28813568 -0.48706506 -3.6717087 -0.61195145 0 0 Z " fill="#2A2728" transform="translate(84,135)"/>
</svg>
