<?xml version="1.0" encoding="UTF-8"?>
<svg id="katman_1" xmlns="http://www.w3.org/2000/svg" version="1.1" viewBox="0 0 1000 999.84">
  <!-- Generator: Adobe Illustrator 29.3.1, SVG Export Plug-In . SVG Version: 2.1.0 Build 151)  -->
  <defs>
    <style>
      .st0 {
        fill: #fff;
      }

      .st0, .st1 {
        fill-rule: evenodd;
      }
    </style>
  </defs>
  <g id="Layer_2">
    <g id="Layer_1-2">
      <path class="st1" d="M499.94.52c91.87,0,183.76-1.41,275.59.42,82.67,1.64,150,34.4,193.4,107.8,22.64,38.26,30.46,80.67,30.55,124.26.39,180.62,1.16,361.25-.52,541.85-.79,84.06-35.09,152.19-110.4,195.42-37.77,21.68-79.49,29.06-122.28,29.14-180.62.36-361.25.95-541.85-.49-73.65-.59-136.51-28-181.4-89.25-24.03-32.81-36.59-70.11-40.23-110.38-1.61-17.77-2.37-35.69-2.38-53.54-.09-173.61-1.23-347.23.68-520.83C2.1,135.5,40.1,65.1,122.83,23.74,159.07,5.62,198.38.48,238.35.35c87.2-.27,174.39-.08,261.59-.08v.25ZM313,810.19h126.48v-202c21,9.94,40.71,22.46,62.28,29,82.08,24.81,170.36-11.28,216.75-87,34.19-55.86,42.39-117.21,35.75-181-5.32-51-22.59-97.41-56.84-136.83-62-71.32-190.21-89.88-264-8.35-1.27,1.4-2.81,2.56-4.36,3.95-9.6-23-16-31.31-32.13-36-10.85-3.1-22.06-4.76-33.34-4.96-32.74-.64-65.51-.23-98.26-.23h-14.22v125.76h44.89q17,0,17,16.55v481.11Z"/>
      <path class="st0" d="M313.09,810.36v-481.24q0-16.52-17-16.55h-44.95v-125.82h14.35c32.73,0,65.47-.41,98.19.23,11.26.19,22.45,1.85,33.29,4.93,16.09,4.66,22.51,12.94,32.11,36,1.55-1.4,3.08-2.55,4.35-3.95,73.75-81.55,201.9-63,263.83,8.36,34.22,39.42,51.48,85.83,56.78,136.86,6.65,63.82-1.55,125.18-35.72,181.06-46.38,75.76-134.59,111.87-216.6,87.05-21.56-6.52-41.3-19-62.24-29v202.07h-126.39ZM641.14,405.36c0-21.91-3.69-46.85-15.72-69.74-18.43-35.09-47.15-54.14-87.5-53.1-39.94,1-69.73,19.56-85.49,56.18-19.5,45.32-19.51,91.81,1.18,137,16.3,35.58,44.56,55.81,84.45,55.69,40.62-.12,70.44-19.3,88.86-55.6,10.61-20.94,13.96-43.53,14.22-70.4v-.03Z"/>
      <path class="st1" d="M641.15,405.39c-.26,26.87-3.61,49.47-14.22,70.4-18.42,36.3-48.24,55.48-88.86,55.6-39.9.11-68.15-20.12-84.45-55.69-20.69-45.16-20.68-91.64-1.18-137,15.75-36.61,45.55-55.14,85.49-56.17,40.35-1,69.07,18,87.5,53.09,12.03,22.92,15.68,47.86,15.72,69.77Z"/>
    </g>
  </g>
</svg>