<?xml version="1.0" encoding="UTF-8"?>
<svg version="1.1" xmlns="http://www.w3.org/2000/svg" width="200" height="200">
<path d="M0 0 C66 0 132 0 200 0 C200 66 200 132 200 200 C134 200 68 200 0 200 C0 134 0 68 0 0 Z " fill="#35D18B" transform="translate(0,0)"/>
<path d="M0 0 C10.83903171 8.05979281 14.7501161 18.24284057 17.0625 31.25 C17.62890035 35.25292553 17.90678911 39.21095389 18.0625 43.25 C18.08973145 43.91128906 18.11696289 44.57257813 18.14501953 45.25390625 C18.84831658 64.75160047 16.67048302 84.79606062 2.9375 99.8125 C-5.61992908 108.14813826 -15.2165276 109.53251659 -26.57470703 109.57128906 C-36.12180191 109.43664355 -42.44714984 107.24228013 -49.9375 101.25 C-49.9375 112.8 -49.9375 124.35 -49.9375 136.25 C-59.1775 136.25 -68.4175 136.25 -77.9375 136.25 C-77.9375 90.38 -77.9375 44.51 -77.9375 -2.75 C-71.31875666 -4.40468584 -64.67759818 -4.76697631 -57.9375 -3.75 C-55.1703404 -1.4632153 -53.9720762 0.84198427 -52.9375 4.25 C-52.18726562 3.77949219 -51.43703125 3.30898438 -50.6640625 2.82421875 C-35.14919072 -6.61366925 -16.44033126 -10.299303 0 0 Z " fill="#FAFEFC" transform="translate(131.9375,34.75)"/>
<path d="M0 0 C1.29808594 -0.00515625 2.59617187 -0.0103125 3.93359375 -0.015625 C9.16492142 0.36729242 11.62086199 1.26456488 15.25 5.0625 C23.19789082 16.01770086 21.85555137 34.28781636 19.99609375 47.17578125 C18.38766402 53.93792297 16.04108223 59.71060329 10.5625 64.25 C3.65952089 67.46068796 -3.38918954 66.9729331 -10.41796875 64.4921875 C-14.47383898 61.99747428 -17.86970989 59.60625157 -19.01399231 54.8576355 C-19.24767348 51.94223196 -19.29531043 49.08098381 -19.26953125 46.15625 C-19.27764328 45.09136353 -19.28575531 44.02647705 -19.29411316 42.92932129 C-19.30255765 40.68351888 -19.29574704 38.4376138 -19.2746582 36.19189453 C-19.25007191 32.76003754 -19.29478452 29.33381487 -19.34570312 25.90234375 C-19.34533266 23.71614111 -19.3409112 21.52993463 -19.33203125 19.34375 C-19.34933792 18.32172485 -19.36664459 17.29969971 -19.38447571 16.2467041 C-19.24873684 9.32050224 -19.24873684 9.32050224 -16.95980835 6.30004883 C-11.57547007 1.53362375 -7.21218607 -0.02859142 0 0 Z " fill="#37D18B" transform="translate(100.4375,54.75)"/>
<path d="M0 0 C6.6 0 13.2 0 20 0 C18.35 1.65 16.7 3.3 15 5 C15.33 5.99 15.66 6.98 16 8 C15.34 8 14.68 8 14 8 C14 7.34 14 6.68 14 6 C13.34 6 12.68 6 12 6 C11.87625 6.61875 11.7525 7.2375 11.625 7.875 C11 10 11 10 9 12 C7.68 11.67 6.36 11.34 5 11 C3.02 15.455 3.02 15.455 1 20 C0.67 20 0.34 20 0 20 C0 13.4 0 6.8 0 0 Z " fill="#42D090" transform="translate(0,0)"/>
<path d="M0 0 C0.69738281 0.00902344 1.39476563 0.01804688 2.11328125 0.02734375 C3.82566958 0.05080112 5.53788004 0.08666896 7.25 0.125 C7.25 0.455 7.25 0.785 7.25 1.125 C6.34636719 1.17398438 5.44273438 1.22296875 4.51171875 1.2734375 C3.33222656 1.34820312 2.15273437 1.42296875 0.9375 1.5 C-0.82013672 1.60441406 -0.82013672 1.60441406 -2.61328125 1.7109375 C-5.90699887 1.91113747 -5.90699887 1.91113747 -8.75 4.125 C-9.74 5.61 -9.74 5.61 -10.75 7.125 C-11.74 7.125 -12.73 7.125 -13.75 7.125 C-15.91189853 10.36784779 -15.99626755 11.22596221 -15.97705078 14.96362305 C-15.97689972 15.9444133 -15.97674866 16.92520355 -15.97659302 17.93571472 C-15.96627045 18.99204605 -15.95594788 20.04837738 -15.9453125 21.13671875 C-15.9424826 22.22008011 -15.93965271 23.30344147 -15.93673706 24.41963196 C-15.92553091 27.88403308 -15.90042534 31.34817685 -15.875 34.8125 C-15.86497077 37.15950148 -15.85584482 39.506507 -15.84765625 41.85351562 C-15.82559016 47.61076507 -15.79210827 53.36786415 -15.75 59.125 C-16.74 58.465 -17.73 57.805 -18.75 57.125 C-19.15786743 55.06463623 -19.15786743 55.06463623 -19.20166016 52.49511719 C-19.2240274 51.53361755 -19.24639465 50.57211792 -19.2694397 49.58148193 C-19.27591522 48.53881165 -19.28239075 47.49614136 -19.2890625 46.421875 C-19.30141937 45.35132874 -19.31377625 44.28078247 -19.32650757 43.17779541 C-19.34610813 40.90813684 -19.35731192 38.63839281 -19.36083984 36.36865234 C-19.37489111 32.90186547 -19.44215089 29.43871448 -19.51171875 25.97265625 C-19.52412109 23.76824521 -19.53333867 21.5638135 -19.5390625 19.359375 C-19.56578033 18.32480164 -19.59249817 17.29022827 -19.62002563 16.2243042 C-19.55397218 9.19560633 -19.55397218 9.19560633 -17.2789917 6.1661377 C-11.81684107 1.33143692 -7.25586325 -0.17831044 0 0 Z " fill="#5CD3A2" transform="translate(100.75,54.875)"/>
<path d="M0 0 C2 1 2 1 3.10620117 2.99780273 C4.31357968 7.05328852 4.30538577 10.82487232 4.30078125 15.03515625 C4.30506638 15.90965927 4.3093515 16.78416229 4.31376648 17.68516541 C4.31949949 19.5351373 4.32001763 21.38513174 4.31567383 23.23510742 C4.31253773 26.02888886 4.33590214 28.82158555 4.36132812 31.61523438 C4.44581659 54.72915865 4.44581659 54.72915865 -2 64 C-2.66 64 -3.32 64 -4 64 C-3.81824219 63.47535156 -3.63648438 62.95070312 -3.44921875 62.41015625 C3.33106544 41.51297267 2.67255769 21.52363426 0 0 Z " fill="#51CA95" transform="translate(147,59)"/>
<path d="M0 0 C0.33 0 0.66 0 1 0 C1 5.28 1 10.56 1 16 C-4.28 16 -9.56 16 -15 16 C-13.04297985 14.6953199 -11.06417543 13.42257633 -9.0625 12.1875 C-4.39579391 8.8541385 -1.8547982 5.40982809 0 0 Z " fill="#F5FDFA" transform="translate(199,184)"/>
<path d="M0 0 C1.3046801 1.95702015 2.57742367 3.93582457 3.8125 5.9375 C7.1458615 10.60420609 10.59017191 13.1452018 16 15 C16 15.33 16 15.66 16 16 C10.72 16 5.44 16 0 16 C0 10.72 0 5.44 0 0 Z " fill="#EDFDF7" transform="translate(0,184)"/>
<path d="M0 0 C5.28 0 10.56 0 16 0 C16 5.28 16 10.56 16 16 C14.6953199 14.04297985 13.42257633 12.06417543 12.1875 10.0625 C8.8541385 5.39579391 5.40982809 2.8547982 0 1 C0 0.67 0 0.34 0 0 Z " fill="#EEFDF7" transform="translate(184,0)"/>
<path d="M0 0 C5.28 0 10.56 0 16 0 C14.04297985 1.3046801 12.06417543 2.57742367 10.0625 3.8125 C5.39579391 7.1458615 2.8547982 10.59017191 1 16 C0.67 16 0.34 16 0 16 C0 10.72 0 5.44 0 0 Z " fill="#EEFDF8" transform="translate(0,0)"/>
<path d="M0 0 C1 2 1 2 0.46875 3.734375 C-2.33041146 9.55843674 -5.84589759 14.31896245 -12.0078125 16.8125 C-13.9375 17.375 -13.9375 17.375 -17 18 C-17 17.34 -17 16.68 -17 16 C-17.99 15.67 -18.98 15.34 -20 15 C-16.62182575 14.15545644 -14.32534757 13.89155081 -11 15 C-11 14.34 -11 13.68 -11 13 C-10.01 13 -9.02 13 -8 13 C-7.67 11.68 -7.34 10.36 -7 9 C-6.01 9 -5.02 9 -4 9 C-4 8.01 -4 7.02 -4 6 C-3.34 6 -2.68 6 -2 6 C-1.855625 5.195625 -1.71125 4.39125 -1.5625 3.5625 C-1 1 -1 1 0 0 Z " fill="#51CF97" transform="translate(199,182)"/>
<path d="M0 0 C2.69082872 0.17635452 5.32851446 0.61835921 8 1 C5.18300458 2.87799695 2.99178875 3.758716 -0.1875 4.8125 C-5.27899277 6.60670955 -9.58598365 8.91398284 -14 12 C-14.66 10.68 -15.32 9.36 -16 8 C-14.68 8.33 -13.36 8.66 -12 9 C-11.67 8.01 -11.34 7.02 -11 6 C-10.34 6.33 -9.68 6.66 -9 7 C-9 6.34 -9 5.68 -9 5 C-8.43410156 4.72285156 -7.86820313 4.44570313 -7.28515625 4.16015625 C-6.55167969 3.79792969 -5.81820312 3.43570312 -5.0625 3.0625 C-3.96615234 2.52302734 -3.96615234 2.52302734 -2.84765625 1.97265625 C-1.03750973 1.13628173 -1.03750973 1.13628173 0 0 Z " fill="#4FCB95" transform="translate(93,28)"/>
<path d="M0 0 C2.56687367 3.8503105 1.83288724 5.58569763 1 10 C0.66355469 9.35546875 0.32710937 8.7109375 -0.01953125 8.046875 C-2.87168099 5.09909105 -5.80448867 5.32976307 -9.6875 5.25 C-10.38939453 5.22035156 -11.09128906 5.19070312 -11.81445312 5.16015625 C-13.54235424 5.08962967 -15.2711832 5.04252932 -17 5 C-15.87890625 3.50390625 -15.87890625 3.50390625 -14 2 C-11.15234375 1.77734375 -11.15234375 1.77734375 -7.9375 1.9375 C-4.80004207 2.12900622 -4.80004207 2.12900622 -2 2 C-1.34 1.34 -0.68 0.68 0 0 Z " fill="#50CE95" transform="translate(76,26)"/>
<path d="M0 0 C2.97 0.495 2.97 0.495 6 1 C6 1.66 6 2.32 6 3 C9.465 2.505 9.465 2.505 13 2 C13.33 2.99 13.66 3.98 14 5 C19.61 5 25.22 5 31 5 C31 5.33 31 5.66 31 6 C9.25294139 6.81128923 9.25294139 6.81128923 1 2 C0.67 1.34 0.34 0.68 0 0 Z " fill="#D9FBF0" transform="translate(86,138)"/>
<path d="M0 0 C0.69738281 0.00902344 1.39476563 0.01804688 2.11328125 0.02734375 C3.82566958 0.05080112 5.53788004 0.08666896 7.25 0.125 C7.25 0.455 7.25 0.785 7.25 1.125 C6.34636719 1.17398438 5.44273438 1.22296875 4.51171875 1.2734375 C3.33222656 1.34820312 2.15273437 1.42296875 0.9375 1.5 C-0.82013672 1.60441406 -0.82013672 1.60441406 -2.61328125 1.7109375 C-5.90699887 1.91113747 -5.90699887 1.91113747 -8.75 4.125 C-9.74 5.61 -9.74 5.61 -10.75 7.125 C-12.4 6.795 -14.05 6.465 -15.75 6.125 C-10.73428116 0.75101553 -7.28348954 -0.17898935 0 0 Z " fill="#55CC98" transform="translate(100.75,54.875)"/>
<path d="M0 0 C0.33 0 0.66 0 1 0 C1.24372825 6.94625504 0.46517399 12.8121893 -3 19 C-3.66 19 -4.32 19 -5 19 C-4.80664062 18.38253906 -4.61328125 17.76507813 -4.4140625 17.12890625 C-2.67003849 11.45651132 -1.21782106 5.80806965 0 0 Z " fill="#64D0A0" transform="translate(148,104)"/>
<path d="M0 0 C2 1 2 1 3.125 2.9375 C4.35835628 7.25424698 4.51414782 11.53901153 4 16 C3.34 16.99 2.68 17.98 2 19 C1.34 12.73 0.68 6.46 0 0 Z " fill="#64D2A1" transform="translate(147,59)"/>
<path d="M0 0 C6.27 0 12.54 0 19 0 C18.67 0.99 18.34 1.98 18 3 C12.06 2.34 6.12 1.68 0 1 C0 0.67 0 0.34 0 0 Z " fill="#58CD9A" transform="translate(106,28)"/>
<path d="M0 0 C0 3.43413515 -0.34474918 3.81954722 -2.625 6.1875 C-5.12763467 8.60075486 -5.75278254 8.97253139 -9.375 9.375 C-10.24125 9.25125 -11.1075 9.1275 -12 9 C-10.00956313 7.67304209 -8.00954842 6.36033335 -6 5.0625 C-3.69114831 3.47516446 -1.85637194 2.06263549 0 0 Z " fill="#D8FDEE" transform="translate(196,191)"/>
<path d="M0 0 C1.08667969 0.11988281 2.17335938 0.23976563 3.29296875 0.36328125 C4.12441406 0.47027344 4.95585938 0.57726562 5.8125 0.6875 C5.8125 1.0175 5.8125 1.3475 5.8125 1.6875 C0.76247778 2.72340199 -4.06166389 2.79001672 -9.1875 2.6875 C-6.51245717 -0.96369882 -4.27917944 -0.5061395 0 0 Z " fill="#45CA8E" transform="translate(68.1875,28.3125)"/>
<path d="M0 0 C8.35010941 2.3107221 8.35010941 2.3107221 11.0625 5.1875 C11.371875 5.785625 11.68125 6.38375 12 7 C11.01 7 10.02 7 9 7 C9 6.34 9 5.68 9 5 C8.01 5 7.02 5 6 5 C6 4.34 6 3.68 6 3 C5.195625 2.87625 4.39125 2.7525 3.5625 2.625 C2.716875 2.41875 1.87125 2.2125 1 2 C0.67 1.34 0.34 0.68 0 0 Z " fill="#58CF9B" transform="translate(182,0)"/>
<path d="M0 0 C3.06081203 2.75473082 4.89882863 4.99574049 6 9 C5.625 11.3125 5.625 11.3125 5 13 C2.79772118 9.69658177 2.02202664 6.81556611 1 3 C0.67 2.01 0.34 1.02 0 0 Z " fill="#5ACE9C" transform="translate(194,7)"/>
<path d="M0 0 C0 3.19131 -0.13209062 4.45285085 -2 7 C-5.125 7.75 -5.125 7.75 -8 8 C-5.33333333 5.33333333 -2.66666667 2.66666667 0 0 Z " fill="#61D4A1" transform="translate(136,132)"/>
<path d="M0 0 C1 2 1 2 0.51171875 3.875 C0.10373047 4.926875 0.10373047 4.926875 -0.3125 6 C-0.57675781 6.70125 -0.84101562 7.4025 -1.11328125 8.125 C-2 10 -2 10 -4 12 C-3.5317879 7.22423661 -2.75668002 3.95523655 0 0 Z " fill="#56D19A" transform="translate(4,8)"/>
<path d="M0 0 C-0.33 2.31 -0.66 4.62 -1 7 C-1.66 7 -2.32 7 -3 7 C-3.33 5.02 -3.66 3.04 -4 1 C-2 0 -2 0 0 0 Z " fill="#4CD197" transform="translate(4,180)"/>
<path d="M0 0 C2.72426311 2.35277269 3.8141763 4.62496331 5 8 C3.68 7.34 2.36 6.68 1 6 C1 5.34 1 4.68 1 4 C0.34 3.67 -0.32 3.34 -1 3 C-0.67 2.01 -0.34 1.02 0 0 Z " fill="#D4F9E9" transform="translate(139,42)"/>
</svg>
