<?xml version="1.0" encoding="UTF-8"?>
<svg version="1.1" xmlns="http://www.w3.org/2000/svg" width="400" height="400">
<path d="M0 0 C0.66 0 1.32 0 2 0 C8.06000009 9.17595758 10.63909929 19.14748633 13.37109375 29.68603516 C13.88217817 31.56649249 14.49668354 33.41860983 15.140625 35.2578125 C19.03734038 52.22623673 16.72811672 71.74118961 10.78173828 87.87695312 C10.08463162 89.77015722 9.45720765 91.6886873 8.83984375 93.609375 C-0.41201637 120.80122193 -22.66826713 139.80145963 -47.36328125 152.765625 C-65.25040388 161.41434363 -83.02842477 163.1446563 -102.5859375 163.046875 C-103.87910889 163.04349121 -105.17228027 163.04010742 -106.50463867 163.03662109 C-109.66978677 163.02784932 -112.8348792 163.01555656 -116 163 C-115.99111755 163.69776047 -115.98223511 164.39552094 -115.9730835 165.11442566 C-115.89234505 171.74727762 -115.83173863 178.37998894 -115.79275131 185.0132246 C-115.77203235 188.42203727 -115.7440101 191.83043799 -115.69824219 195.23901367 C-115.64575252 199.1736121 -115.6269252 203.10805409 -115.609375 207.04296875 C-115.58872986 208.24455124 -115.56808472 209.44613373 -115.54681396 210.68412781 C-115.54270755 226.45366795 -121.14906927 239.44191817 -131.79296875 250.9609375 C-137.82416469 256.53312207 -146.65147738 262 -155 262 C-155 262.66 -155 263.32 -155 264 C-174.47 264 -193.94 264 -214 264 C-214 263.34 -214 262.68 -214 262 C-214.70125 261.814375 -215.4025 261.62875 -216.125 261.4375 C-220.17908325 259.41045837 -222.68760715 256.90824735 -225 253 C-225.87627009 249.32813544 -225.88165674 245.75762376 -225.87158203 241.99438477 C-225.8917337 240.90715622 -225.91188538 239.81992767 -225.93264771 238.69975281 C-225.98953022 235.11321574 -226.00135823 231.52836611 -226.0078125 227.94140625 C-226.02710902 225.43382591 -226.04729504 222.92625228 -226.06832886 220.41868591 C-226.10423802 215.16060547 -226.11563114 209.902949 -226.11181641 204.64477539 C-226.10862146 199.2716158 -226.15062496 193.90105576 -226.23486328 188.52856445 C-226.33548055 182.01659199 -226.37613075 175.50694424 -226.37215805 168.99421501 C-226.3791888 166.52602908 -226.40544903 164.05781333 -226.45215225 161.59005928 C-226.70048412 147.10574118 -226.01264773 137.02792219 -215.92657471 126.06872559 C-215.42049431 125.54588737 -214.91441391 125.02304916 -214.39299774 124.48436737 C-212.49882501 122.4659519 -210.95624713 120.25837806 -209.4140625 117.96484375 C-208.93839844 117.28099609 -208.46273437 116.59714844 -207.97265625 115.89257812 C-207.05024152 114.55440834 -206.12839373 113.21584763 -205.20703125 111.87695312 C-195.69988153 98.21860993 -195.69988153 98.21860993 -188 96 C-181.23942981 95.24545377 -176.13229565 96.71735844 -170 99.4375 C-160.03511268 103.83079749 -160.03511268 103.83079749 -149.44140625 103.22265625 C-148.82136719 102.83980469 -148.20132813 102.45695312 -147.5625 102.0625 C-144.10169492 100 -144.10169492 100 -142 100 C-141.72687988 99.42580322 -141.45375977 98.85160645 -141.17236328 98.26000977 C-139.99594498 95.99218298 -138.68604773 93.94641609 -137.2421875 91.83984375 C-136.70319824 91.0519043 -136.16420898 90.26396484 -135.60888672 89.45214844 C-135.0367041 88.62231445 -134.46452148 87.79248047 -133.875 86.9375 C-133.28605957 86.0805957 -132.69711914 85.22369141 -132.09033203 84.34082031 C-127.82496202 78.15304651 -123.47371074 72.03908181 -119 66 C-117.55779124 64.05033778 -116.1168746 62.09974962 -114.67822266 60.14746094 C-113.71006964 58.83396936 -112.73981015 57.52202688 -111.76708984 56.21191406 C-109.79531209 53.5386316 -107.96386926 50.93737338 -106.30078125 48.0546875 C-105.87152344 47.37664062 -105.44226563 46.69859375 -105 46 C-104.34 46 -103.68 46 -103 46 C-103 45.34 -103 44.68 -103 44 C-97.14775994 39.98703539 -90.88446151 40.26026626 -84 41 C-79.29688275 42.38400162 -74.94006049 44.30985559 -70.5 46.375 C-69.36046875 46.88289063 -68.2209375 47.39078125 -67.046875 47.9140625 C-64.94230316 48.8527213 -62.84205627 49.8011921 -60.74804688 50.76318359 C-56.20073965 52.80979504 -52.59348479 54.30363851 -47.5625 54.375 C-46.65628906 54.40335938 -45.75007812 54.43171875 -44.81640625 54.4609375 C-38.87328926 53.48827758 -35.42563707 49.69405679 -32.07055664 45.02783203 C-31.4168811 44.08593018 -31.4168811 44.08593018 -30.75 43.125 C-30.27747803 42.46226074 -29.80495605 41.79952148 -29.31811523 41.11669922 C-28.34232212 39.74625635 -27.37088305 38.37270293 -26.40380859 36.99609375 C-25.10961385 35.15586136 -23.80277113 33.32576743 -22.48828125 31.5 C-17.28245472 24.26382805 -12.14955373 16.97565285 -7.02172852 9.68408203 C-6.08494971 8.35363925 -5.14576592 7.02488492 -4.20361328 5.69824219 C-3.21847926 4.30826405 -2.24606757 2.90927689 -1.27734375 1.5078125 C-0.85582031 1.01023437 -0.43429687 0.51265625 0 0 Z " fill="#6862E5" transform="translate(321,95)"/>
<path d="M0 0 C1.732145 -0.01485695 1.732145 -0.01485695 3.49928284 -0.03001404 C4.75749344 -0.02551239 6.01570404 -0.02101074 7.31204224 -0.01637268 C8.65788845 -0.02207874 10.00372982 -0.02904392 11.3495636 -0.03717041 C15.0010545 -0.05510679 18.65230509 -0.05393069 22.30382681 -0.04822803 C25.36212034 -0.0451319 28.42036799 -0.05123447 31.47865498 -0.05726677 C38.70684772 -0.07131661 45.93492233 -0.06975146 53.16311646 -0.05836487 C60.58673792 -0.04692772 68.00999626 -0.06088354 75.43356979 -0.08776134 C81.82878226 -0.11003768 88.2238818 -0.11652776 94.61913025 -0.11068493 C98.42861809 -0.10733706 102.23787419 -0.10958187 106.04732895 -0.12693596 C109.64098116 -0.14259062 113.23410509 -0.13824879 116.82773781 -0.11963081 C118.74876901 -0.11428127 120.66982498 -0.12832383 122.59080505 -0.14332581 C148.59002985 0.07280965 173.85977081 13.08192249 192.01956177 31.1103363 C193.09016559 32.19994678 194.15815366 33.29213782 195.22268677 34.38768005 C196.03221802 35.21139099 196.84174927 36.03510193 197.67581177 36.8837738 C203.21630088 42.84092571 203.21630088 42.84092571 203.22268677 47.38768005 C201.76987746 50.2674409 199.85496219 52.76066645 197.91018677 55.32518005 C197.35911255 56.07734802 196.80803833 56.82951599 196.24026489 57.60447693 C195.11172444 59.1443424 193.97743493 60.680011 192.83743286 62.21141052 C190.59002035 65.24035444 188.40638476 68.31269512 186.22268677 71.38768005 C185.41676886 72.51142938 184.61077791 73.63512632 183.80471802 74.7587738 C181.88504694 77.44481063 179.99296602 80.14886246 178.10940552 82.8603363 C177.3117981 84.00405701 177.3117981 84.00405701 176.49807739 85.17088318 C175.46782645 86.64973047 174.44153766 88.13134894 173.41995239 89.61619568 C167.88574903 97.54478907 167.88574903 97.54478907 164.22268677 100.38768005 C158.92106671 101.13621684 154.65339595 99.7846724 149.78518677 97.82518005 C149.0956189 97.56140564 148.40605103 97.29763123 147.69558716 97.02586365 C144.10732084 95.62995195 140.61084239 94.12300148 137.15237427 92.4306488 C127.39299244 87.69673576 118.62987206 84.93019512 107.68362427 88.12986755 C94.72937543 94.00051965 85.96893557 111.0551452 78.04299927 122.37205505 C75.11203849 126.555781 72.12296737 130.69455221 69.10159302 134.8134613 C67.74196296 136.67623928 66.39749294 138.55011403 65.06253052 140.4306488 C64.35225708 141.42709412 63.64198364 142.42353943 62.91018677 143.45018005 C62.27467896 144.34865662 61.63917114 145.24713318 60.98440552 146.1728363 C58.75425959 148.97658961 57.13557748 150.27190528 53.54299927 150.7275238 C49.25220984 150.28834889 45.96489203 148.78333579 42.09768677 146.95018005 C40.70053143 146.30287414 39.30212939 145.65825099 37.90237427 145.0165863 C37.29119751 144.7285614 36.68002075 144.4405365 36.05032349 144.14378357 C29.6374694 141.49075003 22.12522461 141.24151923 15.49612427 143.1884613 C4.79524827 148.00882495 -1.0916755 157.98286344 -7.47799683 167.35935974 C-7.96220093 168.06479919 -8.44640503 168.77023865 -8.94528198 169.49705505 C-9.37091431 170.12579529 -9.79654663 170.75453552 -10.2350769 171.40232849 C-12.21243297 173.94781837 -14.48699335 176.12374953 -16.77731323 178.38768005 C-16.91754845 156.75184547 -17.02331624 135.11608596 -17.08818626 113.47988892 C-17.11910878 103.43353573 -17.16125865 93.38746513 -17.22994995 83.34129333 C-17.28980107 74.58382412 -17.32847405 65.82655958 -17.3418442 57.06889153 C-17.34965833 52.43274977 -17.36798952 47.7971935 -17.41169357 43.16123962 C-17.45252509 38.79446997 -17.46496119 34.428525 -17.45595932 30.06158257 C-17.45760528 28.46201528 -17.46947807 26.86241944 -17.49254608 25.26301765 C-17.69206566 10.71145511 -17.69206566 10.71145511 -12.55414772 4.85977173 C-8.41137655 1.42752242 -5.41444368 0.01314414 0 0 Z " fill="#665FE4" transform="translate(112.77731323242188,40.61231994628906)"/>
</svg>
