<svg xmlns="http://www.w3.org/2000/svg" viewBox="0 0 500 500"><g fill="none" stroke="#92d182" stroke-width="2"><path d="M290.97 310.46q-.72 0-.72-.73V112.97q0-.47-.47-.47H258a.5.5 0 0 0-.5.5v229.74q0 .48.48.48 27.98.1 55.95 0 12.87-.04 19.92-1.19c70.87-11.58 103.43-96.12 56.73-151.15q-30.07-35.42-79.33-33.32-.55.03-.55.58l.2 31.4q0 .58.57.64 1.75.18 2.79.12 29.44-1.61 48.54 18.39c30.85 32.27 17.19 84.51-24.84 98.92-13.9 4.76-32.48 2.98-46.99 2.85M203.84 190.13a.4.4 0 0 1 .41.4v197.1q0 .63.63.63l30.88-.03q1.24 0 1.24-1.24V158.01q0-.48-.48-.48-27.73-.09-55.46-.01-13.37.04-19.95 1.02c-39.81 5.96-71.35 37.72-77.72 77.23-9.74 60.49 39.85 110.94 99.65 107.28q.4-.03.4-.43l.27-30.99a1.23 1.23 0 0 0-1.32-1.24q-6.98.49-14.04-.33c-35.4-4.09-60-38.38-51.89-73.06 6.32-27.04 30.99-47.3 59.04-46.79q14.18.26 28.34-.08" vector-effect="non-scaling-stroke"/></g><path fill="#24a205" d="M480.58 250.52a233.14 233.14 0 0 1-233.14 233.14A233.14 233.14 0 0 1 14.3 250.52 233.14 233.14 0 0 1 247.44 17.38a233.14 233.14 0 0 1 233.14 233.14Zm-189.61 59.94q-.72 0-.72-.73V112.97q0-.47-.47-.47H258a.5.5 0 0 0-.5.5v229.74q0 .48.48.48 27.98.1 55.95 0 12.87-.04 19.92-1.19c70.87-11.58 103.43-96.12 56.73-151.15q-30.07-35.42-79.33-33.32-.55.03-.55.58l.2 31.4q0 .58.57.64 1.75.18 2.79.12 29.44-1.61 48.54 18.39c30.85 32.27 17.19 84.51-24.84 98.92-13.9 4.76-32.48 2.98-46.99 2.85Zm-87.13-120.33a.4.4 0 0 1 .41.4v197.1q0 .63.63.63l30.88-.03q1.24 0 1.24-1.24V158.01q0-.48-.48-.48-27.73-.09-55.46-.01-13.37.04-19.95 1.02c-39.81 5.96-71.35 37.72-77.72 77.23-9.74 60.49 39.85 110.94 99.65 107.28q.4-.03.4-.43l.27-30.99a1.23 1.23 0 0 0-1.32-1.24q-6.98.49-14.04-.33c-35.4-4.09-60-38.38-51.89-73.06 6.32-27.04 30.99-47.3 59.04-46.79q14.18.26 28.34-.08Z"/><path fill="#fff" d="M290.97 310.46c14.51.13 33.09 1.91 46.99-2.85 42.03-14.41 55.69-66.65 24.84-98.92q-19.1-20-48.54-18.39-1.04.06-2.79-.12-.57-.06-.57-.64l-.2-31.4q0-.55.55-.58 49.26-2.1 79.33 33.32c46.7 55.03 14.14 139.57-56.73 151.15q-7.05 1.15-19.92 1.19-27.97.1-55.95 0-.48 0-.48-.48V113a.5.5 0 0 1 .5-.5h31.78q.47 0 .47.47v196.76q0 .73.72.73ZM203.84 190.13q-14.16.34-28.34.08c-28.05-.51-52.72 19.75-59.04 46.79-8.11 34.68 16.49 68.97 51.89 73.06q7.06.82 14.04.33a1.23 1.23 0 0 1 1.32 1.24l-.27 30.99q0 .4-.4.43c-59.8 3.66-109.39-46.79-99.65-107.28 6.37-39.51 37.91-71.27 77.72-77.23q6.58-.98 19.95-1.02 27.73-.08 55.46.01.48 0 .48.48v228.98q0 1.24-1.24 1.24l-30.88.03q-.63 0-.63-.63v-197.1a.4.4 0 0 0-.41-.4Z"/></svg>