<svg xmlns="http://www.w3.org/2000/svg" viewBox="0 0 200 200"><g fill="none" stroke-width="2"><path stroke="#8fb0d7" d="M107.46 63.79c-6.94-3.73-16.41-3.72-24.12-3.66-12.24.1-24.46-.04-36.78.05q-.56.01-.56.57v83.91q0 .6.6.6l23.65-.01q.5-.01.5-.5v-33.21q0-.33.33-.38 7.2-1.09 10.13 4.63 7.63 14.89 15.47 29.57" vector-effect="non-scaling-stroke"/><path stroke="#bec9cf" d="m96.68 145.36 62.3-.1q.52 0 .52-.52V127q0-.51-.5-.51l-32.8.02q-.68 0-.24-.51 1.6-1.92 3.53-3.51c8.47-7 18.62-13.63 24.7-22.54 7.79-11.43 6.29-28.3-6.06-35.88-10.2-6.26-30.03-5.82-40.67-.28" vector-effect="non-scaling-stroke"/><path stroke="#4e7aa6" d="M96.68 145.36q-.63-18.18 11.9-29.65.17-.16.19-.4.02-.42-.18-.21" vector-effect="non-scaling-stroke"/><path stroke="#bec9cf" d="M108.59 115.1q1.15-.09 1.29-.73 9.27-7.73 18.5-15.49c6.01-5.06 12.57-13.89 6.13-20.17-4.9-4.8-12.15-3.53-15.29 2.76q-.94 1.9-1.76 7.26" vector-effect="non-scaling-stroke"/><path stroke="#4e7aa6" d="m117.46 88.73-22.44-.06" vector-effect="non-scaling-stroke"/><path stroke="#bec9cf" d="m95.02 88.67.38-3.52" vector-effect="non-scaling-stroke"/><path stroke="#4e7aa6" d="M95.4 85.15c3.23-8.81 2.98-15.3 12.06-21.36" vector-effect="non-scaling-stroke"/><path stroke="#8fb0d7" d="M95.4 85.15q-.45-5.78-5.57-6.99c-5.71-1.33-12.68-.69-18.56-.87a.5.49 1.1 0 0-.52.49v16.44a.49.49 0 0 0 .48.49c6.31.14 21.25 1.83 23.79-6.04M117.46 88.73q-3.29 15.37-18.03 18.71a.35.35 0 0 0-.03.68q5.89 1.91 9.19 6.98" vector-effect="non-scaling-stroke"/></g><path fill="#fff" d="M0 0h200v200H0V0Zm107.46 63.79c-6.94-3.73-16.41-3.72-24.12-3.66-12.24.1-24.46-.04-36.78.05q-.56.01-.56.57v83.91q0 .6.6.6l23.65-.01q.5-.01.5-.5v-33.21q0-.33.33-.38 7.2-1.09 10.13 4.63 7.63 14.89 15.47 29.57l62.3-.1q.52 0 .52-.52V127q0-.51-.5-.51l-32.8.02q-.68 0-.24-.51 1.6-1.92 3.53-3.51c8.47-7 18.62-13.63 24.7-22.54 7.79-11.43 6.29-28.3-6.06-35.88-10.2-6.26-30.03-5.82-40.67-.28Z"/><path fill="#7d939e" d="M96.68 145.36q-.63-18.18 11.9-29.65.17-.16.19-.4.02-.42-.18-.21 1.15-.09 1.29-.73 9.27-7.73 18.5-15.49c6.01-5.06 12.57-13.89 6.13-20.17-4.9-4.8-12.15-3.53-15.29 2.76q-.94 1.9-1.76 7.26l-22.44-.06.38-3.52c3.23-8.81 2.98-15.3 12.06-21.36 10.64-5.54 30.47-5.98 40.67.28 12.35 7.58 13.85 24.45 6.06 35.88-6.08 8.91-16.23 15.54-24.7 22.54q-1.93 1.59-3.53 3.51-.44.51.24.51l32.8-.02q.5 0 .5.51v17.74q0 .52-.52.52l-62.3.1Z"/><path fill="#1e60ae" d="M107.46 63.79c-9.08 6.06-8.83 12.55-12.06 21.36q-.45-5.78-5.57-6.99c-5.71-1.33-12.68-.69-18.56-.87a.5.49 1.1 0 0-.52.49v16.44a.49.49 0 0 0 .48.49c6.31.14 21.25 1.83 23.79-6.04l22.44.06q-3.29 15.37-18.03 18.71a.35.35 0 0 0-.03.68q5.89 1.91 9.19 6.98.2-.21.18.21-.02.24-.19.4-12.53 11.47-11.9 29.65-7.84-14.68-15.47-29.57-2.93-5.72-10.13-4.63-.33.05-.33.38v33.21q0 .49-.5.5l-23.65.01q-.6 0-.6-.6V60.75q0-.56.56-.57c12.32-.09 24.54.05 36.78-.05 7.71-.06 17.18-.07 24.12 3.66Z"/><path fill="#fff" d="M108.59 115.1q-3.3-5.07-9.19-6.98a.35.35 0 0 1 .03-.68q14.74-3.34 18.03-18.71.82-5.36 1.76-7.26c3.14-6.29 10.39-7.56 15.29-2.76 6.44 6.28-.12 15.11-6.13 20.17q-9.23 7.76-18.5 15.49-.14.64-1.29.73ZM95.4 85.15l-.38 3.52c-2.54 7.87-17.48 6.18-23.79 6.04a.49.49 0 0 1-.48-.49V77.78a.5.49 1.1 0 1 .52-.49c5.88.18 12.85-.46 18.56.87q5.12 1.21 5.57 6.99Z"/></svg>