<svg version="1.1" id="Layer_1" xmlns="http://www.w3.org/2000/svg" xmlns:xlink="http://www.w3.org/1999/xlink" x="0px" y="0px"
	 width="100%" viewBox="0 0 400 400" enable-background="new 0 0 400 400" xml:space="preserve">
<path fill="#FDD501" opacity="1.000000" stroke="none" 
	d="
M273.000000,401.000000 
	C182.028275,401.000000 91.556557,401.000000 1.042415,401.000000 
	C1.042415,267.736603 1.042415,134.473206 1.042415,1.104904 
	C134.221664,1.104904 267.443451,1.104904 400.832611,1.104904 
	C400.832611,134.333160 400.832611,267.666565 400.832611,401.000000 
	C358.473297,401.000000 315.986633,401.000000 273.000000,401.000000 
M310.333435,290.713959 
	C310.533020,290.418915 310.732635,290.123871 310.926117,289.909363 
	C310.926117,289.909363 310.846588,289.895355 311.563202,289.845764 
	C312.703674,288.216309 313.844147,286.586884 315.006348,285.002991 
	C315.006348,285.002991 314.956024,284.998871 315.406250,284.730042 
	C315.581573,284.432922 315.756897,284.135773 315.945038,283.946381 
	C315.945038,283.946381 315.836823,283.954010 316.301239,283.658417 
	C316.449524,283.330597 316.597809,283.002808 316.761658,282.794281 
	C316.761658,282.794281 316.641510,282.788483 317.209045,282.553345 
	C317.465424,282.023499 317.721802,281.493622 318.002899,280.999176 
	C318.002899,280.999176 317.962677,280.983856 318.613434,280.823578 
	C318.897308,280.076141 319.181183,279.328705 319.626831,278.636871 
	C319.626831,278.636871 319.496155,278.526459 320.211090,278.516632 
	C324.454865,276.737854 325.136200,272.826355 325.743561,268.301941 
	C325.642609,268.092102 325.541626,267.882263 325.443451,267.617126 
	C325.443451,267.617126 325.482544,267.577942 326.166321,267.396667 
	C327.428162,263.906036 328.690033,260.415436 329.997406,256.973816 
	C329.997406,256.973816 329.930634,256.970154 330.639130,256.737457 
	C331.345612,253.417603 332.052094,250.097733 332.797394,246.860733 
	C332.797394,246.860733 332.708954,246.884140 333.301117,246.447845 
	C334.525085,239.311829 336.394531,232.216492 336.847229,225.031876 
	C338.019287,206.430588 335.763641,188.035492 331.647339,169.908630 
	C331.316193,168.450455 327.807587,166.402481 326.235077,166.744095 
	C313.118103,169.593582 300.103394,172.917084 287.081055,176.190079 
	C286.279602,176.391510 285.675049,177.376373 284.993774,177.980438 
	C284.993774,177.980438 285.015106,177.985962 284.293427,178.178482 
	C284.053375,179.835434 283.434753,181.541962 283.644043,183.140076 
	C284.278351,187.983307 285.403687,192.762695 286.024994,197.607071 
	C287.067749,205.738083 287.869232,213.900040 288.853180,222.806351 
	C288.759033,223.556213 288.664886,224.306076 287.945801,225.353378 
	C286.402771,232.331787 284.859711,239.310196 283.285278,246.198944 
	C283.285278,246.198944 283.379913,246.190643 282.788391,246.518967 
	C282.518097,247.347229 282.247833,248.175491 281.984650,248.989594 
	C281.984650,248.989594 281.988586,248.974075 281.565521,249.301834 
	C281.471832,249.637726 281.378143,249.973618 281.266571,250.216003 
	C281.266571,250.216003 281.361633,250.221313 280.681366,250.416397 
	C280.127502,251.619675 279.573639,252.822968 278.998779,254.000153 
	C278.998779,254.000153 279.027679,254.016235 278.272766,254.033966 
	C277.680298,255.163849 277.087830,256.293701 276.208435,257.003815 
	C276.297028,257.148041 276.385590,257.292236 275.883545,257.505096 
	C275.569763,257.974579 275.255981,258.444031 274.984192,258.985352 
	C274.984192,258.985352 274.912292,258.943390 274.331329,259.072845 
	C274.031433,259.539124 273.731567,260.005402 273.076996,260.244934 
	C273.076996,260.244934 273.411865,260.500153 272.677368,260.308716 
	C271.143890,261.588684 269.610413,262.868652 268.071747,264.070374 
	C268.071747,264.070374 268.142151,264.104950 267.336334,264.054626 
	C264.453156,264.720978 261.591705,265.816284 258.682251,265.963623 
	C252.776138,266.262695 246.844101,266.049133 240.973053,266.003113 
	C240.973053,266.003113 240.970078,266.069733 240.804428,265.404083 
	C237.880295,263.921783 234.956146,262.439514 232.005386,260.998291 
	C232.005386,260.998291 232.041977,260.964233 232.020233,260.230042 
	C230.673752,259.152802 229.327286,258.075562 228.006119,256.994324 
	C228.006119,256.994324 228.001205,257.019379 228.034225,256.259827 
	C227.005890,255.177017 225.977570,254.094193 225.005615,253.007034 
	C225.005615,253.007034 224.979233,253.057053 224.995712,252.278397 
	C223.309784,248.507263 221.623871,244.736130 219.639404,240.597900 
	C219.461472,240.307632 219.430542,240.002487 219.806000,238.674911 
	C219.856506,233.362381 219.237381,227.936798 220.110840,222.763199 
	C221.501801,214.524445 223.375641,206.283630 226.007584,198.363464 
	C228.264175,191.572906 232.473816,185.432480 234.742050,178.644409 
	C238.503723,167.386948 241.637573,155.901428 244.595505,144.398727 
	C247.640335,132.558075 245.756424,120.693199 243.586990,108.937752 
	C243.319260,107.486893 241.833786,106.260757 240.718521,104.838699 
	C240.718521,104.838699 240.776917,104.632111 240.918304,103.792023 
	C239.912018,101.534218 238.905731,99.276421 237.968796,97.023552 
	C237.968796,97.023552 237.935699,97.084709 238.013596,96.340263 
	C237.305634,95.241890 236.597656,94.143524 235.962006,93.038795 
	C235.962006,93.038795 235.933075,93.105377 235.964935,92.387558 
	C235.199554,91.347008 234.434174,90.306458 233.875824,89.071625 
	C233.875824,89.071625 233.697632,89.292656 233.621231,88.774422 
	C233.391678,88.518661 233.162140,88.262909 232.996033,88.013474 
	C232.996033,88.013474 232.967163,88.070320 232.917587,87.452927 
	C232.515411,87.017838 232.113235,86.582748 231.828140,86.149414 
	C231.828140,86.149414 231.811005,86.265274 231.682663,85.743042 
	C231.430161,85.497116 231.177658,85.251190 230.990555,85.011520 
	C230.990555,85.011520 230.966461,85.072655 230.934708,84.409866 
	C230.234161,83.628853 229.533600,82.847847 228.908981,82.075439 
	C228.908981,82.075439 228.873932,82.143349 228.945892,81.402252 
	C226.871368,79.350380 224.796844,77.298500 222.805878,75.216667 
	C222.805878,75.216667 222.791443,75.304276 222.595093,74.803452 
	C222.296753,74.622261 221.998428,74.441071 221.836731,74.166267 
	C221.836731,74.166267 221.743240,74.302994 221.555527,73.817726 
	C221.255676,73.667473 220.955811,73.517212 220.967484,73.006592 
	C220.967484,73.006592 220.646118,73.359055 220.551010,72.724747 
	C219.870132,72.350296 219.189255,71.975853 218.455948,71.578949 
	C218.455948,71.578949 218.424820,71.531166 218.370132,70.926407 
	C217.876099,70.639671 217.382050,70.352943 216.957855,70.042564 
	C216.957855,70.042564 216.944412,70.115051 216.827057,69.446579 
	C215.890793,68.957634 214.954514,68.468689 213.565002,67.861473 
	C213.263031,67.722923 213.058167,67.496513 212.668442,66.537224 
	C211.321838,65.834465 209.975250,65.131714 208.995773,64.086227 
	C208.878082,64.205551 208.760406,64.324867 208.546982,63.732338 
	C205.692886,62.486774 202.838791,61.241207 200.002563,59.989998 
	C200.002563,59.989998 200.010742,60.006763 199.618668,59.538975 
	C199.048386,59.378811 198.478088,59.218643 197.156662,59.016113 
	C183.178787,53.632133 168.713623,51.992298 154.001984,54.475006 
	C119.351639,60.322529 95.352058,80.629311 80.965874,111.789200 
	C60.988201,155.060013 62.215630,199.671677 76.132889,244.355484 
	C84.531464,271.320618 98.268867,295.610046 115.732559,317.711823 
	C124.149612,328.364319 133.351990,338.396271 142.863312,349.483917 
	C148.977097,343.105835 154.167236,337.525360 159.542801,332.129639 
	C165.011276,326.640686 170.662399,321.333710 176.228592,315.951813 
	C172.177658,311.581390 168.439819,308.184387 165.460602,304.217621 
	C155.800583,291.355408 146.418777,278.284271 136.964386,264.508698 
	C133.815720,258.808807 130.667053,253.108932 127.517586,247.360718 
	C127.517586,247.360718 127.476997,247.334488 127.709427,246.562927 
	C125.784241,242.043335 123.859062,237.523758 121.996010,233.011993 
	C121.996010,233.011993 121.961502,233.064270 122.047424,232.265472 
	C121.268890,230.212769 120.490356,228.160065 119.478203,225.954590 
	C119.478203,225.954590 119.506958,225.676956 119.738411,224.803482 
	C118.303093,216.820572 116.912643,208.829163 115.407120,200.859528 
	C114.907433,198.214417 114.111954,195.625198 113.207695,192.284119 
	C113.230568,191.520721 113.253441,190.757339 113.661674,189.277542 
	C113.531517,184.510269 113.401352,179.742981 113.175743,174.236221 
	C113.242035,173.498230 113.308334,172.760254 113.995277,171.709869 
	C114.342880,168.157166 114.690483,164.604446 114.785843,160.226700 
	C117.566696,150.715881 119.407013,140.794189 123.341591,131.787369 
	C129.773224,117.064400 140.476608,106.110924 156.554871,101.653740 
	C181.514435,94.734489 200.941605,111.201775 197.028122,136.564743 
	C195.708969,145.114014 192.791306,153.689026 189.105087,161.549225 
	C178.384735,184.408432 170.690231,207.836639 171.562195,233.460648 
	C171.655853,236.212616 171.297089,238.979965 171.093323,242.583954 
	C172.088608,246.043213 173.083893,249.502487 174.461639,253.364853 
	C174.566956,253.898697 174.672272,254.432526 174.372635,255.458481 
	C172.208389,259.935211 175.802582,262.208221 177.987488,264.999115 
	C177.987488,264.999115 178.010635,264.967194 177.954102,265.752197 
	C180.001297,269.485443 182.048492,273.218719 184.020050,276.983582 
	C184.020050,276.983582 184.066376,276.915955 184.024399,277.614410 
	C184.698685,278.405304 185.372955,279.196198 185.996231,279.997803 
	C185.996231,279.997803 186.022217,279.952606 185.988861,280.704315 
	C188.334015,283.467072 190.679169,286.229797 192.996414,289.003052 
	C192.996414,289.003052 193.006470,288.974976 193.085617,289.679779 
	C194.735535,291.115723 196.385468,292.551666 197.996338,294.003662 
	C197.996338,294.003662 198.009308,293.963409 198.122314,294.599945 
	C198.791534,295.039948 199.460754,295.479950 200.057175,295.934662 
	C200.057175,295.934662 200.048309,295.860901 200.299606,296.335114 
	C200.595947,296.525757 200.892273,296.716431 201.079559,296.917816 
	C201.079559,296.917816 201.076538,296.808289 201.352646,297.268585 
	C201.666168,297.424683 201.979691,297.580750 202.099380,298.006989 
	C202.099380,298.006989 202.274002,297.725006 202.085571,298.402100 
	C201.252777,304.254425 205.856232,301.110260 207.998978,302.007751 
	C207.998978,302.007751 208.000885,301.975952 208.163681,302.628387 
	C208.915344,302.888824 209.666992,303.149292 210.491608,303.412415 
	C210.491608,303.412415 210.537003,303.469574 210.546570,304.175354 
	C211.895676,305.322083 213.065170,306.939819 214.624786,307.534607 
	C221.650528,310.214081 228.669037,313.065186 235.929108,314.918274 
	C240.051392,315.970490 244.634460,315.217529 249.885880,315.171417 
	C252.236496,315.192871 254.587128,315.214325 257.663757,315.619873 
	C258.479828,315.742401 259.294403,315.960541 260.112152,315.973053 
	C271.501007,316.147675 281.597260,311.497650 291.762787,307.255280 
	C292.972229,306.750549 293.559235,304.754456 294.486206,303.380768 
	C294.486206,303.380768 294.572205,303.381897 295.244537,303.585205 
	C296.181213,302.755890 297.117859,301.926575 298.163940,300.853088 
	C298.163940,300.853088 298.430786,300.833405 299.047302,300.678650 
	C299.355194,300.396088 299.663116,300.113525 299.950073,299.950745 
	C299.950073,299.950745 299.831238,299.925201 300.324677,299.751129 
	C300.549988,299.491943 300.775269,299.232758 301.003601,299.006866 
	C301.003601,299.006866 300.973572,298.992279 301.583984,298.905945 
	C301.952026,298.458588 302.320038,298.011200 302.704895,297.666138 
	C302.704895,297.666138 302.602051,297.652893 303.146484,297.541260 
	C303.372925,297.260376 303.599365,296.979492 303.830200,296.820679 
	C303.830200,296.820679 303.708649,296.808380 304.237640,296.641663 
	C304.466278,296.359619 304.694916,296.077576 304.912201,295.886353 
	C304.912201,295.886353 304.823090,295.865479 305.567505,295.900391 
	C306.344604,294.889343 307.121704,293.878296 307.925629,292.936066 
	C307.925629,292.936066 307.852417,292.946167 308.339600,292.722015 
	C308.544830,292.435883 308.750061,292.149750 308.957092,291.957977 
	C308.957092,291.957977 308.862732,291.955719 309.345703,291.719360 
	C309.542023,291.426025 309.738312,291.132660 309.936035,290.939026 
	C309.936035,290.939026 309.836426,290.934448 310.333435,290.713959 
z"/>
<path fill="#0F0E0A" opacity="1.000000" stroke="none" 
	d="
M298.430786,300.833405 
	C298.430786,300.833405 298.163940,300.853088 297.811646,301.045654 
	C296.496979,301.952759 295.534576,302.667328 294.572205,303.381897 
	C294.572205,303.381897 294.486206,303.380768 294.127258,303.520447 
	C282.433380,310.515564 270.102539,314.202393 256.937744,315.235779 
	C254.587128,315.214325 252.236496,315.192871 249.033997,315.103027 
	C234.626328,314.458862 222.260544,310.009491 210.537003,303.469574 
	C210.537003,303.469574 210.491608,303.412415 210.260254,303.196899 
	C209.352905,302.646240 208.676895,302.311096 208.000885,301.975952 
	C208.000885,301.975952 207.998978,302.007751 207.848862,301.713745 
	C205.890503,300.188141 204.082260,298.956573 202.274002,297.725006 
	C202.274002,297.725006 202.099380,298.006989 202.085693,297.621002 
	C201.740189,297.092773 201.408356,296.950531 201.076538,296.808289 
	C201.076538,296.808289 201.079559,296.917816 201.043213,296.645020 
	C200.687332,296.201782 200.367828,296.031342 200.048309,295.860901 
	C200.048309,295.860901 200.057175,295.934662 199.972870,295.652466 
	C199.262161,294.901337 198.635742,294.432373 198.009308,293.963409 
	C198.009308,293.963409 197.996338,294.003662 197.901947,293.687164 
	C196.207184,291.905426 194.606827,290.440216 193.006470,288.974976 
	C193.006470,288.974976 192.996414,289.003052 192.908875,288.674438 
	C190.554977,285.548065 188.288605,282.750336 186.022217,279.952606 
	C186.022217,279.952606 185.996231,279.997803 185.970123,279.681091 
	C185.318146,278.548248 184.692261,277.732117 184.066376,276.915955 
	C184.066376,276.915955 184.020050,276.983582 184.006134,276.610168 
	C181.998352,272.480225 180.004486,268.723724 178.010635,264.967194 
	C178.010635,264.967194 177.987488,264.999115 178.004761,264.617371 
	C176.940536,261.145905 175.859070,258.056122 174.777588,254.966370 
	C174.672272,254.432526 174.566956,253.898697 174.300934,252.747803 
	C173.142883,248.667221 172.145538,245.203705 171.148193,241.740189 
	C171.297089,238.979965 171.655853,236.212616 171.562195,233.460648 
	C170.690231,207.836639 178.384735,184.408432 189.105087,161.549225 
	C192.791306,153.689026 195.708969,145.114014 197.028122,136.564743 
	C200.941605,111.201775 181.514435,94.734489 156.554871,101.653740 
	C140.476608,106.110924 129.773224,117.064400 123.341591,131.787369 
	C119.407013,140.794189 117.566696,150.715881 114.733139,160.988480 
	C114.245171,165.174255 113.809898,168.598267 113.374626,172.022263 
	C113.308334,172.760254 113.242035,173.498230 113.093445,175.059189 
	C113.099533,180.586090 113.187927,185.290009 113.276321,189.993942 
	C113.253441,190.757339 113.230568,191.520721 113.266586,193.060608 
	C115.385963,204.450394 117.446457,215.063675 119.506958,225.676956 
	C119.506958,225.676956 119.478203,225.954590 119.596420,226.407806 
	C120.463600,228.928787 121.212547,230.996521 121.961502,233.064270 
	C121.961502,233.064270 121.996010,233.011993 121.960274,233.394592 
	C123.775360,238.296280 125.626175,242.815384 127.476990,247.334488 
	C127.476997,247.334488 127.517586,247.360718 127.603531,247.740601 
	C130.769592,253.844833 133.849716,259.569214 136.929825,265.293579 
	C146.418777,278.284271 155.800583,291.355408 165.460602,304.217621 
	C168.439819,308.184387 172.177658,311.581390 176.228592,315.951813 
	C170.662399,321.333710 165.011276,326.640686 159.542801,332.129639 
	C154.167236,337.525360 148.977097,343.105835 142.863312,349.483917 
	C133.351990,338.396271 124.149612,328.364319 115.732559,317.711823 
	C98.268867,295.610046 84.531464,271.320618 76.132889,244.355484 
	C62.215630,199.671677 60.988201,155.060013 80.965874,111.789200 
	C95.352058,80.629311 119.351639,60.322529 154.001984,54.475006 
	C168.713623,51.992298 183.178787,53.632133 197.715210,59.282257 
	C198.852768,59.701191 199.431747,59.853977 200.010742,60.006763 
	C200.010742,60.006763 200.002563,59.989998 200.215302,60.256901 
	C203.166275,61.830593 205.904495,63.137383 208.642731,64.444168 
	C208.760406,64.324867 208.878082,64.205551 209.005188,64.515900 
	C210.326538,65.691124 211.638474,66.436691 212.950394,67.182251 
	C213.058167,67.496513 213.263031,67.722923 213.926880,68.203262 
	C215.173981,69.068382 216.059204,69.591721 216.944412,70.115051 
	C216.944412,70.115051 216.957855,70.042564 217.021500,70.312500 
	C217.531708,70.898674 217.978256,71.214920 218.424820,71.531166 
	C218.424820,71.531166 218.455948,71.578949 218.633636,71.833008 
	C219.422928,72.511063 220.034515,72.935059 220.646118,73.359055 
	C220.646118,73.359055 220.967484,73.006592 220.908142,73.424713 
	C221.146957,73.996231 221.445099,74.149612 221.743240,74.302994 
	C221.743240,74.302994 221.836731,74.166267 221.859039,74.467690 
	C222.184708,74.947502 222.488083,75.125885 222.791443,75.304276 
	C222.791443,75.304276 222.805878,75.216667 222.888565,75.540253 
	C224.938812,77.957001 226.906372,80.050171 228.873932,82.143341 
	C228.873932,82.143349 228.908981,82.075439 228.924683,82.386795 
	C229.615738,83.489655 230.291107,84.281158 230.966461,85.072655 
	C230.966461,85.072655 230.990555,85.011520 230.993759,85.286087 
	C231.268311,85.795517 231.539658,86.030396 231.811005,86.265274 
	C231.811005,86.265274 231.828140,86.149414 231.825592,86.446045 
	C232.204407,87.185226 232.585785,87.627769 232.967163,88.070312 
	C232.967163,88.070320 232.996033,88.013474 232.982819,88.281990 
	C233.212280,88.797890 233.454956,89.045273 233.697632,89.292656 
	C233.697632,89.292656 233.875824,89.071625 233.835220,89.489250 
	C234.507431,90.973045 235.220261,92.039207 235.933075,93.105377 
	C235.933075,93.105377 235.962006,93.038795 235.964508,93.375778 
	C236.623230,94.836746 237.279465,95.960724 237.935699,97.084709 
	C237.935699,97.084709 237.968796,97.023552 237.933243,97.399063 
	C238.857437,100.060425 239.817184,102.346268 240.776917,104.632111 
	C240.776917,104.632111 240.718521,104.838699 240.814011,105.303032 
	C247.479568,128.727386 244.335983,150.930344 235.525162,172.628311 
	C231.399796,182.787659 226.439056,192.637512 222.821320,202.965454 
	C218.677170,214.796143 216.253204,227.057220 219.546600,239.682434 
	C219.430542,240.002487 219.461472,240.307632 219.762161,241.179626 
	C221.583023,245.526581 223.281128,249.291824 224.979233,253.057053 
	C224.979233,253.057053 225.005615,253.007034 225.026825,253.333496 
	C226.032425,254.779770 227.016815,255.899582 228.001190,257.019379 
	C228.001205,257.019379 228.006119,256.994324 228.095383,257.304138 
	C229.470428,258.730682 230.756195,259.847473 232.041977,260.964233 
	C232.041977,260.964233 232.005386,260.998291 232.165863,261.282684 
	C235.207581,263.067963 238.088837,264.568848 240.970078,266.069733 
	C240.970078,266.069733 240.973053,266.003113 241.207520,266.296082 
	C250.691910,269.521423 259.682739,269.669037 268.142151,264.104950 
	C268.142151,264.104950 268.071747,264.070374 268.410217,264.072449 
	C270.303070,262.883087 271.857452,261.691620 273.411865,260.500153 
	C273.411865,260.500153 273.076996,260.244934 273.508179,260.241882 
	C274.263702,259.807037 274.587982,259.375214 274.912292,258.943390 
	C274.912292,258.943390 274.984192,258.985352 275.228729,258.866333 
	C275.806885,258.310364 276.140533,257.873383 276.474182,257.436401 
	C276.385590,257.292236 276.297028,257.148041 276.611267,257.044250 
	C277.685272,256.061859 278.356476,255.039047 279.027679,254.016235 
	C279.027679,254.016235 278.998779,254.000153 279.299377,253.859665 
	C280.187195,252.553223 280.774414,251.387268 281.361633,250.221313 
	C281.361633,250.221313 281.266571,250.216003 281.520294,250.127228 
	C281.845551,249.683640 281.917053,249.328857 281.988586,248.974075 
	C281.988586,248.974075 281.984650,248.989594 282.224792,248.785019 
	C282.769928,247.783844 283.074921,246.987244 283.379913,246.190643 
	C283.379913,246.190643 283.285278,246.198944 283.571381,246.010452 
	C285.428558,238.899963 286.999664,231.977951 288.570740,225.055939 
	C288.664886,224.306076 288.759033,223.556213 288.929077,221.966187 
	C288.419586,212.336960 287.966736,203.536346 287.201141,194.763016 
	C286.711365,189.149826 285.759705,183.576920 285.015106,177.985962 
	C285.015106,177.985962 284.993774,177.980438 285.394836,178.020416 
	C300.223511,174.552704 314.651093,171.045013 329.615265,167.406876 
	C331.163025,175.932693 332.734894,183.571014 333.910492,191.269867 
	C336.749664,209.862793 336.207520,228.412872 332.708954,246.884140 
	C332.708954,246.884140 332.797394,246.860733 332.526093,247.090759 
	C331.480072,250.537247 330.705353,253.753708 329.930634,256.970154 
	C329.930634,256.970154 329.997406,256.973816 329.706299,257.180542 
	C328.104279,260.784149 326.793427,264.181061 325.482544,267.577942 
	C325.482544,267.577942 325.443451,267.617126 325.265381,267.812958 
	C324.920502,268.301086 324.853149,268.614746 324.629089,269.172211 
	C322.747314,272.438599 321.121735,275.482544 319.496155,278.526459 
	C319.496155,278.526459 319.626831,278.636871 319.316833,278.791199 
	C318.658752,279.624939 318.310699,280.304382 317.962677,280.983856 
	C317.962677,280.983856 318.002899,280.999176 317.721985,281.110413 
	C317.174530,281.743927 316.908020,282.266205 316.641510,282.788483 
	C316.641510,282.788483 316.761658,282.794281 316.498352,282.857178 
	C316.102264,283.264709 315.969543,283.609344 315.836823,283.954010 
	C315.836823,283.954010 315.945038,283.946381 315.678436,283.989838 
	C315.259888,284.355133 315.107941,284.677002 314.955994,284.998871 
	C314.956024,284.998871 315.006348,285.002991 314.698364,285.117645 
	C313.209106,286.786652 312.027832,288.341003 310.846558,289.895355 
	C310.846588,289.895355 310.926117,289.909363 310.653381,289.943726 
	C310.199249,290.296875 310.017853,290.615662 309.836426,290.934448 
	C309.836426,290.934448 309.936035,290.939026 309.657410,290.958740 
	C309.206757,291.304230 309.034760,291.629974 308.862732,291.955719 
	C308.862732,291.955719 308.957092,291.957977 308.679138,291.977600 
	C308.218262,292.313507 308.035339,292.629852 307.852417,292.946167 
	C307.852417,292.946167 307.925629,292.936066 307.609802,292.994385 
	C306.470337,293.990265 305.646729,294.927887 304.823090,295.865479 
	C304.823090,295.865479 304.912201,295.886353 304.638489,295.904663 
	C304.146027,296.218109 303.927338,296.513245 303.708649,296.808380 
	C303.708649,296.808380 303.830200,296.820679 303.558380,296.823730 
	C303.058380,297.102112 302.830200,297.377502 302.602051,297.652893 
	C302.602051,297.652893 302.704895,297.666138 302.413605,297.699829 
	C301.739380,298.153107 301.356476,298.572693 300.973572,298.992279 
	C300.973572,298.992279 301.003601,299.006866 300.728302,299.033142 
	C300.245758,299.348022 300.038513,299.636627 299.831238,299.925232 
	C299.831238,299.925201 299.950073,299.950745 299.638916,299.945435 
	C299.028778,300.237915 298.729767,300.535645 298.430786,300.833405 
z"/>
<path fill="#DFC225" opacity="1.000000" stroke="none" 
	d="
M219.676300,239.178680 
	C216.253204,227.057220 218.677170,214.796143 222.821320,202.965454 
	C226.439056,192.637512 231.399796,182.787659 235.525162,172.628311 
	C244.335983,150.930344 247.479568,128.727386 240.911041,105.348923 
	C241.833786,106.260757 243.319260,107.486893 243.586990,108.937752 
	C245.756424,120.693199 247.640335,132.558075 244.595505,144.398727 
	C241.637573,155.901428 238.503723,167.386948 234.742050,178.644409 
	C232.473816,185.432480 228.264175,191.572906 226.007584,198.363464 
	C223.375641,206.283630 221.501801,214.524445 220.110840,222.763199 
	C219.237381,227.936798 219.856506,233.362381 219.676300,239.178680 
z"/>
<path fill="#DFC225" opacity="1.000000" stroke="none" 
	d="
M333.005035,246.665985 
	C336.207520,228.412872 336.749664,209.862793 333.910492,191.269867 
	C332.734894,183.571014 331.163025,175.932693 329.615265,167.406876 
	C314.651093,171.045013 300.223511,174.552704 285.387390,178.028564 
	C285.675049,177.376373 286.279602,176.391510 287.081055,176.190079 
	C300.103394,172.917084 313.118103,169.593582 326.235077,166.744095 
	C327.807587,166.402481 331.316193,168.450455 331.647339,169.908630 
	C335.763641,188.035492 338.019287,206.430588 336.847229,225.031876 
	C336.394531,232.216492 334.525085,239.311829 333.005035,246.665985 
z"/>
<path fill="#E5C720" opacity="1.000000" stroke="none" 
	d="
M257.300751,315.427826 
	C270.102539,314.202393 282.433380,310.515564 294.101562,303.554901 
	C293.559235,304.754456 292.972229,306.750549 291.762787,307.255280 
	C281.597260,311.497650 271.501007,316.147675 260.112152,315.973053 
	C259.294403,315.960541 258.479828,315.742401 257.300751,315.427826 
z"/>
<path fill="#E5C720" opacity="1.000000" stroke="none" 
	d="
M210.541779,303.822449 
	C222.260544,310.009491 234.626328,314.458862 248.596069,315.156097 
	C244.634460,315.217529 240.051392,315.970490 235.929108,314.918274 
	C228.669037,313.065186 221.650528,310.214081 214.624786,307.534607 
	C213.065170,306.939819 211.895676,305.322083 210.541779,303.822449 
z"/>
<path fill="#DFC225" opacity="1.000000" stroke="none" 
	d="
M284.654266,178.082214 
	C285.759705,183.576920 286.711365,189.149826 287.201141,194.763016 
	C287.966736,203.536346 288.419586,212.336960 288.888611,221.587494 
	C287.869232,213.900040 287.067749,205.738083 286.024994,197.607071 
	C285.403687,192.762695 284.278351,187.983307 283.644043,183.140076 
	C283.434753,181.541962 284.053375,179.835434 284.654266,178.082214 
z"/>
<path fill="#DABE25" opacity="1.000000" stroke="none" 
	d="
M119.622681,225.240219 
	C117.446457,215.063675 115.385963,204.450394 113.388588,193.423767 
	C114.111954,195.625198 114.907433,198.214417 115.407120,200.859528 
	C116.912643,208.829163 118.303093,216.820572 119.622681,225.240219 
z"/>
<path fill="#DFC225" opacity="1.000000" stroke="none" 
	d="
M267.739258,264.079773 
	C259.682739,269.669037 250.691910,269.521423 241.182373,266.317993 
	C246.844101,266.049133 252.776138,266.262695 258.682251,265.963623 
	C261.591705,265.816284 264.453156,264.720978 267.739258,264.079773 
z"/>
<path fill="#DFC225" opacity="1.000000" stroke="none" 
	d="
M288.258301,225.204651 
	C286.999664,231.977951 285.428558,238.899963 283.587067,246.055283 
	C284.859711,239.310196 286.402771,232.331787 288.258301,225.204651 
z"/>
<path fill="#DABE25" opacity="1.000000" stroke="none" 
	d="
M136.947113,264.901123 
	C133.849716,259.569214 130.769592,253.844833 127.603943,247.764755 
	C130.667053,253.108932 133.815720,258.808807 136.947113,264.901123 
z"/>
<path fill="#E5C720" opacity="1.000000" stroke="none" 
	d="
M319.853638,278.521545 
	C321.121735,275.482544 322.747314,272.438599 324.888184,269.181732 
	C325.576355,268.971649 325.749207,268.974518 325.922028,268.977386 
	C325.136200,272.826355 324.454865,276.737854 319.853638,278.521545 
z"/>
<path fill="#DABE25" opacity="1.000000" stroke="none" 
	d="
M127.593208,246.948700 
	C125.626175,242.815384 123.775360,238.296280 121.929207,233.390671 
	C123.859062,237.523758 125.784241,242.043335 127.593208,246.948700 
z"/>
<path fill="#DFC225" opacity="1.000000" stroke="none" 
	d="
M224.987473,252.667725 
	C223.281128,249.291824 221.583023,245.526581 219.911438,241.363174 
	C221.623871,244.736130 223.309784,248.507263 224.987473,252.667725 
z"/>
<path fill="#E1C522" opacity="1.000000" stroke="none" 
	d="
M177.982361,265.359680 
	C180.004486,268.723724 181.998352,272.480225 184.043945,276.594360 
	C182.048492,273.218719 180.001297,269.485443 177.982361,265.359680 
z"/>
<path fill="#E1C522" opacity="1.000000" stroke="none" 
	d="
M174.575104,255.212433 
	C175.859070,258.056122 176.940536,261.145905 178.024170,264.620667 
	C175.802582,262.208221 172.208389,259.935211 174.575104,255.212433 
z"/>
<path fill="#DABE25" opacity="1.000000" stroke="none" 
	d="
M113.684952,171.866058 
	C113.809898,168.598267 114.245171,165.174255 114.859268,161.401001 
	C114.690483,164.604446 114.342880,168.157166 113.684952,171.866058 
z"/>
<path fill="#E1C522" opacity="1.000000" stroke="none" 
	d="
M186.005539,280.328461 
	C188.288605,282.750336 190.554977,285.548065 192.922836,288.669189 
	C190.679169,286.229797 188.334015,283.467072 186.005539,280.328461 
z"/>
<path fill="#E1C522" opacity="1.000000" stroke="none" 
	d="
M171.120758,242.162079 
	C172.145538,245.203705 173.142883,248.667221 174.109711,252.546234 
	C173.083893,249.502487 172.088608,246.043213 171.120758,242.162079 
z"/>
<path fill="#DFC225" opacity="1.000000" stroke="none" 
	d="
M240.887253,265.736908 
	C238.088837,264.568848 235.207581,263.067963 232.179169,261.262146 
	C234.956146,262.439514 237.880295,263.921783 240.887253,265.736908 
z"/>
<path fill="#E5C720" opacity="1.000000" stroke="none" 
	d="
M202.179779,298.063538 
	C204.082260,298.956573 205.890503,300.188141 207.862793,301.705933 
	C205.856232,301.110260 201.252777,304.254425 202.179779,298.063538 
z"/>
<path fill="#DFC225" opacity="1.000000" stroke="none" 
	d="
M325.824432,267.487305 
	C326.793427,264.181061 328.104279,260.784149 329.683533,257.156036 
	C328.690033,260.415436 327.428162,263.906036 325.824432,267.487305 
z"/>
<path fill="#DFC225" opacity="1.000000" stroke="none" 
	d="
M228.909912,81.772797 
	C226.906372,80.050171 224.938812,77.957001 222.846771,75.555222 
	C224.796844,77.298500 226.871368,79.350380 228.909912,81.772797 
z"/>
<path fill="#DFC225" opacity="1.000000" stroke="none" 
	d="
M208.594849,64.088257 
	C205.904495,63.137383 203.166275,61.830593 200.206360,60.259720 
	C202.838791,61.241207 205.692886,62.486774 208.594849,64.088257 
z"/>
<path fill="#DFC225" opacity="1.000000" stroke="none" 
	d="
M330.284882,256.853821 
	C330.705353,253.753708 331.480072,250.537247 332.506683,247.049347 
	C332.052094,250.097733 331.345612,253.417603 330.284882,256.853821 
z"/>
<path fill="#DABE25" opacity="1.000000" stroke="none" 
	d="
M113.468994,189.635742 
	C113.187927,185.290009 113.099533,180.586090 113.141159,175.428925 
	C113.401352,179.742981 113.531517,184.510269 113.468994,189.635742 
z"/>
<path fill="#DFC225" opacity="1.000000" stroke="none" 
	d="
M240.847610,104.212067 
	C239.817184,102.346268 238.857437,100.060425 237.898560,97.396606 
	C238.905731,99.276421 239.912018,101.534218 240.847610,104.212067 
z"/>
<path fill="#DFC225" opacity="1.000000" stroke="none" 
	d="
M273.044617,260.404419 
	C271.857452,261.691620 270.303070,262.883087 268.412811,264.111603 
	C269.610413,262.868652 271.143890,261.588684 273.044617,260.404419 
z"/>
<path fill="#E5C720" opacity="1.000000" stroke="none" 
	d="
M311.204895,289.870544 
	C312.027832,288.341003 313.209106,286.786652 314.687500,285.094849 
	C313.844147,286.586884 312.703674,288.216309 311.204895,289.870544 
z"/>
<path fill="#E1C522" opacity="1.000000" stroke="none" 
	d="
M193.046051,289.327393 
	C194.606827,290.440216 196.207184,291.905426 197.921478,293.679138 
	C196.385468,292.551666 194.735535,291.115723 193.046051,289.327393 
z"/>
<path fill="#DABE25" opacity="1.000000" stroke="none" 
	d="
M122.004463,232.664871 
	C121.212547,230.996521 120.463600,228.928787 119.713234,226.484192 
	C120.490356,228.160065 121.268890,230.212769 122.004463,232.664871 
z"/>
<path fill="#DFC225" opacity="1.000000" stroke="none" 
	d="
M228.017700,256.639587 
	C227.016815,255.899582 226.032425,254.779770 224.998627,253.335678 
	C225.977570,254.094193 227.005890,255.177017 228.017700,256.639587 
z"/>
<path fill="#DFC225" opacity="1.000000" stroke="none" 
	d="
M232.031097,260.597137 
	C230.756195,259.847473 229.470428,258.730682 228.082733,257.306122 
	C229.327286,258.075562 230.673752,259.152802 232.031097,260.597137 
z"/>
<path fill="#DFC225" opacity="1.000000" stroke="none" 
	d="
M278.650208,254.025116 
	C278.356476,255.039047 277.685272,256.061859 276.754700,257.254120 
	C277.087830,256.293701 277.680298,255.163849 278.650208,254.025116 
z"/>
<path fill="#DFC225" opacity="1.000000" stroke="none" 
	d="
M212.809418,66.859741 
	C211.638474,66.436691 210.326538,65.691124 208.821625,64.687256 
	C209.975250,65.131714 211.321838,65.834465 212.809418,66.859741 
z"/>
<path fill="#E5C720" opacity="1.000000" stroke="none" 
	d="
M305.195312,295.882935 
	C305.646729,294.927887 306.470337,293.990265 307.596375,292.959961 
	C307.121704,293.878296 306.344604,294.889343 305.195312,295.882935 
z"/>
<path fill="#E5C720" opacity="1.000000" stroke="none" 
	d="
M294.908386,303.483551 
	C295.534576,302.667328 296.496979,301.952759 297.756927,301.167725 
	C297.117859,301.926575 296.181213,302.755890 294.908386,303.483551 
z"/>
<path fill="#DFC225" opacity="1.000000" stroke="none" 
	d="
M235.949005,92.746468 
	C235.220261,92.039207 234.507431,90.973045 233.731720,89.586395 
	C234.434174,90.306458 235.199554,91.347008 235.949005,92.746468 
z"/>
<path fill="#DFC225" opacity="1.000000" stroke="none" 
	d="
M237.974640,96.712486 
	C237.279465,95.960724 236.623230,94.836746 235.928345,93.378960 
	C236.597656,94.143524 237.305634,95.241890 237.974640,96.712486 
z"/>
<path fill="#DFC225" opacity="1.000000" stroke="none" 
	d="
M281.021484,250.318848 
	C280.774414,251.387268 280.187195,252.553223 279.309875,253.872711 
	C279.573639,252.822968 280.127502,251.619675 281.021484,250.318848 
z"/>
<path fill="#DFC225" opacity="1.000000" stroke="none" 
	d="
M216.885742,69.780815 
	C216.059204,69.591721 215.173981,69.068382 214.153503,68.262390 
	C214.954514,68.468689 215.890793,68.957634 216.885742,69.780815 
z"/>
<path fill="#E1C522" opacity="1.000000" stroke="none" 
	d="
M184.045380,277.265198 
	C184.692261,277.732117 185.318146,278.548248 185.995636,279.675751 
	C185.372955,279.196198 184.698685,278.405304 184.045380,277.265198 
z"/>
<path fill="#E5C720" opacity="1.000000" stroke="none" 
	d="
M208.082275,302.302185 
	C208.676895,302.311096 209.352905,302.646240 210.223785,303.195587 
	C209.666992,303.149292 208.915344,302.888824 208.082275,302.302185 
z"/>
<path fill="#DFC225" opacity="1.000000" stroke="none" 
	d="
M230.950592,84.741257 
	C230.291107,84.281158 229.615738,83.489655 228.886719,82.382492 
	C229.533600,82.847847 230.234161,83.628853 230.950592,84.741257 
z"/>
<path fill="#E5C720" opacity="1.000000" stroke="none" 
	d="
M318.288055,280.903717 
	C318.310699,280.304382 318.658752,279.624939 319.235931,278.763367 
	C319.181183,279.328705 318.897308,280.076141 318.288055,280.903717 
z"/>
<path fill="#E1C522" opacity="1.000000" stroke="none" 
	d="
M198.065811,294.281677 
	C198.635742,294.432373 199.262161,294.901337 200.009277,295.645142 
	C199.460754,295.479950 198.791534,295.039948 198.065811,294.281677 
z"/>
<path fill="#DFC225" opacity="1.000000" stroke="none" 
	d="
M283.084167,246.354797 
	C283.074921,246.987244 282.769928,247.783844 282.221252,248.792099 
	C282.247833,248.175491 282.518097,247.347229 283.084167,246.354797 
z"/>
<path fill="#DFC225" opacity="1.000000" stroke="none" 
	d="
M220.598572,73.041901 
	C220.034515,72.935059 219.422928,72.511063 218.659851,71.844238 
	C219.189255,71.975853 219.870132,72.350296 220.598572,73.041901 
z"/>
<path fill="#E5C720" opacity="1.000000" stroke="none" 
	d="
M301.278778,298.949097 
	C301.356476,298.572693 301.739380,298.153107 302.405182,297.648682 
	C302.320038,298.011200 301.952026,298.458588 301.278778,298.949097 
z"/>
<path fill="#DFC225" opacity="1.000000" stroke="none" 
	d="
M218.397476,71.228790 
	C217.978256,71.214920 217.531708,70.898674 216.986572,70.324326 
	C217.382050,70.352943 217.876099,70.639671 218.397476,71.228790 
z"/>
<path fill="#DFC225" opacity="1.000000" stroke="none" 
	d="
M199.814697,59.772869 
	C199.431747,59.853977 198.852768,59.701191 198.090790,59.303440 
	C198.478088,59.218643 199.048386,59.378811 199.814697,59.772869 
z"/>
<path fill="#E5C720" opacity="1.000000" stroke="none" 
	d="
M316.925293,282.670898 
	C316.908020,282.266205 317.174530,281.743927 317.709625,281.092712 
	C317.721802,281.493622 317.465424,282.023499 316.925293,282.670898 
z"/>
<path fill="#DFC225" opacity="1.000000" stroke="none" 
	d="
M232.942383,87.761620 
	C232.585785,87.627769 232.204407,87.185226 231.767029,86.445175 
	C232.113235,86.582748 232.515411,87.017838 232.942383,87.761620 
z"/>
<path fill="#DFC225" opacity="1.000000" stroke="none" 
	d="
M274.621826,259.008118 
	C274.587982,259.375214 274.263702,259.807037 273.685547,260.355286 
	C273.731567,260.005402 274.031433,259.539124 274.621826,259.008118 
z"/>
<path fill="#DFC225" opacity="1.000000" stroke="none" 
	d="
M276.178864,257.470764 
	C276.140533,257.873383 275.806885,258.310364 275.207703,258.830414 
	C275.255981,258.444031 275.569763,257.974579 276.178864,257.470764 
z"/>
<path fill="#E5C720" opacity="1.000000" stroke="none" 
	d="
M303.973145,296.725037 
	C303.927338,296.513245 304.146027,296.218109 304.644165,295.859283 
	C304.694916,296.077576 304.466278,296.359619 303.973145,296.725037 
z"/>
<path fill="#DFC225" opacity="1.000000" stroke="none" 
	d="
M221.649384,74.060364 
	C221.445099,74.149612 221.146957,73.996231 220.752380,73.604904 
	C220.955811,73.517212 221.255676,73.667473 221.649384,74.060364 
z"/>
<path fill="#DFC225" opacity="1.000000" stroke="none" 
	d="
M222.693268,75.053864 
	C222.488083,75.125885 222.184708,74.947502 221.790710,74.514496 
	C221.998428,74.441071 222.296753,74.622261 222.693268,75.053864 
z"/>
<path fill="#DFC225" opacity="1.000000" stroke="none" 
	d="
M231.746826,86.004158 
	C231.539658,86.030396 231.268311,85.795517 230.961060,85.282959 
	C231.177658,85.251190 231.430161,85.497116 231.746826,86.004158 
z"/>
<path fill="#E5C720" opacity="1.000000" stroke="none" 
	d="
M298.739044,300.756042 
	C298.729767,300.535645 299.028778,300.237915 299.649414,299.885559 
	C299.663116,300.113525 299.355194,300.396088 298.739044,300.756042 
z"/>
<path fill="#E5C720" opacity="1.000000" stroke="none" 
	d="
M300.077972,299.838196 
	C300.038513,299.636627 300.245758,299.348022 300.726776,299.016479 
	C300.775269,299.232758 300.549988,299.491943 300.077972,299.838196 
z"/>
<path fill="#DFC225" opacity="1.000000" stroke="none" 
	d="
M233.659424,89.033539 
	C233.454956,89.045273 233.212280,88.797890 232.951096,88.278824 
	C233.162140,88.262909 233.391678,88.518661 233.659424,89.033539 
z"/>
<path fill="#DFC225" opacity="1.000000" stroke="none" 
	d="
M281.777039,249.137955 
	C281.917053,249.328857 281.845551,249.683640 281.529236,250.173981 
	C281.378143,249.973618 281.471832,249.637726 281.777039,249.137955 
z"/>
<path fill="#E5C720" opacity="1.000000" stroke="none" 
	d="
M302.874268,297.597076 
	C302.830200,297.377502 303.058380,297.102112 303.556183,296.762665 
	C303.599365,296.979492 303.372925,297.260376 302.874268,297.597076 
z"/>
<path fill="#E1C522" opacity="1.000000" stroke="none" 
	d="
M201.214600,297.038452 
	C201.408356,296.950531 201.740189,297.092773 202.182617,297.485901 
	C201.979691,297.580750 201.666168,297.424683 201.214600,297.038452 
z"/>
<path fill="#E5C720" opacity="1.000000" stroke="none" 
	d="
M316.069031,283.806213 
	C315.969543,283.609344 316.102264,283.264709 316.490540,282.797516 
	C316.597809,283.002808 316.449524,283.330597 316.069031,283.806213 
z"/>
<path fill="#E1C522" opacity="1.000000" stroke="none" 
	d="
M200.173950,296.098022 
	C200.367828,296.031342 200.687332,296.201782 201.097733,296.639648 
	C200.892273,296.716431 200.595947,296.525757 200.173950,296.098022 
z"/>
<path fill="#E5C720" opacity="1.000000" stroke="none" 
	d="
M308.096008,292.834106 
	C308.035339,292.629852 308.218262,292.313507 308.678223,291.930389 
	C308.750061,292.149750 308.544830,292.435883 308.096008,292.834106 
z"/>
<path fill="#E5C720" opacity="1.000000" stroke="none" 
	d="
M309.104248,291.837524 
	C309.034760,291.629974 309.206757,291.304230 309.656677,290.908905 
	C309.738312,291.132660 309.542023,291.426025 309.104248,291.837524 
z"/>
<path fill="#E5C720" opacity="1.000000" stroke="none" 
	d="
M310.084930,290.824219 
	C310.017853,290.615662 310.199249,290.296875 310.656464,289.903442 
	C310.732635,290.123871 310.533020,290.418915 310.084930,290.824219 
z"/>
<path fill="#DFC225" opacity="1.000000" stroke="none" 
	d="
M325.832794,268.639648 
	C325.749207,268.974518 325.576355,268.971649 325.144379,268.959259 
	C324.853149,268.614746 324.920502,268.301086 325.263947,267.840576 
	C325.541626,267.882263 325.642609,268.092102 325.832794,268.639648 
z"/>
<path fill="#E5C720" opacity="1.000000" stroke="none" 
	d="
M315.181122,284.864441 
	C315.107941,284.677002 315.259888,284.355133 315.672028,283.935974 
	C315.756897,284.135773 315.581573,284.432922 315.181122,284.864441 
z"/>
</svg>