<?xml version="1.0" encoding="UTF-8"?>
<svg version="1.1" xmlns="http://www.w3.org/2000/svg" width="400" height="400">
<path d="M0 0 C132 0 264 0 400 0 C400 132 400 264 400 400 C268 400 136 400 0 400 C0 268 0 136 0 0 Z " fill="#000000" transform="translate(0,0)"/>
<path d="M0 0 C17.61375 -0.103125 35.2275 -0.20625 53.375 -0.3125 C58.90169434 -0.35802002 64.42838867 -0.40354004 70.12255859 -0.45043945 C76.96020508 -0.47302246 76.96020508 -0.47302246 80.17837524 -0.47721863 C82.38846903 -0.48481147 84.59854435 -0.5022165 86.8085022 -0.52787781 C111.57941322 -0.80070454 134.16581797 3.52733834 152.54541016 21.46582031 C159.43573213 28.73315554 164.54042925 37.63553942 168 47 C168.36738281 47.97324219 168.73476563 48.94648438 169.11328125 49.94921875 C170.71916514 55.77874315 170.28735601 61.94497261 170.25 67.9375 C170.25773438 69.17435547 170.26546875 70.41121094 170.2734375 71.68554688 C170.23619133 89.10744109 164.27389823 103.85375825 153 117 C152.43539062 117.66515625 151.87078125 118.3303125 151.2890625 119.015625 C146.37030147 124.34228329 140.23344418 128.35830651 134 132 C133.34 132 132.68 132 132 132 C135.47715019 139.20029754 139.30642273 146.11915653 143.375 153 C144.62172036 155.12202782 145.86779158 157.24443711 147.11328125 159.3671875 C147.75346191 160.45741211 148.39364258 161.54763672 149.05322266 162.67089844 C152.88144232 169.2173749 156.65027743 175.79817784 160.42944336 182.37304688 C163.53044648 187.75674981 166.65612755 193.12334134 169.8359375 198.4609375 C170.44236084 199.47913574 171.04878418 200.49733398 171.67358398 201.54638672 C172.82530969 203.47490956 173.98090344 205.40112911 175.14086914 207.32470703 C175.64996826 208.17661621 176.15906738 209.02852539 176.68359375 209.90625 C177.13275146 210.65197266 177.58190918 211.39769531 178.04467773 212.16601562 C179 214 179 214 179 216 C159.2 216 139.4 216 119 216 C115.37 209.4 111.74 202.8 108 196 C104.21207992 189.53383795 104.21207992 189.53383795 100.38671875 183.08984375 C96.16475377 175.90724032 92.27104137 168.76371296 89.08203125 161.0546875 C87.99375631 158.66074454 86.9038942 156.26752251 85.8125 153.875 C85.35037109 152.64523438 84.88824219 151.41546875 84.41210938 150.1484375 C82.59250396 145.87379867 82.59250396 145.87379867 77 141 C68.09 140.67 59.18 140.34 50 140 C50 165.08 50 190.16 50 216 C33.5 216 17 216 0 216 C0 144.72 0 73.44 0 0 Z " fill="#E2E2E2" transform="translate(117,92)"/>
<path d="M0 0 C7.363125 -0.0825 14.72625 -0.165 22.3125 -0.25 C24.61387939 -0.28641602 26.91525879 -0.32283203 29.28637695 -0.36035156 C31.14533562 -0.37205257 33.00430467 -0.38224103 34.86328125 -0.390625 C35.80022827 -0.41108887 36.73717529 -0.43155273 37.70251465 -0.45263672 C46.71474532 -0.45730808 55.84943983 1.75686702 62.49609375 8.1953125 C68.25466121 15.10559345 69.7820061 21.67408895 69.4140625 30.6015625 C68.38775343 39.02504258 64.76298966 46.66876203 58 52 C51.16778153 55.97050913 45.19029309 56.54811388 37.40234375 56.390625 C36.44815552 56.38659668 35.49396729 56.38256836 34.51086426 56.37841797 C30.98621061 56.35767399 27.4618336 56.30183012 23.9375 56.25 C16.038125 56.1675 8.13875 56.085 0 56 C0 37.52 0 19.04 0 0 Z " fill="#010101" transform="translate(167,136)"/>
<path d="M0 0 C1.32 1.65 2.64 3.3 4 5 C3.67 5.66 3.34 6.32 3 7 C1.68 7 0.36 7 -1 7 C-2 4 -2 4 -1.0625 1.8125 C-0.5365625 0.9153125 -0.5365625 0.9153125 0 0 Z " fill="#B9B9B9" transform="translate(258,242)"/>
<path d="M0 0 C0.99 0.99 1.98 1.98 3 3 C2.67 3.99 2.34 4.98 2 6 C0.35 5.67 -1.3 5.34 -3 5 C-2.34 4.01 -1.68 3.02 -1 2 C-0.67 1.34 -0.34 0.68 0 0 Z " fill="#B6B6B6" transform="translate(271,265)"/>
<path d="M0 0 C0.66 0.99 1.32 1.98 2 3 C1.34 4.32 0.68 5.64 0 7 C-0.99 6.01 -1.98 5.02 -3 4 C-2.67 3.01 -2.34 2.02 -2 1 C-1.34 0.67 -0.68 0.34 0 0 Z " fill="#C8C8C8" transform="translate(212,256)"/>
<path d="M0 0 C0.66 0.33 1.32 0.66 2 1 C2 1.99 2 2.98 2 4 C0 5.6875 0 5.6875 -2 7 C-2.33 6.01 -2.66 5.02 -3 4 C-1.5625 1.8125 -1.5625 1.8125 0 0 Z " fill="#C9C9C9" transform="translate(265,208)"/>
</svg>
