<?xml version="1.0" encoding="UTF-8"?>
<svg version="1.1" xmlns="http://www.w3.org/2000/svg" width="400" height="400">
<path d="M0 0 C132 0 264 0 400 0 C400 132 400 264 400 400 C268 400 136 400 0 400 C0 268 0 136 0 0 Z " fill="#151515" transform="translate(0,0)"/>
<path d="M0 0 C1.0809494 -0.00571014 2.1618988 -0.01142029 3.27560425 -0.01730347 C4.46680374 -0.01842133 5.65800323 -0.01953918 6.88529968 -0.02069092 C8.76100647 -0.02813828 8.76100647 -0.02813828 10.67460632 -0.03573608 C14.11068005 -0.04785878 17.54669281 -0.05530667 20.98278069 -0.05974674 C23.12930264 -0.06267659 25.27581923 -0.06678125 27.42233849 -0.07125092 C34.13765447 -0.08492867 40.85295824 -0.09459363 47.56828719 -0.09845281 C55.32117339 -0.10293262 63.0738832 -0.12047563 70.82671577 -0.1494534 C76.81829576 -0.17107089 82.80982613 -0.18115714 88.80144471 -0.18249393 C92.38036671 -0.18354203 95.95912297 -0.18945065 99.53800392 -0.20731354 C103.53148215 -0.22685743 107.52459144 -0.22250502 111.51811218 -0.21600342 C113.29580238 -0.22982559 113.29580238 -0.22982559 115.10940552 -0.243927 C116.19881439 -0.23835785 117.28822327 -0.2327887 118.41064453 -0.22705078 C119.82677017 -0.22925062 119.82677017 -0.22925062 121.2715044 -0.2314949 C125.194208 0.32446346 127.82525569 2.14357439 130.68730164 4.80865479 C132.47897087 8.26567152 132.27743452 11.64869121 132.23173523 15.44903564 C132.24424629 17.09943021 132.25728334 18.74982086 132.27079773 20.40020752 C132.27472863 22.99190123 132.27076802 25.58320872 132.25614929 28.17486572 C132.24756704 30.68350494 132.26927693 33.1905378 132.29423523 35.69903564 C132.28089142 36.47001083 132.26754761 37.24098602 132.25379944 38.0353241 C132.30950866 42.10432244 132.70616512 43.90738299 135.30839539 47.10552979 C138.967044 49.98294403 140.67175443 50.26427156 145.26005554 50.26641846 C146.38172119 50.27022522 147.50338684 50.27403198 148.65904236 50.2779541 C149.87670288 50.27898132 151.0943634 50.28000854 152.34892273 50.28106689 C154.91273369 50.29939549 157.47653602 50.31896585 160.04032898 50.33966064 C164.09361303 50.36999866 168.1465886 50.39276491 172.19999695 50.39093018 C176.10414893 50.38998964 180.00746696 50.42880944 183.91142273 50.46856689 C185.12098633 50.46149719 186.33054993 50.45442749 187.57676697 50.44714355 C196.9592522 50.58292843 196.9592522 50.58292843 200.64482117 53.55743408 C203.80459363 57.18329012 204.02843802 58.87641994 204.08866882 63.59649658 C204.10473175 64.73818298 204.12079468 65.87986938 204.13734436 67.05615234 C204.18173661 72.28475169 204.2233067 77.51326329 204.24589539 82.74200439 C204.25921901 85.50080643 204.28704016 88.25886601 204.32792664 91.01739502 C204.38681496 94.9906815 204.40456758 98.96360896 204.41923523 102.93731689 C204.45323929 104.78447296 204.45323929 104.78447296 204.4879303 106.66894531 C204.46436294 116.21397653 204.46436294 116.21397653 201.48808289 119.90313721 C197.86540313 123.02973706 196.20974686 123.26745301 191.51567078 123.29815674 C189.82833076 123.31354996 189.82833076 123.31354996 188.10690308 123.32925415 C186.8861055 123.33655548 185.66530792 123.34385681 184.40751648 123.35137939 C181.83915073 123.37944806 179.27079144 123.40811253 176.70243835 123.43731689 C172.64038019 123.47975163 168.57836167 123.51651958 164.51615906 123.54180908 C160.60472628 123.56681538 156.69372862 123.61526207 152.78251648 123.66387939 C151.5677916 123.66713226 150.35306671 123.67038513 149.10153198 123.67373657 C147.96718216 123.69030304 146.83283234 123.70686951 145.66410828 123.72393799 C144.66864487 123.73202484 143.67318146 123.74011169 142.64755249 123.7484436 C139.39607021 124.21163005 137.53266893 125.20574726 134.89579773 127.14044189 C132.72852433 130.39135199 132.63980937 131.34389703 132.63017273 135.10528564 C132.6275946 136.07014893 132.62501648 137.03501221 132.62236023 138.02911377 C132.6300946 139.03522705 132.63782898 140.04134033 132.64579773 141.07794189 C132.63806335 142.08018799 132.63032898 143.08243408 132.62236023 144.11505127 C132.62493835 145.08120361 132.62751648 146.04735596 132.63017273 147.04278564 C132.63355652 148.36524292 132.63355652 148.36524292 132.63700867 149.7144165 C132.91813867 152.34987769 133.45819779 153.92259328 134.89579773 156.14044189 C138.29445409 158.4062128 139.47918143 158.39082293 143.46537781 158.39581299 C145.17779411 158.40625137 145.17779411 158.40625137 146.92480469 158.41690063 C148.1591777 158.41590363 149.39355072 158.41490662 150.66532898 158.41387939 C153.27145305 158.43417033 155.87757281 158.45502116 158.48368835 158.47637939 C162.59835077 158.50111092 166.71295005 158.51629209 170.8276825 158.52130127 C174.79462876 158.52729444 178.76104731 158.56459598 182.72782898 158.60137939 C183.9561293 158.59633392 185.18442963 158.59128845 186.44995117 158.58609009 C197.29514854 158.71105454 197.29514854 158.71105454 201.89579773 163.14044189 C203.9390205 166.38300655 204.15275467 168.94935484 204.17045593 172.74761963 C204.17998795 173.87236191 204.18951996 174.99710419 204.19934082 176.15592957 C204.19797371 177.97164207 204.19797371 177.97164207 204.19657898 179.82403564 C204.20086411 181.07169205 204.20514923 182.31934845 204.20956421 183.60481262 C204.21530768 186.24354129 204.21674291 188.88187881 204.21147156 191.52056885 C204.20567845 194.89439333 204.22260825 198.26766854 204.24581623 201.64140224 C204.26412981 204.86894247 204.26036758 208.09645283 204.25907898 211.32403564 C204.26828873 212.53248642 204.27749847 213.74093719 204.2869873 214.98600769 C204.28075851 216.11390213 204.27452972 217.24179657 204.26811218 218.40386963 C204.26874161 219.39330063 204.26937103 220.38273163 204.27001953 221.40214539 C203.67072632 225.78735891 202.06018883 228.24814426 198.56484985 230.92669678 C195.55565188 232.29512241 193.48684257 232.5321467 190.19096375 232.56036377 C189.06952469 232.57627563 187.94808563 232.5921875 186.79266357 232.60858154 C184.98939857 232.60888367 184.98939857 232.60888367 183.14970398 232.60919189 C181.9058342 232.61680542 180.66196442 232.62441895 179.38040161 232.63226318 C176.07985809 232.64582144 172.7797203 232.64367411 169.47917175 232.63787842 C167.46141181 232.64043794 165.44441704 232.65857076 163.42680359 232.68243408 C159.54240537 232.72525834 155.65931261 232.7343176 151.77470398 232.73419189 C150.57455154 232.75058716 149.37439911 232.76698242 148.13787842 232.78387451 C138.8437182 232.70697007 138.8437182 232.70697007 135.15336609 229.79083252 C131.46673536 225.46271927 131.76252846 221.56387367 131.75517273 216.14825439 C131.7368466 214.54016729 131.71727646 212.93209397 131.69657898 211.32403564 C131.6676074 208.79368777 131.6457975 206.26422818 131.64530945 203.73370361 C131.64196994 201.28775595 131.60739969 198.84384719 131.56767273 196.39825439 C131.57474243 195.64601593 131.58181213 194.89377747 131.58909607 194.1187439 C131.49627677 190.10023754 131.05715191 188.33761996 128.47880554 185.18682861 C124.2392547 181.82804646 121.08747652 181.99508941 115.8535614 181.99859619 C115.02249374 181.99512177 114.19142609 181.99164734 113.33517456 181.98806763 C111.52689473 181.98070564 109.71860583 181.97536262 107.91031456 181.97177696 C105.04808565 181.96462144 102.18602917 181.94896162 99.32385254 181.93043518 C91.18469106 181.87792354 83.045623 181.82998541 74.90629578 181.81451416 C69.93064949 181.80443528 64.95543516 181.77511201 59.97995949 181.73319435 C58.08339517 181.72087685 56.18676986 181.71576446 54.29016685 181.71799278 C51.63504803 181.72034452 48.98116898 181.69818938 46.32621765 181.67047119 C45.54317261 181.6770726 44.76012756 181.68367401 43.95335388 181.69047546 C40.32583288 181.62831679 38.11002723 181.27207917 34.99389648 179.35731506 C31.33785421 175.49430242 30.64644457 172.8333479 30.58940125 167.5491333 C30.57341385 166.42761871 30.55742645 165.30610413 30.54095459 164.15060425 C30.53559189 162.9432663 30.53022919 161.73592834 30.52470398 160.49200439 C30.51567551 159.24671967 30.50664703 158.00143494 30.49734497 156.71841431 C30.48283573 154.08387795 30.47315909 151.44977542 30.47026062 148.81524658 C30.465948 146.118559 30.4450664 143.42282373 30.40873718 140.72637939 C30.3599579 136.83545801 30.3444778 132.94569979 30.33720398 129.05450439 C30.31767166 127.8512149 30.29813934 126.64792542 30.27801514 125.40817261 C30.32825101 116.0861094 30.32825101 116.0861094 33.30570984 112.39581299 C37.48685505 108.75499675 40.60251947 108.98977461 45.93803406 108.98272705 C46.76910172 108.97764633 47.60016937 108.97256561 48.4564209 108.96733093 C50.26469678 108.95661598 52.07298602 108.94800023 53.8812809 108.9412117 C56.7435058 108.92943992 59.60557863 108.90999112 62.46774292 108.88809204 C70.60687704 108.82642096 78.74599646 108.77243449 86.88529968 108.73907471 C91.86088948 108.71813057 96.83620364 108.68282739 101.81163597 108.63831711 C103.70820051 108.62415268 105.60481383 108.61543367 107.5014286 108.61226273 C110.15637163 108.60735461 112.81058335 108.58419881 115.46537781 108.5569458 C116.24842285 108.55995193 117.0314679 108.56295807 117.83824158 108.5660553 C122.36135593 108.49709594 125.29285364 107.93245124 128.89579773 105.14044189 C130.90850938 102.21313708 131.15193068 99.80332549 131.16142273 96.29669189 C131.16400085 95.38016846 131.16657898 94.46364502 131.16923523 93.51934814 C131.16150085 92.56930908 131.15376648 91.61927002 131.14579773 90.64044189 C131.1535321 89.69040283 131.16126648 88.74036377 131.16923523 87.76153564 C131.1666571 86.84501221 131.16407898 85.92848877 131.16142273 84.98419189 C131.15803894 83.73412354 131.15803894 83.73412354 131.15458679 82.45880127 C130.85496985 79.77468576 130.48127755 78.3402809 128.89579773 76.14044189 C123.1447132 72.16276342 117.16328578 72.73443429 110.45219421 72.78741455 C108.57561127 72.78417427 108.57561127 72.78417427 106.66111755 72.78086853 C103.9485104 72.77778363 101.23649917 72.77998676 98.52396965 72.79088211 C94.23319507 72.80728403 89.94269049 72.79875893 85.6519165 72.78604126 C74.22493308 72.75596295 62.79799949 72.7573969 51.37099653 72.77629411 C43.85637338 72.78862834 36.34205716 72.78676855 28.82746941 72.75790632 C24.56348738 72.74267882 20.30033921 72.75014291 16.03640926 72.77461648 C12.76087736 72.78705705 9.48551133 72.76711071 6.21000671 72.7522583 C4.44174278 72.77226646 4.44174278 72.77226646 2.63775635 72.79267883 C-6.23509017 72.7030029 -6.23509017 72.7030029 -9.31134033 69.72720337 C-11.88089754 66.01981718 -12.23990533 64.1644454 -12.29707336 59.68438721 C-12.31313629 58.54270081 -12.32919922 57.4010144 -12.3457489 56.22473145 C-12.39014115 50.9961321 -12.43171124 45.7676205 -12.45429993 40.53887939 C-12.46762355 37.78007735 -12.4954447 35.02201778 -12.53633118 32.26348877 C-12.5952195 28.29020229 -12.61297212 24.31727483 -12.62763977 20.34356689 C-12.65030914 19.11212952 -12.67297852 17.88069214 -12.69633484 16.61193848 C-12.67276748 7.06690726 -12.67276748 7.06690726 -9.69648743 3.37774658 C-6.15361581 0.32002616 -4.57819932 0.01444251 0 0 Z " fill="#E8EADE" transform="translate(100.10420227050781,83.85955810546875)"/>
</svg>
