<?xml version="1.0" encoding="UTF-8"?>
<svg version="1.1" xmlns="http://www.w3.org/2000/svg" width="2417" height="2417">
<path d="M0 0 C4.96508802 0.01924621 9.92995233 0.02052179 14.89506549 0.01168913 C48.04851408 -0.04546258 81.04138557 0.40651661 114.09574145 3.27259535 C116.0851935 3.4445411 118.07522397 3.60975804 120.06529254 3.77441496 C126.8819662 4.33995905 133.68596172 4.98673583 140.48783892 5.70773405 C141.96397158 5.86113752 141.96397158 5.86113752 143.46992511 6.01764005 C243.06329569 16.43091951 339.99007869 38.98184082 444.23783892 73.45773405 C443.60154332 85.94221418 442.57074601 98.36138221 441.36984271 110.803132 C441.17833824 112.81127874 440.98710584 114.81945145 440.79611862 116.82764745 C440.27373888 122.31212293 439.74753382 127.79622547 439.22067156 133.2802719 C438.64952617 139.23246505 438.08198836 145.18500234 437.5139944 151.13749689 C436.52467033 161.50029277 435.53309681 171.86287183 434.53995723 182.22530264 C433.48614361 193.22093239 432.43368202 204.21669029 431.38290995 215.21261114 C431.31686896 215.90369695 431.25082797 216.59478275 431.18278573 217.30681056 C430.84666155 220.82425225 430.51056035 224.34169615 430.17446773 227.85914087 C427.77172758 253.0050485 425.36607809 278.15067706 422.95872515 303.29614347 C420.6077571 327.85272695 418.25785268 352.40941177 415.90953082 376.96624845 C415.83704381 377.72425314 415.76455681 378.48225783 415.68987323 379.26323236 C414.88457227 387.68436852 414.07930472 396.10550788 413.27405614 404.52664906 C411.88715954 419.03055466 410.50015307 433.53444976 409.11309893 448.0383403 C408.96763654 449.5593855 408.82217465 451.08043075 408.67671328 452.60147605 C406.50330124 475.32816914 404.32922014 498.05479814 402.1546332 520.78137884 C395.90829317 586.06207361 389.66835988 651.3433704 383.44588661 716.62634542 C382.58649171 725.64243496 381.72672479 734.658489 380.86688001 743.67453565 C380.61975336 746.26582514 380.37263313 748.85711525 380.1255151 751.44840556 C380.04508056 752.29184512 379.96464601 753.13528468 379.88177406 754.00428302 C379.80188934 754.84195708 379.72200463 755.67963114 379.63969916 756.54268926 C379.16781361 761.49088588 378.69592488 766.4390822 378.2240234 771.38727731 C376.53321355 789.11672787 374.84349805 806.84628174 373.15609983 824.57605735 C372.02338047 836.47736402 370.88885044 848.37849686 369.75244319 860.27945197 C369.04734594 867.66432191 368.34429008 875.04938168 367.64303422 882.43461734 C367.22990928 886.7797421 366.81466086 891.12466177 366.39872342 895.46951813 C366.21049933 897.44016045 366.02315723 899.41088725 365.83677632 901.38170475 C365.58619197 904.03017049 365.332461 906.67831599 365.0778963 909.32640165 C365.00665819 910.08755476 364.93542008 910.84870787 364.86202323 911.63292623 C364.50399967 915.32113263 363.96707564 918.81155045 363.23783892 922.45773405 C345.08783892 922.45773405 326.93783892 922.45773405 308.23783892 922.45773405 C305.68565019 906.7329583 303.15254949 891.00757665 300.73002642 875.26242155 C288.53151582 796.09131924 274.1857304 717.3126371 255.23783892 639.45773405 C254.98902972 638.43198271 254.74022052 637.40623136 254.48387164 636.34939665 C232.02318214 543.87650763 203.0999991 449.18785621 149.23783892 358.45773405 C148.46295123 357.18083708 148.46295123 357.18083708 147.67240924 355.8781442 C140.42329752 343.98485205 132.56636577 332.61833871 124.23783892 321.45773405 C123.79198443 320.85735319 123.34612994 320.25697233 122.88676471 319.63839811 C106.27610391 297.35035268 87.1677996 275.60461688 65.23783892 258.45773405 C64.10927991 257.53078757 62.98311542 256.60092065 61.85893267 255.66867155 C2.83130898 206.99872522 -71.79203143 187.57777022 -146.76216108 182.45773405 C-147.61439252 182.39843717 -148.46662397 182.3391403 -149.34468061 182.27804655 C-224.90531712 177.28721229 -299.98696935 187.98660104 -368.76216108 220.45773405 C-369.97355756 221.02548551 -369.97355756 221.02548551 -371.2094267 221.6047067 C-396.29588188 233.45108832 -419.61902234 248.49843053 -440.76216108 266.45773405 C-441.79788442 267.30888962 -442.83438379 268.15910151 -443.87153608 269.0085153 C-458.05231696 280.74662399 -471.61841375 293.77468404 -482.76216108 308.45773405 C-483.75925152 309.7168212 -484.75809527 310.97452097 -485.75825483 312.23117155 C-530.42560799 368.82715507 -550.06937204 438.96475524 -541.76216108 510.45773405 C-536.76126564 549.59843224 -524.44877376 585.33458451 -506.76216108 620.45773405 C-506.37205854 621.24438444 -505.981956 622.03103483 -505.58003217 622.84152311 C-495.9412399 642.22298328 -483.72778029 660.16739843 -470.76216108 677.45773405 C-470.30325483 678.06971647 -469.84434858 678.68169889 -469.37153608 679.31222624 C-461.74151919 689.43882952 -453.72742804 699.23106726 -445.44966108 708.83273405 C-444.96521528 709.39653776 -444.48076947 709.96034147 -443.9816435 710.54123014 C-433.33009514 722.81950445 -421.99258047 734.38740093 -410.48823529 745.86203092 C-407.99894792 748.34591854 -405.51510406 750.83516088 -403.03169233 753.32492155 C-401.42654439 754.92940923 -399.82108657 756.53358697 -398.21528608 758.13742155 C-397.48489118 758.86984068 -396.75449628 759.60225981 -396.0019682 760.35687345 C-391.95562438 764.38503342 -387.81787083 768.24650148 -383.48849469 771.96951383 C-381.09146374 774.03592202 -378.77415072 776.18538281 -376.44966108 778.33273405 C-372.00965323 782.38294696 -367.44281826 786.21307526 -362.76606733 789.9850778 C-359.26549317 792.86656472 -355.85944818 795.84502801 -352.44966108 798.83273405 C-346.53540563 803.99834957 -340.47688118 808.91940247 -334.26997358 813.7272653 C-331.30354582 816.02521393 -328.37951922 818.37129751 -325.46284467 820.73190397 C-318.2968546 826.52468412 -310.98285456 832.0968433 -303.59443647 837.60250944 C-298.27960294 841.56359785 -292.99833812 845.56429586 -287.74018842 849.60031217 C-278.57517126 856.63147023 -269.29483016 863.43937768 -259.80952436 870.03097624 C-257.04748627 871.95577359 -254.29953907 873.90017733 -251.55171186 875.84518522 C-248.69308056 877.86813998 -245.83040639 879.88533706 -242.96772748 881.90255827 C-241.50057185 882.93707027 -240.03409684 883.97254822 -238.56831342 885.00900358 C-199.29176381 912.77153515 -158.99446486 939.10997861 -118.76216108 965.45773405 C-117.51915533 966.27201763 -116.27615389 967.08630778 -115.03315717 967.90060514 C-103.48839407 975.46253316 -91.93060463 983.00419927 -80.35591108 990.52023405 C-70.2794997 997.06587088 -60.22552726 1003.64584226 -50.17182904 1010.22628874 C-46.84966273 1012.40069006 -43.52658315 1014.57369369 -40.20356733 1016.74679655 C-33.47987651 1021.14490895 -26.76176624 1025.55150314 -20.04487592 1029.95999235 C-17.5487335 1031.59776879 -15.05194216 1033.23455333 -12.55512983 1034.87130827 C27.855573 1061.36841037 27.855573 1061.36841037 47.19145221 1075.0241403 C50.8784235 1077.60704359 54.6338937 1080.08243065 58.39018267 1082.5632028 C76.23510737 1094.43534063 93.73064867 1106.86158999 111.07768267 1119.4460153 C114.20704219 1121.71560564 117.3485992 1123.96685262 120.5002901 1126.20529264 C137.01184749 1137.9349721 153.16470641 1150.13692514 169.23783892 1162.45773405 C170.47869681 1163.40698879 171.7195791 1164.35621163 172.96049517 1165.3053903 C185.61402044 1174.99725304 198.0858957 1184.89787198 210.42924517 1194.98117155 C212.03019372 1196.28820946 213.63381869 1197.59196761 215.23783892 1198.89523405 C222.31694663 1204.65729846 229.28995786 1210.53880296 236.23783892 1216.45773405 C236.82532916 1216.9574069 237.41281939 1217.45707975 238.01811236 1217.9718942 C244.76511047 1223.71359324 251.45770818 1229.4995878 258.01908892 1235.4538278 C260.03092285 1237.27085387 262.06444326 1239.05717797 264.11283892 1240.83273405 C268.45101432 1244.61451019 272.68890396 1248.50339497 276.91850299 1252.40548795 C278.9249161 1254.25432621 280.93959633 1256.0917477 282.96415728 1257.92086881 C292.72401965 1266.79369791 302.03649074 1276.10442237 311.35112017 1285.4406442 C314.12472255 1288.21964078 316.90367574 1290.99320687 319.68315142 1293.7663278 C321.46993073 1295.55376742 323.25640008 1297.34151695 325.04252642 1299.12960905 C325.86244067 1299.94749906 326.68235492 1300.76538908 327.52711505 1301.60806364 C331.75581319 1305.85388689 335.83769335 1310.16880459 339.73765582 1314.71943754 C342.11713283 1317.47659203 344.62169129 1320.11440668 347.11283892 1322.77023405 C351.55571772 1327.54531006 355.76106799 1332.44593138 359.84330767 1337.53585905 C362.11892722 1340.31263461 364.46061814 1343.01099383 366.83378619 1345.7038278 C373.81416554 1353.63312661 380.27535656 1361.86865044 386.61723346 1370.31369108 C388.21324921 1372.42520214 389.82871837 1374.5200076 391.45268267 1376.6100778 C418.0791422 1410.92485685 441.22511315 1448.21628673 460.18217486 1487.2975778 C461.34262956 1489.67216225 462.52881443 1492.03310343 463.71440142 1494.39523405 C493.16359934 1553.7195703 509.52676282 1618.78985436 516.23783892 1684.45773405 C516.41572955 1686.13706022 516.41572955 1686.13706022 516.59721392 1687.85031217 C525.07648773 1770.97747855 511.06790133 1856.56921336 457.5718233 2000.64572233 C456.21760841 2003.50037956 454.88994598 2006.36628895 453.56596392 2009.2350778 C447.55176051 2022.16670467 440.84270733 2034.57598095 433.6968233 2046.91427702 C432.41692296 2049.14553568 431.16839894 2051.3887427 429.94096392 2053.6491403 C423.86872111 2064.81004395 416.92023671 2075.36732143 409.8999483 2085.95138639 C408.54287585 2087.99775916 407.19232783 2090.04802939 405.84721392 2092.1022653 C393.42402441 2110.96430303 379.79225425 2129.18933269 365.23783892 2146.45773405 C364.34842679 2147.52146154 363.45910951 2148.58526835 362.56987017 2149.6491403 C357.57538701 2155.60493373 352.49396133 2161.46297108 347.26518267 2167.21554655 C345.49816693 2169.16981829 343.76870363 2171.14833142 342.05033892 2173.14523405 C333.03945319 2183.44631478 323.52320269 2193.26792611 313.86283892 2202.95773405 C313.03115191 2203.79401335 312.1994649 2204.63029264 311.34257525 2205.49191374 C307.04516929 2209.77857296 302.676285 2213.90976689 298.07377642 2217.86691374 C295.28760281 2220.28110353 292.61380174 2222.81102722 289.92533892 2225.33273405 C285.11028449 2229.81193564 280.17252048 2234.06543175 275.04252642 2238.18429655 C272.49494003 2240.24933176 269.99531327 2242.35706557 267.50492877 2244.48996061 C260.60308777 2250.39644244 253.51066915 2256.01492713 246.23783892 2261.45773405 C245.54448443 2261.9770651 244.85112994 2262.49639616 244.13676471 2263.03146452 C225.98510595 2276.5907734 207.55905163 2289.61288719 188.23783892 2301.45773405 C187.45505572 2301.93919889 186.67227252 2302.42066374 185.86576861 2302.91671842 C180.02809172 2306.49626815 174.14866143 2310.00039941 168.23783892 2313.45773405 C167.34516314 2313.98028776 166.45248736 2314.50284147 165.5327608 2315.04123014 C129.39228274 2336.05121642 91.48799545 2353.75602048 52.31449908 2368.31222624 C49.36037918 2369.41210963 46.41435115 2370.53174992 43.46830767 2371.65304655 C-8.85858706 2391.29986565 -63.82589897 2403.57198525 -119.01216108 2411.77023405 C-120.18474973 2411.94637235 -120.18474973 2411.94637235 -121.38102704 2412.12606901 C-147.27392942 2415.97618715 -172.89539292 2417.93687883 -199.06185299 2417.89364213 C-202.05414242 2417.89046659 -205.04638811 2417.89673334 -208.03867114 2417.90268087 C-215.13656379 2417.91656023 -222.23433576 2417.91531141 -229.33222944 2417.90377897 C-235.72069004 2417.89362465 -242.10884439 2417.90061963 -248.4972685 2417.92428678 C-283.09374537 2418.04937587 -317.39669816 2418.01690989 -351.7882269 2413.70180982 C-354.73931943 2413.33690901 -357.69440696 2413.00933393 -360.64961225 2412.67965788 C-366.02996673 2412.06636597 -371.39651233 2411.3750646 -376.76216108 2410.64523405 C-378.15573835 2410.45906523 -378.15573835 2410.45906523 -379.57746869 2410.26913542 C-463.59888013 2399.0252745 -546.45663184 2380.05843574 -627.20472699 2354.27352995 C-629.87018526 2353.42327541 -632.53703328 2352.57748287 -635.20405561 2351.73214811 C-713.83422454 2326.76828398 -790.26400839 2295.84757068 -864.76216108 2260.45773405 C-865.38582563 2260.16169279 -866.00949018 2259.86565153 -866.65205365 2259.56063932 C-881.26716343 2252.61869535 -895.81831657 2245.58339283 -910.06489545 2237.90646452 C-912.71735586 2236.48179941 -915.37541358 2235.06794934 -918.03512555 2233.6568765 C-920.58286013 2232.3048147 -923.12893942 2230.94965531 -925.67472821 2229.593934 C-926.92683539 2228.92752586 -928.17936885 2228.26191796 -929.43235761 2227.59716886 C-931.19628927 2226.66056877 -932.95777898 2225.71937417 -934.71919233 2224.77804655 C-935.73988813 2224.23422331 -936.76058393 2223.69040006 -937.8122099 2223.13009733 C-940.90239119 2221.37823589 -943.81641878 2219.44080409 -946.76216108 2217.45773405 C-942.49656426 2193.67957959 -937.73708029 2170.00004574 -933.00717384 2146.31091136 C-931.82936093 2140.40980176 -930.65372448 2134.50825852 -929.4778288 2128.60676664 C-927.44970046 2118.42959147 -925.42030337 2108.25266995 -923.38999921 2098.07592863 C-920.2892931 2082.53377599 -917.1910176 2066.99113939 -914.09323905 2051.44840302 C-912.8503092 2045.21219091 -911.60731372 2038.97599188 -910.36431867 2032.73979276 C-910.22689661 2032.05033159 -910.08947454 2031.36087041 -909.94788817 2030.65051647 C-907.84570909 2020.10370115 -905.74314012 2009.5569636 -903.64035016 1999.01027006 C-896.54849994 1963.44033769 -889.46092216 1927.86955788 -882.37934858 1892.2975778 C-882.15353974 1891.1633013 -881.92773091 1890.02902481 -881.69507939 1888.8603763 C-879.66072965 1878.64139943 -877.62647573 1868.42240349 -875.59233361 1858.20338529 C-872.69024547 1843.62404227 -869.78774783 1829.04478083 -866.88489789 1814.46558946 C-858.61075934 1772.90976084 -850.3378001 1731.3536983 -842.06955987 1689.79669565 C-841.54663864 1687.16844438 -841.02371645 1684.5401933 -840.50079328 1681.91194242 C-840.37114386 1681.26031402 -840.24149445 1680.60868562 -840.10791626 1679.9373109 C-836.61906298 1662.40212749 -833.12932323 1644.8671205 -829.63946992 1627.33213609 C-826.9301446 1613.71874266 -824.22155248 1600.10520377 -821.51397204 1586.49146318 C-819.67159868 1577.2283186 -817.82833355 1567.96535173 -815.98442256 1558.7025131 C-814.92717094 1553.3912866 -813.87027777 1548.07998956 -812.81450063 1542.76846975 C-806.89271485 1512.97826015 -800.85267955 1483.21401729 -794.76216108 1453.45773405 C-775.29216108 1453.45773405 -755.82216108 1453.45773405 -735.76216108 1453.45773405 C-735.47083295 1457.73097624 -735.17950483 1462.00421842 -734.87934858 1466.4069528 C-727.69779327 1570.37189376 -716.00567371 1673.8546198 -675.76216108 1831.45773405 C-675.51186139 1832.26730558 -675.26156171 1833.07687711 -675.00367719 1833.91098112 C-661.27760573 1878.20527383 -644.44823532 1920.9330507 -623.76216108 1962.45773405 C-623.23010053 1963.53120085 -622.69803998 1964.60466764 -622.14985639 1965.71066374 C-606.41308757 1997.29205461 -587.41263768 2027.59630562 -565.76216108 2055.45773405 C-564.85298557 2056.64368569 -563.94412925 2057.8298821 -563.03559858 2059.0163278 C-556.27560793 2067.78788721 -549.10613073 2076.17192795 -541.76216108 2084.45773405 C-540.93845014 2085.39488249 -540.1147392 2086.33203092 -539.26606733 2087.2975778 C-532.93935339 2094.35312918 -526.26320818 2101.06040828 -519.57466108 2107.77023405 C-519.10094068 2108.24663328 -518.62722028 2108.72303251 -518.13914472 2109.21386808 C-512.52341221 2114.8536675 -506.82617601 2120.30327916 -500.76216108 2125.45773405 C-499.79794233 2126.30335905 -498.83372358 2127.14898405 -497.84028608 2128.02023405 C-417.94626072 2196.87917303 -316.03007232 2232.08248822 -116.79585248 2244.68771452 C-39.29466 2238.81244304 38.15938304 2210.83442377 95.44096392 2157.06710905 C97.99643255 2154.68295676 100.604847 2152.38031299 103.23783892 2150.08273405 C113.77190547 2140.59364691 122.70788205 2129.74066523 131.23783892 2118.45773405 C131.70077349 2117.85171354 132.16370806 2117.24569303 132.64067096 2116.62130827 C139.51553254 2107.59968507 145.71939288 2098.36903834 151.23783892 2088.45773405 C151.69803424 2087.63305631 152.15822955 2086.80837858 152.63237017 2085.95871061 C196.80971512 2005.9674099 195.8430563 1911.53675758 171.47001666 1825.228486 C152.19079782 1759.1315134 118.63470498 1698.62437564 73.76518267 1646.4225778 C71.28688517 1643.51527053 68.88259096 1640.55901103 66.48783892 1637.58273405 C63.50434156 1633.91441255 60.42545349 1630.5107939 57.01678485 1627.23762602 C55.25406873 1625.47397248 53.63579029 1623.64482939 52.01689166 1621.74899381 C48.3103652 1617.48569221 44.39733773 1613.47255839 40.39799517 1609.4850778 C39.67220767 1608.75833357 38.94642016 1608.03158933 38.19863909 1607.28282255 C36.67460337 1605.75811109 35.14932323 1604.23464254 33.62284869 1602.71237272 C31.30651429 1600.40139514 28.99556815 1598.08512634 26.68510455 1595.76828092 C25.19388858 1594.27772585 23.7023624 1592.78748105 22.21049517 1591.2975778 C21.53003634 1590.61509474 20.84957751 1589.93261167 20.14849871 1589.22944731 C16.22469326 1585.32445299 12.19916201 1581.59481991 8.00242633 1577.98420805 C5.41602643 1575.74681692 2.92777683 1573.41367621 0.42533892 1571.08273405 C-4.19649939 1566.81254145 -8.95640055 1562.77548032 -13.85981733 1558.8288278 C-17.15179636 1556.13941828 -20.36210602 1553.3659145 -23.57466108 1550.58273405 C-29.84901111 1545.17018897 -36.29142443 1540.01489501 -42.84468061 1534.94552702 C-44.89506102 1533.3546156 -46.93653014 1531.75273404 -48.97700483 1530.1491403 C-59.74830178 1521.6997355 -70.69396265 1513.51342345 -81.76216108 1505.45773405 C-82.50965619 1504.91262174 -83.25715131 1504.36750944 -84.02729779 1503.80587858 C-89.25407128 1499.99762099 -94.50029586 1496.2173447 -99.76216108 1492.45773405 C-100.48822553 1491.93840299 -101.21428998 1491.41907194 -101.96235639 1490.88400358 C-133.12634266 1468.66230803 -165.39900142 1447.87714529 -197.76216108 1427.45773405 C-198.70108197 1426.8652487 -199.64000287 1426.27276335 -200.60737592 1425.66232389 C-215.12187303 1416.51738012 -229.7484383 1407.56425052 -244.42771894 1398.68745512 C-248.50227541 1396.22279191 -252.57125232 1393.74913336 -256.63716108 1391.27023405 C-268.96751223 1383.75614501 -281.33723193 1376.31450197 -293.76216108 1368.95773405 C-307.33775172 1360.91966248 -320.8421203 1352.77070793 -334.31343061 1344.55929655 C-340.18880879 1340.97824092 -346.06900566 1337.40511474 -351.94966108 1333.83273405 C-352.53003125 1333.48003446 -353.11040143 1333.12733488 -353.70835859 1332.76394743 C-362.01999153 1327.71363955 -370.35333891 1322.70054246 -378.69966108 1317.70773405 C-389.79019328 1311.06799611 -400.79595781 1304.3005027 -411.76216108 1297.45773405 C-413.21453168 1296.55257047 -413.21453168 1296.55257047 -414.69624311 1295.62912077 C-427.25309075 1287.8020258 -439.79725239 1279.95477523 -452.28901654 1272.0241403 C-454.85032361 1270.40189487 -457.41756408 1268.78929993 -459.98481733 1267.17648405 C-474.0205554 1258.31634844 -487.81314409 1249.11137309 -501.57466108 1239.83273405 C-502.4751518 1239.22615965 -503.37564252 1238.61958524 -504.30342084 1237.9946298 C-528.91598104 1221.40357769 -553.16475834 1204.36598739 -576.72309858 1186.3053903 C-580.47767276 1183.42953115 -584.25858639 1180.59331947 -588.0597685 1177.77951139 C-596.57471138 1171.46970128 -604.75481679 1164.79948548 -612.89204389 1158.01193327 C-615.39486068 1155.93191608 -617.9219231 1153.8823515 -620.44966108 1151.83273405 C-629.97590635 1144.04116166 -639.26416972 1135.9917609 -648.33247358 1127.6725778 C-650.36731523 1125.81766587 -652.42537355 1124.00344607 -654.51216108 1122.20773405 C-665.89161123 1112.29091847 -676.67513499 1101.71027571 -687.3266142 1091.02365202 C-689.28574763 1089.05908204 -691.25027752 1087.10001957 -693.21528608 1085.1413278 C-704.32254662 1074.03993059 -704.32254662 1074.03993059 -709.37837201 1068.0866403 C-711.55045618 1065.52980446 -713.8505837 1063.1000431 -716.13716108 1060.64523405 C-720.35490194 1056.074755 -724.37168747 1051.38834535 -728.26997358 1046.5397653 C-730.14085192 1044.22609287 -732.02947986 1041.93586826 -733.94184858 1039.6569528 C-746.63569798 1024.49840045 -758.09175657 1008.63510512 -769.07466108 992.20773405 C-769.49104841 991.58637571 -769.90743573 990.96501737 -770.33644086 990.32483 C-778.2697459 978.4625175 -785.75238929 966.33716025 -792.63716108 953.83273405 C-793.04587445 953.09095915 -793.45458783 952.34918424 -793.87568647 951.58493131 C-795.17698723 949.2123191 -796.47038613 946.83554432 -797.76216108 944.45773405 C-798.42369184 943.24754606 -798.42369184 943.24754606 -799.09858686 942.01290983 C-827.64467684 889.58068617 -845.49059742 831.48853645 -853.76216108 772.45773405 C-853.91378705 771.37733854 -854.06541303 770.29694303 -854.22163373 769.18380827 C-864.74132735 691.83867593 -857.81889835 612.14181795 -838.76216108 532.45773405 C-838.48291791 531.30337858 -838.20367475 530.14902311 -837.91596967 528.95968717 C-823.22074099 469.38783662 -798.9476824 411.6738083 -766.76216108 359.45773405 C-766.19497358 358.53621549 -765.62778608 357.61469694 -765.04341108 356.66525358 C-757.1275343 343.87042263 -748.74817251 331.52220947 -739.76216108 319.45773405 C-738.96866254 318.38603971 -738.96866254 318.38603971 -738.15913373 317.29269499 C-732.18107097 309.22075585 -726.11312628 301.24153896 -719.76216108 293.45773405 C-719.04544233 292.56699186 -718.32872358 291.67624967 -717.59028608 290.7585153 C-713.16440455 285.28721003 -708.60573732 279.9809942 -703.86762983 274.77804655 C-702.03298422 272.75619221 -700.23447321 270.71094882 -698.44966108 268.64523405 C-689.49597679 258.42679167 -680.10486437 248.69744104 -670.51216108 239.08273405 C-669.99292066 238.56090544 -669.47368024 238.03907682 -668.93870527 237.50143522 C-663.59153838 232.13328251 -658.22242562 226.84028121 -652.46089154 221.91134733 C-650.06713532 219.86299657 -647.76363768 217.7203734 -645.44966108 215.58273405 C-640.56879298 211.13586927 -635.53840583 206.93344504 -630.39936811 202.79025358 C-628.5382804 201.27551801 -626.69458901 199.7410162 -624.85200483 198.2038278 C-551.80301863 137.3437802 -465.64960459 93.12421247 0 0 Z " fill="#02524B" transform="translate(1245.7621610760689,-0.45773404836654663)"/>
<path d="M0 0 C2.18336702 2.01299968 4.34077158 4.05150784 6.48583984 6.10522461 C7.76819197 7.33165265 9.06315239 8.54486714 10.35986328 9.75610352 C16.95390537 16.08028267 22.45758426 23.19707161 27.93017578 30.48657227 C28.55794922 31.31930664 29.18572266 32.15204102 29.83251953 33.01000977 C41.59604477 49.22983516 50.61087162 67.14108302 57.11767578 86.04907227 C57.58101318 87.36500366 57.58101318 87.36500366 58.05371094 88.70751953 C59.1231298 91.94445677 60.04410674 95.1941704 60.93017578 98.48657227 C61.14263947 99.27301117 61.35510315 100.05945007 61.57400513 100.86972046 C66.02885912 117.9193646 66.68092265 134.60153213 66.50665283 152.11486816 C66.48798513 154.86513468 66.50303996 157.6148241 66.51721001 160.36508465 C66.60806232 181.88240178 64.22287058 201.44556047 57.18017578 221.79907227 C56.96330109 222.43645325 56.74642639 223.07383423 56.52297974 223.73052979 C53.3309711 233.09373571 49.81262038 242.09748094 44.92773438 250.7121582 C43.8661713 252.60042066 42.85965576 254.51229343 41.85595703 256.43188477 C18.48181674 300.4368213 -23.08911659 333.76295063 -69.94482422 349.73657227 C-70.86400635 350.05384277 -71.78318848 350.37111328 -72.73022461 350.69799805 C-75.82363279 351.71304344 -78.93394248 352.6114163 -82.06982422 353.48657227 C-83.28992187 353.85065186 -84.51001953 354.21473145 -85.76708984 354.58984375 C-101.12025454 358.73258199 -117.0836097 358.13077772 -132.85595703 358.06298828 C-136.15845458 358.04926037 -139.45979511 358.05613391 -142.76220703 358.08349609 C-161.77227868 358.24053622 -179.67091548 357.92135968 -198.06982422 352.48657227 C-199.24802734 352.15681396 -200.42623047 351.82705566 -201.64013672 351.48730469 C-204.36445902 350.67292051 -207.02531727 349.77650561 -209.69482422 348.79907227 C-210.62883057 348.46439941 -211.56283691 348.12972656 -212.52514648 347.78491211 C-247.12209583 335.04587209 -278.11972549 313.40895528 -301.06982422 284.48657227 C-301.88837891 283.47336914 -302.70693359 282.46016602 -303.55029297 281.41625977 C-337.00711759 239.49938744 -350.72743039 183.66587741 -345.38232422 130.73657227 C-340.430398 88.25034597 -323.33409167 47.34732825 -294.17529297 15.77954102 C-292.30774218 13.74567773 -290.52998201 11.66510203 -288.75732422 9.54907227 C-274.21059489 -6.97680391 -255.58102255 -19.60221241 -236.06982422 -29.51342773 C-235.37711426 -29.87130371 -234.6844043 -30.22917969 -233.97070312 -30.59790039 C-215.35811924 -40.13481793 -195.60331763 -45.81823874 -175.06982422 -49.51342773 C-174.33328613 -49.64620117 -173.59674805 -49.77897461 -172.83789062 -49.91577148 C-112.20024886 -60.14415361 -45.47535843 -41.23701834 0 0 Z " fill="#B5D626" transform="translate(2153.06982421875,2059.513427734375)"/>
</svg>
