<?xml version="1.0" encoding="UTF-8"?>
<svg version="1.1" xmlns="http://www.w3.org/2000/svg" width="400" height="400">
<path d="M0 0 C132 0 264 0 400 0 C400 132 400 264 400 400 C268 400 136 400 0 400 C0 268 0 136 0 0 Z " fill="#21ED87" transform="translate(0,0)"/>
<path d="M0 0 C12.21 0 24.42 0 37 0 C37.99 4.455 37.99 4.455 39 9 C41.96954909 17.50316667 47.18482608 23.77176326 55.08984375 28.16015625 C62.64471008 31.18491651 71.84449736 31.59207399 79.42578125 28.6875 C81.47086909 27.64872522 83.49189745 26.56017449 85.4765625 25.41015625 C89.57908483 23.11757024 89.57908483 23.11757024 92 23 C94.00868064 24.57125356 95.61777805 26.05926852 97.3515625 27.8984375 C97.8516684 28.40798981 98.35177429 28.91754211 98.86703491 29.4425354 C100.46519056 31.07533518 102.04535911 32.72429927 103.625 34.375 C105.21508362 36.01501379 106.80864127 37.65153859 108.40438843 39.28604126 C109.39676314 40.30485576 110.38519829 41.32752523 111.36929321 42.3543396 C113.91573911 45.02555954 113.91573911 45.02555954 117 47 C116.08052959 49.54622575 115.25310714 51.68086492 113.5625 53.8125 C108.69140646 60.63203095 108.09485776 67.8640055 109 76 C111.07838388 85.2908708 115.60917885 91.66297592 123.125 97.375 C129.24775758 100.83568906 132.41846571 101.1576073 140 102 C140 114.54 140 127.08 140 140 C134.555 140.99 134.555 140.99 129 142 C121.38842349 145.14793753 115.43267542 150.12704704 111.75 157.50390625 C107.71921655 167.34293668 107.90761483 175.77918846 111.84375 185.60546875 C113.2097595 188.43440058 114.81741968 190.73947038 117 193 C115.41568547 196.90851199 112.73364905 199.52367356 109.7734375 202.421875 C109.26575836 202.92672424 108.75807922 203.43157349 108.23501587 203.95172119 C106.61966158 205.55592096 104.99747791 207.15300856 103.375 208.75 C102.27558302 209.83938107 101.17661941 210.9292199 100.078125 212.01953125 C97.3906398 214.68501885 94.69700979 217.34415143 92 220 C89.84800881 218.92656359 87.70103352 217.84620474 85.5625 216.74609375 C84.716875 216.31425781 83.87125 215.88242187 83 215.4375 C82.154375 215.00308594 81.30875 214.56867188 80.4375 214.12109375 C73.09208262 210.74267262 64.30064917 210.82743513 56.75 213.5625 C47.93421458 217.6454519 43.39064166 223.2118617 39.12890625 231.83984375 C37.61733393 235.71042055 37.61733393 235.71042055 37 243 C24.46 243 11.92 243 -1 243 C-1.66 239.04 -2.32 235.08 -3 231 C-7.81431672 222.26705339 -13.53146354 216.33152209 -23 213 C-32.08790992 210.88445376 -39.86054668 211.31268836 -48 216 C-50.03227367 217.29088628 -52.0113877 218.64192331 -54 220 C-54.66 220 -55.32 220 -56 220 C-57.41015625 218.55761719 -57.41015625 218.55761719 -59.0625 216.546875 C-61.72344416 213.41391689 -64.47363797 210.48911177 -67.4375 207.640625 C-68.18644531 206.91746094 -68.93539062 206.19429687 -69.70703125 205.44921875 C-71.25977765 203.95995772 -72.81992667 202.47838324 -74.38671875 201.00390625 C-75.12535156 200.28589844 -75.86398438 199.56789063 -76.625 198.828125 C-77.29789063 198.1877832 -77.97078125 197.54744141 -78.6640625 196.88769531 C-80 195 -80 195 -79.83203125 192.93652344 C-79 191 -79 191 -77.0625 188.1875 C-72.00120928 180.36550526 -72.05266872 171.55923941 -73.359375 162.51171875 C-75.39684481 154.76107345 -81.04384507 148.42134412 -87.7890625 144.29296875 C-93.083188 141.76258094 -97.02423578 140.8536806 -103 140 C-103 127.46 -103 114.92 -103 102 C-98.05 101.01 -98.05 101.01 -93 100 C-85.05225955 97.19305992 -79.96361839 93.0844578 -75.75 85.85546875 C-72.26308923 78.55474932 -71.88177121 70.94271332 -73 63 C-74.98887361 57.53059758 -77.78434239 52.82348642 -81 48 C-72.42 39.42 -63.84 30.84 -55 22 C-51.7 23.98 -48.4 25.96 -45 28 C-37.50588567 30.99764573 -28.74728015 31.4672309 -20.94140625 29.0546875 C-18.47302654 27.85994663 -16.25966453 26.54973161 -14 25 C-12.9275 24.319375 -11.855 23.63875 -10.75 22.9375 C-4.37879472 17.21789526 -1.98100044 7.92400176 0 0 Z " fill="#003311" transform="translate(183,80)"/>
<path d="M0 0 C1.69593014 0.84254509 3.36573296 1.73849711 5.015625 2.66796875 C6.00820312 3.22484375 7.00078125 3.78171875 8.0234375 4.35546875 C9.08820313 4.96003906 10.15296875 5.56460938 11.25 6.1875 C12.35085937 6.80882812 13.45171875 7.43015625 14.5859375 8.0703125 C22.41604471 12.50261692 30.21871117 16.98252274 38 21.5 C38.97098633 22.06227295 39.94197266 22.6245459 40.94238281 23.20385742 C41.86889648 23.74502197 42.79541016 24.28618652 43.75 24.84375 C44.54921875 25.30974609 45.3484375 25.77574219 46.171875 26.25585938 C47.10515625 26.83142578 48.0384375 27.40699219 49 28 C50.12341042 28.48666138 50.12341042 28.48666138 51.26951599 28.9831543 C54.07725918 30.4008614 55.9094155 31.63409793 58 34 C59.53609296 39.15499534 59.63444878 44.28916355 59.72265625 49.625 C59.7668897 51.17473473 59.81152865 52.72445794 59.85655212 54.27416992 C59.93740161 57.52251414 59.97812502 60.76881003 59.99731445 64.01806641 C60.02338496 67.33243133 60.12707096 70.62931287 60.30493164 73.93896484 C61.70215192 100.40096892 61.70215192 100.40096892 55.73516846 107.81350708 C50.06386748 112.51108912 43.71058914 115.33900976 36.85519409 117.90411377 C33.30601022 119.26636853 30.28653989 120.98503398 27.046875 122.96484375 C24.3289076 124.49453693 21.60718492 126.01735962 18.88500977 127.53955078 C14.91667987 129.76487834 10.9626956 131.98836004 7.10546875 134.40234375 C5.53732422 135.37880859 5.53732422 135.37880859 3.9375 136.375 C3.10089844 136.91898438 2.26429688 137.46296875 1.40234375 138.0234375 C-1.81724804 139.33221465 -3.63399062 138.7813167 -7 138 C-9.65527344 136.74755859 -9.65527344 136.74755859 -12.359375 135.1484375 C-13.38071533 134.5512793 -14.40205566 133.95412109 -15.4543457 133.33886719 C-17.08569458 132.36675293 -17.08569458 132.36675293 -18.75 131.375 C-20.47766378 130.36117464 -22.20533687 129.34736475 -23.93354797 128.33447266 C-25.73577763 127.27677678 -27.5356837 126.21520266 -29.33544922 125.15332031 C-35.3013169 121.63986368 -41.31020013 118.20068388 -47.3125 114.75 C-49.45482712 113.51631942 -51.59678222 112.28199248 -53.73828125 111.046875 C-54.63587158 110.52963867 -55.53346191 110.01240234 -56.45825195 109.47949219 C-57.29702881 108.99125977 -58.13580566 108.50302734 -59 108 C-60.29415581 107.42095665 -60.29415581 107.42095665 -61.61445618 106.83021545 C-64 105 -64 105 -64.66183472 101.98417664 C-64.6778775 100.74762833 -64.69392029 99.51108002 -64.71044922 98.23706055 C-64.73322937 97.2121048 -64.73322937 97.2121048 -64.75646973 96.16644287 C-64.79888851 93.90603481 -64.80376608 91.64750011 -64.8046875 89.38671875 C-64.81821601 87.81353482 -64.83264325 86.24035837 -64.84793091 84.66719055 C-64.87336628 81.36753407 -64.87862156 78.06853844 -64.87158203 74.76879883 C-64.86549091 70.54744832 -64.9232934 66.32969037 -64.99824333 62.1091032 C-65.04643483 58.85834335 -65.05328813 55.60844487 -65.0485878 52.35737038 C-65.05263241 50.80200595 -65.07108022 49.2466079 -65.10439682 47.69159508 C-65.3373349 35.57584424 -65.3373349 35.57584424 -62.12750244 31.79354858 C-59.81259037 30.21834175 -57.57654003 29.08468002 -55 28 C-53.99453125 27.40348633 -52.9890625 26.80697266 -51.953125 26.19238281 C-51.06109375 25.70092773 -50.1690625 25.20947266 -49.25 24.703125 C-48.23744141 24.14165771 -47.22488281 23.58019043 -46.18164062 23.00170898 C-45.13169922 22.42364502 -44.08175781 21.84558105 -43 21.25 C-35.44997021 17.06053241 -27.92778765 12.84050434 -20.5 8.4375 C-19.8191333 8.03587646 -19.1382666 7.63425293 -18.43676758 7.22045898 C-15.65028146 5.57566058 -12.87120218 3.9217827 -10.10546875 2.2421875 C-8.90857422 1.53449219 -8.90857422 1.53449219 -7.6875 0.8125 C-7.05199219 0.42707031 -6.41648438 0.04164063 -5.76171875 -0.35546875 C-3.41099481 -1.21548971 -2.37840684 -0.76319847 0 0 Z " fill="#21ED87" transform="translate(204,132)"/>
</svg>
