<svg version="1.1" id="Layer_1" xmlns:x="ns_extend;" xmlns:i="ns_ai;" xmlns:graph="ns_graphs;" xmlns="http://www.w3.org/2000/svg" xmlns:xlink="http://www.w3.org/1999/xlink" x="0px" y="0px" viewBox="0 0 47.2 47.2" style="enable-background:new 0 0 47.2 47.2;" xml:space="preserve">
 <style type="text/css">
  .st0{fill:#3B45FC;}
 </style>
 <metadata>
  <sfw xmlns="ns_sfw;">
   <slices>
   </slices>
   <sliceSourceBounds bottomLeftOrigin="true" height="47.2" width="47.2" x="40.5" y="-148">
   </sliceSourceBounds>
  </sfw>
 </metadata>
 <g>
  <g>
   <path class="st0" d="M17.9,0.7l0.5,2.1c-2.1,0.5-4.1,1.3-5.9,2.5l-1.1-1.9C13.4,2.2,15.6,1.3,17.9,0.7L17.9,0.7z M29.3,0.7
			l-0.5,2.1c2.1,0.5,4.1,1.3,5.9,2.5l1.1-1.9C33.8,2.2,31.6,1.3,29.3,0.7L29.3,0.7z M3.4,11.4c-1.2,2-2.1,4.2-2.7,6.5l2.1,0.5
			c0.5-2.1,1.3-4.1,2.5-5.9L3.4,11.4z M2.2,23.6c0-1.1,0.1-2.1,0.2-3.2l-2.2-0.3c-0.4,2.3-0.4,4.7,0,7.1l2.2-0.3
			C2.3,25.8,2.2,24.7,2.2,23.6L2.2,23.6z M35.8,43.8l-1.1-1.9c-1.8,1.1-3.8,1.9-5.9,2.5l0.5,2.1C31.6,46,33.8,45,35.8,43.8
			L35.8,43.8z M45,23.6c0,1.1-0.1,2.1-0.2,3.2l2.2,0.3c0.4-2.3,0.4-4.7,0-7.1l-2.2,0.3C44.9,21.5,45,22.5,45,23.6L45,23.6z
			 M46.5,29.3l-2.1-0.5c-0.5,2.1-1.3,4.1-2.5,5.9l1.9,1.1C45,33.8,46,31.6,46.5,29.3L46.5,29.3z M26.8,44.8c-2.1,0.3-4.3,0.3-6.4,0
			l-0.3,2.2c2.3,0.4,4.7,0.4,7.1,0L26.8,44.8z M40.8,36.3c-1.3,1.7-2.8,3.3-4.5,4.5l1.3,1.8c1.9-1.4,3.6-3.1,5-5L40.8,36.3z
			 M36.3,6.4c1.7,1.3,3.3,2.8,4.5,4.5l1.8-1.3c-1.4-1.9-3.1-3.6-5-5L36.3,6.4z M6.4,10.9c1.3-1.7,2.8-3.3,4.5-4.5L9.6,4.6
			C7.7,6,6,7.7,4.6,9.6L6.4,10.9z M43.8,11.4l-1.9,1.1c1.1,1.8,1.9,3.8,2.5,5.9l2.1-0.5C46,15.6,45,13.4,43.8,11.4L43.8,11.4z
			 M20.4,2.5c2.1-0.3,4.3-0.3,6.4,0l0.3-2.2c-2.3-0.4-4.7-0.4-7.1,0L20.4,2.5z M7.5,43.2l-4.6,1.1L4,39.7l-2.2-0.5l-1.1,4.6
			c-0.1,0.6,0,1.2,0.3,1.7s0.8,0.9,1.4,1c0.3,0.1,0.7,0.1,1,0L8,45.4L7.5,43.2z M2.3,37.2l2.2,0.5l0.7-3.2c-1.1-1.8-1.9-3.8-2.4-5.8
			l-2.1,0.5c0.5,2,1.2,3.8,2.2,5.6L2.3,37.2z M12.6,42l-3.2,0.7l0.5,2.2l2.3-0.5c1.8,1,3.7,1.7,5.6,2.2l0.5-2.1
			C16.4,43.9,14.5,43.1,12.6,42L12.6,42z">
   </path>
  </g>
  <path class="st0" d="M23.6,4C12.7,4,3.9,12.8,3.9,23.5c0,3.8,1.1,7.4,3,10.4l-2,8.3l8.2-2.1c3,1.8,6.5,2.9,10.3,2.9
		c10.9,0,19.6-8.7,19.6-19.5S34.4,4,23.6,4z">
  </path>
 </g>
</svg>