<?xml version="1.0" encoding="UTF-8"?>
<svg id="logosandtypes_com" data-name="logosandtypes com" xmlns="http://www.w3.org/2000/svg" viewBox="0 0 150 150">
  <defs>
    <style>
      .cls-1 {
        fill: #2c2e31;
      }

      .cls-2 {
        fill: none;
      }

      .cls-3 {
        fill: #fc0;
      }
    </style>
  </defs>
  <g id="Layer_3" data-name="Layer 3">
    <g id="Layer_3-2" data-name="Layer 3">
      <g id="Layer_2" data-name="Layer 2">
        <path id="Layer_3-3" data-name="Layer 3" class="cls-2" d="M0,0H150V150H0V0Z"/>
      </g>
    </g>
  </g>
  <path class="cls-3" d="M126.71,36.54L82.07,10.65c-4.02-2.23-10.27-2.23-14.28,0L23.15,36.54c-3.57,2.68-6.7,8.04-6.7,12.5v51.34c0,4.46,3.12,9.82,7.14,12.05l44.64,25.89c4.02,2.23,10.27,2.23,14.28,0l44.64-25.89c4.02-2.23,7.14-7.59,7.14-12.05V49.04c-.45-4.46-3.57-9.82-7.59-12.5Zm-12.05,28.12h-4.46v-8.04c0-5.8-4.46-8.04-13.39-8.04h-.45c-21.43,0-19.64-8.04-20.09-11.16h-.45c-.45,3.12,1.34,11.16-20.09,11.16h-.45c-8.93,0-13.39,1.79-13.39,8.04v6.25l72.76,20.98v8.93c0,8.48-4.02,13.39-18.3,13.39h-.89c-10.71,0-17.86,2.23-17.86,11.16h-4.46c0-8.48-6.7-11.16-17.86-11.16-13.84,0-18.3-4.91-18.3-13.39v-7.59h4.46v8.04c0,5.8,4.46,8.04,13.39,8.04h.45c21.43,0,19.64,8.04,20.09,11.16h.45c.45-3.12-1.34-11.16,20.09-11.16h.89c8.93,0,13.39-1.79,13.39-8.04v-4.46l-73.21-21.43v-10.27c0-8.48,4.02-13.39,18.3-13.39h.89c11.16,0,17.86-2.23,17.86-11.16h4.46c0,8.48,6.7,11.16,17.86,11.16h.45c13.84,0,18.3,4.91,18.3,13.39l-.45,7.59Z"/>
  <path class="cls-1" d="M96.8,43.69h-.45c-11.16,0-17.86-2.68-17.86-11.16h-4.46c0,8.93-6.7,11.16-17.86,11.16h-.89c-14.28,0-18.3,4.91-18.3,13.39v10.27l73.21,21.43v4.46c0,6.25-4.46,8.04-13.39,8.04h-.89c-21.43,0-19.64,8.04-20.09,11.16h-.45c-.45-3.12,1.34-11.16-20.09-11.16h-.45c-8.93,0-13.39-2.23-13.39-8.04v-8.04h-4.46v7.59c0,8.48,4.46,13.39,18.3,13.39,11.16,0,17.86,2.68,17.86,11.16h4.46c0-8.93,7.14-11.16,17.86-11.16h.89c14.28,0,18.3-4.91,18.3-13.39v-8.93L41.89,62.88v-6.25c0-6.25,4.46-8.04,13.39-8.04h.45c21.43,0,19.64-8.04,20.09-11.16h.45c.45,3.12-1.34,11.16,20.09,11.16h.45c8.93,0,13.39,2.23,13.39,8.04v8.04h4.46l.45-7.59c0-8.48-4.46-13.39-18.3-13.39Z"/>
</svg>