<svg fill="none" height="100%" viewBox="0 0 34 41" width="100%" xmlns="http://www.w3.org/2000/svg">
<path d="M15.2357 15.5084L24.1873 0H16.9614L10.9438 10.4231C10.6646 10.9069 10.6646 11.5027 10.9438 11.9865L16.5104 21.6277C16.7896 22.1115 17.3058 22.4096 17.8642 22.4096H33.7999V16.681H15.913C15.3111 16.681 14.9352 16.0295 15.2361 15.5084H15.2357Z" fill="currentColor"></path>
<path d="M4.50133 34.0982L13.453 18.5898H6.22704L0.20941 29.013C-0.0698032 29.4968 -0.0698032 30.0925 0.20941 30.5763L5.77604 40.2176C6.05525 40.7014 6.57144 40.9994 7.12987 40.9994H23.0655V35.2709H5.17866C4.57677 35.2709 4.2008 34.6194 4.50174 34.0982H4.50133Z" fill="currentColor"></path>
</svg>