<?xml version="1.0" encoding="UTF-8"?>
<svg version="1.1" xmlns="http://www.w3.org/2000/svg" width="200" height="200">
<path d="M0 0 C3.00103004 1.57384218 5.84075815 3.35175058 8.6875 5.1875 C14.38716008 8.81003897 20.13611296 12.21069585 26.08325195 15.4128418 C31.35972759 18.28405366 36.55034473 21.30507146 41.75 24.3125 C42.8836499 24.96750488 44.0172998 25.62250977 45.18530273 26.29736328 C51.49983865 29.95293372 57.80290474 33.62600912 64.0625 37.375 C64.66868164 37.73762939 65.27486328 38.10025879 65.89941406 38.47387695 C69.86964416 40.86964416 69.86964416 40.86964416 71 42 C71.18559832 44.68434449 71.30597932 47.34469894 71.38330078 50.03295898 C71.41075378 50.87535629 71.43820679 51.7177536 71.4664917 52.5856781 C71.70685663 60.38394861 71.8499369 68.18427662 71.96293831 75.98533535 C72.04033315 81.22712296 72.14992242 86.46377882 72.33740234 91.70288086 C72.51783661 96.76853819 72.6137421 101.82949061 72.65185165 106.89814949 C72.68062159 108.82478727 72.73892425 110.75122983 72.82797623 112.67602348 C73.36962916 124.93367907 73.36962916 124.93367907 71 130 C66.87231274 134.40654995 61.46418707 136.8411265 55.97346115 139.14875603 C53.50634279 140.21293691 51.25084263 141.5338162 48.97265625 142.953125 C47.98096436 143.53562012 47.98096436 143.53562012 46.96923828 144.12988281 C46.34001465 144.49952148 45.71079102 144.86916016 45.0625 145.25 C44.35851074 145.6634668 43.65452148 146.07693359 42.92919922 146.50292969 C39.14600384 148.72772384 35.37747967 150.97361423 31.625 153.25 C27.59537755 155.67853707 23.49003485 157.92873864 19.3359375 160.13671875 C16.60387119 161.66270895 13.94927623 163.24941294 11.2890625 164.89453125 C10.44980225 165.4047583 9.61054199 165.91498535 8.74584961 166.44067383 C7.06201525 167.46697882 5.38791694 168.50945973 3.72485352 169.5690918 C-2.14521184 173.1141153 -2.14521184 173.1141153 -6.1015625 172.5859375 C-7.05804688 172.06257812 -8.01453125 171.53921875 -9 171 C-9.56581787 170.69352539 -10.13163574 170.38705078 -10.71459961 170.07128906 C-12.69401465 168.96793154 -14.62711118 167.80380063 -16.5625 166.625 C-18.08256496 165.71486131 -19.60343472 164.80606574 -21.125 163.8984375 C-22.31996094 163.18445801 -22.31996094 163.18445801 -23.5390625 162.45605469 C-27.68458697 160.00328604 -31.87446729 157.62920445 -36.0625 155.25 C-44.00280216 150.72782157 -51.9168822 146.16226567 -59.8125 141.5625 C-60.80838135 140.98338867 -61.8042627 140.40427734 -62.83032227 139.80761719 C-63.77963623 139.25364258 -64.7289502 138.69966797 -65.70703125 138.12890625 C-66.5369458 137.64494385 -67.36686035 137.16098145 -68.22192383 136.66235352 C-69.13868896 136.11377686 -70.0554541 135.5652002 -71 135 C-71.98225146 134.52703523 -71.98225146 134.52703523 -72.98434639 134.04451561 C-78.5381196 131.1310936 -78.5381196 131.1310936 -79.75277615 128.15653515 C-80.05002375 125.8890752 -80.09306083 123.73613876 -80.05102539 121.44946289 C-80.06665024 120.6000563 -80.08227509 119.75064972 -80.09837341 118.87550354 C-80.13861771 116.07326124 -80.12026267 113.27504582 -80.09765625 110.47265625 C-80.10558753 108.5211843 -80.11574672 106.56972024 -80.1280365 104.61827087 C-80.14433636 100.529923 -80.13121739 96.44297118 -80.09790039 92.35473633 C-80.05793541 87.12013741 -80.09451701 81.88935602 -80.15367985 76.65505314 C-80.19013726 72.62529144 -80.18405621 68.59643736 -80.16540337 64.56658745 C-80.16192033 62.6372994 -80.17203234 60.7079364 -80.19609261 58.77879524 C-80.35028302 43.72059475 -80.35028302 43.72059475 -77.07467651 39.54666138 C-74.74687757 37.96484922 -72.62911789 36.97890898 -70 36 C-68.506899 35.14364134 -67.02552522 34.26615941 -65.5625 33.359375 C-64.04333153 32.48667876 -62.52244582 31.61696614 -61 30.75 C-59.33300026 29.79354903 -57.66634074 28.83650488 -56 27.87890625 C-54.75089844 27.16178467 -54.75089844 27.16178467 -53.4765625 26.43017578 C-49.63409996 24.21121427 -45.81795676 21.94826844 -42 19.6875 C-36.70924137 16.56070498 -31.38831447 13.53067357 -25.95703125 10.65234375 C-23.5103195 9.28515871 -21.13933304 7.86027447 -18.76171875 6.37890625 C-18.00761719 5.91548828 -17.25351563 5.45207031 -16.4765625 4.97460938 C-14.979552 4.05111228 -13.4907875 3.11407732 -12.01171875 2.16210938 C-7.64712153 -0.512835 -5.07667834 -1.8579596 0 0 Z " fill="#D9150B" transform="translate(104,14)"/>
<path d="M0 0 C2.63392563 1.27259835 5.17148759 2.62652002 7.70556641 4.08789062 C8.63691406 4.62285156 9.56826172 5.1578125 10.52783203 5.70898438 C11.48753906 6.26457031 12.44724609 6.82015625 13.43603516 7.39257812 C14.41507812 7.95589844 15.39412109 8.51921875 16.40283203 9.09960938 C18.81143071 10.48602227 21.2182491 11.87542868 23.62353516 13.26757812 C20.57731058 16.18181928 18.05259214 17.52670846 14.03833008 18.52856445 C7.87727174 20.41686651 3.19292914 22.72673892 -0.37646484 28.26757812 C-4.33417652 40.86474484 -2.53875679 55.88719057 -2.14465332 68.88922119 C-2.01005038 74.00362394 -1.98414228 79.11849406 -1.94873047 84.234375 C-1.8635634 94.24882409 -1.65847477 104.25687186 -1.37646484 114.26757812 C-5.23948234 112.76804787 -8.68600933 111.01332959 -12.25146484 108.89257812 C-15.67522687 106.86618383 -19.09733947 104.84479779 -22.56396484 102.89257812 C-25.37646484 101.26757812 -25.37646484 101.26757812 -26.37646484 100.26757812 C-26.47017109 98.48765889 -26.49390755 96.70401073 -26.48999023 94.92163086 C-26.4899147 93.78052353 -26.48983917 92.6394162 -26.48976135 91.46372986 C-26.48460007 90.22208572 -26.47943878 88.98044159 -26.47412109 87.70117188 C-26.47270615 86.43741226 -26.4712912 85.17365265 -26.46983337 83.87159729 C-26.46517066 80.50632923 -26.45617965 77.14112823 -26.44512939 73.77587891 C-26.4349133 70.34408143 -26.43033533 66.91227704 -26.42529297 63.48046875 C-26.41423865 56.74281988 -26.39748194 50.00520288 -26.37646484 43.26757812 C-26.99166992 43.62062012 -27.606875 43.97366211 -28.24072266 44.33740234 C-31.03532019 45.94026374 -33.83088097 47.54143769 -36.62646484 49.14257812 C-38.07859375 49.97595703 -38.07859375 49.97595703 -39.56005859 50.82617188 C-40.49462891 51.36113281 -41.42919922 51.89609375 -42.39208984 52.44726562 C-43.25092773 52.93952637 -44.10976563 53.43178711 -44.99462891 53.93896484 C-47.08993956 55.10775129 -49.23051266 56.19460203 -51.37646484 57.26757812 C-51.37646484 47.36757812 -51.37646484 37.46757813 -51.37646484 27.26757812 C-47.66396484 25.22570312 -47.66396484 25.22570312 -43.87646484 23.14257812 C-34.05147296 17.70870113 -24.36246257 12.04729197 -14.67724609 6.36914062 C-13.7589502 5.83708008 -12.8406543 5.30501953 -11.89453125 4.75683594 C-10.33963275 3.83722368 -8.80092752 2.88874002 -7.29199219 1.89550781 C-2.94444235 -0.90747145 -2.94444235 -0.90747145 0 0 Z " fill="#FEFDFD" transform="translate(101.37646484375,42.732421875)"/>
<path d="M0 0 C0.5605998 7.31629346 0.98449119 14.62787416 1.24349213 21.96141243 C1.36798403 25.36992228 1.53571127 28.76361847 1.81054688 32.16357422 C3.17321314 50.35249692 3.17321314 50.35249692 0 58 C-6.32330421 64.97319937 -15.24445684 68.90283673 -24 72 C-24.33 72 -24.66 72 -25 72 C-25.51350471 64.66575333 -25.90230984 57.33544898 -26.13986778 49.9867754 C-26.25403268 46.57166292 -26.40798996 43.16894572 -26.65966797 39.76098633 C-28.24351303 17.75966156 -28.24351303 17.75966156 -22.80187988 11.4520874 C-16.82256322 6.66919622 -10.12682959 3.67096027 -3 1 C-1 0 -1 0 0 0 Z " fill="#FEFCFC" transform="translate(150,71)"/>
</svg>
