<svg viewBox="0 0 512 512" xmlns="http://www.w3.org/2000/svg" fill-rule="evenodd" clip-rule="evenodd" stroke-linejoin="round" stroke-miterlimit="2"><path d="M506 94.234v323.532C506 466.469 466.47 506 417.766 506H94.234C45.53 506 5.999 466.47 5.999 417.766V94.234C6 45.53 45.531 5.999 94.234 5.999h323.532C466.469 6 506 45.531 506 94.234z" fill="#f1efed"/><path d="M362.488 245.774c48.425 0 88.262-39.838 88.262-88.262 0-48.425-39.837-88.262-88.262-88.262-48.424 0-88.262 39.837-88.262 88.262 0 48.424 39.838 88.262 88.262 88.262zm0 205.976c48.425 0 88.262-39.837 88.262-88.262 0-48.424-39.837-88.262-88.262-88.262-48.424 0-88.262 39.838-88.262 88.262 0 48.425 39.838 88.262 88.262 88.262zm-205.976 0c48.424 0 88.262-39.837 88.262-88.262 0-48.424-39.838-88.262-88.262-88.262-48.425 0-88.262 39.838-88.262 88.262 0 48.425 39.837 88.262 88.262 88.262z" fill-opacity=".2"/><circle cx="6.615" cy="6.615" r="4.615" fill="#0f6fff" transform="matrix(19.12501 0 0 19.12501 30 31)"/></svg>