<?xml version="1.0" encoding="UTF-8"?>
<!DOCTYPE svg PUBLIC "-//W3C//DTD SVG 1.1//EN" "http://www.w3.org/Graphics/SVG/1.1/DTD/svg11.dtd">
<svg xmlns="http://www.w3.org/2000/svg" version="1.1" width="577px" height="433px" style="shape-rendering:geometricPrecision; text-rendering:geometricPrecision; image-rendering:optimizeQuality; fill-rule:evenodd; clip-rule:evenodd" xmlns:xlink="http://www.w3.org/1999/xlink">
<g><path style="opacity:1" fill="#f0f2b7" d="M 205.5,120.5 C 201.802,120.552 198.135,120.886 194.5,121.5C 198.044,119.431 201.71,119.098 205.5,120.5 Z"/></g>
<g><path style="opacity:1" fill="#f2f0a5" d="M 381.5,121.5 C 376.807,120.487 372.14,120.487 367.5,121.5C 372.167,118.833 376.833,118.833 381.5,121.5 Z"/></g>
<g><path style="opacity:1" fill="#f3f2af" d="M 367.5,121.5 C 367.027,122.906 366.027,123.573 364.5,123.5C 364.973,122.094 365.973,121.427 367.5,121.5 Z"/></g>
<g><path style="opacity:1" fill="#f6ee95" d="M 381.5,121.5 C 383.434,122.11 385.101,123.11 386.5,124.5C 384.011,124.759 382.344,123.759 381.5,121.5 Z"/></g>
<g><path style="opacity:1" fill="#f4f5bb" d="M 364.5,123.5 C 364.262,125.404 363.262,126.738 361.5,127.5C 361.738,125.596 362.738,124.262 364.5,123.5 Z"/></g>
<g><path style="opacity:1" fill="#f5f4bd" d="M 210.5,122.5 C 212.587,123.585 213.92,125.251 214.5,127.5C 212.413,126.415 211.08,124.749 210.5,122.5 Z"/></g>
<g><path style="opacity:1" fill="#f9f9ec" d="M 360.5,130.5 C 360.5,158.5 360.5,186.5 360.5,214.5C 359.29,214.068 358.29,213.401 357.5,212.5C 359.164,185.349 360.164,158.015 360.5,130.5 Z"/></g>
<g><path style="opacity:1" fill="#f9f9e3" d="M 215.5,131.5 C 215.836,158.682 216.836,185.682 218.5,212.5C 218.5,212.833 218.5,213.167 218.5,213.5C 217.391,213.557 216.391,213.89 215.5,214.5C 215.5,186.833 215.5,159.167 215.5,131.5 Z"/></g>
<g><path style="opacity:1" fill="#f3e61d" d="M 381.5,121.5 C 382.344,123.759 384.011,124.759 386.5,124.5C 388.368,125.263 390.035,126.263 391.5,127.5C 392.684,128.688 392.684,129.855 391.5,131C 395.08,133.277 398.414,135.777 401.5,138.5C 395.004,135.224 388.171,132.557 381,130.5C 373.605,131.073 371.605,134.74 375,141.5C 381.523,149.53 389.357,155.864 398.5,160.5C 393.451,159.979 388.784,158.312 384.5,155.5C 382.287,158.08 380.12,158.08 378,155.5C 376.605,156.815 375.605,156.481 375,154.5C 374,154.833 373,155.167 372,155.5C 369.985,153.083 367.985,151.416 366,150.5C 365.667,151.167 365.333,151.833 365,152.5C 364.467,150.061 363.3,149.395 361.5,150.5C 361.5,142.833 361.5,135.167 361.5,127.5C 363.262,126.738 364.262,125.404 364.5,123.5C 366.027,123.573 367.027,122.906 367.5,121.5C 372.14,120.487 376.807,120.487 381.5,121.5 Z"/></g>
<g><path style="opacity:1" fill="#f1ea36" d="M 401.5,138.5 C 406.097,140.489 410.764,143.156 415.5,146.5C 416.086,146.291 416.586,145.957 417,145.5C 423.279,149.446 429.279,153.779 435,158.5C 435.333,158.167 435.667,157.833 436,157.5C 438.435,160.715 440.602,164.048 442.5,167.5C 442.938,167.435 443.272,167.601 443.5,168C 442.831,172.496 441.998,176.996 441,181.5C 440.667,177.5 440.333,173.5 440,169.5C 439.814,171.9 439.314,174.234 438.5,176.5C 437.95,171.057 435.616,166.724 431.5,163.5C 425.577,158.661 419.577,153.828 413.5,149C 405.574,144.829 397.907,140.162 390.5,135C 385.933,131.943 381.266,131.443 376.5,133.5C 375.167,135.833 375.167,138.167 376.5,140.5C 378.984,142.483 381.317,144.65 383.5,147C 395.061,152.613 406.395,158.446 417.5,164.5C 421.483,168.45 424.483,173.117 426.5,178.5C 422.521,175.188 418.854,171.521 415.5,167.5C 409.511,165.732 403.844,163.398 398.5,160.5C 389.357,155.864 381.523,149.53 375,141.5C 371.605,134.74 373.605,131.073 381,130.5C 388.171,132.557 395.004,135.224 401.5,138.5 Z"/></g>
<g><path style="opacity:1" fill="#f0e650" d="M 391.5,127.5 C 406.77,135.47 421.77,143.97 436.5,153C 439.739,154.736 442.073,157.236 443.5,160.5C 440.839,159.061 440.339,159.395 442,161.5C 442.495,163.473 442.662,165.473 442.5,167.5C 440.602,164.048 438.435,160.715 436,157.5C 435.667,157.833 435.333,158.167 435,158.5C 429.279,153.779 423.279,149.446 417,145.5C 416.586,145.957 416.086,146.291 415.5,146.5C 410.764,143.156 406.097,140.489 401.5,138.5C 398.414,135.777 395.08,133.277 391.5,131C 392.684,129.855 392.684,128.688 391.5,127.5 Z"/></g>
<g><path style="opacity:1" fill="#f6f04d" d="M 431.5,163.5 C 433.853,166.879 435.187,170.379 435.5,174C 433.406,174.862 432.406,176.028 432.5,177.5C 431.252,176.96 430.085,176.293 429,175.5C 427.194,172.364 425.027,169.531 422.5,167C 420.807,166.153 419.14,165.32 417.5,164.5C 406.395,158.446 395.061,152.613 383.5,147C 381.317,144.65 378.984,142.483 376.5,140.5C 375.167,138.167 375.167,135.833 376.5,133.5C 381.266,131.443 385.933,131.943 390.5,135C 397.907,140.162 405.574,144.829 413.5,149C 419.577,153.828 425.577,158.661 431.5,163.5 Z"/></g>
<g><path style="opacity:1" fill="#f4ec3d" d="M 205.5,120.5 C 207.553,120.402 209.22,121.069 210.5,122.5C 211.08,124.749 212.413,126.415 214.5,127.5C 214.832,139.186 214.499,150.852 213.5,162.5C 212.808,161.975 212.308,161.308 212,160.5C 209.76,169.832 207.426,179.166 205,188.5C 203.984,187.366 203.317,187.699 203,189.5C 199.674,184.198 197.508,178.531 196.5,172.5C 196.276,159.428 189.943,154.594 177.5,158C 169.95,161.608 162.283,164.942 154.5,168C 152.141,168.208 149.974,168.374 148,168.5C 143.156,163.336 143.656,158.503 149.5,154C 152.47,152.847 155.137,151.18 157.5,149C 155.837,148.735 154.337,149.235 153,150.5C 152.333,149.833 151.667,149.167 151,148.5C 149.556,150.155 147.722,150.822 145.5,150.5C 161.568,140.443 177.901,130.776 194.5,121.5C 198.135,120.886 201.802,120.552 205.5,120.5 Z"/></g>
<g><path style="opacity:1" fill="#f9f256" d="M 190.5,131.5 C 194.846,131.334 199.179,131.501 203.5,132C 209.769,141.874 210.103,151.707 204.5,161.5C 203.277,162.614 201.944,162.781 200.5,162C 189.567,150.672 178.4,149.839 167,159.5C 166.586,159.043 166.086,158.709 165.5,158.5C 163.491,160.795 161.325,162.128 159,162.5C 158.333,161.167 157.667,161.167 157,162.5C 156.333,159.833 155.667,159.833 155,162.5C 154.161,159.86 154.661,157.527 156.5,155.5C 158.833,153.667 161.167,151.833 163.5,150C 166.376,149.562 169.043,148.562 171.5,147C 176.828,141.676 182.828,137.342 189.5,134C 190.252,133.329 190.586,132.496 190.5,131.5 Z"/></g>
<g><path style="opacity:1" fill="#faf97a" d="M 193.5,135.5 C 201.131,135.978 203.964,139.978 202,147.5C 200.519,150.08 198.352,150.913 195.5,150C 191.385,148.777 187.718,146.777 184.5,144C 186.74,140.257 189.74,137.424 193.5,135.5 Z"/></g>
<g><path style="opacity:1" fill="#f7f1a2" d="M 138.5,154.5 C 136.833,156.833 134.833,158.833 132.5,160.5C 133.5,157.5 135.5,155.5 138.5,154.5 Z"/></g>
<g><path style="opacity:1" fill="#eae51d" d="M 196.5,172.5 C 196.489,175.001 195.822,175.168 194.5,173C 195.603,171.32 195.27,169.82 193.5,168.5C 192.749,169.376 192.249,170.376 192,171.5C 191.667,171.167 191.333,170.833 191,170.5C 191.468,173.426 191.302,176.093 190.5,178.5C 190.649,179.552 190.483,180.552 190,181.5C 189.691,180.234 189.191,179.067 188.5,178C 188.833,177 189.167,176 189.5,175C 187.877,172.92 186.377,170.754 185,168.5C 182.043,166.923 179.376,167.256 177,169.5C 176.667,169.167 176.333,168.833 176,168.5C 166.488,173.544 156.821,177.211 147,179.5C 144.333,178.167 141.667,178.167 139,179.5C 137.47,178.364 136.137,177.364 135,176.5C 134.107,177.711 133.274,177.711 132.5,176.5C 130.771,174.149 130.104,171.482 130.5,168.5C 130.5,167.167 130.5,165.833 130.5,164.5C 130.66,162.847 131.326,161.514 132.5,160.5C 134.833,158.833 136.833,156.833 138.5,154.5C 140.336,152.412 142.669,151.079 145.5,150.5C 147.722,150.822 149.556,150.155 151,148.5C 151.667,149.167 152.333,149.833 153,150.5C 154.337,149.235 155.837,148.735 157.5,149C 155.137,151.18 152.47,152.847 149.5,154C 143.656,158.503 143.156,163.336 148,168.5C 149.974,168.374 152.141,168.208 154.5,168C 162.283,164.942 169.95,161.608 177.5,158C 189.943,154.594 196.276,159.428 196.5,172.5 Z"/></g>
<g><path style="opacity:1" fill="#e1d909" d="M 398.5,160.5 C 403.844,163.398 409.511,165.732 415.5,167.5C 418.854,171.521 422.521,175.188 426.5,178.5C 427.363,179.94 427.363,181.274 426.5,182.5C 427.167,182.833 427.833,183.167 428.5,183.5C 427.423,195.088 427.423,206.754 428.5,218.5C 426.898,209.838 425.231,201.505 423.5,193.5C 422.955,191.407 422.122,189.407 421,187.5C 419.187,188.609 418.354,187.942 418.5,185.5C 415.95,185.439 414.45,184.106 414,181.5C 412.853,182.458 411.853,182.125 411,180.5C 410.667,180.833 410.333,181.167 410,181.5C 407.372,180.721 404.706,179.721 402,178.5C 396.033,180.605 390.033,182.605 384,184.5C 383.667,184.167 383.333,183.833 383,183.5C 379.127,186.728 375.127,187.728 371,186.5C 368.096,188.227 364.93,188.893 361.5,188.5C 361.5,175.833 361.5,163.167 361.5,150.5C 363.3,149.395 364.467,150.061 365,152.5C 365.333,151.833 365.667,151.167 366,150.5C 367.985,151.416 369.985,153.083 372,155.5C 373,155.167 374,154.833 375,154.5C 375.605,156.481 376.605,156.815 378,155.5C 380.12,158.08 382.287,158.08 384.5,155.5C 388.784,158.312 393.451,159.979 398.5,160.5 Z"/></g>
<g><path style="opacity:1" fill="#eff3c7" d="M 443.5,160.5 C 444.906,160.973 445.573,161.973 445.5,163.5C 444.094,163.027 443.427,162.027 443.5,160.5 Z"/></g>
<g><path style="opacity:1" fill="#f8f9e8" d="M 130.5,164.5 C 130.5,165.833 130.5,167.167 130.5,168.5C 129.505,181.323 129.171,194.323 129.5,207.5C 129.5,217.167 129.5,226.833 129.5,236.5C 129.5,239.5 129.5,242.5 129.5,245.5C 129.646,249.519 129.979,253.519 130.5,257.5C 129.71,256.391 129.21,255.058 129,253.5C 128.333,224.833 128.333,196.167 129,167.5C 129.232,166.263 129.732,165.263 130.5,164.5 Z"/></g>
<g><path style="opacity:1" fill="#f9f9ea" d="M 445.5,164.5 C 446.268,165.263 446.768,166.263 447,167.5C 447.83,196.003 447.664,224.336 446.5,252.5C 446.5,250.167 446.5,247.833 446.5,245.5C 446.831,219.661 446.498,193.995 445.5,168.5C 445.5,167.167 445.5,165.833 445.5,164.5 Z"/></g>
<g><path style="opacity:1" fill="#d6d503" d="M 190.5,178.5 C 191.789,182.599 193.123,186.766 194.5,191C 193.786,192.343 194.12,193.676 195.5,195C 195.455,197.636 195.288,200.47 195,203.5C 192.421,195.892 191.587,196.225 192.5,204.5C 191.046,203.48 190.713,202.313 191.5,201C 189.845,199.556 189.178,197.722 189.5,195.5C 186.303,195.186 184.137,193.52 183,190.5C 178.516,189.535 174.182,189.535 170,190.5C 168.493,192.008 166.827,193.341 165,194.5C 163.093,194.579 161.093,194.246 159,193.5C 149.534,195.437 140.701,198.27 132.5,202C 131.047,203.649 130.047,205.482 129.5,207.5C 129.171,194.323 129.505,181.323 130.5,168.5C 130.104,171.482 130.771,174.149 132.5,176.5C 133.274,177.711 134.107,177.711 135,176.5C 136.137,177.364 137.47,178.364 139,179.5C 141.667,178.167 144.333,178.167 147,179.5C 156.821,177.211 166.488,173.544 176,168.5C 176.333,168.833 176.667,169.167 177,169.5C 179.376,167.256 182.043,166.923 185,168.5C 186.377,170.754 187.877,172.92 189.5,175C 189.167,176 188.833,177 188.5,178C 189.191,179.067 189.691,180.234 190,181.5C 190.483,180.552 190.649,179.552 190.5,178.5 Z"/></g>
<g><path style="opacity:1" fill="#e3e437" d="M 443.5,160.5 C 443.427,162.027 444.094,163.027 445.5,163.5C 445.5,163.833 445.5,164.167 445.5,164.5C 445.5,165.833 445.5,167.167 445.5,168.5C 446.388,188.021 445.221,207.354 442,226.5C 441,226.5 440,226.5 439,226.5C 438.333,224.833 438.333,223.167 439,221.5C 439.799,225.424 440.299,225.424 440.5,221.5C 440.489,219.146 439.656,217.146 438,215.5C 439.101,217.792 438.268,219.292 435.5,220C 438.167,220.667 438.167,221.333 435.5,222C 435.5,224.333 435.5,226.667 435.5,229C 433.263,230.856 431.429,230.356 430,227.5C 429.28,225.888 429.446,224.388 430.5,223C 429.733,221.53 429.067,220.03 428.5,218.5C 427.423,206.754 427.423,195.088 428.5,183.5C 427.833,183.167 427.167,182.833 426.5,182.5C 427.363,181.274 427.363,179.94 426.5,178.5C 424.483,173.117 421.483,168.45 417.5,164.5C 419.14,165.32 420.807,166.153 422.5,167C 425.027,169.531 427.194,172.364 429,175.5C 430.085,176.293 431.252,176.96 432.5,177.5C 432.406,176.028 433.406,174.862 435.5,174C 435.187,170.379 433.853,166.879 431.5,163.5C 435.616,166.724 437.95,171.057 438.5,176.5C 439.314,174.234 439.814,171.9 440,169.5C 440.333,173.5 440.667,177.5 441,181.5C 441.998,176.996 442.831,172.496 443.5,168C 443.272,167.601 442.938,167.435 442.5,167.5C 442.662,165.473 442.495,163.473 442,161.5C 440.339,159.395 440.839,159.061 443.5,160.5 Z"/></g>
<g><path style="opacity:1" fill="#d4d00c" d="M 361.5,127.5 C 361.5,135.167 361.5,142.833 361.5,150.5C 361.5,163.167 361.5,175.833 361.5,188.5C 364.93,188.893 368.096,188.227 371,186.5C 375.127,187.728 379.127,186.728 383,183.5C 383.333,183.833 383.667,184.167 384,184.5C 390.033,182.605 396.033,180.605 402,178.5C 404.706,179.721 407.372,180.721 410,181.5C 410.333,181.167 410.667,180.833 411,180.5C 411.853,182.125 412.853,182.458 414,181.5C 414.45,184.106 415.95,185.439 418.5,185.5C 418.354,187.942 419.187,188.609 421,187.5C 422.122,189.407 422.955,191.407 423.5,193.5C 423.665,197.182 423.499,200.848 423,204.5C 422.821,201.447 422.321,198.447 421.5,195.5C 421.167,195.667 420.833,195.833 420.5,196C 421.818,199.269 421.818,202.435 420.5,205.5C 419.795,202.772 419.128,199.939 418.5,197C 417.004,196.493 415.837,196.993 415,198.5C 414.751,197.376 414.251,196.376 413.5,195.5C 410.14,193.479 406.974,193.479 404,195.5C 403.667,195.167 403.333,194.833 403,194.5C 397.906,195.942 392.739,197.276 387.5,198.5C 385.902,197.515 384.235,197.349 382.5,198C 382.833,198.333 383.167,198.667 383.5,199C 376.652,199.264 369.986,200.431 363.5,202.5C 361.969,206.448 360.969,210.448 360.5,214.5C 360.5,186.5 360.5,158.5 360.5,130.5C 360.263,129.209 360.596,128.209 361.5,127.5 Z"/></g>
<g><path style="opacity:1" fill="#caec8c" d="M 327.5,195.5 C 326.178,195.67 325.011,195.337 324,194.5C 323.667,195.5 323.333,196.5 323,197.5C 321.494,195.935 319.994,195.601 318.5,196.5C 316.411,195.233 314.411,194.566 312.5,194.5C 310.929,191.769 308.595,189.935 305.5,189C 301.148,188.36 296.981,187.527 293,186.5C 287.658,186.311 282.158,186.811 276.5,188C 272.377,189.961 268.377,192.127 264.5,194.5C 264.44,193.957 264.107,193.624 263.5,193.5C 261.226,194.146 258.893,195.146 256.5,196.5C 255.09,195.172 253.924,195.505 253,197.5C 251.796,196.529 251.296,195.529 251.5,194.5C 250.583,195.127 249.583,195.461 248.5,195.5C 270.147,180.8 293.147,178.633 317.5,189C 321.069,190.942 324.402,193.108 327.5,195.5 Z"/></g>
<g><path style="opacity:1" fill="#dfe028" d="M 214.5,127.5 C 215.434,128.568 215.768,129.901 215.5,131.5C 215.5,159.167 215.5,186.833 215.5,214.5C 215.5,214.833 215.5,215.167 215.5,215.5C 215.167,215.5 214.833,215.5 214.5,215.5C 211.113,216.615 208.113,218.282 205.5,220.5C 203.83,220.751 202.33,221.418 201,222.5C 199.984,221.366 199.317,221.699 199,223.5C 197.281,216.927 195.114,210.594 192.5,204.5C 191.587,196.225 192.421,195.892 195,203.5C 195.288,200.47 195.455,197.636 195.5,195C 194.12,193.676 193.786,192.343 194.5,191C 193.123,186.766 191.789,182.599 190.5,178.5C 191.302,176.093 191.468,173.426 191,170.5C 191.333,170.833 191.667,171.167 192,171.5C 192.249,170.376 192.749,169.376 193.5,168.5C 195.27,169.82 195.603,171.32 194.5,173C 195.822,175.168 196.489,175.001 196.5,172.5C 197.508,178.531 199.674,184.198 203,189.5C 203.317,187.699 203.984,187.366 205,188.5C 207.426,179.166 209.76,169.832 212,160.5C 212.308,161.308 212.808,161.975 213.5,162.5C 214.499,150.852 214.832,139.186 214.5,127.5 Z"/></g>
<g><path style="opacity:1" fill="#c4eda6" d="M 312.5,194.5 C 313.038,196.117 313.371,197.784 313.5,199.5C 306.946,200.186 300.113,199.52 293,197.5C 285.064,198.588 275.897,198.755 265.5,198C 263.689,196.959 263.355,195.793 264.5,194.5C 268.377,192.127 272.377,189.961 276.5,188C 282.158,186.811 287.658,186.311 293,186.5C 296.981,187.527 301.148,188.36 305.5,189C 308.595,189.935 310.929,191.769 312.5,194.5 Z"/></g>
<g><path style="opacity:1" fill="#a4e990" d="M 264.5,194.5 C 263.355,195.793 263.689,196.959 265.5,198C 275.897,198.755 285.064,198.588 293,197.5C 300.113,199.52 306.946,200.186 313.5,199.5C 313.371,197.784 313.038,196.117 312.5,194.5C 314.411,194.566 316.411,195.233 318.5,196.5C 320.564,199.221 323.231,201.221 326.5,202.5C 327.833,203.62 328.333,204.953 328,206.5C 327.667,206.167 327.333,205.833 327,205.5C 326.161,206.624 324.994,207.291 323.5,207.5C 317.749,206.094 312.083,205.094 306.5,204.5C 306.167,204.5 305.833,204.5 305.5,204.5C 303.272,202.801 300.772,201.467 298,200.5C 297.667,200.833 297.333,201.167 297,201.5C 294.667,200.833 292.333,200.167 290,199.5C 285,200.167 280,200.833 275,201.5C 274.667,201.167 274.333,200.833 274,200.5C 265.865,204.663 257.365,205.83 248.5,204C 251.895,202.241 254.562,199.741 256.5,196.5C 258.893,195.146 261.226,194.146 263.5,193.5C 264.107,193.624 264.44,193.957 264.5,194.5 Z"/></g>
<g><path style="opacity:1" fill="#c2cf03" d="M 192.5,204.5 C 195.114,210.594 197.281,216.927 199,223.5C 199.317,221.699 199.984,221.366 201,222.5C 202.33,221.418 203.83,220.751 205.5,220.5C 201.301,223.43 196.968,226.097 192.5,228.5C 190.95,229.441 189.284,230.107 187.5,230.5C 185.058,230.881 184.391,230.214 185.5,228.5C 184.537,225.717 183.37,223.05 182,220.5C 181.333,224.5 180.667,224.5 180,220.5C 179.333,224.5 178.667,224.5 178,220.5C 176.846,222.957 175.512,222.957 174,220.5C 172.665,222.605 170.998,223.271 169,222.5C 164.333,223.833 159.667,225.167 155,226.5C 153.434,225.939 152.101,226.606 151,228.5C 148.288,228.034 145.621,227.701 143,227.5C 141.674,227.755 140.674,228.422 140,229.5C 134.241,228.424 130.741,230.757 129.5,236.5C 129.5,226.833 129.5,217.167 129.5,207.5C 130.047,205.482 131.047,203.649 132.5,202C 140.701,198.27 149.534,195.437 159,193.5C 161.093,194.246 163.093,194.579 165,194.5C 166.827,193.341 168.493,192.008 170,190.5C 174.182,189.535 178.516,189.535 183,190.5C 184.137,193.52 186.303,195.186 189.5,195.5C 189.178,197.722 189.845,199.556 191.5,201C 190.713,202.313 191.046,203.48 192.5,204.5 Z"/></g>
<g><path style="opacity:1" fill="#81e574" d="M 256.5,196.5 C 254.562,199.741 251.895,202.241 248.5,204C 257.365,205.83 265.865,204.663 274,200.5C 274.333,200.833 274.667,201.167 275,201.5C 280,200.833 285,200.167 290,199.5C 292.333,200.167 294.667,200.833 297,201.5C 297.333,201.167 297.667,200.833 298,200.5C 300.772,201.467 303.272,202.801 305.5,204.5C 294.323,204.461 282.989,204.628 271.5,205C 268.905,205.226 266.405,205.726 264,206.5C 262.434,205.939 261.101,206.606 260,208.5C 259.086,207.346 258.253,207.513 257.5,209C 251.546,211.499 245.546,211.833 239.5,210C 240.833,209.333 240.833,208.667 239.5,208C 240.833,207.667 242.167,207.333 243.5,207C 241.699,206.683 241.366,206.016 242.5,205C 241.056,204.219 239.723,204.386 238.5,205.5C 237.405,209.135 236.071,209.302 234.5,206C 233.207,205.51 231.873,205.343 230.5,205.5C 236.17,201.663 242.17,198.33 248.5,195.5C 249.583,195.461 250.583,195.127 251.5,194.5C 251.296,195.529 251.796,196.529 253,197.5C 253.924,195.505 255.09,195.172 256.5,196.5 Z"/></g>
<g><path style="opacity:1" fill="#ccf0bf" d="M 230.5,205.5 C 230.027,206.906 229.027,207.573 227.5,207.5C 227.973,206.094 228.973,205.427 230.5,205.5 Z"/></g>
<g><path style="opacity:1" fill="#c4ca00" d="M 420.5,205.5 C 420.818,210.032 420.485,214.366 419.5,218.5C 419.25,217.078 418.417,216.078 417,215.5C 416.667,216.167 416.333,216.833 416,217.5C 415.259,216.359 414.425,216.359 413.5,217.5C 412.408,216.169 411.074,215.336 409.5,215C 399.399,214.04 389.399,214.54 379.5,216.5C 378.914,216.291 378.414,215.957 378,215.5C 375.86,216.336 373.86,218.003 372,220.5C 371.184,219.177 370.017,218.511 368.5,218.5C 365.978,217.989 363.645,216.989 361.5,215.5C 361.167,215.5 360.833,215.5 360.5,215.5C 360.5,215.167 360.5,214.833 360.5,214.5C 360.969,210.448 361.969,206.448 363.5,202.5C 369.986,200.431 376.652,199.264 383.5,199C 383.167,198.667 382.833,198.333 382.5,198C 384.235,197.349 385.902,197.515 387.5,198.5C 392.739,197.276 397.906,195.942 403,194.5C 403.333,194.833 403.667,195.167 404,195.5C 406.974,193.479 410.14,193.479 413.5,195.5C 414.251,196.376 414.751,197.376 415,198.5C 415.837,196.993 417.004,196.493 418.5,197C 419.128,199.939 419.795,202.772 420.5,205.5 Z"/></g>
<g><path style="opacity:1" fill="#52e06a" d="M 305.5,204.5 C 305.833,204.5 306.167,204.5 306.5,204.5C 308.457,205.697 310.79,207.197 313.5,209C 319.575,211.226 325.741,213.059 332,214.5C 333.399,213.773 334.899,213.273 336.5,213C 337.337,211.989 337.67,210.822 337.5,209.5C 339.858,209.253 341.858,209.919 343.5,211.5C 343.918,212.222 344.584,212.722 345.5,213C 343.707,214.78 342.04,216.613 340.5,218.5C 337.966,218.434 335.466,218.434 333,218.5C 326.816,215.495 320.316,213.495 313.5,212.5C 313.607,210.621 313.107,210.288 312,211.5C 310.352,208.447 308.018,207.447 305,208.5C 303.33,206.302 301.33,205.968 299,207.5C 292.583,206.457 286.917,205.79 282,205.5C 275.834,206.783 269.667,207.783 263.5,208.5C 261.135,209.085 259.135,210.252 257.5,212C 250.865,213.45 244.365,215.283 238,217.5C 234.959,215.162 231.959,213.495 229,212.5C 228.085,213.328 227.419,214.328 227,215.5C 225.442,214.655 224.442,215.321 224,217.5C 222.829,215.384 221.329,214.718 219.5,215.5C 218.702,215.043 218.369,214.376 218.5,213.5C 218.5,213.167 218.5,212.833 218.5,212.5C 221.24,210.44 224.24,208.774 227.5,207.5C 229.027,207.573 230.027,206.906 230.5,205.5C 231.873,205.343 233.207,205.51 234.5,206C 236.071,209.302 237.405,209.135 238.5,205.5C 239.723,204.386 241.056,204.219 242.5,205C 241.366,206.016 241.699,206.683 243.5,207C 242.167,207.333 240.833,207.667 239.5,208C 240.833,208.667 240.833,209.333 239.5,210C 245.546,211.833 251.546,211.499 257.5,209C 258.253,207.513 259.086,207.346 260,208.5C 261.101,206.606 262.434,205.939 264,206.5C 266.405,205.726 268.905,205.226 271.5,205C 282.989,204.628 294.323,204.461 305.5,204.5 Z"/></g>
<g><path style="opacity:1" fill="#72e479" d="M 327.5,195.5 C 334.496,198.663 341.162,202.329 347.5,206.5C 345.897,206.312 344.563,206.812 343.5,208C 344.171,208.986 344.171,210.153 343.5,211.5C 341.858,209.919 339.858,209.253 337.5,209.5C 337.67,210.822 337.337,211.989 336.5,213C 334.899,213.273 333.399,213.773 332,214.5C 325.741,213.059 319.575,211.226 313.5,209C 310.79,207.197 308.457,205.697 306.5,204.5C 312.083,205.094 317.749,206.094 323.5,207.5C 324.994,207.291 326.161,206.624 327,205.5C 327.333,205.833 327.667,206.167 328,206.5C 328.333,204.953 327.833,203.62 326.5,202.5C 323.231,201.221 320.564,199.221 318.5,196.5C 319.994,195.601 321.494,195.935 323,197.5C 323.333,196.5 323.667,195.5 324,194.5C 325.011,195.337 326.178,195.67 327.5,195.5 Z"/></g>
<g><path style="opacity:1" fill="#9fcb16" d="M 214.5,215.5 C 215.157,228.559 213.157,240.726 208.5,252C 208.996,256.17 207.662,259.836 204.5,263C 202.613,263.163 201.113,262.329 200,260.5C 197.169,250.671 195.169,240.671 194,230.5C 193.722,229.584 193.222,228.918 192.5,228.5C 196.968,226.097 201.301,223.43 205.5,220.5C 208.113,218.282 211.113,216.615 214.5,215.5 Z"/></g>
<g><path style="opacity:1" fill="#12d654" d="M 313.5,212.5 C 313.082,213.222 312.416,213.722 311.5,214C 314.544,214.359 314.878,215.026 312.5,216C 313.833,216.333 315.167,216.667 316.5,217C 315.542,218.147 315.875,219.147 317.5,220C 320.842,222.513 324.175,224.18 327.5,225C 326.371,227.168 324.871,227.668 323,226.5C 316.338,227.052 309.838,228.052 303.5,229.5C 291.575,226.339 279.909,227.005 268.5,231.5C 267.003,230.694 265.336,230.028 263.5,229.5C 262.094,230.668 260.928,230.335 260,228.5C 258.612,229.554 257.112,229.72 255.5,229C 255.833,228.667 256.167,228.333 256.5,228C 253.57,227.394 250.737,226.56 248,225.5C 246.602,226.051 245.268,226.384 244,226.5C 243.097,225.299 241.931,224.465 240.5,224C 241.552,222.881 242.719,222.381 244,222.5C 244.333,223.167 244.667,223.833 245,224.5C 246.03,222.224 247.53,221.557 249.5,222.5C 251.65,221.593 251.817,220.593 250,219.5C 245.263,219.903 240.43,220.903 235.5,222.5C 238.167,223.5 238.167,224.5 235.5,225.5C 232.409,224.411 229.409,224.411 226.5,225.5C 225.304,225.154 225.304,224.654 226.5,224C 229.167,223.667 231.833,223.333 234.5,223C 231.361,221.982 228.195,221.149 225,220.5C 224.712,223.898 222.879,225.898 219.5,226.5C 219.058,227.739 218.391,228.739 217.5,229.5C 216.833,229.5 216.167,229.5 215.5,229.5C 215.5,224.833 215.5,220.167 215.5,215.5C 215.5,215.167 215.5,214.833 215.5,214.5C 216.391,213.89 217.391,213.557 218.5,213.5C 218.369,214.376 218.702,215.043 219.5,215.5C 221.329,214.718 222.829,215.384 224,217.5C 224.442,215.321 225.442,214.655 227,215.5C 227.419,214.328 228.085,213.328 229,212.5C 231.959,213.495 234.959,215.162 238,217.5C 244.365,215.283 250.865,213.45 257.5,212C 259.135,210.252 261.135,209.085 263.5,208.5C 269.667,207.783 275.834,206.783 282,205.5C 286.917,205.79 292.583,206.457 299,207.5C 301.33,205.968 303.33,206.302 305,208.5C 308.018,207.447 310.352,208.447 312,211.5C 313.107,210.288 313.607,210.621 313.5,212.5 Z"/></g>
<g><path style="opacity:1" fill="#7fb600" d="M 361.5,215.5 C 363.645,216.989 365.978,217.989 368.5,218.5C 383.603,228.561 399.269,237.894 415.5,246.5C 414.955,248.593 414.122,250.593 413,252.5C 403.237,261.092 394.404,270.426 386.5,280.5C 377.975,276.154 369.809,271.154 362,265.5C 361.5,248.837 361.333,232.17 361.5,215.5 Z"/></g>
<g><path style="opacity:1" fill="#abc800" d="M 187.5,230.5 C 186.306,231.272 185.306,232.272 184.5,233.5C 171.112,240.723 157.612,247.723 144,254.5C 141.141,253.827 138.308,252.993 135.5,252C 133.208,249.884 131.208,247.718 129.5,245.5C 129.5,242.5 129.5,239.5 129.5,236.5C 130.741,230.757 134.241,228.424 140,229.5C 140.674,228.422 141.674,227.755 143,227.5C 145.621,227.701 148.288,228.034 151,228.5C 152.101,226.606 153.434,225.939 155,226.5C 159.667,225.167 164.333,223.833 169,222.5C 170.998,223.271 172.665,222.605 174,220.5C 175.512,222.957 176.846,222.957 178,220.5C 178.667,224.5 179.333,224.5 180,220.5C 180.667,224.5 181.333,224.5 182,220.5C 183.37,223.05 184.537,225.717 185.5,228.5C 184.391,230.214 185.058,230.881 187.5,230.5 Z"/></g>
<g><path style="opacity:1" fill="#b7c901" d="M 419.5,218.5 C 419.111,226.303 420.111,234.136 422.5,242C 421.652,244.77 421.319,247.603 421.5,250.5C 421.167,250.5 420.833,250.5 420.5,250.5C 419.055,248.937 417.389,247.604 415.5,246.5C 399.269,237.894 383.603,228.561 368.5,218.5C 370.017,218.511 371.184,219.177 372,220.5C 373.86,218.003 375.86,216.336 378,215.5C 378.414,215.957 378.914,216.291 379.5,216.5C 389.399,214.54 399.399,214.04 409.5,215C 411.074,215.336 412.408,216.169 413.5,217.5C 414.425,216.359 415.259,216.359 416,217.5C 416.333,216.833 416.667,216.167 417,215.5C 418.417,216.078 419.25,217.078 419.5,218.5 Z"/></g>
<g><path style="opacity:1" fill="#ccda25" d="M 445.5,168.5 C 446.498,193.995 446.831,219.661 446.5,245.5C 439.832,254.913 431.498,256.58 421.5,250.5C 421.319,247.603 421.652,244.77 422.5,242C 420.111,234.136 419.111,226.303 419.5,218.5C 420.485,214.366 420.818,210.032 420.5,205.5C 421.818,202.435 421.818,199.269 420.5,196C 420.833,195.833 421.167,195.667 421.5,195.5C 422.321,198.447 422.821,201.447 423,204.5C 423.499,200.848 423.665,197.182 423.5,193.5C 425.231,201.505 426.898,209.838 428.5,218.5C 429.067,220.03 429.733,221.53 430.5,223C 429.446,224.388 429.28,225.888 430,227.5C 431.429,230.356 433.263,230.856 435.5,229C 435.5,226.667 435.5,224.333 435.5,222C 438.167,221.333 438.167,220.667 435.5,220C 438.268,219.292 439.101,217.792 438,215.5C 439.656,217.146 440.489,219.146 440.5,221.5C 440.299,225.424 439.799,225.424 439,221.5C 438.333,223.167 438.333,224.833 439,226.5C 440,226.5 441,226.5 442,226.5C 445.221,207.354 446.388,188.021 445.5,168.5 Z"/></g>
<g><path style="opacity:1" fill="#0dd459" d="M 347.5,206.5 C 351.118,208.137 354.451,210.137 357.5,212.5C 358.29,213.401 359.29,214.068 360.5,214.5C 360.5,214.833 360.5,215.167 360.5,215.5C 360.5,228.833 360.5,242.167 360.5,255.5C 359.624,252.13 358.458,248.797 357,245.5C 356.667,246.167 356.333,246.833 356,247.5C 354.702,243.692 352.702,242.692 350,244.5C 348.287,243.122 346.953,241.455 346,239.5C 345.275,241.158 344.108,241.658 342.5,241C 343.711,240.107 343.711,239.274 342.5,238.5C 340.629,239.767 338.796,239.767 337,238.5C 335.013,239.218 333.179,240.218 331.5,241.5C 330.575,240.359 329.741,240.359 329,241.5C 328.667,240.167 328.333,238.833 328,237.5C 326.667,237.5 325.333,237.5 324,237.5C 323.292,238.381 322.458,239.047 321.5,239.5C 318.778,237.353 315.778,235.687 312.5,234.5C 309.909,232.039 306.909,230.372 303.5,229.5C 309.838,228.052 316.338,227.052 323,226.5C 324.871,227.668 326.371,227.168 327.5,225C 324.175,224.18 320.842,222.513 317.5,220C 315.875,219.147 315.542,218.147 316.5,217C 315.167,216.667 313.833,216.333 312.5,216C 314.878,215.026 314.544,214.359 311.5,214C 312.416,213.722 313.082,213.222 313.5,212.5C 320.316,213.495 326.816,215.495 333,218.5C 335.466,218.434 337.966,218.434 340.5,218.5C 342.04,216.613 343.707,214.78 345.5,213C 344.584,212.722 343.918,212.222 343.5,211.5C 344.171,210.153 344.171,208.986 343.5,208C 344.563,206.812 345.897,206.312 347.5,206.5 Z"/></g>
<g><path style="opacity:1" fill="#00ca5d" d="M 268.5,231.5 C 265.669,232.079 263.336,233.412 261.5,235.5C 258.661,237.42 255.661,239.087 252.5,240.5C 251.178,240.33 250.011,240.663 249,241.5C 248.683,239.699 248.016,239.366 247,240.5C 245.209,238.487 243.875,238.487 243,240.5C 242.667,239.833 242.333,239.167 242,238.5C 241.333,239.833 240.667,241.167 240,242.5C 238.611,238.728 237.611,238.728 237,242.5C 235.345,242.198 234.012,240.864 233,238.5C 232.333,239.833 231.667,241.167 231,242.5C 230.641,239.456 229.974,239.122 229,241.5C 228.581,240.328 227.915,239.328 227,238.5C 225.417,238.493 223.751,238.826 222,239.5C 219.549,237.869 219.049,236.036 220.5,234C 219.614,232.385 218.614,230.885 217.5,229.5C 218.391,228.739 219.058,227.739 219.5,226.5C 222.879,225.898 224.712,223.898 225,220.5C 228.195,221.149 231.361,221.982 234.5,223C 231.833,223.333 229.167,223.667 226.5,224C 225.304,224.654 225.304,225.154 226.5,225.5C 229.409,224.411 232.409,224.411 235.5,225.5C 238.167,224.5 238.167,223.5 235.5,222.5C 240.43,220.903 245.263,219.903 250,219.5C 251.817,220.593 251.65,221.593 249.5,222.5C 247.53,221.557 246.03,222.224 245,224.5C 244.667,223.833 244.333,223.167 244,222.5C 242.719,222.381 241.552,222.881 240.5,224C 241.931,224.465 243.097,225.299 244,226.5C 245.268,226.384 246.602,226.051 248,225.5C 250.737,226.56 253.57,227.394 256.5,228C 256.167,228.333 255.833,228.667 255.5,229C 257.112,229.72 258.612,229.554 260,228.5C 260.928,230.335 262.094,230.668 263.5,229.5C 265.336,230.028 267.003,230.694 268.5,231.5 Z"/></g>
<g><path style="opacity:1" fill="#00a544" d="M 303.5,229.5 C 306.909,230.372 309.909,232.039 312.5,234.5C 309.279,233.427 306.112,233.427 303,234.5C 302.125,232.487 300.791,232.487 299,234.5C 295.536,234.628 292.203,234.295 289,233.5C 286,234.167 283,234.833 280,235.5C 277.376,235.53 274.709,235.197 272,234.5C 271.333,237.167 270.667,237.167 270,234.5C 269.667,235.167 269.333,235.833 269,236.5C 266.731,236.274 264.231,235.941 261.5,235.5C 263.336,233.412 265.669,232.079 268.5,231.5C 279.909,227.005 291.575,226.339 303.5,229.5 Z"/></g>
<g><path style="opacity:1" fill="#009a4b" d="M 312.5,234.5 C 315.778,235.687 318.778,237.353 321.5,239.5C 323.349,240.593 325.016,241.926 326.5,243.5C 325.504,243.414 324.671,243.748 324,244.5C 321.42,241.883 318.42,241.883 315,244.5C 314.333,243.833 313.667,243.167 313,242.5C 310.333,243.167 307.667,243.833 305,244.5C 303.853,243.542 302.853,243.875 302,245.5C 300.518,243.219 298.851,243.219 297,245.5C 290.078,244.991 283.412,244.991 277,245.5C 273.741,240.638 270.408,240.304 267,244.5C 266.333,241.833 265.667,241.833 265,244.5C 263.883,244.335 262.716,244.002 261.5,243.5C 260.117,246.076 259.283,245.742 259,242.5C 258.751,243.624 258.251,244.624 257.5,245.5C 257.704,244.471 257.204,243.471 256,242.5C 255.333,245.167 254.667,245.167 254,242.5C 251.748,244.927 248.914,245.927 245.5,245.5C 248.009,244.079 250.343,242.412 252.5,240.5C 255.661,239.087 258.661,237.42 261.5,235.5C 264.231,235.941 266.731,236.274 269,236.5C 269.333,235.833 269.667,235.167 270,234.5C 270.667,237.167 271.333,237.167 272,234.5C 274.709,235.197 277.376,235.53 280,235.5C 283,234.833 286,234.167 289,233.5C 292.203,234.295 295.536,234.628 299,234.5C 300.791,232.487 302.125,232.487 303,234.5C 306.112,233.427 309.279,233.427 312.5,234.5 Z"/></g>
<g><path style="opacity:1" fill="#7fb60b" d="M 184.5,233.5 C 186.026,234.105 187.026,235.271 187.5,237C 186.833,237.333 186.167,237.667 185.5,238C 186.357,238.689 187.023,239.522 187.5,240.5C 187.167,242.5 186.833,244.5 186.5,246.5C 189.028,247.816 189.028,248.983 186.5,250C 189.167,251 189.167,252 186.5,253C 187.817,256.891 188.817,260.891 189.5,265C 189.095,265.945 188.428,266.612 187.5,267C 188.451,270.057 188.784,273.223 188.5,276.5C 192.236,276.66 192.236,277.493 188.5,279C 189.094,279.464 189.761,279.631 190.5,279.5C 187.755,282.038 184.422,283.538 180.5,284C 174.5,284.333 168.5,284.667 162.5,285C 163.71,286.039 164.71,287.206 165.5,288.5C 157.894,284.221 150.561,279.554 143.5,274.5C 142.738,272.738 141.404,271.738 139.5,271.5C 134.889,267.885 131.889,263.218 130.5,257.5C 129.979,253.519 129.646,249.519 129.5,245.5C 131.208,247.718 133.208,249.884 135.5,252C 138.308,252.993 141.141,253.827 144,254.5C 157.612,247.723 171.112,240.723 184.5,233.5 Z"/></g>
<g><path style="opacity:1" fill="#07bf67" d="M 215.5,229.5 C 216.167,229.5 216.833,229.5 217.5,229.5C 218.614,230.885 219.614,232.385 220.5,234C 219.049,236.036 219.549,237.869 222,239.5C 223.751,238.826 225.417,238.493 227,238.5C 227.915,239.328 228.581,240.328 229,241.5C 229.974,239.122 230.641,239.456 231,242.5C 231.667,241.167 232.333,239.833 233,238.5C 234.012,240.864 235.345,242.198 237,242.5C 237.611,238.728 238.611,238.728 240,242.5C 240.667,241.167 241.333,239.833 242,238.5C 242.333,239.167 242.667,239.833 243,240.5C 243.875,238.487 245.209,238.487 247,240.5C 248.016,239.366 248.683,239.699 249,241.5C 250.011,240.663 251.178,240.33 252.5,240.5C 250.343,242.412 248.009,244.079 245.5,245.5C 242.32,247.255 239.32,249.255 236.5,251.5C 236.167,251.5 235.833,251.5 235.5,251.5C 234.504,251.586 233.671,251.252 233,250.5C 232.667,251.167 232.333,251.833 232,252.5C 230.863,251.636 229.53,250.636 228,249.5C 226.333,249.833 224.667,250.167 223,250.5C 221.829,249.107 220.329,248.273 218.5,248C 219.196,246.512 218.862,245.012 217.5,243.5C 216.833,249.319 216.167,254.986 215.5,260.5C 215.5,250.167 215.5,239.833 215.5,229.5 Z"/></g>
<g><path style="opacity:1" fill="#00c85f" d="M 360.5,255.5 C 360.5,258.5 360.5,261.5 360.5,264.5C 359.395,263.4 358.062,262.733 356.5,262.5C 353.106,259.779 349.439,257.446 345.5,255.5C 341.844,252.337 337.844,249.671 333.5,247.5C 331.664,245.412 329.331,244.079 326.5,243.5C 325.016,241.926 323.349,240.593 321.5,239.5C 322.458,239.047 323.292,238.381 324,237.5C 325.333,237.5 326.667,237.5 328,237.5C 328.333,238.833 328.667,240.167 329,241.5C 329.741,240.359 330.575,240.359 331.5,241.5C 333.179,240.218 335.013,239.218 337,238.5C 338.796,239.767 340.629,239.767 342.5,238.5C 343.711,239.274 343.711,240.107 342.5,241C 344.108,241.658 345.275,241.158 346,239.5C 346.953,241.455 348.287,243.122 350,244.5C 352.702,242.692 354.702,243.692 356,247.5C 356.333,246.833 356.667,246.167 357,245.5C 358.458,248.797 359.624,252.13 360.5,255.5 Z"/></g>
<g><path style="opacity:1" fill="#008f4e" d="M 326.5,243.5 C 329.331,244.079 331.664,245.412 333.5,247.5C 328.873,247.843 324.04,247.843 319,247.5C 317.667,250.167 316.333,250.167 315,247.5C 312.667,248.167 310.333,248.833 308,249.5C 304.862,249.767 302.196,249.101 300,247.5C 299.667,248.167 299.333,248.833 299,249.5C 296.003,249.134 292.67,248.8 289,248.5C 286.966,248.354 285.299,249.02 284,250.5C 282.667,247.833 281.333,247.833 280,250.5C 278.434,251.061 277.101,250.394 276,248.5C 275.374,250.991 274.541,250.991 273.5,248.5C 272.522,248.977 271.689,249.643 271,250.5C 267.773,248.061 264.44,248.061 261,250.5C 258,250.167 255,249.833 252,249.5C 251.333,250.167 250.667,250.833 250,251.5C 247.211,251.092 244.544,250.425 242,249.5C 241.667,250.167 241.333,250.833 241,251.5C 239.586,250.587 238.086,250.587 236.5,251.5C 239.32,249.255 242.32,247.255 245.5,245.5C 248.914,245.927 251.748,244.927 254,242.5C 254.667,245.167 255.333,245.167 256,242.5C 257.204,243.471 257.704,244.471 257.5,245.5C 258.251,244.624 258.751,243.624 259,242.5C 259.283,245.742 260.117,246.076 261.5,243.5C 262.716,244.002 263.883,244.335 265,244.5C 265.667,241.833 266.333,241.833 267,244.5C 270.408,240.304 273.741,240.638 277,245.5C 283.412,244.991 290.078,244.991 297,245.5C 298.851,243.219 300.518,243.219 302,245.5C 302.853,243.875 303.853,243.542 305,244.5C 307.667,243.833 310.333,243.167 313,242.5C 313.667,243.167 314.333,243.833 315,244.5C 318.42,241.883 321.42,241.883 324,244.5C 324.671,243.748 325.504,243.414 326.5,243.5 Z"/></g>
<g><path style="opacity:1" fill="#09ba78" d="M 235.5,251.5 C 231.833,254.167 228.167,256.833 224.5,259.5C 222.938,259.733 221.605,260.4 220.5,261.5C 218.668,262.248 217.001,263.248 215.5,264.5C 215.5,263.167 215.5,261.833 215.5,260.5C 216.167,254.986 216.833,249.319 217.5,243.5C 218.862,245.012 219.196,246.512 218.5,248C 220.329,248.273 221.829,249.107 223,250.5C 224.667,250.167 226.333,249.833 228,249.5C 229.53,250.636 230.863,251.636 232,252.5C 232.333,251.833 232.667,251.167 233,250.5C 233.671,251.252 234.504,251.586 235.5,251.5 Z"/></g>
<g><path style="opacity:1" fill="#038254" d="M 333.5,247.5 C 337.844,249.671 341.844,252.337 345.5,255.5C 344.25,255.577 343.417,256.244 343,257.5C 342.667,256.5 342.333,255.5 342,254.5C 341.71,256.044 341.044,257.377 340,258.5C 337.812,257.553 335.478,257.553 333,258.5C 331.488,257.743 330.154,256.743 329,255.5C 326.91,256.794 324.91,257.794 323,258.5C 321.691,256.109 320.691,256.109 320,258.5C 319.309,256.109 318.309,256.109 317,258.5C 312.614,257.752 308.28,257.418 304,257.5C 303.333,260.167 302.667,260.167 302,257.5C 300.691,259.891 299.691,259.891 299,257.5C 298.333,260.167 297.667,260.167 297,257.5C 295.667,260.167 294.333,260.167 293,257.5C 285.851,258.316 279.518,258.316 274,257.5C 261.696,259.174 250.029,259.507 239,258.5C 238.692,259.308 238.192,259.975 237.5,260.5C 233.247,260.629 228.914,260.296 224.5,259.5C 228.167,256.833 231.833,254.167 235.5,251.5C 235.833,251.5 236.167,251.5 236.5,251.5C 238.086,250.587 239.586,250.587 241,251.5C 241.333,250.833 241.667,250.167 242,249.5C 244.544,250.425 247.211,251.092 250,251.5C 250.667,250.833 251.333,250.167 252,249.5C 255,249.833 258,250.167 261,250.5C 264.44,248.061 267.773,248.061 271,250.5C 271.689,249.643 272.522,248.977 273.5,248.5C 274.541,250.991 275.374,250.991 276,248.5C 277.101,250.394 278.434,251.061 280,250.5C 281.333,247.833 282.667,247.833 284,250.5C 285.299,249.02 286.966,248.354 289,248.5C 292.67,248.8 296.003,249.134 299,249.5C 299.333,248.833 299.667,248.167 300,247.5C 302.196,249.101 304.862,249.767 308,249.5C 310.333,248.833 312.667,248.167 315,247.5C 316.333,250.167 317.667,250.167 319,247.5C 324.04,247.843 328.873,247.843 333.5,247.5 Z"/></g>
<g><path style="opacity:1" fill="#93c30e" d="M 415.5,246.5 C 417.389,247.604 419.055,248.937 420.5,250.5C 415.466,257.921 409.966,264.921 404,271.5C 403.788,273.78 402.955,275.78 401.5,277.5C 403.665,279.725 406.332,280.891 409.5,281C 405.719,282.78 401.719,283.947 397.5,284.5C 393.908,284.302 390.574,283.302 387.5,281.5C 387.5,280.833 387.167,280.5 386.5,280.5C 394.404,270.426 403.237,261.092 413,252.5C 414.122,250.593 414.955,248.593 415.5,246.5 Z"/></g>
<g><path style="opacity:1" fill="#a6cb2b" d="M 446.5,245.5 C 446.5,247.833 446.5,250.167 446.5,252.5C 445.865,260.935 442.198,267.769 435.5,273C 427.805,277.844 420.139,282.677 412.5,287.5C 412.5,286.5 412.5,285.5 412.5,284.5C 407.341,285.532 402.341,285.532 397.5,284.5C 401.719,283.947 405.719,282.78 409.5,281C 406.332,280.891 403.665,279.725 401.5,277.5C 402.955,275.78 403.788,273.78 404,271.5C 409.966,264.921 415.466,257.921 420.5,250.5C 420.833,250.5 421.167,250.5 421.5,250.5C 431.498,256.58 439.832,254.913 446.5,245.5 Z"/></g>
<g><path style="opacity:1" fill="#8bbf09" d="M 214.5,215.5 C 214.833,215.5 215.167,215.5 215.5,215.5C 215.5,220.167 215.5,224.833 215.5,229.5C 215.5,239.833 215.5,250.167 215.5,260.5C 215.5,261.833 215.5,263.167 215.5,264.5C 207.305,269.763 198.971,274.763 190.5,279.5C 189.761,279.631 189.094,279.464 188.5,279C 192.236,277.493 192.236,276.66 188.5,276.5C 188.784,273.223 188.451,270.057 187.5,267C 188.428,266.612 189.095,265.945 189.5,265C 188.817,260.891 187.817,256.891 186.5,253C 189.167,252 189.167,251 186.5,250C 189.028,248.983 189.028,247.816 186.5,246.5C 186.833,244.5 187.167,242.5 187.5,240.5C 187.023,239.522 186.357,238.689 185.5,238C 186.167,237.667 186.833,237.333 187.5,237C 187.026,235.271 186.026,234.105 184.5,233.5C 185.306,232.272 186.306,231.272 187.5,230.5C 189.284,230.107 190.95,229.441 192.5,228.5C 193.222,228.918 193.722,229.584 194,230.5C 195.169,240.671 197.169,250.671 200,260.5C 201.113,262.329 202.613,263.163 204.5,263C 207.662,259.836 208.996,256.17 208.5,252C 213.157,240.726 215.157,228.559 214.5,215.5 Z"/></g>
<g><path style="opacity:1" fill="#06795a" d="M 345.5,255.5 C 349.439,257.446 353.106,259.779 356.5,262.5C 354.123,262.784 351.956,262.784 350,262.5C 349.333,263.167 348.667,263.833 348,264.5C 343.469,263.915 339.303,263.581 335.5,263.5C 332.752,265.573 329.752,265.573 326.5,263.5C 325.914,263.709 325.414,264.043 325,264.5C 323.097,261.045 320.763,260.712 318,263.5C 314.95,261.937 311.95,261.27 309,261.5C 307.663,263.004 305.996,264.004 304,264.5C 300.893,264.047 297.893,264.047 295,264.5C 293.667,263.833 292.667,262.833 292,261.5C 291.333,264.167 290.667,264.167 290,261.5C 289.333,264.167 288.667,264.167 288,261.5C 287.333,264.167 286.667,264.167 286,261.5C 285.333,262.833 284.667,262.833 284,261.5C 283,262.5 282,263.5 281,264.5C 280.261,263.426 279.261,262.759 278,262.5C 272.742,263.386 267.409,263.719 262,263.5C 260.667,262.833 259.333,262.167 258,261.5C 252.823,262.772 248.156,263.772 244,264.5C 241.553,261.292 239.887,261.292 239,264.5C 237,263.833 235,263.167 233,262.5C 232.383,263.449 232.549,264.282 233.5,265C 233,265.167 232.5,265.333 232,265.5C 231.454,264.711 230.787,263.711 230,262.5C 229.612,263.428 228.945,264.095 228,264.5C 226.044,264.339 224.044,264.006 222,263.5C 221.667,264.167 221.333,264.833 221,265.5C 220.51,264.207 220.343,262.873 220.5,261.5C 221.605,260.4 222.938,259.733 224.5,259.5C 228.914,260.296 233.247,260.629 237.5,260.5C 238.192,259.975 238.692,259.308 239,258.5C 250.029,259.507 261.696,259.174 274,257.5C 279.518,258.316 285.851,258.316 293,257.5C 294.333,260.167 295.667,260.167 297,257.5C 297.667,260.167 298.333,260.167 299,257.5C 299.691,259.891 300.691,259.891 302,257.5C 302.667,260.167 303.333,260.167 304,257.5C 308.28,257.418 312.614,257.752 317,258.5C 318.309,256.109 319.309,256.109 320,258.5C 320.691,256.109 321.691,256.109 323,258.5C 324.91,257.794 326.91,256.794 329,255.5C 330.154,256.743 331.488,257.743 333,258.5C 335.478,257.553 337.812,257.553 340,258.5C 341.044,257.377 341.71,256.044 342,254.5C 342.333,255.5 342.667,256.5 343,257.5C 343.417,256.244 344.25,255.577 345.5,255.5 Z"/></g>
<g><path style="opacity:1" fill="#06705f" d="M 220.5,261.5 C 220.343,262.873 220.51,264.207 221,265.5C 221.333,264.833 221.667,264.167 222,263.5C 224.044,264.006 226.044,264.339 228,264.5C 228.945,264.095 229.612,263.428 230,262.5C 230.787,263.711 231.454,264.711 232,265.5C 232.5,265.333 233,265.167 233.5,265C 232.549,264.282 232.383,263.449 233,262.5C 235,263.167 237,263.833 239,264.5C 239.887,261.292 241.553,261.292 244,264.5C 248.156,263.772 252.823,262.772 258,261.5C 259.333,262.167 260.667,262.833 262,263.5C 267.409,263.719 272.742,263.386 278,262.5C 279.261,262.759 280.261,263.426 281,264.5C 282,263.5 283,262.5 284,261.5C 284.667,262.833 285.333,262.833 286,261.5C 286.667,264.167 287.333,264.167 288,261.5C 288.667,264.167 289.333,264.167 290,261.5C 290.667,264.167 291.333,264.167 292,261.5C 292.667,262.833 293.667,263.833 295,264.5C 297.893,264.047 300.893,264.047 304,264.5C 305.996,264.004 307.663,263.004 309,261.5C 311.95,261.27 314.95,261.937 318,263.5C 320.763,260.712 323.097,261.045 325,264.5C 325.414,264.043 325.914,263.709 326.5,263.5C 329.752,265.573 332.752,265.573 335.5,263.5C 339.303,263.581 343.469,263.915 348,264.5C 348.667,263.833 349.333,263.167 350,262.5C 351.956,262.784 354.123,262.784 356.5,262.5C 358.062,262.733 359.395,263.4 360.5,264.5C 360.5,264.833 360.5,265.167 360.5,265.5C 359.778,265.918 359.278,266.584 359,267.5C 358.667,266.833 358.333,266.167 358,265.5C 357.047,267.592 355.714,267.925 354,266.5C 352.423,269.675 350.59,270.009 348.5,267.5C 347.522,267.977 346.689,268.643 346,269.5C 343.816,270.108 341.816,269.441 340,267.5C 338.676,268.88 337.343,269.214 336,268.5C 334.667,269.167 333.667,270.167 333,271.5C 332.131,268.237 330.797,267.904 329,270.5C 327.667,269.167 326.333,269.167 325,270.5C 323.691,268.109 322.691,268.109 322,270.5C 321.333,267.833 320.667,267.833 320,270.5C 319.309,268.109 318.309,268.109 317,270.5C 315.667,267.833 314.333,267.833 313,270.5C 309.218,270.063 305.551,270.063 302,270.5C 300.209,268.487 298.875,268.487 298,270.5C 293.634,270.253 289.634,269.92 286,269.5C 284.667,272.167 283.333,272.167 282,269.5C 280.667,272.167 279.333,272.167 278,269.5C 276.667,269.5 275.333,269.5 274,269.5C 273.641,272.544 272.974,272.878 272,270.5C 269.822,270.936 267.322,271.436 264.5,272C 264.833,272.333 265.167,272.667 265.5,273C 264.584,273.374 263.75,273.874 263,274.5C 260.58,273.512 258.247,273.845 256,275.5C 255.333,272.833 254.667,272.833 254,275.5C 252.667,275.5 251.333,275.5 250,275.5C 249.333,272.833 248.667,272.833 248,275.5C 246.667,272.833 245.333,272.833 244,275.5C 242.165,274.74 240.165,274.406 238,274.5C 237.055,274.905 236.388,275.572 236,276.5C 235.309,274.109 234.309,274.109 233,276.5C 229.753,275.552 226.419,274.885 223,274.5C 222.072,276.335 220.906,276.668 219.5,275.5C 218.479,277.188 217.145,278.521 215.5,279.5C 215.5,274.5 215.5,269.5 215.5,264.5C 217.001,263.248 218.668,262.248 220.5,261.5 Z"/></g>
<g><path style="opacity:1" fill="#daeab5" d="M 139.5,271.5 C 141.404,271.738 142.738,272.738 143.5,274.5C 141.596,274.262 140.262,273.262 139.5,271.5 Z"/></g>
<g><path style="opacity:1" fill="#186a67" d="M 360.5,265.5 C 360.5,270.5 360.5,275.5 360.5,280.5C 359.691,278.708 359.191,276.708 359,274.5C 357.984,275.634 357.317,275.301 357,273.5C 356.333,276.167 355.667,276.167 355,273.5C 354.581,274.672 353.915,275.672 353,276.5C 351.667,275.167 350.333,275.167 349,276.5C 347.691,274.109 346.691,274.109 346,276.5C 345.333,273.833 344.667,273.833 344,276.5C 342.755,276.539 341.422,276.205 340,275.5C 338.779,276.272 337.779,277.272 337,278.5C 335.657,277.786 334.324,278.12 333,279.5C 329.861,279.112 326.528,279.112 323,279.5C 320.431,281.012 317.931,282.012 315.5,282.5C 311.795,280.205 311.128,280.872 313.5,284.5C 309.224,281.687 304.89,278.854 300.5,276C 288.641,271.727 277.641,273.227 267.5,280.5C 267.217,279.711 266.717,279.044 266,278.5C 262.692,279.784 259.359,279.784 256,278.5C 255.333,279.167 254.667,279.833 254,280.5C 247.365,279.571 241.365,279.237 236,279.5C 235.333,282.167 234.667,282.167 234,279.5C 233.309,281.891 232.309,281.891 231,279.5C 230.072,281.335 228.906,281.668 227.5,280.5C 226.459,282.991 225.626,282.991 225,280.5C 224.333,281.167 223.667,281.833 223,282.5C 221.903,280.947 220.57,279.614 219,278.5C 217.002,282.241 216.169,286.241 216.5,290.5C 216.5,292.167 216.5,293.833 216.5,295.5C 215.512,290.36 215.179,285.026 215.5,279.5C 217.145,278.521 218.479,277.188 219.5,275.5C 220.906,276.668 222.072,276.335 223,274.5C 226.419,274.885 229.753,275.552 233,276.5C 234.309,274.109 235.309,274.109 236,276.5C 236.388,275.572 237.055,274.905 238,274.5C 240.165,274.406 242.165,274.74 244,275.5C 245.333,272.833 246.667,272.833 248,275.5C 248.667,272.833 249.333,272.833 250,275.5C 251.333,275.5 252.667,275.5 254,275.5C 254.667,272.833 255.333,272.833 256,275.5C 258.247,273.845 260.58,273.512 263,274.5C 263.75,273.874 264.584,273.374 265.5,273C 265.167,272.667 264.833,272.333 264.5,272C 267.322,271.436 269.822,270.936 272,270.5C 272.974,272.878 273.641,272.544 274,269.5C 275.333,269.5 276.667,269.5 278,269.5C 279.333,272.167 280.667,272.167 282,269.5C 283.333,272.167 284.667,272.167 286,269.5C 289.634,269.92 293.634,270.253 298,270.5C 298.875,268.487 300.209,268.487 302,270.5C 305.551,270.063 309.218,270.063 313,270.5C 314.333,267.833 315.667,267.833 317,270.5C 318.309,268.109 319.309,268.109 320,270.5C 320.667,267.833 321.333,267.833 322,270.5C 322.691,268.109 323.691,268.109 325,270.5C 326.333,269.167 327.667,269.167 329,270.5C 330.797,267.904 332.131,268.237 333,271.5C 333.667,270.167 334.667,269.167 336,268.5C 337.343,269.214 338.676,268.88 340,267.5C 341.816,269.441 343.816,270.108 346,269.5C 346.689,268.643 347.522,267.977 348.5,267.5C 350.59,270.009 352.423,269.675 354,266.5C 355.714,267.925 357.047,267.592 358,265.5C 358.333,266.167 358.667,266.833 359,267.5C 359.278,266.584 359.778,265.918 360.5,265.5 Z"/></g>
<g><path style="opacity:1" fill="#196671" d="M 267.5,280.5 C 263.087,285.21 258.087,289.21 252.5,292.5C 252.56,288.673 251.393,288.006 249,290.5C 247.691,288.109 246.691,288.109 246,290.5C 245.309,288.109 244.309,288.109 243,290.5C 242.333,289.833 241.667,289.167 241,288.5C 233.755,289.588 226.422,289.588 219,288.5C 218.583,289.756 217.75,290.423 216.5,290.5C 216.169,286.241 217.002,282.241 219,278.5C 220.57,279.614 221.903,280.947 223,282.5C 223.667,281.833 224.333,281.167 225,280.5C 225.626,282.991 226.459,282.991 227.5,280.5C 228.906,281.668 230.072,281.335 231,279.5C 232.309,281.891 233.309,281.891 234,279.5C 234.667,282.167 235.333,282.167 236,279.5C 241.365,279.237 247.365,279.571 254,280.5C 254.667,279.833 255.333,279.167 256,278.5C 259.359,279.784 262.692,279.784 266,278.5C 266.717,279.044 267.217,279.711 267.5,280.5 Z"/></g>
<g><path style="opacity:1" fill="#115a64" d="M 360.5,280.5 C 360.5,281.167 360.5,281.833 360.5,282.5C 359.883,282.389 359.383,282.056 359,281.5C 357.326,283.009 355.66,283.676 354,283.5C 353.581,282.328 352.915,281.328 352,280.5C 351,281.833 350,281.833 349,280.5C 348.333,282.5 347.667,284.5 347,286.5C 345.333,286.167 343.667,285.833 342,285.5C 341.309,287.891 340.309,287.891 339,285.5C 337.667,285.5 336.333,285.5 335,285.5C 333.108,286.13 331.441,287.13 330,288.5C 328.667,285.833 327.333,285.833 326,288.5C 323.88,286.359 322.047,286.693 320.5,289.5C 317.63,288.567 315.296,286.9 313.5,284.5C 311.128,280.872 311.795,280.205 315.5,282.5C 317.931,282.012 320.431,281.012 323,279.5C 326.528,279.112 329.861,279.112 333,279.5C 334.324,278.12 335.657,277.786 337,278.5C 337.779,277.272 338.779,276.272 340,275.5C 341.422,276.205 342.755,276.539 344,276.5C 344.667,273.833 345.333,273.833 346,276.5C 346.691,274.109 347.691,274.109 349,276.5C 350.333,275.167 351.667,275.167 353,276.5C 353.915,275.672 354.581,274.672 355,273.5C 355.667,276.167 356.333,276.167 357,273.5C 357.317,275.301 357.984,275.634 359,274.5C 359.191,276.708 359.691,278.708 360.5,280.5 Z"/></g>
<g><path style="opacity:1" fill="#124f65" d="M 360.5,282.5 C 360.666,286.846 360.499,291.179 360,295.5C 359.768,296.737 359.268,297.737 358.5,298.5C 358.877,295.475 359.044,292.475 359,289.5C 356.333,289.5 353.667,289.5 351,289.5C 349.209,291.513 347.875,291.513 347,289.5C 346.667,290.167 346.333,290.833 346,291.5C 343.333,291.5 340.667,291.5 338,291.5C 337.333,292.167 336.667,292.833 336,293.5C 333.452,293.534 330.785,293.201 328,292.5C 327.7,294.066 328.2,295.399 329.5,296.5C 326.208,294.542 323.208,292.209 320.5,289.5C 322.047,286.693 323.88,286.359 326,288.5C 327.333,285.833 328.667,285.833 330,288.5C 331.441,287.13 333.108,286.13 335,285.5C 336.333,285.5 337.667,285.5 339,285.5C 340.309,287.891 341.309,287.891 342,285.5C 343.667,285.833 345.333,286.167 347,286.5C 347.667,284.5 348.333,282.5 349,280.5C 350,281.833 351,281.833 352,280.5C 352.915,281.328 353.581,282.328 354,283.5C 355.66,283.676 357.326,283.009 359,281.5C 359.383,282.056 359.883,282.389 360.5,282.5 Z"/></g>
<g><path style="opacity:1" fill="#63ac03" d="M 360.5,215.5 C 360.833,215.5 361.167,215.5 361.5,215.5C 361.333,232.17 361.5,248.837 362,265.5C 369.809,271.154 377.975,276.154 386.5,280.5C 387.167,280.5 387.5,280.833 387.5,281.5C 384.841,286.037 382.175,290.037 379.5,293.5C 380.108,295.684 379.441,297.684 377.5,299.5C 378.326,300.451 378.492,301.451 378,302.5C 376.57,302.694 375.07,302.694 373.5,302.5C 373.704,303.529 373.204,304.529 372,305.5C 365.01,306.61 357.843,306.61 350.5,305.5C 353.758,303.912 356.425,301.579 358.5,298.5C 359.268,297.737 359.768,296.737 360,295.5C 360.499,291.179 360.666,286.846 360.5,282.5C 360.5,281.833 360.5,281.167 360.5,280.5C 360.5,275.5 360.5,270.5 360.5,265.5C 360.5,265.167 360.5,264.833 360.5,264.5C 360.5,261.5 360.5,258.5 360.5,255.5C 360.5,242.167 360.5,228.833 360.5,215.5 Z"/></g>
<g><path style="opacity:1" fill="#6eb016" d="M 215.5,264.5 C 215.5,269.5 215.5,274.5 215.5,279.5C 215.179,285.026 215.512,290.36 216.5,295.5C 219.772,303.803 225.772,306.803 234.5,304.5C 234.167,305.167 233.833,305.833 233.5,306.5C 222.845,312.946 211.512,314.113 199.5,310C 197.934,309.392 196.6,308.558 195.5,307.5C 195.027,306.094 194.027,305.427 192.5,305.5C 191.508,305.672 190.842,305.338 190.5,304.5C 190.027,303.094 189.027,302.427 187.5,302.5C 187.027,301.094 186.027,300.427 184.5,300.5C 177.99,296.747 171.656,292.747 165.5,288.5C 164.71,287.206 163.71,286.039 162.5,285C 168.5,284.667 174.5,284.333 180.5,284C 184.422,283.538 187.755,282.038 190.5,279.5C 198.971,274.763 207.305,269.763 215.5,264.5 Z"/></g>
<g><path style="opacity:1" fill="#1a5679" d="M 252.5,292.5 C 247.167,296.5 241.833,300.5 236.5,304.5C 235.833,304.5 235.167,304.5 234.5,304.5C 225.772,306.803 219.772,303.803 216.5,295.5C 216.5,293.833 216.5,292.167 216.5,290.5C 217.75,290.423 218.583,289.756 219,288.5C 226.422,289.588 233.755,289.588 241,288.5C 241.667,289.167 242.333,289.833 243,290.5C 244.309,288.109 245.309,288.109 246,290.5C 246.691,288.109 247.691,288.109 249,290.5C 251.393,288.006 252.56,288.673 252.5,292.5 Z"/></g>
<g><path style="opacity:1" fill="#104366" d="M 358.5,298.5 C 356.425,301.579 353.758,303.912 350.5,305.5C 348.167,305.5 345.833,305.5 343.5,305.5C 341.544,304.508 339.544,303.508 337.5,302.5C 334.437,300.975 331.77,298.975 329.5,296.5C 328.2,295.399 327.7,294.066 328,292.5C 330.785,293.201 333.452,293.534 336,293.5C 336.667,292.833 337.333,292.167 338,291.5C 340.667,291.5 343.333,291.5 346,291.5C 346.333,290.833 346.667,290.167 347,289.5C 347.875,291.513 349.209,291.513 351,289.5C 353.667,289.5 356.333,289.5 359,289.5C 359.044,292.475 358.877,295.475 358.5,298.5 Z"/></g>
<g><path style="opacity:1" fill="#81b929" d="M 387.5,281.5 C 390.574,283.302 393.908,284.302 397.5,284.5C 402.341,285.532 407.341,285.532 412.5,284.5C 412.5,285.5 412.5,286.5 412.5,287.5C 400.65,295.171 388.65,302.671 376.5,310C 365.318,313.901 354.651,313.068 344.5,307.5C 344.167,306.833 343.833,306.167 343.5,305.5C 345.833,305.5 348.167,305.5 350.5,305.5C 357.843,306.61 365.01,306.61 372,305.5C 373.204,304.529 373.704,303.529 373.5,302.5C 375.07,302.694 376.57,302.694 378,302.5C 378.492,301.451 378.326,300.451 377.5,299.5C 379.441,297.684 380.108,295.684 379.5,293.5C 382.175,290.037 384.841,286.037 387.5,281.5 Z"/></g>
<g><path style="opacity:1" fill="#deecc1" d="M 184.5,300.5 C 186.027,300.427 187.027,301.094 187.5,302.5C 185.973,302.573 184.973,301.906 184.5,300.5 Z"/></g>
<g><path style="opacity:1" fill="#d7e8b2" d="M 187.5,302.5 C 189.027,302.427 190.027,303.094 190.5,304.5C 188.973,304.573 187.973,303.906 187.5,302.5 Z"/></g>
<g><path style="opacity:1" fill="#f0f5e5" d="M 234.5,304.5 C 235.167,304.5 235.833,304.5 236.5,304.5C 236.027,305.906 235.027,306.573 233.5,306.5C 233.833,305.833 234.167,305.167 234.5,304.5 Z"/></g>
<g><path style="opacity:1" fill="#9dbd86" d="M 337.5,302.5 C 339.544,303.508 341.544,304.508 343.5,305.5C 343.833,306.167 344.167,306.833 344.5,307.5C 341.63,306.567 339.296,304.9 337.5,302.5 Z"/></g>
<g><path style="opacity:1" fill="#dbecb9" d="M 192.5,305.5 C 194.027,305.427 195.027,306.094 195.5,307.5C 193.973,307.573 192.973,306.906 192.5,305.5 Z"/></g>
</svg>
