<svg width="348" height="167" viewBox="0 0 348 167" fill="none" xmlns="http://www.w3.org/2000/svg">
<path fill-rule="evenodd" clip-rule="evenodd" d="M157.175 14.5897C156.15 13.5604 154.487 13.5604 153.461 14.5897L120.037 48.1359C119.011 49.1652 119.011 50.834 120.037 51.8633L153.461 85.4096C154.487 86.4388 156.15 86.4388 157.175 85.4096L190.6 51.8633C191.625 50.834 191.625 49.1652 190.6 48.1359L157.175 14.5897ZM159.032 1.54392C156.981 -0.514642 153.655 -0.514641 151.604 1.54392L107.038 46.2723C104.987 48.3308 104.987 51.6684 107.038 53.727L151.604 98.4553C153.655 100.514 156.981 100.514 159.032 98.4553L203.598 53.727C205.649 51.6684 205.649 48.3308 203.598 46.2723L159.032 1.54392Z" fill="#220A33"/>
<mask id="mask0_3284_8635" style="mask-type:alpha" maskUnits="userSpaceOnUse" x="105" y="0" width="101" height="100">
<path fill-rule="evenodd" clip-rule="evenodd" d="M157.175 14.5897C156.15 13.5604 154.487 13.5604 153.461 14.5897L120.037 48.1359C119.011 49.1652 119.011 50.834 120.037 51.8633L153.461 85.4096C154.487 86.4388 156.15 86.4388 157.175 85.4096L190.6 51.8633C191.625 50.834 191.625 49.1652 190.6 48.1359L157.175 14.5897ZM159.032 1.54392C156.981 -0.514642 153.655 -0.514641 151.604 1.54392L107.038 46.2723C104.987 48.3308 104.987 51.6684 107.038 53.727L151.604 98.4553C153.655 100.514 156.981 100.514 159.032 98.4553L203.598 53.727C205.649 51.6684 205.649 48.3308 203.598 46.2723L159.032 1.54392Z" fill="#220A33"/>
</mask>
<g mask="url(#mask0_3284_8635)">
<g filter="url(#filter0_d_3284_8635)">
<path d="M188.968 1.54467C191.019 -0.513893 194.345 -0.513894 196.396 1.54467L240.962 46.273C243.013 48.3316 243.013 51.6692 240.962 53.7277L196.396 98.4561C194.345 100.515 191.019 100.515 188.968 98.4561L144.402 53.7277C142.351 51.6692 142.351 48.3316 144.402 46.273L188.968 1.54467Z" fill="black"/>
</g>
</g>
<path d="M188.968 1.54467C191.019 -0.513893 194.345 -0.513894 196.396 1.54467L240.962 46.273C243.013 48.3316 243.013 51.6692 240.962 53.7277L196.396 98.4561C194.345 100.515 191.019 100.515 188.968 98.4561L144.402 53.7277C142.351 51.6692 142.351 48.3316 144.402 46.273L188.968 1.54467Z" fill="url(#paint0_linear_3284_8635)"/>
<path d="M347.244 164.051C347.244 164.59 346.807 165.026 346.269 165.026H337.481C336.943 165.026 336.507 164.59 336.507 164.051V113.93C336.507 113.392 336.943 112.956 337.481 112.956H346.269C346.807 112.956 347.244 113.392 347.244 113.93V164.051Z" fill="#220A33"/>
<path fill-rule="evenodd" clip-rule="evenodd" d="M307.729 166.079C300.22 166.079 295.861 162.008 295.861 155.833C295.861 149.658 300.22 145.166 310.957 144.044L317.904 143.201C319.589 143.061 320.711 142.079 320.711 140.605C320.711 137.517 318.045 135.482 314.185 135.482C310.252 135.482 307.408 138.006 306.639 141.134C306.506 141.677 306 142.077 305.448 141.992L296.909 140.674C296.403 140.595 296.039 140.137 296.119 139.631C297.216 132.662 304.011 127.693 313.904 127.693C324.431 127.693 331.238 133.237 331.238 142.219V164.051C331.238 164.59 330.801 165.026 330.263 165.026H323.342C322.907 165.026 322.524 164.737 322.405 164.318L320.862 158.888C320.856 158.866 320.836 158.851 320.812 158.851C320.793 158.851 320.776 158.861 320.767 158.878C318.446 163.144 313.751 166.079 307.729 166.079ZM311.799 158.71C316.852 158.71 320.501 155.201 320.501 150.359V149.976C320.501 149.394 319.995 148.942 319.417 149.007L313.624 149.658C307.659 150.359 305.624 152.254 305.624 154.57C305.624 157.026 308.22 158.71 311.799 158.71Z" fill="#220A33"/>
<path d="M255.733 147.061C255.733 158.57 263.522 166.429 275.101 166.429C284.999 166.429 292.539 160.536 293.925 151.785C294.008 151.266 293.636 150.792 293.116 150.719L285.074 149.587C284.532 149.51 284.037 149.898 283.926 150.435C283.027 154.805 279.635 157.728 275.452 157.728C270.259 157.728 266.47 153.447 266.4 147.061C266.4 140.675 269.908 136.394 274.75 136.394C278.119 136.394 281.069 138.547 282.11 142.577C282.253 143.132 282.808 143.499 283.363 143.355L291.198 141.326C291.696 141.197 292.011 140.701 291.886 140.202C290.007 132.696 283.181 127.693 274.47 127.693C263.312 127.693 255.733 135.552 255.733 147.061Z" fill="#220A33"/>
<path d="M251.375 164.051C251.375 164.59 250.939 165.026 250.4 165.026H241.683C241.145 165.026 240.708 164.59 240.708 164.051V130.071C240.708 129.533 241.145 129.096 241.683 129.096H250.4C250.939 129.096 251.375 129.533 251.375 130.071V164.051Z" fill="#220A33"/>
<path d="M201.575 154.791C202.562 162.208 209.794 166.289 219.099 166.289C229.415 166.289 236.573 161.517 236.573 154.079C236.573 148.114 232.713 144.886 223.661 143.272L218.327 142.359C214.047 141.587 212.222 140.465 212.222 138.64C212.292 136.465 214.818 134.71 218.187 134.71C221.607 134.71 224.256 136.253 225.01 138.753C225.171 139.289 225.67 139.695 226.223 139.614L233.364 138.57C233.896 138.492 234.27 137.996 234.144 137.473C232.754 131.686 226.593 127.833 218.538 127.833C209.345 127.833 203.099 132.324 203.099 139.622C203.099 145.517 206.468 148.535 214.397 149.798L219.731 150.64C224.783 151.482 226.959 152.745 226.959 154.921C226.959 157.377 223.731 159.131 219.731 159.131C215.313 159.131 211.829 157.086 210.987 153.796C210.851 153.267 210.372 152.866 209.829 152.927L202.405 153.764C201.89 153.822 201.506 154.277 201.575 154.791Z" fill="#220A33"/>
<path d="M150.668 164.051C150.668 164.59 150.232 165.026 149.693 165.026H140.906C140.368 165.026 139.931 164.59 139.931 164.051V130.071C139.931 129.533 140.368 129.096 140.906 129.096H147.8C148.248 129.096 148.638 129.402 148.746 129.837L150.168 135.586C150.173 135.607 150.192 135.622 150.215 135.622C150.234 135.622 150.252 135.611 150.259 135.592C152.232 130.839 156.995 128.044 162.528 128.044C168.128 128.044 171.843 130.767 173.394 135.866C173.4 135.888 173.421 135.903 173.443 135.903C173.463 135.903 173.481 135.892 173.49 135.875C176.229 130.561 180.994 128.044 186.458 128.044C193.545 128.044 197.756 132.815 197.756 140.956V164.051C197.756 164.59 197.319 165.026 196.781 165.026H187.994C187.455 165.026 187.019 164.59 187.019 164.051V143.342C187.019 139.412 184.843 137.096 181.265 137.096C176.773 137.096 174.177 140.394 174.177 145.307V164.051C174.177 164.59 173.74 165.026 173.202 165.026H164.485C163.947 165.026 163.51 164.59 163.51 164.051V143.342C163.51 139.412 161.335 137.096 157.686 137.096C153.265 137.096 150.668 140.394 150.668 145.307V164.051Z" fill="#220A33"/>
<path d="M132.431 165.026C132.969 165.026 133.406 164.59 133.406 164.051V130.071C133.406 129.533 132.969 129.096 132.431 129.096H123.714C123.175 129.096 122.739 129.533 122.739 130.071V164.051C122.739 164.59 123.175 165.026 123.714 165.026H132.431Z" fill="#220A33"/>
<path d="M91.8735 164.051C91.8735 164.59 91.4371 165.026 90.8988 165.026H82.1113C81.573 165.026 81.1366 164.59 81.1366 164.051V115.802C81.1366 115.264 81.573 114.827 82.1113 114.827H90.8988C91.4371 114.827 91.8735 115.264 91.8735 115.802V135.579C91.8735 135.603 91.8931 135.622 91.9174 135.622C91.9336 135.622 91.9485 135.613 91.9562 135.599C94.5543 130.772 98.9703 128.044 104.645 128.044C112.014 128.044 116.505 132.605 116.505 140.254V164.051C116.505 164.59 116.069 165.026 115.53 165.026H106.743C106.205 165.026 105.768 164.59 105.768 164.051V143.552C105.768 139.482 103.452 136.956 99.7331 136.956C95.1016 136.956 91.8735 140.254 91.8735 145.166V164.051Z" fill="#220A33"/>
<path d="M28.7447 165.026C29.1925 165.026 29.5826 164.721 29.6906 164.286L39.0337 126.708C39.0436 126.668 39.0795 126.64 39.1207 126.64C39.1619 126.64 39.1979 126.668 39.2077 126.708L48.4125 164.283C48.5193 164.719 48.9102 165.026 49.3592 165.026H63.3686C63.8035 165.026 64.1858 164.738 64.3056 164.32L78.0629 116.304C78.2413 115.681 77.7738 115.061 77.1259 115.061H66.9682C66.5215 115.061 66.1321 115.365 66.023 115.798L56.4713 153.73C56.4612 153.77 56.4252 153.798 56.3839 153.798C56.3427 153.798 56.3067 153.77 56.2966 153.73L46.7449 115.798C46.6358 115.365 46.2463 115.061 45.7997 115.061H32.3042C31.8563 115.061 31.4661 115.366 31.3582 115.801L21.9448 153.729C21.9348 153.77 21.8987 153.798 21.8573 153.798C21.8162 153.798 21.7803 153.77 21.77 153.73L12.0108 115.793C11.9 115.362 11.5116 115.061 11.0669 115.061H0.975316C0.327472 115.061 -0.140082 115.681 0.0383565 116.304L13.7956 164.32C13.9154 164.738 14.2977 165.026 14.7326 165.026H28.7447Z" fill="#220A33"/>
<path d="M126.677 111.263C127.439 110.502 128.673 110.502 129.434 111.263L134.948 116.776C135.709 117.538 135.709 118.772 134.948 119.533L129.434 125.047C128.673 125.808 127.439 125.808 126.677 125.047L121.164 119.533C120.403 118.772 120.403 117.538 121.164 116.776L126.677 111.263Z" fill="#220A33"/>
<path d="M244.472 111.263C245.234 110.502 246.468 110.502 247.229 111.263L252.743 116.776C253.504 117.538 253.504 118.772 252.743 119.533L247.229 125.047C246.468 125.808 245.234 125.808 244.472 125.047L238.959 119.533C238.198 118.772 238.198 117.538 238.959 116.776L244.472 111.263Z" fill="#220A33"/>
<defs>
<filter id="filter0_d_3284_8635" x="127.864" y="-14.9993" width="129.636" height="129.999" filterUnits="userSpaceOnUse" color-interpolation-filters="sRGB">
<feFlood flood-opacity="0" result="BackgroundImageFix"/>
<feColorMatrix in="SourceAlpha" type="matrix" values="0 0 0 0 0 0 0 0 0 0 0 0 0 0 0 0 0 0 127 0" result="hardAlpha"/>
<feOffset/>
<feGaussianBlur stdDeviation="7.5"/>
<feColorMatrix type="matrix" values="0 0 0 0 0 0 0 0 0 0 0 0 0 0 0 0 0 0 1 0"/>
<feBlend mode="normal" in2="BackgroundImageFix" result="effect1_dropShadow_3284_8635"/>
<feBlend mode="normal" in="SourceGraphic" in2="effect1_dropShadow_3284_8635" result="shape"/>
</filter>
<linearGradient id="paint0_linear_3284_8635" x1="143" y1="50" x2="240.571" y2="61.8062" gradientUnits="userSpaceOnUse">
<stop stop-color="#4433FF"/>
<stop offset="0.489583" stop-color="#AA33FF"/>
<stop offset="1" stop-color="#E36BFF"/>
<stop offset="1" stop-color="#FF33EE"/>
</linearGradient>
</defs>
</svg>
