<svg height="500" width="500" viewBox="116.5 116.2 265.56 266.8" xmlns="http://www.w3.org/2000/svg">
  <g stroke-linejoin="round" stroke-linecap="round" fill="none" stroke-width="3.5" stroke="#000000">
    <path d="M365.9,235.9l-0.3-0.3l0.1-0.4c6.7-41.9-21.1-53.9-21.3-54l-1.1-0.5l0.1-0.8c5.8-30.2-24.3-40.5-27.7-41.6l-1.1-0.3l-0.2-0.8c-2.8-13.7-18.3-21-31.5-21c-11.7,0-20.6,9.4-23.3,12.5c-2,3.1-3.1,6.7-3.1,10.4v34.5c0,0.5-0.2,2.7,0,6v123.1c0,0,0,0,0,0v59.6c0,5.7,2.6,11.2,6.9,14.6c6.6,5.2,13.4,6.1,17,6.1c1.1,0,2-0.1,2.4-0.1c28.3-0.1,35.4-26,36.1-29.1l0.3-1.3l1.9,0.2c12.8,1.1,23-1.3,30.5-7.2c15.9-12.6,15.2-36.4,15-40l0,0l0-0.5l0.4-0.4c9.3-8.3,14.4-17.9,15-28.6C383.1,256.3,368.8,239.3,365.9,235.9z M378.1,275.7c-0.5,9.6-5.1,18.3-13.6,25.8l-0.1,0.1c-4.3-2.2-19.1-8.3-31,5.4c-0.7,0.8-0.6,2.1,0.2,2.8c0.4,0.3,0.8,0.5,1.3,0.5c0.5,0,1.1-0.2,1.5-0.7c10.4-11.9,23-6.2,26.4-4.4l0,0.5c0,0.2,1.5,24.6-13.5,36.6c-6.6,5.3-15.9,7.4-27.7,6.4l-1.7-0.2c0.4-5.3,0.5-19.4-7.8-30.1c-5.4-6.9-13.3-11-23.5-12.1c-1-0.1-2,0.7-2.2,1.7c-0.1,1.1,0.7,2,1.7,2.2c9.1,1,16.1,4.5,20.8,10.6c9,11.5,6.9,28.5,6.8,29.2l-0.6,3c-0.6,2.7-7,25.9-32.8,26c-0.1,0-8.5,1.3-16.5-5.1c-3.4-2.7-5.4-7-5.4-11.5v-59.1c1.5-3,12.4-24.5,28.2-26.2c1.1-0.1,1.9-1.1,1.8-2.2c-0.1-1.1-1.1-1.9-2.2-1.8c-13.1,1.3-22.8,13.8-27.8,21.9v-99.8c1,2,2.2,3.9,3.8,5.6c4.4,4.8,10.5,7.3,18.1,7.3c1.1,0,2-0.9,2-2c0-1.1-0.9-2-2-2c-6.4,0-11.5-2-15.2-6c-5-5.5-6.4-13.6-6.7-18.9v-40c0-2.9,0.9-5.8,2.4-8.1c2.2-2.6,10.1-10.9,20.1-10.9c11.7,0,25.4,6.3,27.7,17.9l0.4,1.9c0.1,0.7,0.7,1.3,1.4,1.5l2.2,0.7c3.1,1,30.2,10.2,25,37.1l-0.3,1.9c-1.5,2-10.3,13.2-22,14.6c-6.4,0.7-12.7-1.6-18.6-7c-0.8-0.7-2-0.7-2.8,0.1c-0.7,0.8-0.7,2,0.1,2.8c3.7,3.4,7.6,5.7,11.5,7c-3.6,1.8-6.5,4.3-8.7,7.6c-6.2,9.5-3.6,21.5-3.5,22c0.2,0.9,1,1.5,1.9,1.5c1.1-0.2,1.7-1.3,1.5-2.3c-2.3-10.9,3-19c2.9-4.4,7.5-7.3,13.8-8.5c12.1-1.4,21.1-11.6,24-15.2l1.1,0.5c25.1,11,19,49.8l-17.9,24.2c-9.1,4.3-20.6,3-34.1-3.9c8.9,4.6,17,6.9,24.4,6.9c11.9-5.7,17.2-18,19.2-24.2C370,247.4,378.9,260.8,378.1,275.7z"></path>
    <path d="M250,383h-23.2v-29.7l-1.3-0.3c-11.3-2.7-21.8-7.1-31.4-13l-1.1-0.7l-21,21l-32.8-32.7l21-21l-0.7-1.2c-1-1.6-1.9-3.1-2.7-4.7c-4.7-8.4-8.1-17.4-10.3-26.7l-0.3-1.2h-29.7v-46.3h29.7l0.3-1.3c2.6-11,6.9-21.6,13-31.4l0.7-1.1l-21-21l32.8-32.8l21,21l1.1-0.7c3.8-2.4,7.7-4.4,11.9-6.3c3.8-1.8,7.7-3.2,11.4-4.4c2.7-0.8,5.4-1.6,8.2-2.2l1.3-0.3v-29.7H250l0,3.9h-19.3v28.9l-4.3,1c-2.6,0.6-5.3,1.4-7.9,2.1c-3.5,1.2-7.3,2.6-10.9,4.3c-4,1.8-7.7,3.8-11.4,6.1l-3.7,2.4L172,144.3l-27.3,27.3l20.4,20.4l-2.4,3.7c-5.8,9.4-10,19.6-12.5,30.2l-1,4.3h-28.9v38.5h28.9l1,4.3c2.1,9,5.4,17.7,9.9,25.7c0.8,1.5,1.7,3,2.6,4.5l2.3,3.8l-20.4,20.4l27.3,27.2l20.4-20.4l3.7,2.4c9.2,5.7,19.4,10,30.2,12.5l4.3,1v28.9H250z"></path>
    <path d="M250,296.6c-26,0-47.1-21.1-47.1-47.1c0-7.2,1.6-14,4.7-20.4l3.5,1.7c-2.8,5.9-4.3,12.2-4.3,18.7c0,23.8,19.4,43.2,43.2,43.2V296.6z"></path>
    <path d="M172.7,276.7c-3-8.7-4.6-17.8-4.6-27.1c0-45.2,36.7-81.9,81.9-81.9v3.9c-43,0-78,35-78,78c0,8.9,1.5,17.5,4.4,25.8L172.7,276.7z"></path>
    <path d="M250,331.2c-19,0-37.5-6.6-52.1-18.7l2.5-3c13.9,11.5,31.5,17.8,49.6,17.8V331.2z"></path>
  </g>
</svg>
